<?xml version="1.0" encoding="UTF-8" standalone="no"?> <svg xmlns="http://www.w3.org/2000/svg" xmlns:xlink="http://www.w3.org/1999/xlink" viewBox="0 0 512 512"><defs><linearGradient id="linear-gradient" x1="256.96" y1="28.28" x2="256.96" y2="90.81" gradientUnits="userSpaceOnUse"><stop offset="0.01" stop-color="#ffc3b0"/><stop offset="1" stop-color="#e8897b"/></linearGradient></defs><title>castle</title><g id="castle"><path d="M281,35.19s12.56,9.13,25.41,12a2.63,2.63,0,0,1,1.6,4.07,34.29,34.29,0,0,1-14,11.64,9.36,9.36,0,0,1-13-8.67Z" style="fill:#a03774"/><path d="M257,19a121.86,121.86,0,0,1,12.35.71,23.8,23.8,0,0,1,21.3,23.63v9.06a4.69,4.69,0,0,1-5.84,4.57c-6.51-1.68-17.5-3.84-27.81-2.69Z" style="fill:#a03774"/><rect x="251.98" y="18.98" width="9.97" height="75.55" style="fill:url(#linear-gradient)"/><rect x="251.98" y="84.94" width="9.97" height="9.59" style="fill:#c76266"/><polygon points="256.96 209.62 186.46 209.62 186.46 335.07 256.96 335.07 327.47 335.07 327.47 209.62 256.96 209.62" style="fill:#819fea"/><path d="M257,240.62a20.64,20.64,0,0,0-20.64,20.64v17.5h41.29v-17.5A20.65,20.65,0,0,0,257,240.62Z" style="fill:#3d63ad"/><polygon points="186.46 205.96 186.46 227.2 327.47 227.2 327.47 205.96 256.96 205.96 186.46 205.96" style="fill:#466dbc"/><path d="M273.21,87.68v6.84l-16.25,0-16.24,0V87.68a5.19,5.19,0,0,0-5.19-5.19H222.22A5.19,5.19,0,0,0,217,87.68V190.81H296.9V87.68a5.19,5.19,0,0,0-5.19-5.19H278.4A5.19,5.19,0,0,0,273.21,87.68Z" style="fill:#819fea"/><path d="M257,116.07a16.25,16.25,0,0,0-16.24,16.25v8.45h32.49v-8.45A16.25,16.25,0,0,0,257,116.07Z" style="fill:#3d63ad"/><path d="M329.86,162.53H314.47a5.25,5.25,0,0,0-5.24,5.24V181.9H277.85V167.77a5.25,5.25,0,0,0-5.24-5.24H241.32a5.24,5.24,0,0,0-5.24,5.24V181.9H204.7V167.77a5.25,5.25,0,0,0-5.24-5.24H168.68a5.24,5.24,0,0,0-5.24,5.24v44.67H350.49V167.77a5.24,5.24,0,0,0-5.24-5.24Z" style="fill:#c7daff"/><polygon points="256.96 338.83 114.44 338.83 114.44 493.03 256.96 493.03 399.49 493.03 399.49 338.83 256.96 338.83" style="fill:#c7daff"/><polygon points="114.44 338.83 114.44 367.02 399.49 367.02 399.49 338.83 256.96 338.83 114.44 338.83" style="fill:#466dbc"/><path d="M258.71,382.67h0a88.19,88.19,0,0,1,88.19,88.19V493a0,0,0,0,1,0,0H170.52a0,0,0,0,1,0,0V470.87A88.19,88.19,0,0,1,258.71,382.67Z" style="fill:#466dbc"/><path d="M327.65,415.89a88.88,88.88,0,0,0-12.78-13v55.79H296.15V391a87.34,87.34,0,0,0-12.77-4.81v72.46H265.1V382.93c-2.11-.15-4.24-.26-6.39-.26h0c-2.15,0-4.28.11-6.39.26v75.73H233.6V386.32a87.66,87.66,0,0,0-12.77,4.89v67.45H202.54V402.87a89.32,89.32,0,0,0-12.77,13v42.77H171.38a87.74,87.74,0,0,0-.86,12.21v.57h19.25V493h12.77V471.44h18.29V493H233.6V471.44h18.72V493H265.1V471.44h18.28V493h12.77V471.44h18.72V493h12.78V471.44H346.9v-.57a87.74,87.74,0,0,0-.86-12.21H327.65Z" style="fill:#c7daff"/><path d="M375.74,311.84v14.48H352V311.84a4.89,4.89,0,0,0-4.89-4.9H309.37a4.9,4.9,0,0,0-4.9,4.9v14.48H280.72V311.84a4.9,4.9,0,0,0-4.9-4.9H238.11a4.9,4.9,0,0,0-4.9,4.9v14.48H209.46V311.84a4.9,4.9,0,0,0-4.9-4.9H166.84a4.89,4.89,0,0,0-4.89,4.9v14.48H138.19V311.84a4.89,4.89,0,0,0-4.89-4.9H114.44v42H399.49v-42H380.63A4.89,4.89,0,0,0,375.74,311.84Z" style="fill:#c7daff"/><polygon points="121.74 289.12 139.99 493.03 21.17 493.03 35.15 289.12 121.74 289.12" style="fill:#819fea"/><path d="M111.19,242v14.13H89.93V242a5.24,5.24,0,0,0-5.24-5.25H71.42A5.25,5.25,0,0,0,66.18,242v14.13H44.92V242a5.25,5.25,0,0,0-5.24-5.25H26.41A5.24,5.24,0,0,0,21.17,242v47.1H134.94V242a5.24,5.24,0,0,0-5.24-5.25H116.43A5.25,5.25,0,0,0,111.19,242Z" style="fill:#c7daff"/><polygon points="123.6 309.86 121.74 289.12 35.15 289.12 33.73 309.86 123.6 309.86" style="fill:#466dbc"/><path d="M104.38,493V460.46a23.39,23.39,0,0,0-46.78,0V493Z" style="fill:#3d63ad"/><path d="M95.51,389.65H66.46V370.24A14.54,14.54,0,0,1,81,355.71h0a14.53,14.53,0,0,1,14.52,14.53Z" style="fill:#3d63ad"/><polygon points="390.26 289.12 372.01 493.03 490.83 493.03 476.85 289.12 390.26 289.12" style="fill:#819fea"/><path d="M400.81,242v14.13h21.26V242a5.24,5.24,0,0,1,5.24-5.25h13.27a5.25,5.25,0,0,1,5.24,5.25v14.13h21.26V242a5.25,5.25,0,0,1,5.24-5.25h13.27a5.24,5.24,0,0,1,5.24,5.25v47.1H377.06V242a5.24,5.24,0,0,1,5.24-5.25h13.27A5.25,5.25,0,0,1,400.81,242Z" style="fill:#c7daff"/><polygon points="388.4 309.86 390.26 289.12 476.85 289.12 478.27 309.86 388.4 309.86" style="fill:#466dbc"/><path d="M407.63,493V460.46a23.39,23.39,0,1,1,46.77,0V493Z" style="fill:#3d63ad"/><path d="M416.49,389.65h29.05V370.24A14.54,14.54,0,0,0,431,355.71h0a14.53,14.53,0,0,0-14.52,14.53Z" style="fill:#3d63ad"/></g></svg>