<?xml version="1.0" encoding="UTF-8" standalone="no"?> <svg xmlns="http://www.w3.org/2000/svg" xmlns:xlink="http://www.w3.org/1999/xlink" viewBox="0 0 512 512"><defs><linearGradient id="linear-gradient" x1="120.51" y1="371.44" x2="423.72" y2="371.44" gradientUnits="userSpaceOnUse"><stop offset="0" stop-color="#a06260"/><stop offset="1" stop-color="#82494c"/></linearGradient><linearGradient id="linear-gradient-2" x1="172.02" y1="115.16" x2="172.02" y2="338.26" gradientUnits="userSpaceOnUse"><stop offset="0.01" stop-color="#ffc3b0"/><stop offset="1" stop-color="#e8897b"/></linearGradient><linearGradient id="linear-gradient-3" x1="170.86" y1="38.63" x2="170.86" y2="130.15" xlink:href="#linear-gradient-2"/><linearGradient id="linear-gradient-4" x1="136.6" y1="116.79" x2="205.12" y2="116.79" xlink:href="#linear-gradient"/></defs><title>centaur</title><g id="centaur"><path d="M140.26,80.4h-2.84a10.59,10.59,0,0,1-10.59-10.59h0a10.59,10.59,0,0,1,10.59-10.58h2.84Z" style="fill:#e8897b"/><path d="M201.46,80.4h2.85a10.59,10.59,0,0,0,10.58-10.59h0a10.58,10.58,0,0,0-10.58-10.58h-2.85Z" style="fill:#e8897b"/><path d="M400.09,315.14s1.11-15.17,13-24.54c14.77-11.61,37.05-7.54,47,8.39,5.07,8.1,8.37,20.3,6,38.62A77.3,77.3,0,0,1,463.3,350c-2,6.74-4.83,19.47,1.41,24.31a11.61,11.61,0,0,1,4.85,9.05V384a10.75,10.75,0,0,1-1.94,6.21c-2.87,4.07-8.95,10.59-18.42,10.59,0,0-25.75,2.25-33.54-24.63Z" style="fill:#f9c8b2"/><path d="M409.51,352.05l6.15,24.1c7.79,26.88,33.54,24.63,33.54,24.63,9.47,0,15.55-6.52,18.42-10.59a10.75,10.75,0,0,0,1.94-6.21v-.63a11.61,11.61,0,0,0-4.85-9.05c-6.24-4.84-3.45-17.57-1.41-24.31a77.3,77.3,0,0,0,2.82-12.38c2.38-18.32-.93-30.52-6-38.62a32.06,32.06,0,0,0-19.65-14.05C443.12,303.08,442.79,336.47,409.51,352.05Z" style="fill:#ce957d"/><path d="M314.21,390.08s46.71,47.91,14.38,95.81a43.51,43.51,0,0,0-3.43,8.26,7.94,7.94,0,0,0,7.6,10.21H371s28.81-62.78-8.92-114.28Z" style="fill:#56232b"/><path d="M331.86,480.5c-1,1.8-2.06,3.6-3.27,5.39a43.51,43.51,0,0,0-3.43,8.26,7.94,7.94,0,0,0,7.6,10.21H371a127.08,127.08,0,0,0,7.39-23.86Z" style="fill:#333345"/><path d="M176,245.42l-55.51,15.41v134a33.66,33.66,0,0,0,1.46,9.92c4,12.87,13.83,51.68,2.79,88.15a8.87,8.87,0,0,0,8.47,11.48h27a11.7,11.7,0,0,0,9.85-5.31,83.39,83.39,0,0,0,11.39-28.72c.38-1.89-1.56-34.85-3.83-57.22a14.79,14.79,0,0,1,14.73-16.27h15.1a14.79,14.79,0,0,1,14.76,13.67c1.59,20.8,3,60.48-6.28,84.38a7,7,0,0,0,6.5,9.47h27.92a12.87,12.87,0,0,0,11.42-6.86c3.29-6.25,7.8-15.89,9.93-25.21a19.21,19.21,0,0,0,.42-5l-2-60a10.66,10.66,0,0,1,10.66-11h60.53A18.46,18.46,0,0,1,356,403.56c10.48,13.67,28.34,45.92,7.85,89.18A8.08,8.08,0,0,0,371,504.36h25.73a10.9,10.9,0,0,0,9.1-4.83c4.85-7.25,13.51-22.08,17.44-40.46a19.56,19.56,0,0,0-2.14-13.6l-1-1.72a19.73,19.73,0,0,1-2.52-9.64V350.48h0a55.06,55.06,0,0,0-34.87-51.23l-154-60.73Z" style="fill:url(#linear-gradient)"/><path d="M215.92,494.89a7,7,0,0,0,6.5,9.47h27.92a12.87,12.87,0,0,0,11.42-6.86c3.29-6.25,7.8-15.89,9.93-25.21a19.21,19.21,0,0,0,.42-5L270.66,424c-6.58,18.33-21.73,49.1-51.28,59.19A84.23,84.23,0,0,1,215.92,494.89Z" style="fill:#773e41"/><path d="M420.21,443.75a19.73,19.73,0,0,1-2.52-9.64V350.48a55,55,0,0,0-17.18-40c-4.08,19.88-21.86,68.1-98.78,85.82h39.56A18.46,18.46,0,0,1,356,403.56c10.48,13.67,28.34,45.92,7.85,89.18A8.08,8.08,0,0,0,371,504.36h25.73a10.9,10.9,0,0,0,9.1-4.83c4.85-7.25,13.51-22.08,17.44-40.46a19.56,19.56,0,0,0-2.14-13.6Z" style="fill:#773e41"/><path d="M178.88,427.08c-4.61,15.35-17.41,42.59-52,57.73-.6,2.7-1.26,5.39-2.07,8.07a8.87,8.87,0,0,0,8.47,11.48h27a11.7,11.7,0,0,0,9.85-5.31,83.39,83.39,0,0,0,11.39-28.72C181.75,468.81,180.54,447.14,178.88,427.08Z" style="fill:#773e41"/><path d="M199.41,377.48a23.19,23.19,0,0,0-23.25,23.83,67.92,67.92,0,0,0,1.45,11.8,14.79,14.79,0,0,1,14.73-16.27h15.1a14.79,14.79,0,0,1,14.76,13.67,86,86,0,0,0,.47-10.3A23.22,23.22,0,0,0,199.41,377.48Z" style="fill:#773e41"/><path d="M350,286.29,228.79,238.52l-8.8,1.15c-3.61,16.16-8.44,30.61-14.87,38.69C205.12,278.36,301.33,316.21,350,286.29Z" style="fill:#773e41"/><path d="M291,136.25c-9.4-15.61-27.32-32.27-61-32.27H113.61v0c-10.2.43-52.21,5-67.19,51.05-6.57,20.17-5.34,43.87,6.18,61.68,8.19,12.66,23.34,25.57,46.54,29.3a14.62,14.62,0,0,0,16.71-15.17l0-.39a14.82,14.82,0,0,0-9.54-13.13c-10.38-4.06-22.39-12.18-21.78-32,.84-27.67,24.66-33.19,31.37-34.21l4.63,109.67s29.23,20.52,54.68,31.72a16.28,16.28,0,0,0,17.21-2.69c11.37-9.89,32.2-29,39.58-42.35l-2-96.67v-1.25s20.78,2.64,29.65,19.57a31.55,31.55,0,0,1,3.14,19.29c-1.12,7.43-5,17.23-17.22,22.28a15.83,15.83,0,0,0-10,14.55,15.58,15.58,0,0,0,19.07,15.25c18.57-4.49,41.06-17.17,46.07-52.94C303.24,169.85,300.25,151.59,291,136.25Z" style="fill:url(#linear-gradient-2)"/><path d="M146.48,192.13h-8.75a3.18,3.18,0,0,1-3.18-3.18h0a3.18,3.18,0,0,1,3.18-3.19h8.75a3.18,3.18,0,0,1,3.18,3.19h0A3.18,3.18,0,0,1,146.48,192.13Z" style="fill:#e8897b"/><path d="M208.65,192.13h-8.74a3.18,3.18,0,0,1-3.19-3.18h0a3.19,3.19,0,0,1,3.19-3.19h8.74a3.19,3.19,0,0,1,3.19,3.19h0A3.18,3.18,0,0,1,208.65,192.13Z" style="fill:#e8897b"/><path d="M213.33,123.12V104h-48v47.78h19.37A28.64,28.64,0,0,0,213.33,123.12Z" style="fill:#e8897b"/><path d="M232,247.51l-1.83-89.84s-4.05,94.33-25,120.69h0C215.47,268.6,226.91,256.7,232,247.51Z" style="fill:#e8897b"/><path d="M170.86,153.17h0a34.26,34.26,0,0,1-34.26-34.26v-77A34.25,34.25,0,0,1,170.86,7.64h0a34.25,34.25,0,0,1,34.26,34.25v77A34.26,34.26,0,0,1,170.86,153.17Z" style="fill:url(#linear-gradient-3)"/><path d="M136.6,114.66v3.08c0,18.25,13.77,34.18,32,35.36a34.27,34.27,0,0,0,36.54-34.19v-4.25A34.26,34.26,0,0,0,170.86,80.4h0A34.26,34.26,0,0,0,136.6,114.66Z" style="fill:url(#linear-gradient-4)"/><path d="M163.74,59.23A5.21,5.21,0,1,1,158.53,54,5.21,5.21,0,0,1,163.74,59.23Z" style="fill:#333345"/><path d="M188.41,59.23A5.22,5.22,0,1,1,183.19,54,5.22,5.22,0,0,1,188.41,59.23Z" style="fill:#333345"/><path d="M133.23,504.36h27a11.7,11.7,0,0,0,9.85-5.31,81.11,81.11,0,0,0,8.71-18.55H127.7a112.2,112.2,0,0,1-2.94,12.38A8.87,8.87,0,0,0,133.23,504.36Z" style="fill:#4d4d5f"/><path d="M222.42,504.36h27.92a12.87,12.87,0,0,0,11.42-6.86,129.33,129.33,0,0,0,7.51-17H220a88.36,88.36,0,0,1-4.06,14.39A7,7,0,0,0,222.42,504.36Z" style="fill:#4d4d5f"/><path d="M368.72,480.5a104.07,104.07,0,0,1-4.9,12.24A8.08,8.08,0,0,0,371,504.36h25.73a10.9,10.9,0,0,0,9.1-4.83,127,127,0,0,0,10.38-19Z" style="fill:#4d4d5f"/></g></svg>