<?xml version="1.0" encoding="UTF-8" standalone="no"?> <svg xmlns="http://www.w3.org/2000/svg" xmlns:xlink="http://www.w3.org/1999/xlink" viewBox="0 0 512 512"><defs><linearGradient id="linear-gradient" x1="321.35" y1="251.25" x2="370.08" y2="325.51" gradientUnits="userSpaceOnUse"><stop offset="0" stop-color="#c5c391"/><stop offset="1" stop-color="#dee0b1"/></linearGradient><linearGradient id="linear-gradient-2" x1="135.99" y1="195.16" x2="98.86" y2="120.13" xlink:href="#linear-gradient"/><linearGradient id="linear-gradient-3" x1="228.17" y1="161.14" x2="231.27" y2="65.99" xlink:href="#linear-gradient"/><linearGradient id="linear-gradient-4" x1="269.66" y1="98.09" x2="269.66" y2="726.07" gradientUnits="userSpaceOnUse"><stop offset="0" stop-color="#ff88c5"/><stop offset="1" stop-color="#d569a2"/></linearGradient><linearGradient id="linear-gradient-5" x1="115.97" y1="420.62" x2="566.62" y2="334.59" xlink:href="#linear-gradient-4"/></defs><title>dragon</title><g id="dragon"><path d="M324.54,210.73s29.71,11.4,49.45,28.46a8,8,0,0,1,1.76,9.95c-3.2,5.55-5.71,15,6.08,23.67,0,0,26.64,18.18,39.91,38.53a8,8,0,0,1-2.51,10.91c-3.38,2.34-6.45,6.86-5.19,15.52,2.53,17.32,6.67,77.23-32.21,98.52,0,0,36.91-107.18-55.48-167.45Z" style="fill:url(#linear-gradient)"/><path d="M18,30.58C51.35,34.12,115.7,49,150.65,110a18.24,18.24,0,0,1,1.58,14.46c-5.22,16.8-15.77,59.72,2.39,86.26l-9.19,8.3s-16.68-15.32-40.05-20a7.88,7.88,0,0,1-6.19-9.62c3.45-13.69,2.94-40.68-47.08-54.78a7.84,7.84,0,0,1-5.72-8.27C48,110,48.32,67.08,14,40.16,9.81,36.86,12.67,30,18,30.58Z" style="fill:url(#linear-gradient-2)"/><path d="M252.32,6.93c-21.64,14.93-60.39,49.26-61.6,104.37A14.29,14.29,0,0,0,195,121.84c9.89,9.62,33.23,35.22,30.66,60.3l9.43,2.27s5.75-16.8,20.08-28.78a6.17,6.17,0,0,0,.66-8.94c-7.5-8.14-17.25-26.91,11.91-55.35a6.15,6.15,0,0,0,.85-7.84c-7.18-10.64-23.52-40.08-10-71.45A4.24,4.24,0,0,0,252.32,6.93Z" style="fill:url(#linear-gradient-3)"/><path d="M464.86,149c-6.53-40-31.68-60.58-55.81-71.11a119.52,119.52,0,0,0-107.83,6.42c-45,26.27-60.18,73.54-63.93,88.14a5.88,5.88,0,0,1-5.71,4.42h0a158,158,0,0,0-158,158v3.71A111.29,111.29,0,0,0,184.83,449.94h47.24A103.63,103.63,0,0,0,335.7,346.32v-173a28.57,28.57,0,0,1,28.58-28.58h1.94a15.48,15.48,0,0,1,15.48,15.48v30.09a10,10,0,0,0,4,8c7.1,5.33,21.26,19.51,23,48.74a6.38,6.38,0,0,0,6.35,6h17.33a6.39,6.39,0,0,0,6.35-6c1.73-29.23,15.89-43.41,23-48.74a10,10,0,0,0,4-8V154.65A19,19,0,0,0,464.86,149Z" style="fill:url(#linear-gradient-4)"/><path d="M335.7,173.34a28.45,28.45,0,0,1,2.63-11.93l-55.39,13.87s-41.68,132.06-129,133.22c0,0-55.13,5.2-52.15-63.68a157.32,157.32,0,0,0-28.24,90.12v3.71A111.29,111.29,0,0,0,184.83,449.94h47.24A103.63,103.63,0,0,0,335.7,346.32Z" style="fill:#ce629d"/><path d="M342.55,128.41s-59.58,0-61.76,63.63V329.51a80.23,80.23,0,0,1-11.16,41.08c-16.57,27.8-54.74,69.23-134.53,67.62a110.82,110.82,0,0,0,49.73,11.73h47.24A103.63,103.63,0,0,0,335.7,346.32v-173a28.57,28.57,0,0,1,28.58-28.58h1.94a15.48,15.48,0,0,1,15.48,15.48v3.81S386.18,128.41,342.55,128.41Z" style="fill:#eacfe8"/><path d="M364.28,144.76h1.94a15.48,15.48,0,0,1,15.48,15.48v3.81s4.48-35.64-39.15-35.64c0,0-59.58,0-61.76,63.63v16.37c10.69-29.11,28-29.14,28-29.14,16-.73,23.49,8.73,26.92,16V173.34A28.57,28.57,0,0,1,364.28,144.76Z" style="fill:#bf9dba"/><path d="M335.7,346.32v-38a98,98,0,0,1-8.4,23c-9.34,17.29-33,20.39-45.64,5.35-.37-.44-.72-.94-1.08-1.41a79.74,79.74,0,0,1-10.95,35.35c-16.57,27.8-54.74,69.23-134.53,67.62a110.82,110.82,0,0,0,49.73,11.73h47.24A103.63,103.63,0,0,0,335.7,346.32Z" style="fill:#bf9dba"/><path d="M465.79,179.86s13.72,3,23.73-10.33a22.05,22.05,0,0,0,4.05-10.76c.54-4.63,2-11.9,5.83-17.52a3.17,3.17,0,0,0-3.06-5,44.32,44.32,0,0,0-30.55,19.31Z" style="fill:#ce629d"/><path d="M381.83,179.86s-13.73,3-23.73-10.33A22,22,0,0,1,354,158.77c-.53-4.63-2-11.9-5.83-17.52a3.18,3.18,0,0,1,3.07-5,44.34,44.34,0,0,1,30.55,19.31Z" style="fill:#ce629d"/><path d="M382.64,158.18h0A11.68,11.68,0,0,1,371,146.49V131.83a26.66,26.66,0,0,0-2.41-11.19,52.57,52.57,0,0,0-9.27-13.5,9.94,9.94,0,0,1-2.6-5.37c-1-7.13-2.16-24.68,6.71-38.09a3.57,3.57,0,0,1,6.51,2c0,1.56,0,3.26.11,5.06.6,13.9,6,27,14.31,38.16,5,6.71,10.92,18.85,10,38.33A11.61,11.61,0,0,1,382.64,158.18Z" style="fill:#e3f3ff"/><path d="M335.7,262.33v82.9A94.15,94.15,0,0,1,328,383.32c-8.61,19.47-26.72,41.76-64.58,43.47,0,0-35.29,1.53-61.74-7.13-14.93-4.9-30.35-8.34-46.06-8.73-25.8-.63-59.53,5.25-85.8,33.32a8.56,8.56,0,0,0,7.24,14.42c19.43-2.5,48.45-3.42,70.61,8.05a54.47,54.47,0,0,1,6.11,3.84c12.23,8.51,65.51,42.42,127,33.91,0,0,87.15-2.68,113.92-83a133.69,133.69,0,0,0-.86-85.9C385.39,311.15,368.65,280.91,335.7,262.33Z" style="fill:url(#linear-gradient-5)"/><path d="M393.85,335.57c-8.46-24.42-25.2-54.66-58.15-73.24v82.9A94.15,94.15,0,0,1,328,383.32c-.27.61-.58,1.22-.86,1.84-8.75,87.21-70.62,109.38-110.51,114.51,19.06,5.19,41,8,64.17,4.8,0,0,87.15-2.68,113.92-83A133.69,133.69,0,0,0,393.85,335.57Z" style="fill:#ce629d"/><path d="M464.86,149c-.32-2-.73-3.87-1.14-5.76-2.91,19.86-14.29,23.93-21.56,30.44-5.53,4.95-10.62,11.91-10.62,19.48h0a27.55,27.55,0,0,0,3.6,10.2c3.06,5.22,6,14.73,5.17,31.68,4.27-21.32,15.49-32.32,21.52-36.83a9.83,9.83,0,0,0,4-7.92V154.65A19,19,0,0,0,464.86,149Z" style="fill:#ce629d"/><path d="M398.83,175a27.45,27.45,0,0,0,2.46,10.69,14.31,14.31,0,0,0,8.82,7.14l2.44.75a3,3,0,0,0,3.49-4.2,51.36,51.36,0,0,0-13.28-16.28A2.4,2.4,0,0,0,398.83,175Z" style="fill:#fff"/><path d="M450.93,175a27.45,27.45,0,0,1-2.46,10.69,14.31,14.31,0,0,1-8.82,7.14l-2.44.75a3,3,0,0,1-3.49-4.2A51.36,51.36,0,0,1,447,173.13,2.4,2.4,0,0,1,450.93,175Z" style="fill:#fff"/><path d="M464.73,158.18h0a11.68,11.68,0,0,0,11.68-11.69V131.83a26.66,26.66,0,0,1,2.41-11.19,52.57,52.57,0,0,1,9.27-13.5,9.94,9.94,0,0,0,2.6-5.37c1-7.13,2.16-24.68-6.71-38.09a3.57,3.57,0,0,0-6.51,2c0,1.56,0,3.26-.11,5.06-.59,13.9-6,27-14.31,38.16-5,6.71-10.92,18.85-10,38.33A11.61,11.61,0,0,0,464.73,158.18Z" style="fill:#e3f3ff"/></g></svg>