<?xml version="1.0" encoding="UTF-8" standalone="no"?> <svg xmlns="http://www.w3.org/2000/svg" xmlns:xlink="http://www.w3.org/1999/xlink" viewBox="0 0 512 512"><defs><linearGradient id="linear-gradient" x1="408.2" y1="75.59" x2="68.08" y2="313.45" gradientUnits="userSpaceOnUse"><stop offset="0" stop-color="#ffb77f"/><stop offset="1" stop-color="#c6753e"/></linearGradient><linearGradient id="linear-gradient-2" x1="258.63" y1="213.16" x2="206.7" y2="304.03" xlink:href="#linear-gradient"/></defs><title>dragon_egg</title><g id="dragon_egg"><path d="M188.32,143.62s21.6,10.5,44.59,2.81a6.8,6.8,0,0,1,8.73,5c3.06,13.23,8.37,41.11,5.73,66.27l18.09,8.93s24.88,13.35,46.13,0l-25.78,40s-38.44-71-111.26-83.67Z" style="fill:#632e54"/><path d="M266.58,231.22s14-49.54,65.76-55.67l-60.06-27.62L232.63,199Z" style="fill:#fff4b2"/><path d="M332.34,172.1s13.15-43,58.3-41.24c37.12,1.42,60.16,21.39,69.26,32.68a1.2,1.2,0,0,0,2.1-1.06c-8.48-27.93-49.63-130.53-194.11-118L257.81,58.93l17.54,80.67Z" style="fill:#fff4b2"/><path d="M247.55,72.72c8,27.35,17.92,84-20,122.78l9.29,6.38s11.52-11.28,23.55-30.45a22,22,0,0,1,26.6-9l47.35,18.22a4.56,4.56,0,0,0,5.74-2.27h0a4.56,4.56,0,0,0-1.78-5.91l-51.73-30.67a22.16,22.16,0,0,1-10.8-17.57c-.91-13.09-3.3-35-9.59-53a16.43,16.43,0,0,1,2.65-15.54l.12-.17A17.06,17.06,0,0,1,281,49c29.46-2.24,136.42-1.1,180.8,126.7A3.5,3.5,0,0,0,465.1,178h0a3.49,3.49,0,0,0,3.48-3.93c-3.11-24-27.16-149-189.61-144.31a33.76,33.76,0,0,0-25.42,12.59h0A33.51,33.51,0,0,0,247.55,72.72Z" style="fill:url(#linear-gradient)"/><path d="M236.82,201.88a156.25,156.25,0,0,0,13.36-15.7,47.86,47.86,0,0,1-12.69-2.79,91.23,91.23,0,0,1-10,12.11Z" style="fill:#c6753e"/><path d="M176.5,169.38S273.55,181.86,295,276.62v60.51H141S146.35,230.9,176.5,169.38Z" style="fill:url(#linear-gradient-2)"/><path d="M235.55,295l-36-26a5.92,5.92,0,0,1-.75-8.94L213.62,245a6.76,6.76,0,0,0-.9-10.25c-10.2-7.24-30.93-22-51-36.48-20,61-24,138.89-24,138.89H238.91Z" style="fill:#c6753e"/><path d="M74.05,402.72s23.72,79.62,126.33,79.62c0,0,93.49,0,109.66-79.62C310,402.72,210.92,376.59,74.05,402.72Z" style="fill:#af6d94"/><path d="M286.06,398h0l-1-.15-3.18-.5-1.63-.25-.52-.08h0c-27.46-4.07-72.09-8.17-127.72-4.34l5.22,34.15s17.34-5.51,26.44-9a7.72,7.72,0,0,1,7.21.83c7,4.89,23.8,15.84,37.92,20a7.44,7.44,0,0,0,4.66-.2c6.35-2.31,24.47-9.27,38.29-18.2-9,20.13-26.39,45.94-59.18,61.25,25.85-3.1,84.93-16.93,97.48-78.72C310,402.72,301.5,400.48,286.06,398Z" style="fill:#632e54"/><path d="M52.07,347.14s-3.21,39.71,14.83,69.43a16.66,16.66,0,0,0,2.26,2.89,127.52,127.52,0,0,0,12.19,11.17,6.91,6.91,0,0,0,9.78-1.24c4.49-5.92,12.19-15.37,19-20.3a6.54,6.54,0,0,1,8,.13c6.14,4.91,19.87,15.06,34.13,20.23a6.73,6.73,0,0,0,5.95-.77c5.77-3.79,19.15-12.74,27.59-19.56a6.45,6.45,0,0,1,7.66-.31c7,4.69,21.91,14.07,34,17.84a6.83,6.83,0,0,0,6.18-1c6-4.46,20.46-15.51,28.46-23.69a6.45,6.45,0,0,1,8.49-.6c6.79,5.13,19.45,14.91,29.2,23.69a6.85,6.85,0,0,0,9.24,0c4.08-3.74,9.84-9.1,13-12.44a15.62,15.62,0,0,0,2.82-4.09c4.06-8.57,18.42-41.68,13.06-71.71V320.18l-157.6,10.37L70.32,337.6Z" style="fill:#af6d94"/><path d="M337.83,336.77V320.18l-25.51,1.68h0l-132.09,8.69-54,3.46L140.75,363s15.71-8,24.76-12.79a5.85,5.85,0,0,1,7,1.12c5.63,5.86,18.82,18.4,36.26,27.31a5.78,5.78,0,0,0,6.15-.61c5.25-4.05,16.53-13.09,24.34-21.9a5.8,5.8,0,0,1,8.36-.26c5.27,5.1,13.92,13.72,19.45,20.64a5.77,5.77,0,0,0,7.39,1.36A67.65,67.65,0,0,0,282.9,372a145,145,0,0,1-11.33,30.2c7,5.3,18.85,14.52,28.13,22.86a6.81,6.81,0,0,0,9.19,0c4.1-3.75,9.88-9.13,13.08-12.48a15,15,0,0,0,2.78-4.05C328.81,400,343.2,366.83,337.83,336.77Z" style="fill:#7c3e65"/><path d="M69.91,239.31s-27.86,43.12-26.47,98.24A20,20,0,0,0,48.2,350a208.41,208.41,0,0,0,15.27,16.18,4,4,0,0,0,5.35.13c5.64-5,19.26-16.66,30.32-23.12a2.76,2.76,0,0,1,3.34.45c4.2,4.17,17,16.09,33.91,24a3.92,3.92,0,0,0,4.29-.65c4.93-4.44,18.25-16.68,26.88-27.05a2.81,2.81,0,0,1,4.07-.33c5.81,5.27,22.2,19.61,37.09,27.73a3.91,3.91,0,0,0,4.69-.76c5.16-5.36,18.65-19.84,25.73-31.83a2.79,2.79,0,0,1,4.26-.64c5.74,5.12,19.42,17.66,26.09,26.5a3.92,3.92,0,0,0,5.79.53c6.11-5.6,18.88-18.14,24.92-30.38a2.81,2.81,0,0,1,4.48-.76c5.27,5.11,16.42,16.41,22.88,26.73a4,4,0,0,0,6.95-.29,138.77,138.77,0,0,1,10.1-17.74,19.4,19.4,0,0,0,3.18-13.4c-1.67-13.87-6.3-42.11-17.43-58.06a5.89,5.89,0,0,0-4.36-2.43c-11-.94-52.71-5.26-72.18-18.17a6.68,6.68,0,0,0-6.14-.59L210.5,260.46s15.35,10.78,18.67,14.93c0,0,1.24,31.52-.83,41.89,0,0-4.56-18.66-10-27,0,0-25.71-8.71-37.32-32.76l-4.56-18.25Z" style="fill:#af6d94"/><path d="M334.51,356.44a138.77,138.77,0,0,1,10.1-17.74,19.4,19.4,0,0,0,3.18-13.4c-1.67-13.87-6.3-42.11-17.43-58.06a5.89,5.89,0,0,0-4.36-2.43c-10-.85-45.06-4.5-66.07-14.77,10.51,18.82,29.07,60.12,21,105.67,6.45-6.46,14.74-15.79,19.26-24.95a2.81,2.81,0,0,1,4.48-.76c5.27,5.11,16.42,16.41,22.88,26.73A4,4,0,0,0,334.51,356.44Z" style="fill:#7c3e65"/><path d="M170.11,267l12.42,10a3.81,3.81,0,0,0,5.41-.63l3.26-4.22a58.74,58.74,0,0,1-10.14-14.61l-4.56-18.25H150.59L135.11,277.9s18-4.89,29.79-11.41A4.69,4.69,0,0,1,170.11,267Z" style="fill:#7c3e65"/><path d="M309.24,221.34,279.9,261.2a5.39,5.39,0,0,0,1.63,7.89c7.49,4.3,21.36,12.11,30.2,16.11a6,6,0,0,0,6.55-1C323,280,332.14,271.44,337,264.34a7,7,0,0,0,.64-6.65c-2.95-7.17-10.72-24.22-22.4-36.67A3.92,3.92,0,0,0,309.24,221.34Z" style="fill:#7c3e65"/><path d="M69.22,287.8c-2.84,3.45-6.12,9.31-7.61,18.84a17.71,17.71,0,0,0,0,5.39,18.38,18.38,0,0,0,4,9.18,3.67,3.67,0,0,0,5.31.24A40.79,40.79,0,0,0,74.13,318a18.59,18.59,0,0,0,4.1-9.65,47.17,47.17,0,0,0-1.57-19.16A4.32,4.32,0,0,0,69.22,287.8Z" style="fill:#efc3eb"/><path d="M93.13,172.12s-24.8,37.2-36.19,63.66a19.85,19.85,0,0,0-1.5,6,151,151,0,0,0-.65,19.72,7.06,7.06,0,0,0,10.33,6c9.61-5.07,24.58-12.8,34.73-17.16a4,4,0,0,1,5.2,2c2.86,5.87,9.74,18,21.33,26.58a11.43,11.43,0,0,0,13.35.24c6.74-4.67,17.59-13,26.47-23.54a3.15,3.15,0,0,1,4.85-.05c2.37,2.82,6.14,7.2,9.79,11a3.61,3.61,0,0,0,5.56-.42c5.16-7.37,17.58-24.9,28.12-38.31a4.68,4.68,0,0,0-1-6.69L174,192.44S127.14,171.29,93.13,172.12Z" style="fill:#af6d94"/><path d="M174,192.44A304.77,304.77,0,0,0,133.09,178v4.55s.35,12.62,22.51,33.49a5.8,5.8,0,0,0,6.77.91l25.95-14.18Z" style="fill:#7c3e65"/><path d="M95.17,204.59c-4.16,2.77-9.56,8-14.25,17.7a19.78,19.78,0,0,0-1.76,5.77,20.46,20.46,0,0,0,1.35,11.12,4.11,4.11,0,0,0,5.61,2,45.15,45.15,0,0,0,4.52-2.63,20.75,20.75,0,0,0,7.5-9,52.62,52.62,0,0,0,4.53-21A4.83,4.83,0,0,0,95.17,204.59Z" style="fill:#efc3eb"/><path d="M169.58,102.66c-17.47,6.1-60.66,24.5-79,62.32l-3.23,21.54a6.72,6.72,0,0,0,9,7.29c10.06-3.86,20.46-7.92,32.64-9.6a4.12,4.12,0,0,1,4,1.84c2.92,4.5,10.37,15,20.07,21.73a7.16,7.16,0,0,0,7.27.48l12-6a11.76,11.76,0,0,0,6.08-7.44c2.72-10.08,9.53-32.83,18.68-46a8,8,0,0,0,.32-8.8c-4.6-7.32-13.4-21.85-18-32.93A7.85,7.85,0,0,0,169.58,102.66Z" style="fill:#af6d94"/><path d="M145.32,131c-5.6,1-13.58,4-22.87,12a22.19,22.19,0,0,0-4.45,5.21,23.4,23.4,0,0,0-3.63,12.22,4.67,4.67,0,0,0,5,4.6,52.29,52.29,0,0,0,5.91-.7,23.57,23.57,0,0,0,11.9-6,60,60,0,0,0,14.23-19.87A5.49,5.49,0,0,0,145.32,131Z" style="fill:#efc3eb"/></g></svg>