<?xml version="1.0" encoding="UTF-8" standalone="no"?> <svg xmlns="http://www.w3.org/2000/svg" xmlns:xlink="http://www.w3.org/1999/xlink" viewBox="0 0 512 512"><defs><linearGradient id="linear-gradient" x1="140.45" y1="449.01" x2="140.45" y2="277.41" gradientUnits="userSpaceOnUse"><stop offset="0" stop-color="#cc5697"/><stop offset="1" stop-color="#8e3979"/></linearGradient><linearGradient id="linear-gradient-2" x1="371.55" y1="444.31" x2="371.55" y2="284.25" xlink:href="#linear-gradient"/></defs><title>steel_helm</title><g id="steel_helm"><circle cx="256" cy="51.26" r="8.63" transform="translate(-0.13 101.87) rotate(-22.5)" style="fill:#c7daff"/><path d="M237.9,57.42s-113.11,5.35-113.11,144H237.9Z" style="fill:#fff"/><path d="M274.1,57.42s113.11,5.35,113.11,144H274.1Z" style="fill:#c7daff"/><path d="M256,233.39H148.47V370A12.17,12.17,0,0,0,165,381.36c17.13-6.52,47.5-14.84,91-14.84s73.83,8.32,91,14.84A12.17,12.17,0,0,0,363.53,370V233.39Z" style="fill:#8c266b"/><path d="M140.45,201.39H237.9V66.65C229.48,134,203.8,178.27,140.45,201.39Z" style="fill:#c7daff"/><path d="M271,51.26H241a5.55,5.55,0,0,0-5.56,5.55v141.7h41.14V56.81A5.55,5.55,0,0,0,271,51.26Z" style="fill:#fff"/><path d="M131.42,245.29c-1.55,18.33-9.39,103-26.64,164.65a14.35,14.35,0,0,0,1.8,11.88c6.76,10.07,24.19,31,60,46.92a7.12,7.12,0,0,0,10.05-7c-2-26.49-6.16-95-3.05-162.7,0,0-31.06-17.51-41-53.85A.6.6,0,0,0,131.42,245.29Z" style="fill:url(#linear-gradient)"/><path d="M380.58,245.29c1.55,18.33,9.39,103,26.64,164.65a14.35,14.35,0,0,1-1.8,11.88c-6.76,10.07-24.19,31-60,46.92a7.12,7.12,0,0,1-10-7c2-26.49,6.16-95,3-162.7,0,0,31.06-17.51,41-53.85A.6.6,0,0,1,380.58,245.29Z" style="fill:url(#linear-gradient-2)"/><path d="M158.83,238.67s5.61,54.24,86.89,50.18l-.54,29S139.81,330.63,128.9,238.67Z" style="fill:#fff"/><circle cx="256" cy="103.04" r="8.63" transform="translate(113.29 339.23) rotate(-80.78)" style="fill:#c7daff"/><circle cx="256" cy="158.58" r="8.63" style="fill:#c7daff"/><path d="M353.17,238.67s-5.61,54.24-86.89,50.18l.54,29s105.37,12.79,116.28-79.17Z" style="fill:#fff"/><path d="M256,238.67H242.06V321a8.73,8.73,0,0,0,8.72,8.73h10.44a8.73,8.73,0,0,0,8.72-8.73V238.67Z" style="fill:#c7daff"/><path d="M274.1,201.39H387.21c0-4.42-.12-8.69-.34-12.84H274.1Z" style="fill:#819fea"/><path d="M347.06,255.7h32.62a107.07,107.07,0,0,0,3.42-17H353.17A48.43,48.43,0,0,1,347.06,255.7Z" style="fill:#819fea"/><path d="M158.83,238.67H128.9a107.07,107.07,0,0,0,3.42,17h32.62A48.43,48.43,0,0,1,158.83,238.67Z" style="fill:#819fea"/><polygon points="242.06 238.67 242.06 255.7 269.94 255.7 269.94 238.67 256 238.67 242.06 238.67" style="fill:#819fea"/><path d="M125.13,188.55c-.22,4.15-.34,8.42-.34,12.84H237.9V188.55Z" style="fill:#819fea"/><polygon points="235.43 188.55 235.43 198.51 256 198.51 276.57 198.51 276.57 188.55 235.43 188.55" style="fill:#c7daff"/><path d="M388.86,198.51H123.14a6.17,6.17,0,0,0-6.17,6.17v30.85a6.17,6.17,0,0,0,6.17,6.17H388.86a6.17,6.17,0,0,0,6.17-6.17V204.68A6.17,6.17,0,0,0,388.86,198.51Z" style="fill:#fff"/><circle cx="142.63" cy="220.1" r="8.63" transform="translate(-113.86 165.32) rotate(-45)" style="fill:#c7daff"/><path d="M207.94,220.1a8.63,8.63,0,1,1-8.63-8.62A8.63,8.63,0,0,1,207.94,220.1Z" style="fill:#c7daff"/><circle cx="256" cy="220.1" r="8.63" transform="translate(-2.27 437.54) rotate(-80.78)" style="fill:#c7daff"/><circle cx="369.37" cy="220.1" r="8.63" transform="translate(-47.45 325.65) rotate(-45)" style="fill:#c7daff"/><path d="M304.06,220.1a8.63,8.63,0,1,0,8.63-8.62A8.63,8.63,0,0,0,304.06,220.1Z" style="fill:#c7daff"/></g></svg>