<?xml version="1.0" encoding="UTF-8" standalone="no"?> <svg id="crystal_shard" xmlns="http://www.w3.org/2000/svg" xmlns:xlink="http://www.w3.org/1999/xlink" viewBox="0 0 512 512"><defs><linearGradient id="linear-gradient" x1="352.61" y1="409.25" x2="198.47" y2="40.88" gradientUnits="userSpaceOnUse"><stop offset="0" stop-color="#cc5697"/><stop offset="1" stop-color="#e585be"/></linearGradient></defs><title>cystal_shard</title><polygon points="286.19 10.02 197.83 96.2 161.84 233.64 216.38 455.07 293.82 501.98 308.01 451.8 337.46 139.83 286.19 10.02" style="fill:#5b153e"/><polygon points="337.46 139.83 282.92 80.93 207.65 185.64 293.82 501.98 308.01 451.8 337.46 139.83" style="fill:url(#linear-gradient)"/><polygon points="337.46 139.83 337.46 139.83 286.19 10.02 282.92 80.93 337.46 139.83" style="fill:#f49fd3"/><polygon points="282.92 80.93 286.19 10.02 197.83 96.2 207.65 185.64 282.92 80.93" style="fill:#a03774"/><polygon points="207.65 185.64 216.38 455.07 293.82 501.98 207.65 185.64" style="fill:#a03774"/><path d="M135.82,47.73s2.54,24.61-17.54,35.93c0,0,20.08,6.6,21.21,30.46,0,0,.85-27.35,16.41-35.55C155.9,78.57,138.36,71.5,135.82,47.73Z" style="fill:#ffe9fb"/><path d="M373.64,222.81s2.54,24.61-17.54,35.92c0,0,20.08,6.61,21.21,30.46,0,0,.85-27.34,16.41-35.55C393.72,253.64,376.18,246.57,373.64,222.81Z" style="fill:#ffe9fb"/><path d="M154.63,356.79s2.55,24.61-17.54,35.93c0,0,20.09,6.6,21.22,30.45,0,0,.85-27.34,16.41-35.55C174.72,387.62,157.18,380.55,154.63,356.79Z" style="fill:#ffe9fb"/></svg>