<?xml version="1.0" encoding="UTF-8" standalone="no"?> <svg id="icons" xmlns="http://www.w3.org/2000/svg" xmlns:xlink="http://www.w3.org/1999/xlink" viewBox="0 0 340 340"><defs><linearGradient id="linear-gradient" x1="41.154" y1="38.533" x2="119.344" y2="184.392" gradientUnits="userSpaceOnUse"><stop offset="0" stop-color="#ffafbc"/><stop offset="1" stop-color="#f57f8c"/></linearGradient><linearGradient id="linear-gradient-2" x1="71.902" y1="48.253" x2="228.059" y2="283.093" gradientUnits="userSpaceOnUse"><stop offset="0" stop-color="#d96c79"/><stop offset="1" stop-color="#bd5663"/></linearGradient><linearGradient id="linear-gradient-3" x1="50.601" y1="62.417" x2="206.757" y2="297.257" xlink:href="#linear-gradient-2"/><linearGradient id="linear-gradient-4" x1="49.163" y1="145.053" x2="142.978" y2="271.552" xlink:href="#linear-gradient"/><linearGradient id="linear-gradient-5" x1="16.517" y1="85.081" x2="172.673" y2="319.921" xlink:href="#linear-gradient-2"/><linearGradient id="linear-gradient-6" x1="242.675" y1="124.938" x2="217.076" y2="255.672" gradientUnits="userSpaceOnUse"><stop offset="0" stop-color="#c2cfff"/><stop offset="1" stop-color="#f0f9ff"/></linearGradient><linearGradient id="linear-gradient-7" x1="214.561" y1="309.01" x2="252.734" y2="115.092" gradientUnits="userSpaceOnUse"><stop offset="0" stop-color="#c1d1ff"/><stop offset="1" stop-color="#7a88c2"/></linearGradient><linearGradient id="New_Gradient_Swatch_36" x1="281.822" y1="67.582" x2="247.517" y2="151.596" gradientTransform="translate(-15.727 110.017) rotate(-22.341)" gradientUnits="userSpaceOnUse"><stop offset="0" stop-color="#8080ad"/><stop offset="1" stop-color="#515180"/></linearGradient><linearGradient id="linear-gradient-8" x1="277.453" y1="3.186" x2="306.314" y2="86.995" gradientTransform="translate(221.513 -242.32) rotate(67.659)" gradientUnits="userSpaceOnUse"><stop offset="0" stop-color="#ff9893"/><stop offset="1" stop-color="#f2613e"/></linearGradient><linearGradient id="linear-gradient-9" x1="180.146" y1="125.227" x2="249.605" y2="136.564" gradientUnits="userSpaceOnUse"><stop offset="0" stop-color="#ffaf5b"/><stop offset="1" stop-color="#ffdbb4"/></linearGradient><linearGradient id="linear-gradient-10" x1="325.231" y1="182.486" x2="267.649" y2="152.435" gradientTransform="matrix(1, 0, 0, 1, 0, 0)" xlink:href="#linear-gradient-8"/></defs><path d="M115.01,136.679c3.645-28.612,4.021-54.724-12.079-68.243,0,0-14.027-25.369-48.051,7.76A64.168,64.168,0,0,0,37.1,72.6c-16.407-.608-22,21.636-7.263,28.862a59.7,59.7,0,0,0,13.939,4.63,56.527,56.527,0,0,1,23.593,10.647c7.6,6.03,15,15.173,15.571,28.1Z" style="fill:url(#linear-gradient)"/><path d="M88.805,143.583l40.39-8.648a93.422,93.422,0,0,1,8.975-41.428,17.21,17.21,0,0,0-8.495-23.358c-6.552-2.858-15.383-4.38-26.744-1.713C102.931,68.436,123.981,123.369,88.805,143.583Z" style="fill:url(#linear-gradient-2)"/><path d="M143.317,157.115s8.863-25.747-18.994-28.28-67.532,10.552-46.429,36.3Z" style="fill:url(#linear-gradient-3)"/><path d="M76.039,162.676c-20.576,12.394-42.961,34.791-50.693,74.865a70.272,70.272,0,0,0-.366,25.116q.144.846.311,1.72c6.383,33.3,35.9,57.146,69.8,57.146H147.3a37.185,37.185,0,0,0,36.4-29.592l20.815-99.784S192.748,170,164.681,156.986C136.162,143.759,102.968,146.455,76.039,162.676Z" style="fill:url(#linear-gradient-4)"/><path d="M164.681,156.986c-2.128-.987-4.284-1.874-6.459-2.685,3.358,28.852,2.175,93.281-69.681,115.477-29.465,9.1-49.979,1.557-64.168-11.767.154,1.553.344,3.1.607,4.646q.144.846.311,1.72c6.383,33.3,35.9,57.146,69.8,57.146H147.3a37.185,37.185,0,0,0,36.4-29.592l20.815-99.784S192.748,170,164.681,156.986Z" style="fill:url(#linear-gradient-5)"/><path d="M221.171,136.222l-34.486,83.911c-22.742,55.336-9.154,101.39-9.154,101.39s42.044-23.19,64.786-78.526L276.8,159.086Z" style="fill:url(#linear-gradient-6)"/><path d="M276.8,159.086l-23.864-9.808h0l-7.905-3.249h0l-23.863-9.807L210.948,161.1,232.7,176.05,186.27,289.015a4.274,4.274,0,1,0,7.906,3.25L239.9,181.005l21.747,14.955Z" style="fill:url(#linear-gradient-7)"/><rect x="255.406" y="53.623" width="30.581" height="82.412" transform="translate(56.367 -95.78) rotate(22.341)" style="fill:url(#New_Gradient_Swatch_36)"/><ellipse cx="291.544" cy="44.103" rx="25.31" ry="27.445" transform="translate(139.928 296.997) rotate(-67.659)" style="fill:url(#linear-gradient-8)"/><path d="M256.215,130.066l-40.541-16.661s-17.113-8.622-27.094,3.1a20.482,20.482,0,0,0-4.812,12.745c-.136,5.4,1.585,12.856,10.924,16.694a17.912,17.912,0,0,0,17.317-1.677,14.853,14.853,0,0,1,13.711-1.136l21.5,8.834C252.206,145.821,255.057,138.436,256.215,130.066Z" style="fill:url(#linear-gradient-9)"/><path d="M277.66,171.247a17.914,17.914,0,0,0,11.133,13.37c9.34,3.838,15.805-.252,19.506-4.188a20.482,20.482,0,0,0,5.541-12.446c1.146-15.352-17.085-21.256-17.085-21.256l-40.54-16.661-9,21.9,21.5,8.834A14.851,14.851,0,0,1,277.66,171.247Z" style="fill:url(#linear-gradient-10)"/><path d="M320,55.8c6-14.6-1.881-31.731-17.574-38.18s-33.342.185-39.343,14.788a27.478,27.478,0,0,0,.693,22.276,30.63,30.63,0,0,0,1.882,3.431l-25.4,61.8-23.218-9.542c-1.84-.895-19.814-9.155-30.993,3.975a23.816,23.816,0,0,0-5.605,14.817c-.234,9.264,4.377,16.315,12.984,19.852a21.141,21.141,0,0,0,19.464-1.4l-13.122,31.927a82.459,82.459,0,0,0-7.289-7.584,97.736,97.736,0,0,0-26.4-17.992,93.661,93.661,0,0,0-18.112-6.229c-.151-6.1-2.419-16.47-15.252-20.624a91.609,91.609,0,0,1,8.448-32.165c5.028-10.408.619-22.616-10.035-27.793-10.261-4.988-22.193-3.267-26.667-2.347a22.958,22.958,0,0,0-14.752-8.732C79.2,54.527,67.2,60.013,54.04,72.4a66.167,66.167,0,0,0-16.822-3.121,18.538,18.538,0,0,0-8.849,35.167,63.355,63.355,0,0,0,14.713,4.9,52.976,52.976,0,0,1,22.216,10c6.051,4.8,10.233,10.295,12.459,16.348a24.264,24.264,0,0,0-6.646,6.948c-2.452,4.068-4.223,10.556.369,18.971-18.807,12.106-41.566,34.713-49.4,75.3a73.363,73.363,0,0,0-.38,26.3c.1.587.208,1.184.325,1.791,6.646,34.676,37.374,59.843,73.066,59.843H147.3a40.458,40.458,0,0,0,11.871-1.774,37.461,37.461,0,0,0,13.628-7.211c.765,3.895,1.424,6.2,1.542,6.6a3.2,3.2,0,0,0,1.925,2.134,4.468,4.468,0,0,0,2.869-.164c1.759-.97,43.333-24.4,66.256-80.174l29.281-71.248a21.14,21.14,0,0,0,12.857,14.679,22.348,22.348,0,0,0,8.51,1.78c5.428,0,10.47-2.287,14.681-6.765a23.822,23.822,0,0,0,6.434-14.475c1.283-17.2-17.3-23.964-19.24-24.621l-23.22-9.543,25.412-61.83A27.971,27.971,0,0,0,320,55.8ZM269.234,34.934C272.623,26.688,280.96,21.8,290.028,21.8a25.965,25.965,0,0,1,9.874,1.971c12.3,5.055,18.56,18.291,13.951,29.5s-18.365,16.222-30.667,11.167A25.159,25.159,0,0,1,269.8,51.876,20.907,20.907,0,0,1,269.234,34.934Zm-199.8,79.2a59.551,59.551,0,0,0-24.97-11.294A56.78,56.78,0,0,1,31.3,98.474,11.89,11.89,0,0,1,36.971,75.92a61.267,61.267,0,0,1,16.736,3.386,3.323,3.323,0,0,0,3.491-.729c11.956-11.641,22.83-17.151,31.433-15.935a16.308,16.308,0,0,1,11.4,7.417l.012.018c0,.007.006.015.01.022.056.1,5.578,9.831,4.928,20.966a3.325,3.325,0,0,0,3.125,3.512c.066,0,.132,0,.2,0a3.323,3.323,0,0,0,3.315-3.13,47.3,47.3,0,0,0-3.791-20.48c4.653-.715,13.229-1.317,20.4,2.167,7.309,3.552,10.364,11.864,6.955,18.923a98.206,98.206,0,0,0-9.016,33.637c-.5-.063-1.009-.125-1.537-.173-13.611-1.237-29.664,1.06-41.074,6.7C80.814,125.48,76.077,119.405,69.431,114.132Zm7.374,31.936c6.226-10.329,29.431-15.534,47.217-13.922,10.726.975,16.493,5.781,17.216,14.274A99.357,99.357,0,0,0,77.17,158.178C74.754,153.643,74.637,149.665,76.805,146.068Zm94.642,161.448c-4.491,6.573-13.926,9.118-14.019,9.143-.05.012-.1.027-.15.041a33.823,33.823,0,0,1-9.977,1.5H95.093c-32.508,0-60.491-22.9-66.538-54.449-.106-.559-.206-1.108-.3-1.651a66.74,66.74,0,0,1,.352-23.928c6.236-32.319,22.771-56.761,49.145-72.648,26.542-15.988,58.516-18.05,85.528-5.522a91.134,91.134,0,0,1,24.646,16.806l.08.074a72.228,72.228,0,0,1,8.859,9.732L183.61,218.87A175.232,175.232,0,0,0,171.447,307.516Zm67.795-65.783c-18.053,43.93-48.86,67.391-59.541,74.511-2.59-12.577-7.994-50.921,10.058-94.847l31.247-76.031a12.132,12.132,0,0,1,3.451.838l42.991,17.669a12.091,12.091,0,0,1,3.042,1.829Zm56.25-91.931c.078.032.159.061.24.088.157.051,15.734,5.244,14.794,17.845a17.161,17.161,0,0,1-4.648,10.417c-4.454,4.735-9.776,5.874-15.822,3.39a14.657,14.657,0,0,1-9.149-11.007,18.151,18.151,0,0,0-10.933-12.812l-42.99-17.668a18.7,18.7,0,0,0-7.1-1.412,17.763,17.763,0,0,0-9.68,2.834,14.649,14.649,0,0,1-14.243,1.392c-6.047-2.485-9.03-7.039-8.866-13.535a17.151,17.151,0,0,1,4.021-10.675c8.141-9.563,22.468-2.583,23.067-2.285.076.038.154.073.232.106ZM268.546,131.54l-22.136-9.1,7.081-17.229c4.016,3.305,11.875,8.51,22.1,9.177Zm9.753-23.73c-11.171.221-19.647-6.78-22.137-9.1l6.684-16.263c4.016,3.306,11.875,8.51,22.1,9.177Zm9.356-22.763c-11.183.219-19.65-6.779-22.138-9.095l4.926-11.988a32.907,32.907,0,0,0,22.145,9.08Z" style="fill:#3c3c4f"/></svg>