<?xml version="1.0" encoding="UTF-8" standalone="no"?> <svg xmlns="http://www.w3.org/2000/svg" xmlns:xlink="http://www.w3.org/1999/xlink" viewBox="0 0 512 512"><defs><linearGradient id="linear-gradient" x1="245.08" y1="236.53" x2="256.92" y2="648.95" gradientUnits="userSpaceOnUse"><stop offset="0.01" stop-color="#ffc3b0"/><stop offset="1" stop-color="#e8897b"/></linearGradient><linearGradient id="linear-gradient-2" x1="66.77" y1="33.97" x2="189.66" y2="172.09" gradientUnits="userSpaceOnUse"><stop offset="0" stop-color="#dcefff"/><stop offset="1" stop-color="#b8e0f1"/></linearGradient><linearGradient id="linear-gradient-3" x1="447.33" y1="74.21" x2="309.22" y2="178.61" xlink:href="#linear-gradient-2"/><linearGradient id="linear-gradient-4" x1="160.03" y1="366.07" x2="187.22" y2="314.96" xlink:href="#linear-gradient-2"/><linearGradient id="linear-gradient-5" x1="352.52" y1="330.12" x2="324.24" y2="313.81" xlink:href="#linear-gradient-2"/></defs><title>fairy_angel</title><g id="fairy_angel"><path d="M235.41,325.3s19.36,103.92,0,175.79a1.8,1.8,0,0,0,3.23,1.48c13.22-19.84,42.38-71.69,42-142.48Z" style="fill:#c76266"/><path d="M276.56,243.51s23,26.35,59.47,36.85a1.72,1.72,0,0,0,1.54-3c-15.07-11-48.74-37.77-59.26-64.54Z" style="fill:#c76266"/><path d="M291.15,139.31s17,64.25-13.61,82c0,0-27.45-13.26-25.77-50.37.9-20,19.11-36.59,38.57-31.81Z" style="fill:#5d90c1"/><path d="M281.42,134.73v35.8a21.57,21.57,0,0,1-1.51,8.26c-2.08,5-7,11.25-18.53,11.25,0,0-16.83-9.62-12.56-35.27C248.82,154.77,253.9,131.79,281.42,134.73Z" style="fill:#ffc3b0"/><path d="M242.06,194.46a12.45,12.45,0,0,0-16.05.47,30.34,30.34,0,0,0-7.5,11.41s-21.3,61.91-62.22,79.27c-1.94.83-1.57,4,.53,3.86,16.62-1.16,44.93-2.44,70.57-46.41,0,0,6.91,23.54,8.86,38.49a11.54,11.54,0,0,1-2.58,8.77c-6.39,7.87-18.61,28.4,7.71,47.56l50.42,37a4.49,4.49,0,0,1,.61,6.7c-7.76,8.25-29.21,27.29-65.19,31.51a2.81,2.81,0,0,0-.27,5.56C251.8,423.81,299,427,335.67,390a17.58,17.58,0,0,0,.27-24.27L272.6,297.31S295.46,236.79,242.06,194.46Z" style="fill:url(#linear-gradient)"/><path d="M335.94,365.7,272.6,297.31S292.74,244,251,202.42c4.19,8.47,12.54,24.85,13.91,46.77l5.52,1.81s2,3.79-2.61,7.27a23.43,23.43,0,0,1-2.77,0v0a20.65,20.65,0,0,1-13.91-6.21,1,1,0,0,0-1.7,1.09c3.62,9,12.33,11.76,15.1,12.43a106.72,106.72,0,0,1-7.39,29.19,7,7,0,0,0,1.62,7.76c10.83,10.11,44,41.31,64.05,62.4a18.66,18.66,0,0,1,4.83,9.78,19.76,19.76,0,0,1-.34,9.66s-4.15,13.5-23.95,28A104.45,104.45,0,0,0,335.67,390,17.58,17.58,0,0,0,335.94,365.7Z" style="fill:#e8897b"/><path d="M291,137.71a9,9,0,0,1-8,12c-6.73.31-14.88,2.39-20.66,11.09-7.45,11.2-6,23.71,3.05,33.66,13.14,14.46,32.92,44.48,16.85,82.5l-1.95,5.21a4,4,0,0,1-7.81-1c-.87-9.29-3.18-20.07-8.56-29.48-3.71-6.49-6.15-10.15-13.11-17.85-5.66-6.25-15.56-12.41-22.14-27.38-5.15-11.75-6.26-24.84-4.16-37.5,3.18-19.16,11-41.42,30-48.58a30,30,0,0,1,22.89,1C282.61,123.69,287.87,129,291,137.71Z" style="fill:azure"/><path d="M273,151.82a29.41,29.41,0,0,1,10-2.13,9,9,0,0,0,8-12c-3.13-8.7-8.39-14-13.63-16.39a31,31,0,0,0-14.83-2.71C270.37,123.58,277.56,133.26,273,151.82Z" style="fill:#a3cbfa"/><path d="M272.48,281.12a4,4,0,0,0,7.81,1l1.95-5.21c12.29-29.09,3.6-53.48-7-69.82,6.22,14.16,10.68,48.88-8.07,51.19C270.64,267.68,271.7,272.77,272.48,281.12Z" style="fill:#a3cbfa"/><path d="M104.32,107.25c49.66,14,75.68,52.4,88,78.23,2.28,4.78,9.76,3.08,9.45-2.21a.57.57,0,0,1,0-.13c-1-13.92-4.61-45.31-17.92-66.35a54.2,54.2,0,0,0-4.51-6C167.26,96.67,114.16,36,69.52,14a23.9,23.9,0,0,0-2.91-1.13l-.14-.05a11.8,11.8,0,0,0-15.4,10.46C49.3,51.71,55.62,93.57,104.32,107.25Z" style="fill:url(#linear-gradient-2)"/><path d="M446,54.63a20.87,20.87,0,0,0-2.63.79c-29.74,11.68-64.44,40.23-85.25,59-21.65,19.48-35.56,45.22-39.23,73.05,0,.12,0,.24-.05.36a10.35,10.35,0,0,0,4,9.45l1.71-.43c9-28.51,28.7-55.07,75.83-66.89,37.69-9.46,53.7-40.35,60.29-60.72,2.69-8.35-5.37-16.76-14.5-14.61Z" style="fill:url(#linear-gradient-3)"/><path d="M198.18,300.6h0a46.32,46.32,0,0,0-12.63,5.67c-18,11.74-25.55,23.33-31.64,32.25a35.79,35.79,0,0,0-6.34,24.54c.09.7.2,1.39.33,2.05,2.13,11.19,10.89,17.83,20.49,19.14a4.28,4.28,0,0,0,4.61-5.34c-7.66-31.74,14.4-60.55,27.59-74.37A2.39,2.39,0,0,0,198.18,300.6Z" style="fill:url(#linear-gradient-4)"/><path d="M361.76,320.25c-16,2.61-35.9-8.23-49.63-17.65a1.79,1.79,0,0,0-2.52,2.43c4.81,7.53,12.47,18.76,17.38,23.86a57.5,57.5,0,0,0,10.84,8.76c12.06,7.35,26.84-1.5,27.54-14.07A3.15,3.15,0,0,0,361.76,320.25Z" style="fill:url(#linear-gradient-5)"/></g></svg>