<?xml version="1.0" encoding="UTF-8" standalone="no"?> <svg xmlns="http://www.w3.org/2000/svg" xmlns:xlink="http://www.w3.org/1999/xlink" viewBox="0 0 512 512"><defs><linearGradient id="linear-gradient" x1="256" y1="475.66" x2="256" y2="-13.83" gradientUnits="userSpaceOnUse"><stop offset="0.01" stop-color="#ffcce0"/><stop offset="1" stop-color="#ffe6fa"/></linearGradient></defs><title>magic_potion</title><g id="magic_potion"><path d="M256,23H228.34a7.78,7.78,0,0,0-7.7,8.88l4.9,34.68h60.92l4.9-34.68a7.78,7.78,0,0,0-7.7-8.88Z" style="fill:#ba8280"/><polygon points="222.46 44.75 225.54 66.53 256 66.53 286.46 66.53 289.54 44.75 222.46 44.75" style="fill:#965c5c"/><path d="M328.73,181.56h.09l-.14,0Q326,180.2,323.31,179c-14.48-6.65-25.81-18.92-29.86-34.33-.44-1.66-.8-3.24-1.09-4.72a56,56,0,0,1-.83-17.61,53.4,53.4,0,0,1,21.56-36.84H198.91a53.4,53.4,0,0,1,21.56,36.84,56,56,0,0,1-.83,17.61c-.29,1.48-.65,3.07-1.09,4.72C214.5,160,203.17,172.3,188.69,179q-2.72,1.25-5.37,2.58l-.14,0h.09A162.31,162.31,0,0,0,94.13,339.25c6.15,81.59,73.71,146.51,155.47,149.65a162.33,162.33,0,0,0,79.13-307.34Z" style="fill:url(#linear-gradient)"/><path d="M312.85,59.05H196.38a13.2,13.2,0,0,0-13.2,13.2h0a13.2,13.2,0,0,0,13.2,13.2H312.85a13.2,13.2,0,0,0,13.2-13.2h0A13.2,13.2,0,0,0,312.85,59.05Z" style="fill:#ffcce0"/><path d="M198.91,85.45a50.86,50.86,0,0,1,13.84,15h86.5a50.86,50.86,0,0,1,13.84-15H198.91Z" style="fill:#db8da5"/><path d="M384.15,333a129.25,129.25,0,0,0-1.7-28.85,44.69,44.69,0,0,0-47.17-37c-35.46,2.56-72.26,23.62-83.89,30.8a86.89,86.89,0,0,1-8.59,4.78c-39.34,18.7-69.83,15-90.56,6.51a17.84,17.84,0,0,0-24.57,16.54v.3A128.34,128.34,0,0,0,264.6,454.2C328.91,450,380.76,397.4,384.15,333Z" style="fill:#cc5697"/><path d="M186,206.19s-35.92,7.77-43.75,52.92a9.15,9.15,0,0,0,7.41,10.5c7.72,1.37,20.06,1.48,34.17-6.28a64.9,64.9,0,0,0,16.73-13.56c5.93-6.59,13.16-16.51,14.12-26.6s-7.45-18.32-17.46-18.32A46,46,0,0,0,186,206.19Z" style="fill:#fff"/><circle cx="182.97" cy="369.12" r="16" transform="translate(-127.33 98.12) rotate(-22.5)" style="fill:#a03774"/><path d="M249,339.31a4.91,4.91,0,1,1-4.9-4.91A4.9,4.9,0,0,1,249,339.31Z" style="fill:#a03774"/><circle cx="282.23" cy="396.39" r="27.27" transform="translate(-154.25 611.48) rotate(-80.78)" style="fill:#a03774"/><circle cx="332.04" cy="319.31" r="12.54" style="fill:#a03774"/></g></svg>