<?xml version="1.0" encoding="UTF-8" standalone="no"?> <svg xmlns="http://www.w3.org/2000/svg" xmlns:xlink="http://www.w3.org/1999/xlink" viewBox="0 0 512 512"><defs><linearGradient id="linear-gradient" x1="65.33" y1="188.1" x2="367.39" y2="393.31" gradientUnits="userSpaceOnUse"><stop offset="0.01" stop-color="#ffddcd"/><stop offset="1" stop-color="#f79a80"/></linearGradient><linearGradient id="linear-gradient-2" x1="286.22" y1="204.07" x2="562.91" y2="468.46" xlink:href="#linear-gradient"/></defs><title>Spell_Scroll</title><g id="magic_scroll"><path d="M56.73,159.28c3.67,8.52,9.07,23.91,9.05,40.65A4.25,4.25,0,0,0,69,204.18c4.57,1,12.2,4.25,12.2,15.14,0,0,0,9.76-8.89,13.65a4.23,4.23,0,0,0-2.57,4.25C71.59,255.27,79.94,344.08,77,414c0,0,8.65,5.77,17,11a4.65,4.65,0,0,0,6.93-2.61c1.63-5.52,4.07-14.07,5.8-21.56,0,0,5.65,16.56,6.12,33.6a4.61,4.61,0,0,0,4.43,4.46c11.83.57,44.85-.2,67.71-23.44,0,0,46-36.78,90.41-20.75,0,0,57.91-106,8-276.49a152.56,152.56,0,0,0-33.53,3.83,6.06,6.06,0,0,0-4.6,5c-.92,6.69-3,20.31-6,28.74a1.74,1.74,0,0,1-3.31-.14c-1.31-4.7-3.39-12.35-5.3-20.09a6.08,6.08,0,0,0-7.5-4.46c-8.59,2.35-26.07,8.64-51.41,25,0,0-36.28,23-75.41,7.31-3-1.2-5.91-2.42-8.95-3.42a187.3,187.3,0,0,0-26-6.81A4.36,4.36,0,0,0,56.73,159.28Z" style="fill:url(#linear-gradient)"/><path d="M275.37,394.71s57.91-106,8-276.49a156.06,156.06,0,0,0-20.21,1.39c5.65,32.1,25.88,167.17-12.58,271.07A69.82,69.82,0,0,1,275.37,394.71Z" style="fill:#f79a80"/><path d="M122.71,215.24h0a5.61,5.61,0,0,0-4.7,5.54v26.48a5.61,5.61,0,0,0,5.6,5.61h2a5.6,5.6,0,0,0,5.59-6l-2-26.48A5.61,5.61,0,0,0,122.71,215.24Z" style="fill:#e2526f"/><path d="M147,221.71v19.77a3.55,3.55,0,0,0,5.56,2.93l9.33-6.41a7.07,7.07,0,0,0,2.62-8.3h0a7.13,7.13,0,0,0-2.17-3L152.81,219A3.55,3.55,0,0,0,147,221.71Z" style="fill:#e2526f"/><path d="M170.25,214.06v1.39a4.88,4.88,0,0,0,4.3,4.84h0a4.87,4.87,0,0,0,5.46-4.84v-1.39a4.88,4.88,0,0,0-3.75-4.75h0A4.88,4.88,0,0,0,170.25,214.06Z" style="fill:#e2526f"/><path d="M207,200.54h0a4.29,4.29,0,0,0-2.52,4.27l1.6,18.9a8,8,0,0,0,12.28,6.15c1.26-.8,2.5-1.63,3.63-2.48a8,8,0,0,0,1.43-11.46l-11.31-14.15A4.3,4.3,0,0,0,207,200.54Z" style="fill:#e2526f"/><path d="M225.9,197.86l6.11,8.55a3.11,3.11,0,0,0,5.47-.82l1.56-4.7a3.11,3.11,0,0,0-.64-3.06l-4.92-5.47a3.11,3.11,0,0,0-3.89-.6l-2.74,1.63A3.1,3.1,0,0,0,225.9,197.86Z" style="fill:#e2526f"/><path d="M272.66,176.88l-11.89,1.88a4.28,4.28,0,0,0-3.57,5c.83,4.52,2.27,11.91,4,19a4.3,4.3,0,0,0,8.13.63L278,182.79a4.29,4.29,0,0,0-4-6h-.73A3.71,3.71,0,0,0,272.66,176.88Z" style="fill:#e2526f"/><path d="M124.17,328l-.4,3.46a6.51,6.51,0,0,0,3.79,6.67h0a6.49,6.49,0,0,0,7.25-1.34l3-3a6.46,6.46,0,0,0,1.33-7.24l-.22-.5a6.48,6.48,0,0,0-5.92-3.84h-2.34A6.49,6.49,0,0,0,124.17,328Z" style="fill:#e2526f"/><path d="M127.46,360.82l1.37-7.87a3.45,3.45,0,0,1,3.4-2.86h17.23a3.45,3.45,0,0,1,1.35,6.63l-18.61,7.87A3.45,3.45,0,0,1,127.46,360.82Z" style="fill:#e2526f"/><path d="M180.38,311l3.39,30.45a3.44,3.44,0,0,0,4.15,3,41.86,41.86,0,0,0,9.71-3.07,3.42,3.42,0,0,0,1.79-3.3L198.22,322a3.45,3.45,0,0,1,.95-2.64l4.08-4.27a3.49,3.49,0,0,0,.95-2.39V308a3.45,3.45,0,0,0-4-3.41l-16.95,2.64A3.45,3.45,0,0,0,180.38,311Z" style="fill:#e2526f"/><path d="M216.36,304.4l.72,4.43a3.46,3.46,0,0,0,5.79,1.94h0a3.46,3.46,0,0,0,1.07-2.5v-4.55a3.45,3.45,0,0,0-4.06-3.4l-.72.13A3.45,3.45,0,0,0,216.36,304.4Z" style="fill:#e2526f"/><path d="M238.31,298.3,230.73,328a3.45,3.45,0,0,0,3.83,4.27l5.84-.83a3.42,3.42,0,0,0,2.85-2.53c.92-3.5,3.6-10.08,11-11.59a3.4,3.4,0,0,0,2.64-2.79l.83-5.05a3.45,3.45,0,0,0-1.29-3.29l-12.62-9.75A3.45,3.45,0,0,0,238.31,298.3Z" style="fill:#e2526f"/><path d="M290.22,284.35l-10.5,5a3.46,3.46,0,0,0-1.85,4l6.23,23.37a3.45,3.45,0,0,0,6.69-.09c2.09-9,4.39-20.81,4.38-29.24A3.44,3.44,0,0,0,290.22,284.35Z" style="fill:#c7304d"/><path d="M280.3,198.45l-2.62,7.16a1.63,1.63,0,0,0,1.83,2.17l5.36-1a1.64,1.64,0,0,0,1.2-2.27l-2.74-6.17A1.63,1.63,0,0,0,280.3,198.45Z" style="fill:#c7304d"/><path d="M275.37,106.94s13.21-17.46,43.7-31.78a136.84,136.84,0,0,1,72-12.31c11.8,1.21,23.38,4,29.23,9.82,0,0-4,32.57-17.94,79.09C402.36,151.76,305.88,161.14,275.37,106.94Z" style="fill:#a34f46"/><path d="M338.83,107.26l4.51,41.16a229.29,229.29,0,0,0,59,3.34c13.95-46.52,17.94-79.09,17.94-79.09S400,110.22,338.83,107.26Z" style="fill:#f79a80"/><path d="M455.64,126.53s-17.12-17.62-53-19.27l-8.39,45.12S443.19,151.3,455.64,126.53Z" style="fill:#a34f46"/><path d="M391.76,97.49c-2.86,14.52-9.44,35.78-25.38,54.07a225.62,225.62,0,0,0,36,.2c13.95-46.52,17.94-79.09,17.94-79.09S412.44,87.21,391.76,97.49Z" style="fill:#ce735f"/><path d="M275.37,106.94s61.72,58.78,180.27,19.59c0,0-21.55,216.52-58.78,293.92,0,0-21.57,23.22-43.33,29.22a5.3,5.3,0,0,1-6.55-4.34l-4-24.88A174.37,174.37,0,0,1,330.63,447a5.34,5.34,0,0,1-6.48,2.34c-10.65-4-39.78-15.39-61.39-28.56a9.83,9.83,0,0,1-3.65-12.91C273.51,379.9,316.76,276.65,275.37,106.94Z" style="fill:url(#linear-gradient-2)"/><path d="M382.05,139.91c8,7.34,21.2,23.7,19.5,50.86,0,0-1.62,99.78-19.58,198.36-2.86,15.69-9.22,30.67-19.43,42.93-1.61,1.93-3.35,3.85-5.23,5.73a3.34,3.34,0,0,1-5.33-.72l-9-16.62,4,24.88a5.3,5.3,0,0,0,6.55,4.34c21.76-6,43.33-29.22,43.33-29.22,37.23-77.4,58.78-293.92,58.78-293.92C428,135.67,403.46,139.44,382.05,139.91Z" style="fill:#f79a80"/><path d="M274.06,176.83h-.73a3.71,3.71,0,0,0-.67,0l-2,.32c.56,6.21,1.06,12.77,1.49,19.6l5.89-14A4.29,4.29,0,0,0,274.06,176.83Z" style="fill:#9c304d"/></g></svg>