<?xml version="1.0" encoding="UTF-8" standalone="no"?> <svg id="icons" xmlns="http://www.w3.org/2000/svg" xmlns:xlink="http://www.w3.org/1999/xlink" viewBox="0 0 340 340"><defs><linearGradient id="linear-gradient" x1="170.001" y1="30.134" x2="170.001" y2="290.672" gradientUnits="userSpaceOnUse"><stop offset="0" stop-color="#957bb9"/><stop offset="0.5" stop-color="#cc95d5"/><stop offset="1" stop-color="#f1d1f4"/></linearGradient><linearGradient id="linear-gradient-2" x1="294.086" y1="30.134" x2="294.086" y2="290.672" xlink:href="#linear-gradient"/><linearGradient id="linear-gradient-3" x1="98.832" y1="30.134" x2="98.832" y2="290.672" xlink:href="#linear-gradient"/></defs><path d="M292.715,274.009a2.132,2.132,0,0,0-3.139-2.362,73.8,73.8,0,0,1-7.216,3.669,7.047,7.047,0,0,1-9.618-8.213,113.509,113.509,0,0,1,38.465-59.725,1.018,1.018,0,0,0,.173-1.411,54.724,54.724,0,0,1-10.756-36.584,1.056,1.056,0,0,0-.832-1.126l-11.19-2.324s2.69-28.248,15.693-49.322c0,0-24.661,14.348-44.838,56.945,0,0,46.447,13.153,14.587,45.756a14.2,14.2,0,0,1-18.344,1.819,2.617,2.617,0,0,0-3.1.08,78.623,78.623,0,0,1-13.15,8.014,9.763,9.763,0,0,1-13.934-8.236c-1-16.3,1.669-47.358,28.953-79.062a5.349,5.349,0,0,0,1.312-3.54c-.079-7.362.33-33.457,9.5-49.127,0,0-17.935,11.209-26.455,24.661,0,0,.359-50.742,16.994-87.472h-27.7a136.642,136.642,0,0,1-49.4,0H141.44s10.539,48.441,7.119,96.727c-.441,6.222-9.171,7.232-11.065,1.289-7-21.954-16.38-57.778-18.829-98.016H98.937s6.731,29.911,14.327,68.213a189.677,189.677,0,0,1-22.721-19.43,7.433,7.433,0,0,1-2.133-4.548C85.344,37.911,78.244,26.449,78.244,26.449H58.1C72.12,43.744,74.541,69.716,74.933,80.106a7.622,7.622,0,0,0,4.08,6.483c11.669,6.05,21.586,14.544,28.858,21.9A46.545,46.545,0,0,1,120.55,132.87c5.916,32.474,11.223,65.923,13.1,90.017a4.821,4.821,0,0,1-8.751,3.135A77.576,77.576,0,0,1,113.03,200.01a133.738,133.738,0,0,0-4.7,19.653,10.79,10.79,0,0,1-9.891,9.161c-14.181.925-39.017-3.883-28.133-52.272a6.6,6.6,0,0,0-.121-3.409C67.96,165.98,57.756,138.75,28,125.579c0,0,17.778,25.1,24.79,48.9a18.1,18.1,0,0,1,.689,6.325c-.561,8.47-2.89,31.653-11.938,44.32,0,0,28.488,19.135,52.341,45.809a2.238,2.238,0,0,1-.935,3.605c-3.882,1.316-12.04,2.262-26.3-3.679,0,0,7.623,14.8,0,24.661S28,310.445,28,310.445h73.664c56.222-5.555,110.088-5.931,161.084,0H312S285.145,303.131,292.715,274.009Z" style="fill:url(#linear-gradient)"/><path d="M287.17,29.161a112.877,112.877,0,0,1-9.824,38.755,1.832,1.832,0,0,0,2.693,2.28c8.168-5.5,23.561-18.249,30.811-39.975a2.882,2.882,0,0,0-2.748-3.772H290.049A2.879,2.879,0,0,0,287.17,29.161Z" style="fill:url(#linear-gradient-2)"/><path d="M178.372,26.449h49.4S199.677,154.753,198.6,247.34A13.737,13.737,0,0,0,218.022,260a81.379,81.379,0,0,0,9.562-5.064,2.23,2.23,0,0,1,3.295,2.595,69.928,69.928,0,0,0-3.458,16.986,10.732,10.732,0,0,0,13.261,11.167,26.857,26.857,0,0,0,5.944-2.233,2.227,2.227,0,0,1,3.2,2.379c-1.275,7.2-1.188,19.574,12.568,24.615H101.312s30.482-6.491,16.557-41.392a2.232,2.232,0,0,1,3.116-2.811,53.572,53.572,0,0,0,19.381,6.023,12.983,12.983,0,0,0,14.264-12.321,61.316,61.316,0,0,0-.363-10.141,2.229,2.229,0,0,1,3.591-2.014,30.98,30.98,0,0,0,5.911,3.612,8.883,8.883,0,0,0,12.611-7.234C179.448,211.07,187.6,107.6,178.372,26.449Z" style="fill:#fff"/><path d="M159.285,150.809a17.506,17.506,0,0,1,2.095,6.924,12.157,12.157,0,0,1-.4,5c-.969,3.073-3.683,7.056-11.28,5.271-7.1-1.669-5.408-10.01-3.088-16.116A7.057,7.057,0,0,1,159.285,150.809Z" style="fill:#fff"/><path d="M99.363,165.39a5.656,5.656,0,0,0-7.171,3.174c-.962,2.324-1.444,5.28.307,8a13.112,13.112,0,0,0,5.85,4.668A5.654,5.654,0,0,0,106.3,176.5C106.568,172.473,105.432,167.647,99.363,165.39Z" style="fill:url(#linear-gradient-3)"/><path d="M148.992,171.028a18.069,18.069,0,0,0,4.129.507,10.671,10.671,0,0,0,10.824-7.867,15.233,15.233,0,0,0,.523-6.276,20.675,20.675,0,0,0-2.5-8.14,10.161,10.161,0,0,0-18.26,1.532c-2.57,6.762-2.9,12.023-.978,15.639A9.18,9.18,0,0,0,148.992,171.028Zm.527-18.037a3.884,3.884,0,0,1,3.394-2.532c.116-.009.232-.014.346-.014a3.788,3.788,0,0,1,3.338,1.922h0a14.545,14.545,0,0,1,1.695,5.706,9.083,9.083,0,0,1-.272,3.725c-.679,2.154-2.158,4.461-7.607,3.181a2.933,2.933,0,0,1-2.193-1.472C147.22,161.627,147.694,157.794,149.519,152.991Z" style="fill:#3c3c4f"/><path d="M97.092,184.072a8.823,8.823,0,0,0,8.132-.52A8.686,8.686,0,0,0,109.4,176.7c.455-6.856-2.725-11.907-8.955-14.225a8.725,8.725,0,0,0-11.123,4.9c-1.647,3.979-1.451,7.737.565,10.868A15.982,15.982,0,0,0,97.092,184.072Zm-2.03-14.32A2.764,2.764,0,0,1,98.28,168.3c2.284.85,5.279,2.6,4.922,7.992-.054.808-.392,1.753-1.193,1.943-2.844.673-5.989-1.943-6.9-3.355C94.783,174.373,93.467,172.674,95.062,169.752Z" style="fill:#3c3c4f"/><circle cx="305.677" cy="253.247" r="3.714" style="fill:#3c3c4f"/><path d="M315.072,310.864a3.11,3.11,0,0,0-2.249-3.414c-.108-.03-10.967-3.15-15.885-12.809-3.411-6.7-3.275-15.09.4-24.942a3.107,3.107,0,0,0-4.69-3.632,76,76,0,0,1-11.533,6.4,3.826,3.826,0,0,1-4.084-.607,3.894,3.894,0,0,1-1.282-4,110.949,110.949,0,0,1,38.193-58.709,3.11,3.11,0,0,0,.4-4.451c-.126-.147-12.625-14.945-10.55-35.953a3.106,3.106,0,0,0-2.459-3.346l-9.3-1.933c1.04-7.49,4.744-28.767,14.9-45.231a3.106,3.106,0,0,0-4.2-4.316c-1.041.606-25.727,15.327-46.083,58.3a3.108,3.108,0,0,0,1.958,4.317c.2.057,19.8,5.778,23.044,18.006,1.736,6.539-1.571,14.141-9.829,22.592a10.993,10.993,0,0,1-15.419.541c-.17-.164-.339-.334-.507-.513a3.1,3.1,0,0,0-2.243-.983,3.193,3.193,0,0,0-2.26.947A51.073,51.073,0,0,1,238.17,226.4a6.692,6.692,0,0,1-9.555-5.65c-.949-15.719,1.626-46.8,29.536-78.31a3.111,3.111,0,0,0,.778-2.182c-.012-.319-1.133-32.05,9.038-49.424a3.106,3.106,0,0,0-4.327-4.2,115.415,115.415,0,0,0-20.43,16.766c2.23-17.033,7.5-50.823,16.9-76.943h-6.6c-12.709,36.557-17.544,84.879-17.768,87.17a3.106,3.106,0,0,0,5.716,1.964c4.211-6.649,10.962-12.808,16.457-17.179-5.323,16.278-5.331,35.7-5.227,40.838-28.632,32.877-31.27,65.354-30.272,81.878a12.9,12.9,0,0,0,18.424,10.885,57.515,57.515,0,0,0,12.836-8.509,17.3,17.3,0,0,0,22.591-2.013c9.9-10.134,13.734-19.738,11.386-28.547-3.221-12.084-17.228-18.689-23.865-21.191,10.873-21.947,22.882-35.834,31.278-43.764a144.947,144.947,0,0,0-9.555,37.657,3.108,3.108,0,0,0,2.461,3.336l9.442,1.961a57.755,57.755,0,0,0,10.306,35.3,117.074,117.074,0,0,0-37.987,60.1A10.152,10.152,0,0,0,283.6,278.163c2.006-.875,3.9-1.827,5.586-2.739-1.768,8.322-1.019,15.732,2.25,22.106a29.972,29.972,0,0,0,8.173,9.809H263.32c-4.329-1.7-7.354-4.389-9-8-3.566-7.84.148-17.738.184-17.831a3.107,3.107,0,0,0-4.875-3.518,23.326,23.326,0,0,1-9.341,4.681,7.624,7.624,0,0,1-9.416-7.93,66.925,66.925,0,0,1,5.868-22.665,3.107,3.107,0,0,0-4.723-3.819,68.862,68.862,0,0,1-14.915,8.912,10.642,10.642,0,0,1-10.249-.788,10.425,10.425,0,0,1-4.794-9.006c.273-23.446,2.327-51.335,6.1-82.847l4.94-36.8c5.73-38.788,13.924-80.028,18.324-101.28h-6.343c-4.473,21.673-12.489,62.207-18.132,100.412L202,163.743c-3.8,31.777-5.873,59.89-6.149,83.558a16.844,16.844,0,0,0,23.808,15.529,87.271,87.271,0,0,0,7.918-4.051,72.2,72.2,0,0,0-2.9,15.521,13.837,13.837,0,0,0,17.1,14.4,30.327,30.327,0,0,0,5.084-1.745,27.7,27.7,0,0,0,1.782,14.914,20.241,20.241,0,0,0,3.634,5.47H114.8a26.632,26.632,0,0,0,7.547-9.393c3.651-7.674,3.5-17.037-.433-27.918a56.406,56.406,0,0,0,18.473,5.326,15.784,15.784,0,0,0,12.079-3.777,16.185,16.185,0,0,0,5.618-11.49,64.871,64.871,0,0,0-.172-8.672,34.831,34.831,0,0,0,4.878,2.793,11.992,11.992,0,0,0,17.035-9.758c3.138-33.863,7.211-139.94.364-218h-6.235c6.882,77.674,2.816,183.652-.315,217.427a5.73,5.73,0,0,1-2.9,4.5,5.668,5.668,0,0,1-5.292.213c-7.047-3.329-9.485-7.688-9.494-7.7a3.106,3.106,0,0,0-5.76,2.224,55.226,55.226,0,0,1,1.689,16.689,9.819,9.819,0,0,1-3.457,7.062,9.649,9.649,0,0,1-7.373,2.314,49.759,49.759,0,0,1-23.948-9.3,3.106,3.106,0,0,0-4.74,3.812c6.655,13.013,8.136,23.622,4.4,31.53-4.142,8.775-13.731,11.658-15.473,12.116H52.625c6.846-2.5,13.289-5.788,16.486-9.924,5.3-6.863,4.4-15.463,2.8-21.31a52.509,52.509,0,0,0,11.028,2.363,9.305,9.305,0,0,0,7.633-15.684,330.709,330.709,0,0,0-44.789-38.493c10.013-16.825,10.932-45.343,10.968-46.613a3.1,3.1,0,0,0-.1-.853c-4-15.724-13.024-32.256-19.345-42.61,21.666,14.416,28.969,36.618,30.169,40.746-4.888,21.133-3.7,36.721,3.543,46.335,4.916,6.528,12.647,10.223,22.358,10.683a17.979,17.979,0,0,0,18.49-14.646c.418-2.293.89-4.478,1.361-6.463a79.894,79.894,0,0,0,9.128,16.945,7.928,7.928,0,0,0,14.386-5.17c-1.629-20.873-5.975-50.848-12.919-89.093A53.314,53.314,0,0,0,108.766,105C98.8,95.157,88.477,87.643,78.051,82.636,77.766,75.167,75.9,48.62,63.859,26.449H56.691c14.732,24.6,15.2,57.828,15.2,58.214a3.108,3.108,0,0,0,1.826,2.806C84.072,92.154,94.4,99.538,104.4,109.416a47.126,47.126,0,0,1,13.317,25.247c6.907,38.037,11.226,67.8,12.838,88.466a1.616,1.616,0,0,1-1.118,1.73,1.645,1.645,0,0,1-2-.628,74.143,74.143,0,0,1-11.395-24.971,3.106,3.106,0,0,0-5.958-.241,136.115,136.115,0,0,0-4.323,17.2,11.755,11.755,0,0,1-12.085,9.555c-7.915-.375-13.866-3.138-17.688-8.214-6.165-8.186-6.932-22.3-2.279-41.942a3.1,3.1,0,0,0,0-1.447c-.352-1.452-9.018-35.746-44.447-51.431a3.106,3.106,0,0,0-3.793,4.635c.189.267,18.885,26.858,25.061,50.552-.16,3.771-1.666,31.6-11.513,45.388a3.105,3.105,0,0,0,.8,4.384A320.787,320.787,0,0,1,86.09,267.081a2.984,2.984,0,0,1,.55,3.445,3.079,3.079,0,0,1-3.125,1.756,54.881,54.881,0,0,1-15.667-4.295,3.107,3.107,0,0,0-3.956,4.29c.067.13,6.643,13.134.3,21.339C58.563,300.9,35.8,306.022,27.5,307.379a3.106,3.106,0,0,0,.5,6.172H312A3.1,3.1,0,0,0,315.072,310.864Z" style="fill:#3c3c4f"/><path d="M116.311,94.057c-4.767-24.038-11-50.977-14.964-67.608H94.961c3.5,14.661,9.008,38.322,13.627,60.764a188.332,188.332,0,0,1-16.949-15.3,229.1,229.1,0,0,0-8.663-45.463H76.445a223.442,223.442,0,0,1,9.1,47.081,3.1,3.1,0,0,0,.821,1.855,186.76,186.76,0,0,0,25.083,21.8,3.107,3.107,0,0,0,4.863-3.125Z" style="fill:#3c3c4f"/><path d="M143.12,124.747a2.553,2.553,0,0,1-2.868-1.857c-5.636-17.778-15.7-58.2-18-96.441h-6.22c2.306,39,12.558,80.219,18.3,98.319a8.656,8.656,0,0,0,8.375,6.217,9.666,9.666,0,0,0,1.157-.07,8.841,8.841,0,0,0,7.848-8.278c2.261-33.327-3.572-74.18-7.38-96.188h-6.3c3.749,21.422,9.742,62.5,7.484,95.768A2.6,2.6,0,0,1,143.12,124.747Z" style="fill:#3c3c4f"/><path d="M276.268,76.093c1.352-.8,30.692-18.452,38.791-49.644h-6.447c-5.065,17.308-17.469,30.17-26.184,37.451a115.4,115.4,0,0,0,7.566-37.451h-6.269c-.411,10.94-2.706,28.3-11.783,45.52a3.129,3.129,0,0,0,.6,3.7A3.6,3.6,0,0,0,276.268,76.093Z" style="fill:#3c3c4f"/></svg>