<?xml version="1.0" encoding="UTF-8" standalone="no"?> <svg id="icons" xmlns="http://www.w3.org/2000/svg" xmlns:xlink="http://www.w3.org/1999/xlink" viewBox="0 0 340 340"><defs><linearGradient id="linear-gradient" x1="-11.445" y1="108.737" x2="199.745" y2="272.996" gradientUnits="userSpaceOnUse"><stop offset="0" stop-color="#ffb3c1"/><stop offset="1" stop-color="#d869c4"/></linearGradient><linearGradient id="linear-gradient-2" x1="-47.295" y1="154.831" x2="163.895" y2="319.09" xlink:href="#linear-gradient"/><linearGradient id="linear-gradient-3" x1="67.858" y1="6.776" x2="279.048" y2="171.035" xlink:href="#linear-gradient"/><linearGradient id="linear-gradient-4" x1="82.48" y1="-12.023" x2="293.67" y2="152.236" xlink:href="#linear-gradient"/><linearGradient id="linear-gradient-5" x1="95.265" y1="119.988" x2="270.046" y2="268.405" gradientUnits="userSpaceOnUse"><stop offset="0" stop-color="#ff8776"/><stop offset="1" stop-color="#ea503d"/></linearGradient></defs><path d="M95.57,100.325c-3.92,8.929-12.973,19.2-33.634,23.622-12.336,2.641-19.087,14.525-14.664,26.34.075.2.152.4.233.6a19.814,19.814,0,0,0,7.942,9.485c7.363,4.6,21.572,17.474,16.007,46.311a31.128,31.128,0,0,0,.946,16.194c3.976,11.347,16.346,25.8,54.045,22.223,0,0,22.423-2.875,36.5,7.722a4.572,4.572,0,0,1-3.331,8.2,60.285,60.285,0,0,0-35.879,6.1s-30.461,16.587-61.826-5.429c-19.881-13.955-19.163-40.027-15.972-57.248a27.581,27.581,0,0,0-9.095-25.8c-8.818-7.7-18.457-20.817-17.239-40.907,2.194-36.191,46.226-37.1,46.226-37.1s13.254-.155,23.28-6.073A4.562,4.562,0,0,1,95.57,100.325Z" style="fill:url(#linear-gradient)"/><path d="M79.267,297.486c-4.509-3.381-1.462-10.518,4.121-9.746a64.385,64.385,0,0,1,24.161,8.541,13.958,13.958,0,0,0,17.759-3.432c3.751-4.59,10.127-9.3,20.961-11.9a42.709,42.709,0,0,1,21.98,1.336,17.254,17.254,0,0,0,8.789.759c4.715-.8,7.4,5.259,3.748,8.349-4.04,3.418-9.9,6.146-18.376,6.474a23.7,23.7,0,0,0-17.708,8.92A38.646,38.646,0,0,1,131.98,317.5a34.215,34.215,0,0,1-29.819.534,42.058,42.058,0,0,1-16.255-13.749,30.957,30.957,0,0,0-6.364-6.6C79.45,297.624,79.359,297.554,79.267,297.486Z" style="fill:url(#linear-gradient-2)"/><path d="M47.656,69.914c-5.422.075-7.112,7.488-2.2,9.788a43.406,43.406,0,0,0,18.617,3.715c11.513,0,23.333-9.308,33-19.8a28.178,28.178,0,0,1,38.012-3.151,52.948,52.948,0,0,0,4.491,3.119A46.1,46.1,0,0,0,174.78,68.93c10.865-2.626,34.123-4.358,45.1,5.295,14.88,13.09,8.377,32.173,8.377,32.173-2.166,9.535-4.316,27.593,5.02,43.1a5.164,5.164,0,0,0,9.593-2.28c.46-6.781,2.309-16.227,6.985-29.17,0,0,19.341-38.969-9.665-67.529-18.039-17.762-52.729-3.331-52.729-3.331s-23.648,8.848-39.669-12.626C133.062,14.828,97.817,6.673,75.081,52.683,75.081,52.683,65.94,69.661,47.656,69.914Z" style="fill:url(#linear-gradient-3)"/><path d="M270.921,140.171a130.973,130.973,0,0,0,3.8,36.8,6.741,6.741,0,0,0,12.451,1.561,39.048,39.048,0,0,1,5.17-7.262c12.32-13.787,20.534-31.681,14.081-47.521-5.647-13.861-24.32-13.347-32.438,3.505A32.651,32.651,0,0,0,270.921,140.171Z" style="fill:url(#linear-gradient-4)"/><path d="M160.122,138.3c5.384,2.475,10.528,7.624,11.433,18.169,0,0-1.55,17.042,25.261,20.086a7.768,7.768,0,0,0,8.67-7.38,77.718,77.718,0,0,0-2.524-23.073c-6.512-24.174-27.44-42.027-52.406-43.907a55.961,55.961,0,0,0-20.735,2.293,60.654,60.654,0,0,0-42.648,54.864c-.648,13.448,2.991,29.653,16.736,46.552,0,0,14.125,19.26,55.855,22.47,22.361,1.72,38.271,2.15,48.222,2.178a25.983,25.983,0,0,1,21.39,11.319,227.889,227.889,0,0,1,14.433,24.33,26.858,26.858,0,0,0,21.222,14.465h0a38.889,38.889,0,0,1,27.045,15.1c4.346,5.691,9.421,12.587,14.014,19.469a7.87,7.87,0,0,0,6.546,3.507h0a7.865,7.865,0,0,0,7.437-10.44c-3.028-8.722-8.006-22.1-14.732-36.972a38.766,38.766,0,0,0-27.819-22l-9.978-1.976a5.592,5.592,0,0,1-4.305-3.983,207.661,207.661,0,0,0-12.755-32.78,20.655,20.655,0,0,0-20.292-11.7c-16.4,1.338-45.724,2.569-77.169-1.652,0,0-24.814-1.182-26.834-32.732a21.5,21.5,0,0,1,1.549-9.511,34.973,34.973,0,0,1,8.305-12.243C142.55,136.654,152.02,134.576,160.122,138.3Z" style="fill:url(#linear-gradient-5)"/><path d="M229.918,195.576c-14.931,1.218-44.719,2.626-76.453-1.634-.084-.011-.184-.02-.269-.025-.732-.042-18-1.263-22.65-22.116a27.886,27.886,0,0,1,6.913-25.787c.277-.281.562-.561.857-.837,5.76-5.4,13.775-6.912,20.418-3.857,5.6,2.574,8.793,7.695,9.49,15.219a19.676,19.676,0,0,0,5.268,13.448c6.093,6.734,16.584,10.217,31.182,10.351h.031a3.324,3.324,0,0,0,3.261-2.683,78.138,78.138,0,0,0-1.8-32.418c-6.938-25.756-29.188-44.385-55.366-46.357a59.373,59.373,0,0,0-21.958,2.43,63.913,63.913,0,0,0-44.995,57.882c-.824,17.1,5.042,33.5,17.437,48.758,1.213,1.6,16.385,20.52,58.22,23.738,22.871,1.76,38.977,2.161,48.462,2.188a22.666,22.666,0,0,1,18.663,9.874,224.034,224.034,0,0,1,14.218,23.968A30.06,30.06,0,0,0,264.7,283.974a35.69,35.69,0,0,1,24.733,13.809c5.323,6.968,10,13.461,13.892,19.3a11.191,11.191,0,0,0,19.888-9.869c-3.02-8.7-8.046-22.218-14.844-37.252a42.154,42.154,0,0,0-30.2-23.888l-11.358-2.25c-1.26-4.775-4.966-17.19-13.326-34.66A24.12,24.12,0,0,0,229.918,195.576Zm30.941,51.86c0,.016,0,.03.007.045.026.1,2.609,10.4,3.48,15.775a3.325,3.325,0,0,0,3.277,2.793,3.257,3.257,0,0,0,.536-.044,3.325,3.325,0,0,0,2.75-3.813c-.512-3.155-1.538-7.739-2.364-11.25l8.332,1.65A35.5,35.5,0,0,1,302.313,272.7c6.695,14.808,11.646,28.127,14.621,36.694a4.542,4.542,0,0,1-4.3,6.025,4.54,4.54,0,0,1-3.781-2.028c-3.973-5.953-8.729-12.561-14.137-19.642a42.371,42.371,0,0,0-29.357-16.389,23.436,23.436,0,0,1-18.594-12.675A230.7,230.7,0,0,0,232.124,240a29.309,29.309,0,0,0-24.134-12.774c-9.372-.026-25.3-.424-47.971-2.168-39.439-3.034-53.3-20.955-53.429-21.122q-.049-.067-.1-.132c-11.357-13.962-16.739-28.864-16-44.294a57.248,57.248,0,0,1,40.3-51.846,52.555,52.555,0,0,1,15.447-2.31q2.025,0,4.063.153c23.37,1.76,43.24,18.421,49.446,41.458a74.685,74.685,0,0,1,2.071,26.644c-10.891-.495-18.906-3.225-23.284-7.956a12.815,12.815,0,0,1-3.674-8.885,3.266,3.266,0,0,0,0-.585c-1.091-12.706-7.866-18.381-13.356-20.9-9.111-4.188-20-2.207-27.74,5.045q-.546.512-1.058,1.034a34.506,34.506,0,0,0-8.655,31.89c5.486,24.583,26.279,27.09,28.6,27.292,32.324,4.331,62.616,2.9,77.8,1.661a17.434,17.434,0,0,1,17.028,9.829c10.246,21.407,13.325,35.21,13.354,35.344C260.846,247.4,260.854,247.416,260.859,247.436Z" style="fill:#3c3c4f"/><path d="M55.255,256.01a3.324,3.324,0,0,0,.164,4.7q.326.3.659.6a3.324,3.324,0,0,0,4.43-4.958c-.188-.167-.372-.335-.555-.506A3.324,3.324,0,0,0,55.255,256.01Z" style="fill:#3c3c4f"/><path d="M34.651,181.15a24.393,24.393,0,0,1,8.013,22.688c-2.392,12.913-3.539,31.431,4.588,46.315a3.324,3.324,0,0,0,5.835-3.186C45.9,233.8,47.005,216.9,49.2,205.049a31.071,31.071,0,0,0-10.178-28.908c-7.981-6.967-17.255-19.251-16.106-38.2C24.9,105.273,64.224,104,65.864,103.967c.578-.007,14.264-.238,24.931-6.535a1.135,1.135,0,0,1,1.4.162,1.156,1.156,0,0,1,.332,1.4C87.7,109.981,77.175,117.285,61.24,120.7a23.615,23.615,0,0,0-15.926,11.545,22.791,22.791,0,0,0-1.158,19.2c.083.222.168.445.258.672A23.306,23.306,0,0,0,53.685,163.2c7.591,4.744,19.57,16.62,14.5,42.861a34.529,34.529,0,0,0,1.073,17.924c4.626,13.2,18.354,28.15,57.5,24.433.037,0,.073-.007.109-.012.21-.029,21.229-2.591,34.073,7.08a1.166,1.166,0,0,1,.419,1.484,1.151,1.151,0,0,1-1.324.761,63.79,63.79,0,0,0-37.895,6.475c-.242.132-24.5,13.012-51.148-.857a3.324,3.324,0,0,0-3.07,5.9,63.665,63.665,0,0,0,57.353.822,57.119,57.119,0,0,1,33.908-5.744,7.9,7.9,0,0,0,5.756-14.148c-14.756-11.111-37.256-8.57-38.859-8.372-34.821,3.3-46.7-9.065-50.543-20.018a27.884,27.884,0,0,1-.82-14.465c6.034-31.264-10.235-45.213-17.51-49.759a16.6,16.6,0,0,1-6.612-7.887c-.072-.182-.142-.363-.211-.549a16.245,16.245,0,0,1,.761-13.688A16.757,16.757,0,0,1,62.632,127.2c22.6-4.838,32.04-16.557,35.982-25.536a7.886,7.886,0,0,0-11.2-9.954C78.3,97.086,65.907,97.318,65.757,97.32a70.837,70.837,0,0,0-23.512,5.236C26.238,109.3,17.26,121.392,16.281,137.538,14.969,159.184,25.546,173.2,34.651,181.15Z" style="fill:#3c3c4f"/><path d="M176.48,279.764a13.989,13.989,0,0,1-7.118-.614,45.9,45.9,0,0,0-23.871-1.436c-10,2.406-17.657,6.791-22.757,13.032a10.608,10.608,0,0,1-13.487,2.678,67.661,67.661,0,0,0-25.4-8.976,8.746,8.746,0,0,0-9.4,5.4,8.609,8.609,0,0,0,2.824,10.291l.261.2a27.634,27.634,0,0,1,5.678,5.89,45.334,45.334,0,0,0,17.534,14.814,36.587,36.587,0,0,0,15.631,3.454,38.446,38.446,0,0,0,17.09-4.017,41.507,41.507,0,0,0,13.844-11.628,20.4,20.4,0,0,1,15.232-7.665c8.217-.318,15.079-2.76,20.395-7.258a8.053,8.053,0,0,0,2.1-9.648A7.887,7.887,0,0,0,176.48,279.764Zm2.159,9.089c-4.156,3.516-9.66,5.43-16.358,5.69A27.043,27.043,0,0,0,142.1,304.718a34.923,34.923,0,0,1-11.6,9.809,31.075,31.075,0,0,1-26.916.5,38.773,38.773,0,0,1-14.976-12.683,34.25,34.25,0,0,0-7.059-7.307l-.281-.212-.005,0a1.965,1.965,0,0,1-.669-2.446,2.125,2.125,0,0,1,1.972-1.373,2.8,2.8,0,0,1,.368.026,61.065,61.065,0,0,1,22.919,8.106,17.294,17.294,0,0,0,22.031-4.186c4.16-5.091,10.608-8.717,19.164-10.776a39.743,39.743,0,0,1,20.091,1.237,20.564,20.564,0,0,0,10.46.9,1.226,1.226,0,0,1,1.406.767A1.421,1.421,0,0,1,178.639,288.853Z" style="fill:#3c3c4f"/><path d="M233.347,49.39c.184.111.366.225.549.342a3.324,3.324,0,1,0,3.584-5.6c-.227-.146-.456-.288-.687-.428a3.324,3.324,0,1,0-3.446,5.685Z" style="fill:#3c3c4f"/><path d="M44.045,82.712a46.978,46.978,0,0,0,20.027,4.029c10.759,0,22.684-7.022,35.442-20.87A24.727,24.727,0,0,1,133.045,63.1a56.6,56.6,0,0,0,4.772,3.314,49.711,49.711,0,0,0,37.744,5.752c11.2-2.707,32.543-3.866,42.118,4.559,12.978,11.417,7.657,27.918,7.427,28.606-.037.11-.069.222-.095.335-2.252,9.914-4.543,29.013,5.413,45.553a8.367,8.367,0,0,0,7.222,4.147,8.879,8.879,0,0,0,2.078-.25,8.333,8.333,0,0,0,6.457-7.665c.523-7.689,2.788-17.143,6.735-28.1,1.5-3.111,17.066-37.2-5.387-65.616a3.324,3.324,0,0,0-5.217,4.122c20.4,25.817,4.719,58.4,4.56,58.72a3.587,3.587,0,0,0-.149.349c-4.194,11.61-6.608,21.728-7.175,30.074a1.739,1.739,0,0,1-1.385,1.653,1.786,1.786,0,0,1-2.043-.863c-8.708-14.465-6.679-31.523-4.66-40.5.72-2.254,6.336-21.719-9.389-35.554C209.16,60.371,182.991,63.525,174,65.7a43.045,43.045,0,0,1-32.672-4.936,50.292,50.292,0,0,1-4.21-2.924,31.337,31.337,0,0,0-42.493,3.526C83.338,73.617,72.773,80.093,64.072,80.093a40.433,40.433,0,0,1-17.207-3.4,1.634,1.634,0,0,1-.947-1.962A1.771,1.771,0,0,1,47.7,73.237C67.709,72.961,77.6,55.023,78.008,54.259c.019-.034.036-.068.053-.1,12.2-24.693,26.7-30.966,36.714-31.88,11.376-1.039,23,4.432,30.348,14.276,17.312,23.205,43.238,13.849,43.5,13.752l.109-.043c.173-.072,17.385-7.1,33.053-4.82a3.324,3.324,0,1,0,.958-6.578c-17.137-2.5-35,4.619-36.487,5.228-1.391.5-21.717,7.366-35.8-11.514-8.717-11.684-22.617-18.163-36.28-16.922-11.7,1.068-28.475,8.091-42.034,35.484C71.65,52,63.252,66.373,47.61,66.59a8.373,8.373,0,0,0-8.192,6.74A8.257,8.257,0,0,0,44.045,82.712Z" style="fill:#3c3c4f"/><path d="M280.029,185.294a10.961,10.961,0,0,0,10.057-5.169,35.877,35.877,0,0,1,4.734-6.643c15.476-17.318,20.826-35.9,14.68-50.99-2.935-7.206-9.115-11.645-16.53-11.875-8.909-.256-17.334,5.545-21.981,15.192a35.82,35.82,0,0,0-3.39,14.232,134.267,134.267,0,0,0,3.905,37.765A9.842,9.842,0,0,0,280.029,185.294ZM274.243,140.3a29.209,29.209,0,0,1,2.736-11.607c4.171-8.661,10.872-11.593,15.785-11.432,4.78.148,8.636,2.968,10.579,7.738,7.316,17.958-6.99,36.789-13.481,44.053a42.525,42.525,0,0,0-5.607,7.88,3.336,3.336,0,0,1-3.411,1.763,3.374,3.374,0,0,1-2.908-2.567A127.431,127.431,0,0,1,274.243,140.3Z" style="fill:#3c3c4f"/></svg>