<?xml version="1.0" encoding="UTF-8" standalone="no"?> <svg xmlns="http://www.w3.org/2000/svg" viewBox="0 0 512 512"><title>magic_scroll</title><g id="poison_spider"><path d="M342.86,224.92h0a11,11,0,0,1-9.77-12L344.81,100a11,11,0,0,1,12-9.78h0a11,11,0,0,1,9.78,12L354.9,215.14A11,11,0,0,1,342.86,224.92Z" style="fill:#ad5a58"/><path d="M348.67,238.35h0a11,11,0,0,1-10.3-11.89c2.09-23.92,8.53-79.92,24.73-112a25.06,25.06,0,0,1,20.56-13.73,25.85,25.85,0,0,1,18.13,6.12c36.88,30.14,70,48.78,91.4,51.83a10.89,10.89,0,0,1,9.29,9.86h0a10.93,10.93,0,0,1-12.32,11.85c-34.78-5-78.34-37-103-57.13a2.76,2.76,0,0,0-2.38-.59,3.13,3.13,0,0,0-2.15,1.7c-14.39,28.44-20.44,81.38-22.44,103.94A11,11,0,0,1,348.67,238.35Z" style="fill:#dd8378"/><path d="M486.59,267.81c-2.14,7.3-11,10.45-17,5.76-7.71-6.05-14.75-15.35-21.05-27.81-6.59-13-11.28-27.64-14.33-44.64-6.45-36-20.5-55.16-29.5-64.16a5.74,5.74,0,0,0-4.57-1.65h0a5.65,5.65,0,0,0-4.06,2.2c-18.46,24.92-23.58,79.48-24.3,108.62A11,11,0,0,1,361,256.83h0a10.93,10.93,0,0,1-11.13-11.19c.67-26.66,5-92.77,30.84-124.07a25.72,25.72,0,0,1,18-9.27,25,25,0,0,1,18.89,6.62c13.19,12.12,30.54,35.54,38.21,78.33,2.67,14.87,6.7,27.5,12.32,38.62,4.73,9.37,9.83,16.31,14.79,20.28a10.93,10.93,0,0,1,3.7,11.62Z" style="fill:#ffb7a5"/><path d="M348.91,249.92c3.55-30.67,14.24-189.71-139.64-227.66-35.69-8.8-73.43-4.85-105.77,12.64-22.74,12.31-47.08,32-63.17,63.33a150,150,0,0,0,7.48,149.49c22.94,35.42,66,70.77,146.59,70.51,0,0,60.81-1.6,98.34-1.77a36.89,36.89,0,0,0,32.12-19.07l21.07-38.18A25.2,25.2,0,0,0,348.91,249.92Z" style="fill:#a99ff1"/><path d="M209.27,22.26c3,.73,5.84,1.52,8.66,2.34C215.1,23.78,212.23,23,209.27,22.26Z" style="fill:#e0f2ff"/><path d="M194.07,19.33c2,.29,4,.63,6.06,1C198.11,20,196.09,19.62,194.07,19.33Z" style="fill:#e0f2ff"/><path d="M177.63,17.86c2.52.09,5.05.25,7.57.46C182.68,18.11,180.15,18,177.63,17.86Z" style="fill:#e0f2ff"/><path d="M186,18.39c2.22.2,4.44.46,6.65.75Q189.33,18.69,186,18.39Z" style="fill:#e0f2ff"/><path d="M201.82,20.63c2.49.48,5,1,7.45,1.63C206.8,21.65,204.31,21.12,201.82,20.63Z" style="fill:#e0f2ff"/><path d="M305.69,100.13,299,91.68a25.24,25.24,0,0,1-5.44-16.25c.06-2.6,0-5.64-.12-8.85C275,49,250.74,34.21,218.94,24.89c2.76.82,5.48,1.67,8.14,2.56.9,12.83-5.27,24.35-15.83,27.66-12.85,4-27.31-5.62-32.3-21.53a35.6,35.6,0,0,1-1.32-15.72,144.73,144.73,0,0,0-74.13,17c-19,10.26-39,25.68-54.47,48.65-1.2,23,4.79,59.5,49.69,77.7,0,0,48.16,15.37,81.57-4.25a25.83,25.83,0,0,1,27.19,1.11l15.35,10.13a35.18,35.18,0,0,0,22.68,5.83,36.2,36.2,0,0,0,7.71-1.54,6.51,6.51,0,0,0,2.61-10.81l-16-15.92a8.34,8.34,0,0,1,2.08-13.33l2.49-1.28a8.35,8.35,0,0,1,9.44,1.26l35.65,32.62a9,9,0,0,0,13.13-12.18l-27.23-34.68a8.36,8.36,0,0,1,.19-10.53l.13-.15a8.33,8.33,0,0,1,12.39-.39l8.83,9.22A7.06,7.06,0,0,0,309,112.53,16.17,16.17,0,0,0,305.69,100.13ZM136.83,113.21c-19,0-34.42-12.44-34.42-27.79s15.41-27.78,34.42-27.78,34.42,12.44,34.42,27.78S155.84,113.21,136.83,113.21ZM226,91.4a23.23,23.23,0,0,1-11.82,7.42,10.82,10.82,0,0,1-13.79-8.4,25,25,0,0,1-.13-8.35,10.69,10.69,0,0,1,11-8.9,39.9,39.9,0,0,1,9.06,1.34C227.65,76.56,230.78,85.54,226,91.4Z" style="fill:#e0f2ff"/><path d="M217.93,24.6l1,.29Z" style="fill:#e0f2ff"/><path d="M185.2,18.32l.79.07Z" style="fill:#e0f2ff"/><path d="M192.64,19.14l1.43.19Z" style="fill:#e0f2ff"/><polygon points="177.63 17.86 177.63 17.86 177.63 17.86 177.63 17.86" style="fill:#e0f2ff"/><path d="M200.13,20.33c.56.1,1.13.19,1.69.3C201.26,20.52,200.69,20.43,200.13,20.33Z" style="fill:#e0f2ff"/><path d="M250.63,37c8.32,23.69,22.93,75.13,15.08,126.9-5.58,36.77-26.63,69.32-57,90.77-25.32,17.87-63.36,37.52-110.85,40.68,23.93,13.76,55.32,23,96.56,22.84,0,0,60.81-1.6,98.34-1.77a36.89,36.89,0,0,0,32.12-19.07l21.07-38.18a25.2,25.2,0,0,0,3-9.29C352.1,222.32,361.06,90.74,250.63,37Z" style="fill:#696aaf"/><path d="M267.61,145.08l21.86,20a9,9,0,0,0,13.13-12.18l-27.23-34.68a8.36,8.36,0,0,1,.19-10.53l.13-.15a8.33,8.33,0,0,1,12.39-.39l8.83,9.22A7.06,7.06,0,0,0,309,112.53a16.17,16.17,0,0,0-3.29-12.4L299,91.68a25.24,25.24,0,0,1-5.44-16.25c.06-2.6,0-5.64-.12-8.85A168,168,0,0,0,250.63,37C257.93,57.84,270.08,100,267.61,145.08Z" style="fill:#bbc9fc"/><path d="M384.52,325.55s6.53,22,34.42,26.79a4.68,4.68,0,0,0,4.82-6.94l-13.11-22.81Z" style="fill:#c0daff"/><path d="M431,287.42s19.82,5.82,24.17,30.88a4.21,4.21,0,0,1-6.23,4.34L428.4,310.92Z" style="fill:#c0daff"/><path d="M300.75,299.24c2.72-14.93,13.11-49.46,51.36-56.41,12.32-2.24,25.94-2.72,39.41,1.68,15.1,4.93,35.29,15.77,44.92,38,4.73,10.9,0,26.12-8.35,34.54-10.78,10.84-31.79,22.22-71.18,16.69,0,0-34.67-4.8-52.13-21.69A14.23,14.23,0,0,1,300.75,299.24Z" style="fill:#a99ff1"/><path d="M436.44,282.47c-9.63-22.18-29.82-33-44.92-38a72.09,72.09,0,0,0-25.3-3.28c14.08,11.64,27.09,85.93-44,82.21,16.6,7.73,34.64,10.26,34.64,10.26,39.39,5.53,60.4-5.85,71.18-16.69C436.48,308.59,441.17,293.37,436.44,282.47Z" style="fill:#696aaf"/><circle cx="389.46" cy="309.22" r="12.37" style="fill:#fff"/><path d="M429.36,290.31a10.91,10.91,0,1,1-10.91-10.91A10.92,10.92,0,0,1,429.36,290.31Z" style="fill:#fff"/><path d="M362.28,295.83a6.21,6.21,0,1,1-6.21-6.21A6.21,6.21,0,0,1,362.28,295.83Z" style="fill:#fff"/><circle cx="407.54" cy="265.63" r="4.87" style="fill:#fff"/><path d="M9.55,318.07h0a10.9,10.9,0,0,1,9.12-12c38.51-6.14,95.49-53.87,115.88-73.51a107.48,107.48,0,0,1,28.57-19.05,63.16,63.16,0,0,1,47.5-2.38c48.88,17.28,69.2,74.25,75.87,99.06a11,11,0,0,1-8.64,13.67h0a11,11,0,0,1-12.58-7.94c-5.77-21.17-23.08-70.37-62-84.1a41.92,41.92,0,0,0-31.08,1.64,85.44,85.44,0,0,0-22.61,15c-8,7.7-74.78,70.69-127.58,79.21A10.92,10.92,0,0,1,9.55,318.07Z" style="fill:#ad5a58"/><path d="M73.86,417.18h0A10.8,10.8,0,0,1,79,405.51c30.66-18,73.41-105.28,94.73-160.42a125.53,125.53,0,0,1,14.74-28.88A41.18,41.18,0,0,1,244.65,205c37.61,24.39,52.19,84.09,56.81,109.41A11,11,0,0,1,292,327.33h0a11,11,0,0,1-12.11-8.91c-4.12-22.35-17.55-74-47.88-93.68-8.69-5.63-19.52-4.56-25.59,4.08a104.5,104.5,0,0,0-12.16,24C188.2,268.44,138.46,394.1,90,424.13A10.81,10.81,0,0,1,73.86,417.18Z" style="fill:#dd8378"/><path d="M192.61,490.94h0a10.75,10.75,0,0,1-1.46-13.22c19.24-30.13,29-116.15,31.65-184.94a187.49,187.49,0,0,1,2-21.69c3.38-21.9,10-38.66,19.63-49.89,4.91-5.71,11.5-9.92,19-10.78a28.49,28.49,0,0,1,29,16c11.45,23.77,18.78,71.17,21.88,90.2a11,11,0,0,1-9.37,12.66h0a10.94,10.94,0,0,1-12.28-9.06c-2.94-17.92-9.82-63.16-20-84.28a6.51,6.51,0,0,0-4.86-3.68,6,6,0,0,0-5.33,1.73c-5.27,5.38-12.32,16.76-16,40.45a166.34,166.34,0,0,0-1.73,19.17C243,340.24,236.1,446,209.77,489A10.91,10.91,0,0,1,192.61,490.94Z" style="fill:#ffb7a5"/></g></svg>