<?xml version="1.0" encoding="UTF-8" standalone="no"?> <svg xmlns="http://www.w3.org/2000/svg" xmlns:xlink="http://www.w3.org/1999/xlink" viewBox="0 0 512 512"><defs><linearGradient id="linear-gradient" x1="256" y1="93.28" x2="256" y2="373.05" gradientUnits="userSpaceOnUse"><stop offset="0" stop-color="#bfc29f"/><stop offset="1" stop-color="#9b9b6e"/></linearGradient></defs><title>treant</title><g id="treant"><path d="M249.85,375.83c-2.16,29.7-15.6,70.77-70.27,86a4.86,4.86,0,0,0-3.26,4.8h0c0,2.72,1.87,4.93,4.17,4.93h50.87A17.84,17.84,0,0,0,249.15,455L254,383.52a8.16,8.16,0,0,0-4.18-7.69Z" style="fill:#89563b"/><path d="M317.2,411.41s20.23,38.3,65.65,43.23a3.58,3.58,0,0,1,3.24,3.54h0a3.57,3.57,0,0,1-3.57,3.57H341.05A23.85,23.85,0,0,1,317.2,437.9Z" style="fill:#89563b"/><path d="M171.47,267.19l4.92,31.05a33.92,33.92,0,0,0,22.51,26.64c17.91,6.23,42.46,19.15,46,43.76l-4.16-56.4s-54.05,4.92-53.52-49.59Z" style="fill:#89563b"/><path d="M376.22,266.17l-3.38,27.5a29.88,29.88,0,0,1-19,24.15c-15.59,6-36.81,18.17-39.18,39.95l1.94-49.8s47.75,2.68,45.62-45.32Z" style="fill:#89563b"/><path d="M227.79,254.81S250.63,347.54,240,452.13a44.11,44.11,0,0,1-8,21.32c-5.48,7.61-14.7,16.42-29.77,21.53a4.59,4.59,0,0,0-.2,8.61c12.37,4.94,33.31,8.67,52.76-9.69a29,29,0,0,1,17.06-8.09,32.21,32.21,0,0,1,4.31-.09,27.81,27.81,0,0,1,16,6.37c6.34,5.13,23.15,16.62,43.92,14.14a3.9,3.9,0,0,0,2.09-6.76c-4-3.63-5.48-5.57-10.07-13.1,0,0,32.53,9.45,56.58.79a4.62,4.62,0,0,0-.34-8.77c-15.65-4.5-43.17-15.43-56.67-38.92A45,45,0,0,1,322,418.79c-1.13-28.15-4.16-119.84,2.27-161.59Z" style="fill:#ce9e7c"/><path d="M294.82,290a51.4,51.4,0,0,0,26.12,8c.6-15.66,1.62-29.94,3.3-40.82l-96.45-2.39s3.43,14,7,37.11C247.58,298,276,303.42,294.82,290Z" style="fill:#89563b"/><path d="M271.83,457.36c-3.75,24.59-17.06,36.54-17.06,36.54a29,29,0,0,1,17.06-8.09,32.21,32.21,0,0,1,4.31-.09,27.81,27.81,0,0,1,16,6.37c-10.46-9.35-15.36-24.51-17.59-34.87A1.37,1.37,0,0,0,271.83,457.36Z" style="fill:#89563b"/><path d="M363.75,490.76c-19.29.23-32.33-18.89-41.83-27.33-1.33-1.19-5.29-1.57-3.47,3.12a131.28,131.28,0,0,0,9.61,19.82A130,130,0,0,0,363.75,490.76Z" style="fill:#89563b"/><path d="M204.78,256.7s52.31,46.94,114,6.7c0,0,52.3,32.86,87.17-11.4,0,0,35.42.52,47-36.64a70.89,70.89,0,0,0,1.83-34c-2.66-14.2-10-34.43-30-44.67,0,0,20.12-33.53,0-69.06,0,0-21.46-39.57-69.74-29.51,0,0-36.88-42.24-114.66-32.18,0,0-65.71,4-97.9,51.63,0,0-25.14-1.86-44.78,21.18a66.44,66.44,0,0,0-14.85,33.83c-1.72,12.12-1.44,28.08,8.67,38.19a57.83,57.83,0,0,0-15.14,6.37c-37.16,22.06-19.8,79.71,23.38,78.17l1.15,0s2.49,25.86,34.43,36.46a69.48,69.48,0,0,0,34.15,2.12C180.94,271.75,195.85,267.12,204.78,256.7Z" style="fill:url(#linear-gradient)"/><path d="M454.75,181.34c-2.66-14.2-10-34.43-30-44.67,0,0,20.12-33.53,0-69.06a66.05,66.05,0,0,0-32.54-27.25C403.83,49.94,418.9,68,414.66,95.1c0,0-4.17,22.82-25.25,32.87,0-.14,0-.28.07-.42a32.2,32.2,0,0,0-24-34.93,3.77,3.77,0,0,0-4.22,5.27,23.68,23.68,0,0,1,2.13,12c-2.17,20.9-17.63,28.35-26.38,30.9a3.79,3.79,0,0,0-1.63,6.37A32.12,32.12,0,0,0,385.3,140c5.57,10.28,12.66,28.67,7.39,49.69-5.63,22.48-24.32,39.06-46.86,44.44A91.73,91.73,0,0,1,309,235.49a16.5,16.5,0,0,0-18.23,11.24c-3.95,11.69-14.07,26.51-39.64,31.55,19.07,3.42,42.57,1.45,67.61-14.88,0,0,52.3,32.86,87.17-11.4,0,0,35.42.52,47-36.64A70.89,70.89,0,0,0,454.75,181.34Z" style="fill:#7f7d56"/><path d="M218.47,147.43a3.76,3.76,0,0,0-4.21,5.27,23.53,23.53,0,0,1,2.12,12c-2.16,20.91-17.62,28.35-26.37,30.9a3.8,3.8,0,0,0-1.63,6.38,32.17,32.17,0,1,0,30.09-54.51Z" style="fill:#7f7d56"/><path d="M267.77,316.9a7.42,7.42,0,0,0-5.89,2.13c-4.24,2.81-6.7,7.76-3.06,12.27,2.12,2.63,4.73,3.57,4.81,7.39.07,3.14-.34,5.08,1.93,7.61s7.74.68,7.33-3c-.1-1-.37-2.56-.56-4.27a4.77,4.77,0,0,0,.68-1.31c.73-2.15,1.88-3.32,3-5.23,1.25-2.21,1.1-4.7.48-7.11C275.38,321.15,272.39,317.2,267.77,316.9Z" style="fill:#89563b"/><path d="M307.32,327.58a13.39,13.39,0,0,0-.69-3.84,9.48,9.48,0,0,0-1.74-4.78c-3.78-5.24-11.07-4.14-15.33-.16a12.32,12.32,0,0,0-2.51,13,11.54,11.54,0,0,0,6,5.61,7.64,7.64,0,0,1,1.79,3.24c.65,2.94,5.24,3.64,6.61.87a9,9,0,0,0,1-3.56,28.52,28.52,0,0,1,2.14-3.13A10.71,10.71,0,0,0,307.32,327.58Z" style="fill:#89563b"/><path d="M270.32,379.64c.92,21.23.44,42.41.47,63.64,0,2.51,3.77,2.49,3.88,0,1-21.18-.37-42.53-2.07-63.64-.12-1.45-2.34-1.48-2.28,0Z" style="fill:#89563b"/><path d="M315.39,452.68c-1.58-7.57-4.49-14.78-5.78-22.48-1.14-6.76-.35-14.84-3.49-21-.78-1.53-3-1-3.48.45-2.17,6.87.35,16.4,1.89,23.37,1.61,7.22,4.14,15.19,9.71,20.32a.7.7,0,0,0,1.15-.67Z" style="fill:#89563b"/><path d="M302.64,396.87c3.77,0,3.78-5.85,0-5.85s-3.77,5.85,0,5.85Z" style="fill:#89563b"/><path d="M273.52,327.16a6,6,0,1,1-6-6A6,6,0,0,1,273.52,327.16Z" style="fill:#fff"/><path d="M303.18,327.16a6,6,0,1,1-6-6A6,6,0,0,1,303.18,327.16Z" style="fill:#fff"/></g></svg>