<svg width="326" height="492" viewBox="0 0 326 492" fill="none" xmlns="http://www.w3.org/2000/svg">
<path d="M196.06 14.36C199.623 14.36 202.51 11.4722 202.51 7.90996C202.51 4.34772 199.623 1.45996 196.06 1.45996C192.498 1.45996 189.61 4.34772 189.61 7.90996C189.61 11.4722 192.498 14.36 196.06 14.36Z" fill="#C7DAFF"/>
<path d="M260 115.16C260 115.16 272.07 118.16 276.5 132.78C279.59 142.99 277.5 154.35 269.75 161.65C265.777 165.397 260.637 167.667 255.19 168.08L260 115.16Z" fill="#A06260"/>
<path d="M109.55 260.61C109.55 260.61 51.6802 272.28 4.11018 331.07C2.91632 332.521 2.03042 334.2 1.50647 336.004C0.982522 337.809 0.831497 339.701 1.0626 341.566C1.2937 343.43 1.90209 345.229 2.85069 346.851C3.79929 348.473 5.06823 349.884 6.58018 351C18.7702 359.9 38.3102 379.73 57.2102 422.69C57.2102 422.69 81.3002 484.35 169.35 491.17C184.914 492.507 200.56 489.825 214.79 483.38C242.32 470.61 283.91 439.88 289.37 369.64C290.7 354.476 288.028 339.228 281.62 325.42C266.7 294.11 225.17 251.22 109.55 260.61Z" fill="#F9C8B2"/>
<path d="M289.37 369.6C290.7 354.436 288.028 339.188 281.62 325.38C268.44 297.74 234.43 261.06 146.91 259.38L139.42 277.87L129.94 320.53C129.94 320.53 145.32 375.36 213.06 380.18C213.06 380.18 253.52 384.47 230.43 474.75C255.9 458.46 284.87 427.42 289.37 369.6Z" fill="#DDA288"/>
<path d="M204.9 431.15C204.9 433.286 204.267 435.375 203.079 437.151C201.892 438.927 200.205 440.312 198.231 441.129C196.257 441.946 194.085 442.159 191.99 441.742C189.894 441.324 187.97 440.295 186.46 438.783C184.95 437.272 183.922 435.346 183.507 433.251C183.091 431.155 183.306 428.983 184.125 427.01C184.944 425.037 186.33 423.351 188.107 422.165C189.885 420.98 191.974 420.348 194.11 420.35C195.528 420.35 196.932 420.629 198.242 421.172C199.552 421.715 200.741 422.511 201.744 423.514C202.746 424.517 203.54 425.707 204.082 427.018C204.624 428.328 204.902 429.732 204.9 431.15Z" fill="#D39671"/>
<path d="M115 106.69C115 106.69 65.7804 139.43 46.0804 183.89C39.3004 199.2 38.8004 216.83 46.1504 231.89C53.5004 246.95 69.3704 263.23 103.3 268L115 106.69Z" fill="#773E41"/>
<path d="M250.15 206.49H256C261.093 206.487 265.977 204.462 269.577 200.86C273.178 197.258 275.2 192.373 275.2 187.28C275.2 182.188 273.178 177.304 269.577 173.704C265.976 170.103 261.093 168.08 256 168.08H250.11L250.15 206.49Z" fill="#C66760"/>
<path d="M118.51 93.82V53.75C69.51 52.93 54.17 19.84 49.51 2.56C49.3571 1.98174 49.0172 1.4703 48.5433 1.10539C48.0694 0.740479 47.4881 0.542603 46.89 0.542603C46.2919 0.542603 45.7105 0.740479 45.2366 1.10539C44.7627 1.4703 44.4229 1.98174 44.27 2.56C37.11 29.26 27.37 98.14 118.51 93.82Z" fill="#EEF6FF"/>
<path d="M255.23 89.19V53.61C298.69 52.89 312.35 23.51 316.52 8.18001C316.659 7.67002 316.962 7.21993 317.382 6.89908C317.802 6.57823 318.316 6.40442 318.845 6.40442C319.374 6.40442 319.888 6.57823 320.308 6.89908C320.728 7.21993 321.031 7.67002 321.17 8.18001C327.49 31.87 336.13 93 255.23 89.19Z" fill="#819FEA"/>
<path d="M118.51 93.82V53.75C111.486 53.65 104.499 52.7271 97.69 51C94 62.08 84.19 76 59 79.5C70.87 89.18 89.6 95.19 118.51 93.82Z" fill="#C7DAFF"/>
<path d="M262.69 115.16L260.04 255.01H98.0601L100.78 116.47L262.69 115.16Z" fill="url(#paint0_linear_4_588)"/>
<path d="M25.6699 311C37.5799 312.12 53.83 315.48 68.61 324.71C88.39 337.07 110.42 345.29 133.61 347.33C175.52 351 236.88 349.74 281.49 320.44C282.681 319.647 283.701 318.624 284.491 317.431C285.28 316.239 285.824 314.9 286.089 313.495C286.355 312.089 286.337 310.644 286.037 309.246C285.736 307.847 285.159 306.523 284.34 305.35C271.83 287.35 233.24 249.35 130.1 248.95C130.1 248.95 66.9299 252.19 20.7699 296.87C19.6213 297.954 18.8103 299.348 18.4346 300.882C18.0588 302.416 18.1343 304.027 18.6518 305.519C19.1694 307.012 20.1071 308.323 21.3521 309.295C22.5971 310.267 24.0965 310.859 25.6699 311Z" fill="#BC7D5C"/>
<path d="M99.0004 206.49H93.1104C88.0156 206.49 83.1294 204.466 79.5269 200.863C75.9243 197.261 73.9004 192.375 73.9004 187.28C73.903 182.187 75.9281 177.303 79.5304 173.703C83.1327 170.102 88.0173 168.08 93.1104 168.08H99.0004V206.49Z" fill="#E8897B"/>
<path d="M99.56 115.16L97.85 274.46C97.7046 288.399 100.324 302.228 105.558 315.148C110.792 328.068 118.535 339.822 128.341 349.729C138.147 359.637 149.819 367.502 162.684 372.87C175.549 378.237 189.35 381.001 203.29 381C218.325 380.989 232.742 375.013 243.375 364.382C254.007 353.751 259.987 339.335 260 324.3V223.88L167.41 224.36L141.58 238.7C141.58 238.7 106.68 225.31 106.68 171.18V115.18L99.56 115.16Z" fill="url(#paint1_linear_4_588)"/>
<path d="M229.11 147.22V255H260L262.65 115.15L184.11 115.78C191.17 116.61 202.48 118.43 212.03 122.2C217.062 124.171 221.382 127.613 224.429 132.076C227.476 136.539 229.107 141.816 229.11 147.22Z" fill="#E8897B"/>
<path d="M228.92 268V317.31C229.041 331.222 226.08 344.988 220.25 357.62C216.189 366.434 210.452 374.375 203.36 381C218.385 380.976 232.787 374.993 243.406 364.363C254.024 353.733 259.992 339.325 260 324.3V223.88L245.45 223.96L198.15 230.08C198.15 230.08 227.35 230.89 228.92 268Z" fill="#773E41"/>
<path d="M99 179.62C99 179.62 105.58 155.46 128.78 148.34C142.33 144.18 153.1 132.46 151.71 116.48H99.56L99 179.62Z" fill="#773E41"/>
<path d="M193 153.13C193 154.698 192.535 156.232 191.664 157.536C190.792 158.84 189.554 159.856 188.105 160.456C186.656 161.057 185.061 161.214 183.523 160.908C181.985 160.602 180.572 159.846 179.463 158.737C178.354 157.628 177.598 156.215 177.293 154.677C176.987 153.139 177.144 151.544 177.744 150.095C178.344 148.646 179.36 147.408 180.664 146.536C181.969 145.665 183.502 145.2 185.07 145.2C186.112 145.2 187.143 145.405 188.105 145.804C189.067 146.202 189.941 146.786 190.678 147.523C191.414 148.259 191.998 149.133 192.397 150.095C192.795 151.057 193 152.089 193 153.13Z" fill="#333345"/>
<path d="M252.83 153.13C252.83 154.698 252.365 156.232 251.494 157.536C250.622 158.84 249.384 159.856 247.935 160.456C246.486 161.057 244.891 161.214 243.353 160.908C241.815 160.602 240.402 159.846 239.293 158.737C238.184 157.628 237.429 156.215 237.123 154.677C236.817 153.139 236.974 151.544 237.574 150.095C238.174 148.646 239.19 147.408 240.495 146.536C241.799 145.665 243.332 145.2 244.9 145.2C245.942 145.2 246.973 145.405 247.935 145.804C248.897 146.202 249.771 146.786 250.508 147.523C251.244 148.259 251.828 149.133 252.227 150.095C252.625 151.057 252.83 152.089 252.83 153.13Z" fill="#333345"/>
<path d="M280.11 228.77C276.24 227.669 272.625 225.815 269.475 223.313C266.324 220.81 263.699 217.71 261.75 214.19C258.871 209.111 254.934 204.71 250.204 201.286C245.475 197.863 240.064 195.498 234.34 194.35C227.92 193.03 198.2 193.03 191.77 194.35C186.047 195.499 180.639 197.866 175.912 201.289C171.184 204.712 167.248 209.112 164.37 214.19C162.42 217.711 159.793 220.812 156.641 223.314C153.488 225.816 149.872 227.671 146 228.77C140.52 230.41 139.23 238.09 143.79 241.71C153.05 249.07 164.66 249.54 173.03 248.55C175.902 248.216 178.671 247.283 181.159 245.81C183.646 244.337 185.796 242.357 187.47 240C197.29 226.1 228.82 226.1 238.64 240C240.314 242.357 242.465 244.337 244.952 245.812C247.439 247.286 250.208 248.223 253.08 248.56C261.45 249.56 273.08 249.08 282.32 241.72C286.88 238.09 285.59 230.41 280.11 228.77Z" fill="#BC8285"/>
<path d="M177.29 90.68V16.81C177.29 16.81 108.77 15.26 101.54 87.86L177.29 90.68Z" fill="#EEF6FF"/>
<path d="M217.29 16.8101C217.29 16.8101 277.29 29.0701 272.22 86.5901H217.29V16.8101Z" fill="#C7DAFF"/>
<path d="M115 88.3601L177.29 90.6801V36.6801C172.53 55.7201 157.87 80.5501 115 88.3601Z" fill="#C7DAFF"/>
<path d="M182 7.91002H210.2C212.077 7.92053 213.875 8.67088 215.202 9.99824C216.529 11.3256 217.28 13.1229 217.29 15V87.86H174.83V15C174.835 14.0637 175.025 13.1376 175.388 12.2745C175.751 11.4115 176.281 10.6284 176.947 9.97004C177.612 9.31167 178.401 8.79088 179.268 8.43743C180.136 8.08397 181.064 7.90476 182 7.91002Z" fill="#EEF6FF"/>
<path d="M272.08 83.8199H103.41C98.2019 83.8199 93.98 88.0419 93.98 93.2499V110.77C93.98 115.978 98.2019 120.2 103.41 120.2H272.08C277.288 120.2 281.51 115.978 281.51 110.77V93.2499C281.51 88.0419 277.288 83.8199 272.08 83.8199Z" fill="#C7DAFF"/>
<path d="M281.51 93.2499C281.51 90.749 280.516 88.3504 278.748 86.5819C276.98 84.8135 274.581 83.8199 272.08 83.8199H232.88C231.59 92.9699 223.42 117.57 188.75 120.2H272.08C274.581 120.2 276.98 119.206 278.748 117.438C280.516 115.669 281.51 113.271 281.51 110.77V93.2499Z" fill="#819FEA"/>
<path d="M280.11 228.77C276.24 227.67 272.626 225.815 269.475 223.313C266.324 220.811 263.699 217.71 261.75 214.19C258.272 208.008 253.208 202.864 247.08 199.29C247.42 218.46 235.08 226.99 223.08 230.75C229.6 232.29 235.32 235.35 238.6 239.99C240.274 242.347 242.425 244.327 244.912 245.802C247.399 247.276 250.168 248.213 253.04 248.55C261.41 249.55 273.04 249.07 282.28 241.71C286.88 238.09 285.59 230.41 280.11 228.77Z" fill="#9E6369"/>
<path d="M215.58 187.28C217.695 187.28 219.41 185.565 219.41 183.45C219.41 181.335 217.695 179.62 215.58 179.62C213.465 179.62 211.75 181.335 211.75 183.45C211.75 185.565 213.465 187.28 215.58 187.28Z" fill="#E8897B"/>
<path d="M196.06 70.12C199.623 70.12 202.51 67.2322 202.51 63.67C202.51 60.1077 199.623 57.22 196.06 57.22C192.498 57.22 189.61 60.1077 189.61 63.67C189.61 67.2322 192.498 70.12 196.06 70.12Z" fill="#C7DAFF"/>
<path d="M202.415 35.1446C202.98 31.6276 200.588 28.3178 197.071 27.752C193.554 27.1861 190.244 29.5785 189.678 33.0955C189.113 36.6125 191.505 39.9223 195.022 40.4882C198.539 41.054 201.849 38.6616 202.415 35.1446Z" fill="#C7DAFF"/>
<defs>
<linearGradient id="paint0_linear_4_588" x1="180.38" y1="135.18" x2="180.38" y2="316.99" gradientUnits="userSpaceOnUse">
<stop offset="0.01" stop-color="#FFC3B0"/>
<stop offset="1" stop-color="#E8897B"/>
</linearGradient>
<linearGradient id="paint1_linear_4_588" x1="178.94" y1="332.16" x2="178.94" y2="128.95" gradientUnits="userSpaceOnUse">
<stop stop-color="#A06260"/>
<stop offset="1" stop-color="#82494C"/>
</linearGradient>
</defs>
</svg>
