<svg width="326" height="492" viewBox="0 0 326 492" fill="none" xmlns="http://www.w3.org/2000/svg">
<path d="M129.94 14.3602C126.378 14.3602 123.49 11.4724 123.49 7.9102C123.49 4.34797 126.378 1.46021 129.94 1.46021C133.502 1.46021 136.39 4.34797 136.39 7.9102C136.39 11.4724 133.502 14.3602 129.94 14.3602Z" fill="#C7DAFF"/>
<path d="M66 115.16C66 115.16 53.93 118.16 49.5 132.78C46.41 142.99 48.5 154.35 56.25 161.65C60.2239 165.397 65.3636 167.667 70.81 168.08L66 115.16Z" fill="#A06260"/>
<path d="M216.45 260.61C216.45 260.61 274.32 272.28 321.89 331.07C323.084 332.521 323.97 334.2 324.494 336.004C325.018 337.809 325.169 339.701 324.938 341.566C324.706 343.431 324.098 345.229 323.149 346.851C322.201 348.473 320.932 349.884 319.42 351C307.23 359.9 287.69 379.73 268.79 422.69C268.79 422.69 244.7 484.35 156.65 491.17C141.086 492.507 125.44 489.825 111.21 483.38C83.68 470.61 42.09 439.88 36.63 369.64C35.3003 354.476 37.9726 339.228 44.38 325.42C59.3 294.11 100.83 251.22 216.45 260.61Z" fill="#F9C8B2"/>
<path d="M36.63 369.6C35.3003 354.436 37.9726 339.188 44.38 325.38C57.56 297.74 91.57 261.06 179.09 259.38L186.58 277.87L196.06 320.53C196.06 320.53 180.68 375.36 112.94 380.18C112.94 380.18 72.48 384.47 95.57 474.75C70.1 458.46 41.13 427.42 36.63 369.6Z" fill="#DDA288"/>
<path d="M121.1 431.15C121.1 433.287 121.734 435.375 122.921 437.151C124.108 438.928 125.795 440.312 127.769 441.129C129.743 441.946 131.915 442.159 134.011 441.742C136.106 441.324 138.03 440.295 139.54 438.783C141.05 437.272 142.078 435.347 142.494 433.251C142.909 431.155 142.694 428.983 141.875 427.01C141.056 425.037 139.67 423.351 137.893 422.165C136.116 420.98 134.026 420.348 131.89 420.35C130.472 420.35 129.068 420.63 127.759 421.172C126.449 421.715 125.259 422.511 124.257 423.514C123.255 424.517 122.46 425.708 121.918 427.018C121.377 428.328 121.099 429.732 121.1 431.15Z" fill="#D39671"/>
<path d="M211 106.69C211 106.69 260.22 139.43 279.92 183.89C286.7 199.2 287.2 216.83 279.85 231.89C272.5 246.95 256.63 263.23 222.7 268L211 106.69Z" fill="#773E41"/>
<path d="M75.85 206.49H70C64.9069 206.487 60.0234 204.462 56.4229 200.86C52.8225 197.258 50.8 192.373 50.8 187.28C50.8 182.188 52.8229 177.304 56.4236 173.704C60.0243 170.103 64.9078 168.08 70 168.08H75.89L75.85 206.49Z" fill="#C66760"/>
<path d="M207.49 93.8201V53.7501C256.49 52.9301 271.83 19.8401 276.49 2.56012C276.643 1.98186 276.983 1.47042 277.457 1.10551C277.931 0.740601 278.512 0.542725 279.11 0.542725C279.708 0.542725 280.289 0.740601 280.763 1.10551C281.237 1.47042 281.577 1.98186 281.73 2.56012C288.89 29.2601 298.63 98.1401 207.49 93.8201Z" fill="#EEF6FF"/>
<path d="M70.77 89.1901V53.6101C27.31 52.8901 13.65 23.5101 9.48004 8.18013C9.34089 7.67014 9.0379 7.22005 8.61777 6.8992C8.19764 6.57835 7.68366 6.40454 7.15503 6.40454C6.6264 6.40454 6.11242 6.57835 5.69229 6.8992C5.27216 7.22005 4.96918 7.67014 4.83002 8.18013C-1.48998 31.8701 -10.13 93.0001 70.77 89.1901Z" fill="#819FEA"/>
<path d="M207.49 93.82V53.75C214.514 53.65 221.501 52.7271 228.31 51C232 62.08 241.81 76 267 79.5C255.13 89.18 236.4 95.19 207.49 93.82Z" fill="#C7DAFF"/>
<path d="M63.31 115.16L65.96 255.01H227.94L225.22 116.47L63.31 115.16Z" fill="url(#paint0_linear_1_929)"/>
<path d="M300.33 311C288.42 312.12 272.17 315.48 257.39 324.71C237.61 337.07 215.58 345.29 192.39 347.33C150.48 351 89.12 349.74 44.51 320.44C43.3194 319.647 42.2993 318.624 41.5094 317.432C40.7195 316.239 40.1759 314.9 39.9105 313.495C39.645 312.089 39.663 310.645 39.9634 309.246C40.2639 307.847 40.8407 306.523 41.66 305.35C54.17 287.35 92.76 249.35 195.9 248.95C195.9 248.95 259.07 252.19 305.23 296.87C306.379 297.955 307.19 299.348 307.565 300.882C307.941 302.417 307.866 304.027 307.348 305.519C306.831 307.012 305.893 308.323 304.648 309.295C303.403 310.268 301.903 310.86 300.33 311Z" fill="#BC7D5C"/>
<path d="M227 206.49H232.89C237.985 206.49 242.871 204.466 246.474 200.864C250.076 197.261 252.1 192.375 252.1 187.28C252.097 182.187 250.072 177.303 246.47 173.703C242.868 170.103 237.983 168.08 232.89 168.08H227V206.49Z" fill="#E8897B"/>
<path d="M226.44 115.16L228.15 274.46C228.295 288.399 225.676 302.228 220.442 315.148C215.208 328.068 207.465 339.822 197.659 349.73C187.853 359.637 176.181 367.503 163.316 372.87C150.451 378.238 136.65 381.001 122.71 381C107.675 380.99 93.2578 375.013 82.6252 364.382C71.9926 353.751 66.0133 339.336 66 324.3V223.88L158.59 224.36L184.42 238.7C184.42 238.7 219.32 225.31 219.32 171.18V115.18L226.44 115.16Z" fill="url(#paint1_linear_1_929)"/>
<path d="M96.89 147.22V255H66L63.35 115.15L141.89 115.78C134.83 116.61 123.52 118.43 113.97 122.2C108.939 124.172 104.618 127.613 101.571 132.076C98.5247 136.539 96.8934 141.816 96.89 147.22Z" fill="#E8897B"/>
<path d="M97.08 268V317.31C96.9591 331.222 99.92 344.988 105.75 357.62C109.812 366.434 115.548 374.375 122.64 381C107.615 380.976 93.2132 374.993 82.5946 364.363C71.976 353.733 66.0079 339.325 66 324.3V223.88L80.55 223.96L127.85 230.08C127.85 230.08 98.65 230.89 97.08 268Z" fill="#773E41"/>
<path d="M227 179.62C227 179.62 220.42 155.46 197.22 148.34C183.67 144.18 172.9 132.46 174.29 116.48H226.44L227 179.62Z" fill="#773E41"/>
<path d="M133 153.13C133 154.699 133.465 156.232 134.336 157.536C135.208 158.84 136.446 159.856 137.895 160.457C139.344 161.057 140.939 161.214 142.477 160.908C144.015 160.602 145.428 159.847 146.537 158.738C147.646 157.629 148.402 156.216 148.708 154.677C149.014 153.139 148.857 151.545 148.256 150.096C147.656 148.647 146.64 147.408 145.336 146.537C144.032 145.665 142.498 145.2 140.93 145.2C139.889 145.2 138.857 145.405 137.895 145.804C136.933 146.202 136.059 146.786 135.323 147.523C134.586 148.259 134.002 149.133 133.604 150.096C133.205 151.058 133 152.089 133 153.13Z" fill="#333345"/>
<path d="M73.17 153.13C73.17 154.699 73.6351 156.232 74.5065 157.536C75.3778 158.84 76.6163 159.856 78.0653 160.457C79.5144 161.057 81.1088 161.214 82.6471 160.908C84.1854 160.602 85.5984 159.847 86.7074 158.738C87.8164 157.629 88.5717 156.216 88.8777 154.677C89.1836 153.139 89.0266 151.545 88.4264 150.096C87.8262 148.647 86.8098 147.408 85.5057 146.537C84.2016 145.665 82.6684 145.2 81.1 145.2C80.0587 145.2 79.0274 145.405 78.0653 145.804C77.1032 146.202 76.229 146.786 75.4927 147.523C74.7563 148.259 74.1722 149.133 73.7736 150.096C73.3751 151.058 73.17 152.089 73.17 153.13Z" fill="#333345"/>
<path d="M45.89 228.77C49.7601 227.67 53.3745 225.815 56.5253 223.313C59.6762 220.811 62.3014 217.71 64.25 214.19C67.1285 209.111 71.066 204.71 75.7955 201.287C80.5249 197.863 85.9355 195.498 91.66 194.35C98.08 193.03 127.8 193.03 134.23 194.35C139.952 195.5 145.361 197.866 150.088 201.289C154.816 204.712 158.752 209.112 161.63 214.19C163.58 217.711 166.207 220.812 169.359 223.314C172.512 225.817 176.128 227.671 180 228.77C185.48 230.41 186.77 238.09 182.21 241.71C172.95 249.07 161.34 249.54 152.97 248.55C150.098 248.216 147.329 247.283 144.841 245.81C142.354 244.337 140.204 242.357 138.53 240C128.71 226.1 97.18 226.1 87.36 240C85.6857 242.358 83.5354 244.337 81.0481 245.812C78.5608 247.286 75.7918 248.223 72.92 248.56C64.55 249.56 52.92 249.08 43.68 241.72C39.12 238.09 40.41 230.41 45.89 228.77Z" fill="#BC8285"/>
<path d="M148.71 90.6802V16.8102C148.71 16.8102 217.23 15.2602 224.46 87.8602L148.71 90.6802Z" fill="#EEF6FF"/>
<path d="M108.71 16.8101C108.71 16.8101 48.71 29.0701 53.78 86.5901H108.71V16.8101Z" fill="#C7DAFF"/>
<path d="M211 88.3602L148.71 90.6802V36.6802C153.47 55.7202 168.13 80.5502 211 88.3602Z" fill="#C7DAFF"/>
<path d="M144 7.91002H115.8C113.923 7.92053 112.126 8.67088 110.798 9.99824C109.471 11.3256 108.721 13.1229 108.71 15V87.86H151.17V15C151.165 14.0637 150.975 13.1376 150.612 12.2745C150.249 11.4115 149.719 10.6284 149.053 9.97004C148.388 9.31167 147.599 8.79088 146.732 8.43743C145.865 8.08397 144.936 7.90476 144 7.91002Z" fill="#EEF6FF"/>
<path d="M53.92 83.8201H222.59C227.798 83.8201 232.02 88.042 232.02 93.2501V110.77C232.02 115.978 227.798 120.2 222.59 120.2H53.92C48.712 120.2 44.49 115.978 44.49 110.77V93.2501C44.49 88.042 48.712 83.8201 53.92 83.8201Z" fill="#C7DAFF"/>
<path d="M44.49 93.2501C44.49 90.7491 45.4835 88.3505 47.252 86.5821C49.0205 84.8136 51.419 83.8201 53.92 83.8201H93.12C94.41 92.9701 102.58 117.57 137.25 120.2H53.92C51.419 120.2 49.0205 119.207 47.252 117.438C45.4835 115.67 44.49 113.271 44.49 110.77V93.2501Z" fill="#819FEA"/>
<path d="M45.89 228.77C49.7601 227.67 53.3745 225.815 56.5254 223.313C59.6762 220.811 62.3014 217.71 64.25 214.19C67.7285 208.008 72.7924 202.864 78.92 199.29C78.58 218.46 90.92 226.99 102.92 230.75C96.4 232.29 90.68 235.35 87.4 239.99C85.7257 242.347 83.5754 244.327 81.0881 245.802C78.6008 247.276 75.8318 248.213 72.96 248.55C64.59 249.55 52.96 249.07 43.72 241.71C39.12 238.09 40.41 230.41 45.89 228.77Z" fill="#9E6369"/>
<path d="M110.42 187.28C108.305 187.28 106.59 185.565 106.59 183.45C106.59 181.335 108.305 179.62 110.42 179.62C112.535 179.62 114.25 181.335 114.25 183.45C114.25 185.565 112.535 187.28 110.42 187.28Z" fill="#E8897B"/>
<path d="M129.94 70.1202C126.378 70.1202 123.49 67.2324 123.49 63.6702C123.49 60.108 126.378 57.2202 129.94 57.2202C133.502 57.2202 136.39 60.108 136.39 63.6702C136.39 67.2324 133.502 70.1202 129.94 70.1202Z" fill="#C7DAFF"/>
<path d="M123.586 35.1449C123.02 31.6279 125.412 28.3181 128.929 27.7522C132.446 27.1863 135.756 29.5787 136.322 33.0957C136.888 36.6128 134.495 39.9226 130.978 40.4884C127.461 41.0543 124.152 38.6619 123.586 35.1449Z" fill="#C7DAFF"/>
<defs>
<linearGradient id="paint0_linear_1_929" x1="145.62" y1="135.18" x2="145.62" y2="316.99" gradientUnits="userSpaceOnUse">
<stop offset="0.01" stop-color="#FFC3B0"/>
<stop offset="1" stop-color="#E8897B"/>
</linearGradient>
<linearGradient id="paint1_linear_1_929" x1="147.06" y1="332.16" x2="147.06" y2="128.95" gradientUnits="userSpaceOnUse">
<stop stop-color="#A06260"/>
<stop offset="1" stop-color="#82494C"/>
</linearGradient>
</defs>
</svg>
