<svg width="368" height="498" viewBox="0 0 368 498" fill="none" xmlns="http://www.w3.org/2000/svg">
<path d="M9.14987 361.38C9.14987 361.38 8.71987 406.5 19.1499 445.98L59.6299 355.31C59.6299 355.31 24.3399 351.84 9.14987 361.38Z" fill="#E8897B"/>
<path d="M213.5 462.47C213.5 462.47 204.03 489.24 172.36 496.34C160.9 498.9 148.84 497.93 138.36 492.71C130.457 488.892 123.832 482.861 119.29 475.35C118.971 474.826 118.524 474.393 117.991 474.09C117.458 473.788 116.857 473.626 116.244 473.621C115.631 473.616 115.027 473.768 114.489 474.062C113.951 474.355 113.497 474.782 113.17 475.3C108.187 482.853 101.204 488.874 93 492.69C77.86 499.82 60.26 498.69 45.61 490.58C38.5803 486.831 32.4408 481.611 27.6092 475.277C22.7775 468.942 19.3671 461.641 17.61 453.87C15.4198 444.162 15.4198 434.088 17.61 424.38C21.19 407.38 43.17 373.64 59.61 355.31C59.61 355.31 144.08 374.83 213.5 462.47Z" fill="url(#paint0_linear_1_856)"/>
<path d="M17.61 424.38C17.75 423.69 17.92 422.94 18.08 422.2C34.52 421.64 75.72 415.27 81.31 366.2C116 379.69 170.23 407.85 213.5 462.47C213.5 462.47 204.03 489.24 172.36 496.34C160.9 498.9 148.84 497.93 138.36 492.71C130.457 488.892 123.832 482.861 119.29 475.35C118.971 474.826 118.524 474.393 117.991 474.09C117.458 473.788 116.857 473.626 116.244 473.621C115.631 473.616 115.027 473.768 114.489 474.062C113.951 474.355 113.497 474.782 113.17 475.3C108.187 482.853 101.204 488.874 93 492.69C77.86 499.82 60.26 498.69 45.61 490.58C38.5803 486.831 32.4408 481.611 27.6092 475.277C22.7775 468.942 19.3671 461.641 17.61 453.87C15.4198 444.162 15.4198 434.088 17.61 424.38Z" fill="#B56D95"/>
<path d="M17.61 424.38C17.75 423.69 17.92 422.94 18.08 422.2C26.9 421.9 42.83 419.92 56.57 410.6C53.82 428.6 50.75 479.79 103.24 486.27C100.113 488.816 96.688 490.972 93.04 492.69C77.9 499.82 60.3 498.69 45.65 490.58C38.6204 486.831 32.4808 481.611 27.6492 475.276C22.8175 468.942 19.4071 461.641 17.65 453.87C15.4466 444.165 15.433 434.091 17.61 424.38Z" fill="#934A74"/>
<path d="M118.61 428.83C121.402 423.477 125.281 418.766 130 415C130.272 414.8 130.467 414.512 130.553 414.186C130.639 413.859 130.611 413.513 130.473 413.205C130.335 412.897 130.096 412.645 129.795 412.491C129.495 412.337 129.151 412.291 128.82 412.36L117.71 414.67C114.665 412.433 111.478 410.396 108.17 408.57C107.873 408.404 107.529 408.344 107.193 408.401C106.858 408.458 106.553 408.628 106.327 408.883C106.102 409.137 105.97 409.461 105.954 409.801C105.939 410.141 106.039 410.475 106.24 410.75C109.53 415.18 113.72 421.75 115.5 428.49C115.584 428.82 115.766 429.116 116.023 429.339C116.28 429.562 116.599 429.702 116.937 429.739C117.275 429.776 117.617 429.709 117.916 429.546C118.215 429.384 118.457 429.134 118.61 428.83Z" fill="#934A74"/>
<path d="M128.41 432.38C128.908 431.796 129.563 431.367 130.298 431.145C131.032 430.923 131.815 430.917 132.553 431.128C133.291 431.339 133.953 431.758 134.46 432.334C134.966 432.911 135.296 433.621 135.41 434.38C142.12 475.06 176.25 488.38 185.83 491.6C181.553 493.708 177.042 495.303 172.39 496.35C160.93 498.91 148.87 497.94 138.39 492.72C131.523 489.382 125.6 484.381 121.16 478.17C119.112 472.904 118.156 467.277 118.35 461.63C118.73 447.28 124 437.83 128.41 432.38Z" fill="#934A74"/>
<path d="M179.87 30.1799C179.87 30.1799 195.31 -4.31007 237 0.819929C253.791 3.008 269.393 10.67 281.39 22.6199C295 35.9999 310.29 58.7499 308.89 92.7799C308.727 96.075 308.393 99.3594 307.89 102.62C306.37 113.15 302.65 137.33 298.63 150.62C297.409 154.647 296.654 158.801 296.38 163V163.72C294.93 186.37 307.57 208.04 328.57 216.65C337.567 220.204 347.178 221.947 356.85 221.78C358.782 221.783 360.678 222.31 362.335 223.304C363.992 224.299 365.349 225.723 366.262 227.426C367.174 229.13 367.609 231.048 367.519 232.979C367.429 234.909 366.817 236.779 365.75 238.39C359.64 247.81 347.75 258.6 324.57 264.39C309.15 268.24 292.79 267.82 278.07 261.79C269.69 258.35 261.07 253.05 255.76 244.93C255.76 244.93 253.96 258.63 239.69 259.93C233.09 260.55 226.63 258.02 221.5 253.81C214.23 247.81 203.72 236.57 202.34 220.56C202.3 220.57 245 125.26 179.87 30.1799Z" fill="#FFE19F"/>
<path d="M253.11 251.78C251.703 254.136 249.741 256.111 247.395 257.534C245.049 258.956 242.389 259.782 239.65 259.94C233.05 260.56 226.59 258.03 221.46 253.82C214.19 247.82 203.68 236.58 202.3 220.57C205.338 213.21 207.795 205.623 209.65 197.88C214.7 220.37 226.6 243.34 253.11 251.78Z" fill="#D8A648"/>
<path d="M207.15 467.8C184 443.12 97.0001 356.14 26.3901 362.12C21.0944 362.489 16.021 364.394 11.7901 367.6L10.9501 368.28C10.3604 368.777 9.6611 369.126 8.90991 369.3C8.15872 369.473 7.37701 369.466 6.62915 369.279C5.88129 369.091 5.18863 368.729 4.60812 368.221C4.02762 367.714 3.57593 367.076 3.29013 366.36C-1.58987 354.45 -5.29987 330.72 40.2001 327.08C40.2001 327.08 34.9701 301.81 83.8501 306.29C83.8501 306.29 89.1201 268.17 152.7 266.85C152.7 266.85 231.24 265.12 220.1 308.74C220.1 308.74 299.93 325.36 304.59 382.8C304.73 384.836 304.62 386.881 304.26 388.89C301.9 402.89 288.75 454.81 222.03 472.17C219.386 472.845 216.609 472.796 213.99 472.027C211.372 471.258 209.009 469.798 207.15 467.8Z" fill="#CFC46E"/>
<path d="M40.2 327.08C40.2 327.08 34.97 301.81 83.85 306.29C83.8525 306.257 83.8525 306.223 83.85 306.19C83.85 306.19 83.85 306.14 83.85 306.12C83.85 306.1 83.85 305.99 83.85 305.88C83.85 305.77 83.85 305.75 83.85 305.69C83.85 305.63 83.85 305.51 83.92 305.39C83.99 305.27 83.97 305.18 83.99 305.07C84.01 304.96 83.99 304.84 84.08 304.71C84.17 304.58 84.15 304.44 84.19 304.31C84.23 304.18 84.26 304.03 84.31 303.88C84.36 303.73 84.41 303.54 84.46 303.37C84.51 303.2 84.55 303.06 84.61 302.9C84.67 302.74 84.74 302.5 84.81 302.3C84.88 302.1 84.93 301.95 85 301.77C85.07 301.59 85.16 301.33 85.25 301.11C85.34 300.89 85.4 300.72 85.48 300.52C85.56 300.32 85.68 300.04 85.79 299.79L86.06 299.17C86.18 298.9 86.31 298.63 86.44 298.36L86.76 297.71C86.9 297.43 87.05 297.14 87.21 296.85L87.58 296.17C87.74 295.87 87.92 295.57 88.1 295.26L88.52 294.56C88.72 294.24 88.92 293.92 89.14 293.56C89.36 293.2 89.45 293.08 89.61 292.84C89.77 292.6 90.07 292.19 90.31 291.84C90.55 291.49 90.67 291.35 90.85 291.1C91.03 290.85 91.36 290.43 91.63 290.1L92.25 289.34C92.53 289 92.83 288.67 93.13 288.34C93.43 288.01 93.58 287.85 93.81 287.6C94.04 287.35 94.46 286.9 94.81 286.6C95.16 286.3 95.3 286.1 95.55 285.86L96.66 284.81L97.48 284.08C97.87 283.73 98.28 283.39 98.69 283.08L99.6 282.36C100.03 282.02 100.47 281.68 100.93 281.36C101.39 281.04 101.59 280.89 101.93 280.65C102.41 280.32 102.93 279.98 103.39 279.65C103.74 279.42 104.1 279.2 104.46 278.98C104.98 278.65 105.51 278.32 106.06 277.98L107.21 277.34C107.78 277.02 108.36 276.7 108.96 276.34L110.19 275.74C110.81 275.43 111.44 275.13 112.09 274.83L113.41 274.27C114.09 273.98 114.76 273.69 115.47 273.41C115.92 273.23 116.4 273.07 116.86 272.9C117.6 272.62 118.34 272.35 119.11 272.09C119.57 271.93 120.11 271.79 120.55 271.64C121.36 271.38 122.16 271.13 123.01 270.89C123.48 270.75 124.01 270.64 124.46 270.51C125.36 270.27 126.25 270.03 127.18 269.82C127.64 269.71 128.18 269.62 128.59 269.52C129.59 269.3 130.59 269.08 131.64 268.89L132.77 268.7C137.277 267.919 141.824 267.391 146.39 267.12H146.63C148.56 267 150.56 266.92 152.63 266.87C159.05 266.841 165.465 267.205 171.84 267.96L172.34 268.72C187.92 292.78 171.34 325.24 142.69 326.31C130.31 326.77 117.86 323.24 107.6 319.03C104.736 321.837 100.993 323.571 97 323.94C86.36 324.81 68.62 328.11 70.91 340.52C71.6891 344.125 73.8411 347.285 76.91 349.33C85.71 355.55 110.4 374.22 129.34 399.71C96.91 377.22 59.59 359.11 25.99 362.16C21.0279 362.565 16.2768 364.345 12.27 367.3C11.85 367.61 11.44 367.94 11.03 368.3C10.4402 368.797 9.74098 369.146 8.98978 369.32C8.23857 369.493 7.45688 369.486 6.70901 369.299C5.96115 369.111 5.26845 368.749 4.68796 368.242C4.10747 367.734 3.65575 367.096 3.36996 366.38C-1.59004 354.45 -5.30002 330.72 40.2 327.08Z" fill="#A19145"/>
<path d="M166 428.35C217.71 450.17 270.11 431.19 292.89 420.43C282 439.8 261.27 462 222 472.17C219.356 472.845 216.579 472.796 213.96 472.027C211.342 471.258 208.979 469.798 207.12 467.8C194.092 453.96 180.368 440.793 166 428.35Z" fill="#A19145"/>
<path d="M177.57 226.4H111.52V283C111.52 291.752 114.997 300.146 121.186 306.334C127.374 312.523 135.768 316 144.52 316C153.272 316 161.666 312.523 167.855 306.334C174.043 300.146 177.52 291.752 177.52 283V226.4H177.57Z" fill="url(#paint1_linear_1_856)"/>
<path d="M176 226.4C166.21 240.4 139.65 276.83 119.41 304.47C114.294 298.506 111.484 290.907 111.49 283.05V226.4H176Z" fill="#E8897B"/>
<path d="M173.64 226.61C173.64 226.61 145.78 268.8 97.8901 286.88C95.6136 287.733 93.1143 287.783 90.8051 287.023C88.496 286.263 86.5152 284.738 85.1901 282.7C76.0301 268.7 56.3601 234.41 49.5901 189.21C49.0351 185.271 49.6798 181.257 51.4401 177.69L100.23 77.25L125.12 78.71L170.51 127L173.64 226.61Z" fill="url(#paint2_linear_1_856)"/>
<path d="M114.44 193.45C115.87 193.45 117.241 192.882 118.251 191.871C119.262 190.86 119.83 189.489 119.83 188.06V176.75C119.83 175.32 119.262 173.949 118.251 172.939C117.241 171.928 115.87 171.36 114.44 171.36C113.011 171.363 111.642 171.931 110.632 172.941C109.621 173.952 109.053 175.321 109.05 176.75V188.06C109.053 189.489 109.621 190.858 110.632 191.868C111.642 192.879 113.011 193.447 114.44 193.45Z" fill="#333345"/>
<path d="M93.4399 208.56H78.9999C78.4763 208.557 77.9607 208.69 77.503 208.944C77.0453 209.198 76.6608 209.566 76.3866 210.012C76.1123 210.458 75.9575 210.968 75.9371 211.491C75.9166 212.014 76.0312 212.534 76.2699 213C77.9499 216.16 80.9899 219.86 85.9999 219.86C88.1865 219.733 90.2976 219.015 92.1081 217.782C93.9185 216.549 95.3604 214.848 96.2799 212.86C96.4852 212.391 96.5697 211.877 96.5258 211.367C96.482 210.857 96.3111 210.365 96.0288 209.938C95.7465 209.51 95.3617 209.16 94.9095 208.92C94.4573 208.679 93.9521 208.555 93.4399 208.56Z" fill="#E8897B"/>
<path d="M100.23 77.25L108.9 77.76L111.51 92.41C113.45 93.59 125.74 150.06 79.76 184.28C77.705 185.77 76.0096 187.701 74.7983 189.931C73.587 192.162 72.8905 194.635 72.76 197.17C71.99 214.37 73.76 253.92 102.26 285.17C100.77 285.79 99.26 286.39 97.74 286.96C95.4766 287.79 92.9981 287.826 90.7118 287.061C88.4255 286.296 86.4677 284.775 85.16 282.75C76.01 268.75 56.33 234.46 49.56 189.25C49.0043 185.311 49.6491 181.297 51.41 177.73L100.23 77.25Z" fill="#E8897B"/>
<path d="M139.77 112.64L116 92.3399C116 92.3399 118.29 157.22 52.6401 189.27C52.6401 189.27 54.1701 209.88 57.2201 220.57C57.2201 220.57 23.6401 221.33 25.1601 173.25C25.1601 173.25 -22.1599 89.2499 75.5401 35.0899C75.5401 35.0899 134.31 -30.5501 197.67 41.1999L207.38 55.6299C221.855 77.1273 229.963 102.276 230.77 128.18C232.01 169.04 224.68 224.88 177.97 238.18C176.597 238.543 175.159 238.584 173.767 238.301C172.375 238.018 171.068 237.417 169.946 236.547C168.824 235.676 167.917 234.559 167.297 233.281C166.677 232.003 166.36 230.6 166.37 229.18V187.75C166.37 187.75 132.76 168.93 144.37 127.5C145.098 124.842 145.052 122.032 144.237 119.399C143.422 116.767 141.872 114.422 139.77 112.64Z" fill="#FFE19F"/>
<path d="M66.4901 40.45C52.0801 58.56 22.6601 104.74 47.1601 156.45C48.7738 159.921 51.2711 162.908 54.402 165.11C57.533 167.313 61.1877 168.654 65.0001 169C71.3136 169.464 77.6608 168.934 83.8101 167.43C74.6622 176.364 64.1168 183.745 52.5901 189.28C52.5901 189.28 54.1201 209.89 57.1701 220.58C57.1701 220.58 23.59 221.34 25.11 173.26C25.15 173.25 -19.1499 94.6399 66.4901 40.45Z" fill="#EDC063"/>
<path d="M209.27 36.78C208.182 35.7863 206.909 35.0173 205.523 34.517C204.137 34.0168 202.666 33.7951 201.194 33.8648C199.722 33.9345 198.279 34.2941 196.947 34.9231C195.614 35.5521 194.419 36.438 193.43 37.53C184.85 46.88 167.52 60.81 137.62 65.53C137.127 65.602 136.654 65.7709 136.226 66.0271C135.799 66.2832 135.427 66.6213 135.132 67.0221C134.836 67.4228 134.623 67.8782 134.504 68.3618C134.385 68.8455 134.363 69.3479 134.44 69.84C134.574 70.6982 135.003 71.4829 135.652 72.0595C136.302 72.6361 137.132 72.9686 138 73C148.31 73.4 182.4 73.12 208.27 54.1C209.608 53.121 210.714 51.858 211.506 50.4016C212.299 48.9451 212.76 47.3313 212.855 45.6759C212.951 44.0204 212.679 42.3643 212.059 40.8263C211.439 39.2883 210.487 37.9065 209.27 36.78Z" fill="#A19145"/>
<path d="M41.76 43.34C42.5048 42.739 43.3681 42.3022 44.2935 42.0583C45.2189 41.8143 46.1854 41.7688 47.1297 41.9246C48.0739 42.0804 48.9746 42.434 49.7726 42.9623C50.5705 43.4906 51.2478 44.1816 51.76 44.99C56.31 51.99 65.99 62.67 84.51 68.07C85.1422 68.2761 85.6668 68.7246 85.9686 69.317C86.2705 69.9095 86.3249 70.5975 86.12 71.23C85.9705 71.7877 85.6355 72.2778 85.1701 72.6195C84.7048 72.9613 84.1369 73.1343 83.56 73.11C76.98 72.63 55.4 69.96 40.79 55.18C40.0226 54.3646 39.435 53.3971 39.0651 52.3401C38.6952 51.2832 38.5513 50.1604 38.6428 49.0444C38.7342 47.9284 39.0589 46.844 39.5959 45.8613C40.1329 44.8787 40.8701 44.0198 41.76 43.34Z" fill="#A19145"/>
<path d="M245.32 122.69C245.914 122.302 246.613 122.104 247.322 122.123C248.031 122.142 248.718 122.377 249.291 122.796C249.863 123.216 250.294 123.8 250.527 124.47C250.759 125.141 250.781 125.866 250.59 126.55C246.86 139.55 239.9 164.27 235.92 181.41C235.92 181.41 230.08 210.57 203.75 217.25C202.275 217.63 200.736 217.699 199.232 217.453C197.729 217.207 196.292 216.651 195.015 215.821C193.737 214.991 192.646 213.904 191.81 212.63C190.974 211.356 190.413 209.922 190.16 208.42C189.14 202.186 189.235 195.821 190.44 189.62C191.651 183.706 193.953 178.07 197.23 173C204.28 161.79 220.35 139.39 245.32 122.69Z" fill="url(#paint3_linear_1_856)"/>
<path d="M213.6 173.77C208.011 180.147 204.593 188.134 203.84 196.58C203.809 197.045 203.907 197.51 204.124 197.923C204.341 198.336 204.667 198.681 205.068 198.92C205.468 199.159 205.927 199.283 206.393 199.277C206.859 199.272 207.315 199.138 207.71 198.89C211.32 196.52 216.02 191.99 215.4 184.64C215.41 181.505 215.834 178.385 216.66 175.36C216.759 174.973 216.725 174.563 216.562 174.198C216.398 173.833 216.117 173.534 215.762 173.349C215.407 173.165 215 173.106 214.607 173.183C214.215 173.259 213.86 173.466 213.6 173.77Z" fill="#E8897B"/>
<path d="M202.68 329.87C196.87 338.45 184.87 350.02 161.27 353.87C160.464 353.977 159.724 354.37 159.185 354.978C158.646 355.586 158.343 356.368 158.334 357.18C158.324 357.993 158.607 358.782 159.132 359.403C159.656 360.023 160.387 360.434 161.19 360.56C170.428 362.106 179.901 361.42 188.82 358.56C196.93 356.03 203.75 350.28 206.75 342.34C208.009 338.997 208.737 335.478 208.91 331.91C208.945 331.167 208.736 330.432 208.313 329.819C207.891 329.206 207.279 328.749 206.572 328.517C205.865 328.286 205.101 328.293 204.398 328.537C203.695 328.781 203.091 329.25 202.68 329.87Z" fill="#A19145"/>
<defs>
<linearGradient id="paint0_linear_1_856" x1="128.43" y1="402.22" x2="94.67" y2="509.49" gradientUnits="userSpaceOnUse">
<stop offset="0.01" stop-color="#FFC3B0"/>
<stop offset="1" stop-color="#E8897B"/>
</linearGradient>
<linearGradient id="paint1_linear_1_856" x1="144.54" y1="281.18" x2="144.54" y2="181.93" gradientUnits="userSpaceOnUse">
<stop offset="0.01" stop-color="#FFC3B0"/>
<stop offset="1" stop-color="#E8897B"/>
</linearGradient>
<linearGradient id="paint2_linear_1_856" x1="111.51" y1="268.14" x2="111.51" y2="25.44" gradientUnits="userSpaceOnUse">
<stop offset="0.01" stop-color="#FFC3B0"/>
<stop offset="1" stop-color="#E8897B"/>
</linearGradient>
<linearGradient id="paint3_linear_1_856" x1="197.94" y1="206.88" x2="262.41" y2="115.6" gradientUnits="userSpaceOnUse">
<stop offset="0.01" stop-color="#FFC3B0"/>
<stop offset="1" stop-color="#E8897B"/>
</linearGradient>
</defs>
</svg>
