<svg width="368" height="498" viewBox="0 0 368 498" fill="none" xmlns="http://www.w3.org/2000/svg">
<path d="M358.85 361.38C358.85 361.38 359.28 406.5 348.85 445.98L308.37 355.31C308.37 355.31 343.66 351.84 358.85 361.38Z" fill="#E8897B"/>
<path d="M154.5 462.47C154.5 462.47 163.97 489.24 195.64 496.34C207.1 498.9 219.16 497.93 229.64 492.71C237.543 488.892 244.168 482.861 248.71 475.35C249.029 474.826 249.476 474.393 250.009 474.09C250.542 473.788 251.143 473.626 251.756 473.621C252.369 473.616 252.973 473.768 253.511 474.062C254.049 474.355 254.503 474.782 254.83 475.3C259.813 482.853 266.796 488.874 275 492.69C290.14 499.82 307.74 498.69 322.39 490.58C329.42 486.831 335.559 481.611 340.391 475.277C345.223 468.942 348.633 461.641 350.39 453.87C352.58 444.162 352.58 434.088 350.39 424.38C346.81 407.38 324.83 373.64 308.39 355.31C308.39 355.31 223.92 374.83 154.5 462.47Z" fill="url(#paint0_linear_4_515)"/>
<path d="M350.39 424.38C350.25 423.69 350.08 422.94 349.92 422.2C333.48 421.64 292.28 415.27 286.69 366.2C252 379.69 197.77 407.85 154.5 462.47C154.5 462.47 163.97 489.24 195.64 496.34C207.1 498.9 219.16 497.93 229.64 492.71C237.543 488.892 244.168 482.861 248.71 475.35C249.029 474.826 249.476 474.393 250.009 474.09C250.542 473.788 251.143 473.626 251.756 473.621C252.369 473.616 252.973 473.768 253.511 474.062C254.049 474.355 254.503 474.782 254.83 475.3C259.813 482.853 266.796 488.874 275 492.69C290.14 499.82 307.74 498.69 322.39 490.58C329.42 486.831 335.559 481.611 340.391 475.277C345.223 468.942 348.633 461.641 350.39 453.87C352.58 444.162 352.58 434.088 350.39 424.38Z" fill="#B56D95"/>
<path d="M350.39 424.38C350.25 423.69 350.08 422.94 349.92 422.2C341.1 421.9 325.17 419.92 311.43 410.6C314.18 428.6 317.25 479.79 264.76 486.27C267.887 488.816 271.312 490.972 274.96 492.69C290.1 499.82 307.7 498.69 322.35 490.58C329.379 486.831 335.519 481.611 340.351 475.277C345.182 468.942 348.593 461.641 350.35 453.87C352.553 444.165 352.567 434.091 350.39 424.38Z" fill="#934A74"/>
<path d="M249.39 428.83C246.598 423.477 242.719 418.766 238 415C237.728 414.8 237.533 414.512 237.447 414.186C237.361 413.859 237.389 413.513 237.527 413.205C237.665 412.897 237.904 412.645 238.205 412.491C238.505 412.338 238.849 412.291 239.18 412.36L250.29 414.67C253.335 412.434 256.522 410.396 259.83 408.57C260.127 408.404 260.471 408.345 260.807 408.401C261.142 408.458 261.447 408.628 261.673 408.883C261.898 409.137 262.03 409.461 262.046 409.801C262.061 410.141 261.961 410.476 261.76 410.75C258.47 415.18 254.28 421.75 252.5 428.49C252.416 428.82 252.234 429.116 251.977 429.339C251.72 429.562 251.401 429.702 251.063 429.739C250.725 429.776 250.383 429.709 250.084 429.546C249.785 429.384 249.543 429.134 249.39 428.83Z" fill="#934A74"/>
<path d="M239.59 432.38C239.092 431.796 238.437 431.367 237.702 431.145C236.968 430.924 236.185 430.918 235.447 431.129C234.709 431.339 234.047 431.758 233.54 432.335C233.034 432.911 232.704 433.621 232.59 434.38C225.88 475.06 191.75 488.38 182.17 491.6C186.447 493.708 190.958 495.303 195.61 496.35C207.07 498.91 219.13 497.94 229.61 492.72C236.477 489.383 242.4 484.381 246.84 478.17C248.888 472.904 249.844 467.277 249.65 461.63C249.27 447.28 244 437.83 239.59 432.38Z" fill="#934A74"/>
<path d="M188.13 30.1801C188.13 30.1801 172.69 -4.30995 131 0.820051C114.209 3.00812 98.6071 10.6701 86.61 22.6201C73 36.0001 57.71 58.7501 59.11 92.7801C59.2734 96.0751 59.6072 99.3595 60.11 102.62C61.63 113.15 65.35 137.33 69.37 150.62C70.5911 154.647 71.3461 158.801 71.62 163V163.72C73.07 186.37 60.43 208.04 39.43 216.65C30.4327 220.204 20.8224 221.948 11.15 221.78C9.21755 221.784 7.32214 222.31 5.66504 223.305C4.00794 224.299 2.651 225.723 1.73831 227.426C0.825629 229.13 0.391272 231.049 0.481363 232.979C0.571453 234.909 1.18263 236.779 2.24999 238.39C8.35999 247.81 20.25 258.6 43.43 264.39C58.85 268.24 75.21 267.82 89.93 261.79C98.31 258.35 106.93 253.05 112.24 244.93C112.24 244.93 114.04 258.63 128.31 259.93C134.91 260.55 141.37 258.02 146.5 253.81C153.77 247.81 164.28 236.57 165.66 220.56C165.7 220.57 123 125.26 188.13 30.1801Z" fill="#FFE19F"/>
<path d="M114.89 251.78C116.297 254.136 118.259 256.111 120.605 257.534C122.952 258.956 125.611 259.782 128.35 259.94C134.95 260.56 141.41 258.03 146.54 253.82C153.81 247.82 164.32 236.58 165.7 220.57C162.662 213.21 160.205 205.623 158.35 197.88C153.3 220.37 141.4 243.34 114.89 251.78Z" fill="#D8A648"/>
<path d="M160.85 467.8C184 443.12 271 356.14 341.61 362.12C346.906 362.489 351.979 364.394 356.21 367.6L357.05 368.28C357.64 368.777 358.339 369.126 359.09 369.3C359.841 369.473 360.623 369.466 361.371 369.279C362.119 369.091 362.811 368.729 363.392 368.222C363.972 367.714 364.424 367.076 364.71 366.36C369.59 354.45 373.3 330.72 327.8 327.08C327.8 327.08 333.03 301.81 284.15 306.29C284.15 306.29 278.88 268.17 215.3 266.85C215.3 266.85 136.76 265.12 147.9 308.74C147.9 308.74 68.0699 325.36 63.4099 382.8C63.2696 384.836 63.3805 386.881 63.7399 388.89C66.0999 402.89 79.2499 454.81 145.97 472.17C148.614 472.845 151.391 472.796 154.01 472.027C156.628 471.258 158.991 469.798 160.85 467.8Z" fill="#CFC46E"/>
<path d="M327.8 327.08C327.8 327.08 333.03 301.81 284.15 306.29C284.147 306.257 284.147 306.223 284.15 306.19C284.15 306.19 284.15 306.14 284.15 306.12C284.15 306.1 284.15 305.99 284.15 305.88C284.15 305.77 284.15 305.75 284.15 305.69C284.15 305.63 284.15 305.51 284.08 305.39C284.01 305.27 284.03 305.18 284.01 305.07C283.99 304.96 284.01 304.84 283.92 304.71C283.83 304.58 283.85 304.44 283.81 304.31C283.77 304.18 283.74 304.03 283.69 303.88C283.64 303.73 283.59 303.54 283.54 303.37C283.49 303.2 283.45 303.06 283.39 302.9C283.33 302.74 283.26 302.5 283.19 302.3C283.12 302.1 283.07 301.95 283 301.77C282.93 301.59 282.84 301.33 282.75 301.11C282.66 300.89 282.6 300.72 282.52 300.52C282.44 300.32 282.32 300.04 282.21 299.79L281.94 299.17C281.82 298.9 281.69 298.63 281.56 298.36L281.24 297.71C281.1 297.43 280.95 297.14 280.79 296.85L280.42 296.17C280.26 295.87 280.08 295.57 279.9 295.26L279.48 294.56C279.28 294.24 279.08 293.92 278.86 293.56C278.64 293.2 278.55 293.08 278.39 292.84C278.23 292.6 277.93 292.19 277.69 291.84C277.45 291.49 277.33 291.35 277.15 291.1C276.97 290.85 276.64 290.43 276.37 290.1L275.75 289.34C275.47 289 275.17 288.67 274.87 288.34C274.57 288.01 274.42 287.85 274.19 287.6C273.96 287.35 273.54 286.9 273.19 286.6C272.84 286.3 272.7 286.1 272.45 285.86L271.34 284.81L270.52 284.08C270.13 283.73 269.72 283.39 269.31 283.08L268.4 282.36C267.97 282.02 267.53 281.68 267.07 281.36C266.61 281.04 266.41 280.89 266.07 280.65C265.59 280.32 265.07 279.98 264.61 279.65C264.26 279.42 263.9 279.2 263.54 278.98C263.02 278.65 262.49 278.32 261.94 277.98L260.79 277.34C260.22 277.02 259.64 276.7 259.04 276.34L257.81 275.74C257.19 275.43 256.56 275.13 255.91 274.83L254.59 274.27C253.91 273.98 253.24 273.69 252.53 273.41C252.08 273.23 251.6 273.07 251.14 272.9C250.4 272.62 249.66 272.35 248.89 272.09C248.43 271.93 247.89 271.79 247.45 271.64C246.64 271.38 245.84 271.13 244.99 270.89C244.52 270.75 243.99 270.64 243.54 270.51C242.64 270.27 241.75 270.03 240.82 269.82C240.36 269.71 239.82 269.62 239.41 269.52C238.41 269.3 237.41 269.08 236.36 268.89L235.23 268.7C230.723 267.919 226.176 267.391 221.61 267.12H221.37C219.44 267 217.44 266.92 215.37 266.87C208.95 266.841 202.535 267.205 196.16 267.96L195.66 268.72C180.08 292.78 196.66 325.24 225.31 326.31C237.69 326.77 250.14 323.24 260.4 319.03C263.264 321.837 267.007 323.571 271 323.94C281.64 324.81 299.38 328.11 297.09 340.52C296.311 344.125 294.159 347.285 291.09 349.33C282.29 355.55 257.6 374.22 238.66 399.71C271.09 377.22 308.41 359.11 342.01 362.16C346.972 362.565 351.723 364.345 355.73 367.3C356.15 367.61 356.56 367.94 356.97 368.3C357.56 368.797 358.259 369.146 359.01 369.32C359.761 369.493 360.543 369.486 361.291 369.299C362.039 369.111 362.732 368.749 363.312 368.242C363.893 367.734 364.344 367.096 364.63 366.38C369.59 354.45 373.3 330.72 327.8 327.08Z" fill="#A19145"/>
<path d="M202 428.35C150.29 450.17 97.8899 431.19 75.1099 420.43C85.9999 439.8 106.73 462 146 472.17C148.644 472.845 151.421 472.796 154.04 472.027C156.658 471.258 159.021 469.798 160.88 467.8C173.907 453.96 187.632 440.793 202 428.35Z" fill="#A19145"/>
<path d="M190.43 226.4H256.48V283C256.48 291.752 253.003 300.146 246.815 306.335C240.626 312.523 232.232 316 223.48 316C214.728 316 206.334 312.523 200.146 306.335C193.957 300.146 190.48 291.752 190.48 283V226.4H190.43Z" fill="url(#paint1_linear_4_515)"/>
<path d="M192 226.4C201.79 240.4 228.35 276.83 248.59 304.47C253.706 298.507 256.516 290.907 256.51 283.05V226.4H192Z" fill="#E8897B"/>
<path d="M194.36 226.61C194.36 226.61 222.22 268.8 270.11 286.88C272.386 287.733 274.886 287.783 277.195 287.023C279.504 286.263 281.485 284.738 282.81 282.7C291.97 268.7 311.64 234.41 318.41 189.21C318.965 185.271 318.32 181.257 316.56 177.69L267.77 77.25L242.88 78.71L197.49 127L194.36 226.61Z" fill="url(#paint2_linear_4_515)"/>
<path d="M253.56 193.45C252.13 193.45 250.759 192.882 249.749 191.871C248.738 190.861 248.17 189.49 248.17 188.06V176.75C248.17 175.321 248.738 173.95 249.749 172.939C250.759 171.928 252.13 171.36 253.56 171.36C254.989 171.363 256.358 171.931 257.368 172.942C258.379 173.952 258.947 175.321 258.95 176.75V188.06C258.947 189.489 258.379 190.858 257.368 191.868C256.358 192.879 254.989 193.447 253.56 193.45Z" fill="#333345"/>
<path d="M274.56 208.56H289C289.524 208.557 290.039 208.69 290.497 208.944C290.955 209.198 291.339 209.566 291.613 210.013C291.888 210.459 292.043 210.968 292.063 211.491C292.083 212.014 291.969 212.534 291.73 213C290.05 216.16 287.01 219.86 282 219.86C279.813 219.733 277.702 219.015 275.892 217.782C274.081 216.549 272.64 214.848 271.72 212.86C271.515 212.391 271.43 211.877 271.474 211.367C271.518 210.857 271.689 210.365 271.971 209.938C272.253 209.511 272.638 209.161 273.09 208.92C273.543 208.679 274.048 208.556 274.56 208.56Z" fill="#E8897B"/>
<path d="M267.77 77.25L259.1 77.76L256.49 92.41C254.55 93.59 242.26 150.06 288.24 184.28C290.295 185.77 291.99 187.701 293.202 189.931C294.413 192.162 295.109 194.635 295.24 197.17C296.01 214.37 294.24 253.92 265.74 285.17C267.23 285.79 268.74 286.39 270.26 286.96C272.523 287.79 275.002 287.826 277.288 287.061C279.574 286.296 281.532 284.775 282.84 282.75C291.99 268.75 311.67 234.46 318.44 189.25C318.996 185.311 318.351 181.297 316.59 177.73L267.77 77.25Z" fill="#E8897B"/>
<path d="M228.23 112.64L252 92.3401C252 92.3401 249.71 157.22 315.36 189.27C315.36 189.27 313.83 209.88 310.78 220.57C310.78 220.57 344.36 221.33 342.84 173.25C342.84 173.25 390.16 89.2501 292.46 35.0901C292.46 35.0901 233.69 -30.5499 170.33 41.2001L160.62 55.6301C146.145 77.1275 138.037 102.276 137.23 128.18C135.99 169.04 143.32 224.88 190.03 238.18C191.403 238.543 192.841 238.584 194.233 238.301C195.625 238.018 196.932 237.418 198.055 236.547C199.177 235.676 200.083 234.559 200.703 233.281C201.323 232.004 201.64 230.6 201.63 229.18V187.75C201.63 187.75 235.24 168.93 223.63 127.5C222.902 124.842 222.949 122.032 223.764 119.399C224.578 116.767 226.128 114.422 228.23 112.64Z" fill="#FFE19F"/>
<path d="M301.51 40.4501C315.92 58.5601 345.34 104.74 320.84 156.45C319.226 159.921 316.729 162.908 313.598 165.11C310.467 167.313 306.812 168.654 303 169C296.686 169.464 290.339 168.934 284.19 167.43C293.338 176.364 303.883 183.745 315.41 189.28C315.41 189.28 313.88 209.89 310.83 220.58C310.83 220.58 344.41 221.34 342.89 173.26C342.85 173.25 387.15 94.6401 301.51 40.4501Z" fill="#EDC063"/>
<path d="M158.73 36.78C159.818 35.7863 161.091 35.0173 162.477 34.517C163.863 34.0168 165.334 33.7951 166.806 33.8648C168.278 33.9345 169.721 34.2941 171.053 34.9231C172.386 35.5521 173.581 36.438 174.57 37.53C183.15 46.88 200.48 60.81 230.38 65.53C230.873 65.602 231.346 65.7709 231.774 66.0271C232.201 66.2832 232.573 66.6213 232.868 67.0221C233.164 67.4228 233.377 67.8782 233.496 68.3618C233.615 68.8455 233.637 69.3479 233.56 69.84C233.426 70.6982 232.997 71.4829 232.348 72.0595C231.698 72.6361 230.868 72.9686 230 73C219.69 73.4 185.6 73.12 159.73 54.1C158.392 53.121 157.286 51.858 156.494 50.4016C155.701 48.9451 155.24 47.3313 155.145 45.6759C155.049 44.0204 155.321 42.3643 155.941 40.8263C156.561 39.2883 157.513 37.9065 158.73 36.78Z" fill="#A19145"/>
<path d="M326.24 43.34C325.495 42.739 324.632 42.3022 323.706 42.0583C322.781 41.8143 321.815 41.7688 320.87 41.9246C319.926 42.0804 319.025 42.434 318.227 42.9623C317.429 43.4906 316.752 44.1816 316.24 44.99C311.69 51.99 302.01 62.67 283.49 68.07C282.858 68.2761 282.333 68.7246 282.031 69.317C281.73 69.9095 281.675 70.5975 281.88 71.23C282.03 71.7877 282.365 72.2778 282.83 72.6195C283.295 72.9613 283.863 73.1343 284.44 73.11C291.02 72.63 312.6 69.96 327.21 55.18C327.977 54.3646 328.565 53.3971 328.935 52.3401C329.305 51.2832 329.449 50.1604 329.357 49.0444C329.266 47.9284 328.941 46.844 328.404 45.8613C327.867 44.8787 327.13 44.0198 326.24 43.34Z" fill="#A19145"/>
<path d="M122.68 122.69C122.086 122.302 121.388 122.104 120.678 122.123C119.969 122.142 119.282 122.377 118.71 122.797C118.137 123.216 117.706 123.8 117.474 124.47C117.242 125.141 117.219 125.867 117.41 126.55C121.14 139.55 128.1 164.27 132.08 181.41C132.08 181.41 137.92 210.57 164.25 217.25C165.726 217.63 167.264 217.699 168.768 217.453C170.272 217.207 171.708 216.651 172.985 215.821C174.263 214.991 175.354 213.905 176.19 212.631C177.026 211.356 177.588 209.923 177.84 208.42C178.86 202.186 178.765 195.821 177.56 189.62C176.35 183.706 174.047 178.07 170.77 173C163.72 161.79 147.65 139.39 122.68 122.69Z" fill="url(#paint3_linear_4_515)"/>
<path d="M154.4 173.77C159.988 180.147 163.406 188.134 164.16 196.58C164.191 197.045 164.092 197.51 163.876 197.923C163.659 198.336 163.332 198.681 162.932 198.92C162.532 199.159 162.073 199.283 161.607 199.277C161.14 199.272 160.685 199.138 160.29 198.89C156.68 196.52 151.98 191.99 152.6 184.64C152.589 181.505 152.166 178.385 151.34 175.36C151.24 174.973 151.275 174.563 151.438 174.198C151.601 173.833 151.883 173.534 152.238 173.349C152.593 173.165 153 173.106 153.392 173.183C153.785 173.259 154.14 173.466 154.4 173.77Z" fill="#E8897B"/>
<path d="M165.32 329.87C171.13 338.45 183.13 350.02 206.73 353.87C207.535 353.977 208.276 354.37 208.815 354.978C209.354 355.586 209.656 356.368 209.666 357.18C209.676 357.993 209.392 358.782 208.868 359.403C208.343 360.023 207.613 360.434 206.81 360.56C197.572 362.106 188.099 361.42 179.18 358.56C171.07 356.03 164.25 350.28 161.25 342.34C159.991 338.997 159.262 335.478 159.09 331.91C159.054 331.167 159.264 330.432 159.686 329.819C160.109 329.206 160.721 328.749 161.428 328.518C162.135 328.286 162.899 328.293 163.602 328.537C164.305 328.781 164.909 329.25 165.32 329.87Z" fill="#A19145"/>
<defs>
<linearGradient id="paint0_linear_4_515" x1="239.57" y1="402.22" x2="273.33" y2="509.49" gradientUnits="userSpaceOnUse">
<stop offset="0.01" stop-color="#FFC3B0"/>
<stop offset="1" stop-color="#E8897B"/>
</linearGradient>
<linearGradient id="paint1_linear_4_515" x1="223.46" y1="281.18" x2="223.46" y2="181.93" gradientUnits="userSpaceOnUse">
<stop offset="0.01" stop-color="#FFC3B0"/>
<stop offset="1" stop-color="#E8897B"/>
</linearGradient>
<linearGradient id="paint2_linear_4_515" x1="256.49" y1="268.14" x2="256.49" y2="25.44" gradientUnits="userSpaceOnUse">
<stop offset="0.01" stop-color="#FFC3B0"/>
<stop offset="1" stop-color="#E8897B"/>
</linearGradient>
<linearGradient id="paint3_linear_4_515" x1="170.06" y1="206.88" x2="105.59" y2="115.6" gradientUnits="userSpaceOnUse">
<stop offset="0.01" stop-color="#FFC3B0"/>
<stop offset="1" stop-color="#E8897B"/>
</linearGradient>
</defs>
</svg>
