<svg width="336" height="490" viewBox="0 0 336 490" fill="none" xmlns="http://www.w3.org/2000/svg">
<path d="M52.68 227.05C52.68 227.05 54.59 131.76 57.45 102.22C60.31 72.6799 83.18 -1.65005 182.28 0.219948C182.28 0.219948 278.28 2.98994 284.95 121.22C285.16 124.99 285.16 128.76 285.09 132.53C284.75 151.12 283.78 211.33 284.8 241.35C284.917 245.963 285.81 250.523 287.44 254.84C289.436 259.955 290.601 265.357 290.89 270.84C291.154 280.295 293.342 289.598 297.32 298.18C303.32 310.74 312.85 327.92 324.72 341.05C332.24 349.38 335.92 360.71 333.63 371.7C332.404 378.536 328.736 384.695 323.31 389.03C323.31 389.03 354.76 426.19 315.69 463.36C315.69 463.36 300.44 478.6 278.82 486.92C272.94 489.154 266.646 490.089 260.37 489.66C223.45 487.24 77.45 469.37 7.14004 337.79C2.04243 328.55 -0.0741818 317.96 1.08004 307.47C2.65004 294.88 9.32004 280.6 30.76 277.54C30.76 277.54 24.76 257.28 40.68 248.05C44.3019 245.86 47.3049 242.782 49.4048 239.107C51.5047 235.432 52.632 231.282 52.68 227.05Z" fill="url(#paint0_linear_4_702)"/>
<path d="M315.69 463.38C354.76 426.21 323.31 389.05 323.31 389.05C328.736 384.71 332.403 378.549 333.63 371.71C335.92 360.71 332.26 349.42 324.75 341.11C312.75 327.85 303.19 310.45 297.15 297.85C293.256 289.388 291.13 280.222 290.9 270.91C290.606 265.459 289.452 260.09 287.48 255C285.82 250.575 284.91 245.904 284.79 241.18C283.79 211.07 284.79 151.18 285.09 132.6C285.16 128.83 285.16 125.06 284.95 121.29C278.31 3.03998 182.28 0.289986 182.28 0.289986C178.17 0.209986 174.28 0.289986 170.39 0.479986C180.21 5.79999 192.62 15.24 198.25 30.64C199.634 34.4936 199.518 38.7268 197.924 42.4988C196.331 46.2707 193.377 49.3053 189.65 51C168.9 60.31 128.29 91.36 135.35 190.83C135.35 190.83 123.82 275.16 200.22 330.54C208.446 336.562 214.084 345.477 216 355.49C217.914 364.916 218.128 374.609 216.63 384.11C216.221 386.53 215.268 388.826 213.844 390.825C212.419 392.824 210.559 394.474 208.405 395.65C206.251 396.826 203.857 397.499 201.406 397.617C198.954 397.734 196.507 397.294 194.25 396.33C189.418 394.255 184.794 391.727 180.44 388.78C179.403 388.01 178.161 387.565 176.871 387.499C175.581 387.433 174.3 387.75 173.19 388.41C172.426 388.899 171.778 389.548 171.292 390.313C170.805 391.079 170.491 391.941 170.372 392.84C170.253 393.739 170.332 394.653 170.602 395.518C170.873 396.383 171.33 397.179 171.94 397.85C179.603 406.328 188.103 414.01 197.31 420.78C197.31 420.78 174.18 456.11 110.48 444.24C173.02 480.75 237.48 488.18 260.33 489.68C266.606 490.109 272.9 489.174 278.78 486.94C300.44 478.62 315.69 463.38 315.69 463.38Z" fill="#8E545C"/>
<path d="M218.66 72C234.14 79.37 248.18 93.44 252.23 119.79C252.67 122.69 252.87 125.62 253.02 128.54L258.91 244.88C259.851 260.395 262.534 275.755 266.91 290.67C270.27 302.57 270.96 317.61 255.75 322.67C254.318 323.133 252.825 323.379 251.32 323.4C237.44 323.83 167.86 320.64 119.32 219.22C115.621 211.448 113.006 203.204 111.55 194.72C107.92 173.85 104.38 133.96 121.8 102.66C140.78 68.62 183.45 55.21 218.66 72Z" fill="#602E3A"/>
<path d="M205 67.06C173 58.93 138.35 72.92 121.77 102.7C105.64 131.7 107.49 168 110.77 189.79C120.1 197.79 131.19 199.2 138.57 198.98C140.869 198.921 143.11 199.7 144.877 201.172C146.643 202.644 147.814 204.708 148.17 206.98L150.17 219.45C150.426 221.105 151.267 222.614 152.54 223.702C153.814 224.79 155.435 225.385 157.11 225.38H165.24C166.994 225.387 168.687 224.735 169.983 223.554C171.279 222.372 172.085 220.747 172.24 219L173.58 204.54C173.699 202.903 174.432 201.372 175.63 200.251C176.829 199.13 178.407 198.503 180.048 198.494C181.689 198.485 183.273 199.096 184.484 200.203C185.695 201.311 186.443 202.835 186.58 204.47L188.1 219.08C188.274 220.813 189.088 222.418 190.382 223.583C191.677 224.748 193.359 225.389 195.1 225.38H201.98C203.837 225.38 205.617 224.642 206.93 223.33C208.243 222.017 208.98 220.236 208.98 218.38V206.11C208.981 204.432 209.629 202.818 210.79 201.606C211.95 200.393 213.533 199.675 215.21 199.6H216.1C216.98 199.559 217.86 199.698 218.685 200.007C219.51 200.315 220.265 200.788 220.902 201.397C221.539 202.005 222.047 202.737 222.394 203.547C222.741 204.357 222.92 205.229 222.92 206.11V215.91C222.92 217.773 223.66 219.56 224.978 220.877C226.295 222.195 228.082 222.935 229.945 222.935C231.808 222.935 233.595 222.195 234.912 220.877C236.23 219.56 236.97 217.773 236.97 215.91V125.21C237 95.25 219 76.87 205 67.06Z" fill="url(#paint1_linear_4_702)"/>
<path d="M175.31 120.16C166.99 120.1 150.71 122.07 143.99 137.43C141.533 142.895 141.101 149.055 142.77 154.81L142.89 155.2C146.66 167.01 161.22 171.32 171.06 163.78C171.46 163.48 171.86 163.16 172.27 162.84C182.49 154.75 187.56 141.35 184.27 128.74C184 127.661 183.666 126.599 183.27 125.56C182.636 123.967 181.538 122.601 180.119 121.638C178.7 120.675 177.025 120.16 175.31 120.16Z" fill="#602E3A"/>
<path d="M211.64 124.72C217.59 125.92 228.22 129.84 228.89 142.56C228.973 145.099 228.372 147.613 227.15 149.84L227.03 150.07C226.15 151.666 224.9 153.028 223.385 154.042C221.871 155.057 220.136 155.694 218.325 155.9C216.514 156.107 214.679 155.877 212.975 155.23C211.271 154.582 209.747 153.537 208.53 152.18L208.12 151.72C202.53 145.42 200.76 136.26 204.44 128.72C204.59 128.42 204.74 128.12 204.91 127.82C205.553 126.652 206.554 125.721 207.765 125.163C208.976 124.605 210.334 124.45 211.64 124.72Z" fill="#602E3A"/>
<path d="M201.79 162.51C203.352 164.916 204.729 167.436 205.91 170.05C206.178 170.674 206.285 171.356 206.223 172.032C206.162 172.709 205.932 173.359 205.556 173.925C205.18 174.49 204.669 174.953 204.069 175.272C203.469 175.591 202.799 175.755 202.12 175.75H196.18C195.544 175.751 194.917 175.605 194.348 175.322C193.778 175.039 193.283 174.628 192.9 174.121C192.516 173.614 192.257 173.024 192.14 172.399C192.024 171.774 192.055 171.131 192.23 170.52C192.8 168.52 193.53 166.08 194.4 163.43C194.644 162.689 195.094 162.033 195.696 161.537C196.299 161.042 197.03 160.728 197.804 160.631C198.578 160.535 199.364 160.66 200.069 160.993C200.775 161.326 201.372 161.852 201.79 162.51Z" fill="#602E3A"/>
<path d="M80.61 305.8C93.49 317.67 113.14 334.75 129.51 344.53C130.525 345.117 131.39 345.934 132.034 346.914C132.679 347.894 133.086 349.011 133.223 350.177C133.36 351.342 133.223 352.523 132.823 353.626C132.423 354.729 131.772 355.723 130.92 356.53C129.554 357.835 127.746 358.577 125.856 358.607C123.967 358.636 122.136 357.952 120.73 356.69C111.31 348.24 91.08 329.18 76.84 309.16C76.4429 308.654 76.2537 308.015 76.3108 307.374C76.3679 306.733 76.6671 306.138 77.1475 305.71C77.6278 305.282 78.2533 305.053 78.8966 305.069C79.5398 305.086 80.1525 305.347 80.61 305.8Z" fill="#8E545C"/>
<path d="M234 105.19C228.36 86.7399 215.58 74.4599 205 67.0599C191.314 63.5995 176.927 64.0908 163.508 68.4769C150.09 72.8629 138.19 80.9639 129.19 91.8399C150.56 82.7299 196.38 69.8599 234 105.19Z" fill="#E5B4F7"/>
<defs>
<linearGradient id="paint0_linear_4_702" x1="168" y1="83.19" x2="168" y2="708.8" gradientUnits="userSpaceOnUse">
<stop offset="0.01" stop-color="#B7858F"/>
<stop offset="1" stop-color="#8E545C"/>
</linearGradient>
<linearGradient id="paint1_linear_4_702" x1="172.77" y1="202.22" x2="172.77" y2="-46.54" gradientUnits="userSpaceOnUse">
<stop offset="0.01" stop-color="#FFE1FF"/>
<stop offset="1" stop-color="#E5B4F7"/>
</linearGradient>
</defs>
</svg>
