<svg width="336" height="490" viewBox="0 0 336 490" fill="none" xmlns="http://www.w3.org/2000/svg">
<path d="M283.32 227.05C283.32 227.05 281.41 131.76 278.55 102.22C275.69 72.6799 252.82 -1.65005 153.72 0.219948C153.72 0.219948 57.72 2.98994 51.05 121.22C50.84 124.99 50.84 128.76 50.91 132.53C51.25 151.12 52.22 211.33 51.2 241.35C51.0826 245.963 50.1901 250.523 48.56 254.84C46.5636 259.955 45.3988 265.357 45.11 270.84C44.8456 280.295 42.6578 289.598 38.68 298.18C32.68 310.74 23.15 327.92 11.28 341.05C3.75998 349.38 0.0799561 360.71 2.36996 371.7C3.59644 378.536 7.26373 384.695 12.69 389.03C12.69 389.03 -18.76 426.19 20.31 463.36C20.31 463.36 35.56 478.6 57.18 486.92C63.0602 489.154 69.3543 490.089 75.63 489.66C112.55 487.24 258.55 469.37 328.86 337.79C333.958 328.55 336.074 317.96 334.92 307.47C333.35 294.88 326.68 280.6 305.24 277.54C305.24 277.54 311.24 257.28 295.32 248.05C291.698 245.86 288.695 242.782 286.595 239.107C284.495 235.432 283.368 231.282 283.32 227.05Z" fill="url(#paint0_linear_1_1043)"/>
<path d="M20.31 463.38C-18.76 426.21 12.69 389.05 12.69 389.05C7.26381 384.71 3.59683 378.549 2.37001 371.71C0.0800171 360.71 3.74002 349.42 11.25 341.11C23.25 327.85 32.81 310.45 38.85 297.85C42.7436 289.388 44.8702 280.221 45.1 270.91C45.3936 265.459 46.5479 260.09 48.52 255C50.1804 250.575 51.0896 245.904 51.21 241.18C52.21 211.07 51.21 151.18 50.91 132.6C50.84 128.83 50.84 125.06 51.05 121.29C57.69 3.03986 153.72 0.289864 153.72 0.289864C157.83 0.209864 161.72 0.289864 165.61 0.479864C155.79 5.79986 143.38 15.2399 137.75 30.6399C136.366 34.4935 136.482 38.7267 138.076 42.4986C139.669 46.2706 142.623 49.3052 146.35 50.9999C167.1 60.3099 207.71 91.3599 200.65 190.83C200.65 190.83 212.18 275.16 135.78 330.54C127.554 336.562 121.916 345.477 120 355.49C118.086 364.916 117.872 374.609 119.37 384.11C119.779 386.53 120.732 388.826 122.156 390.825C123.581 392.824 125.441 394.474 127.595 395.65C129.749 396.826 132.143 397.499 134.594 397.616C137.046 397.734 139.493 397.294 141.75 396.33C146.582 394.255 151.206 391.727 155.56 388.78C156.597 388.01 157.839 387.564 159.129 387.499C160.419 387.433 161.7 387.75 162.81 388.41C163.574 388.899 164.222 389.548 164.708 390.313C165.195 391.078 165.509 391.941 165.628 392.84C165.747 393.738 165.668 394.653 165.398 395.518C165.127 396.383 164.67 397.179 164.06 397.85C156.397 406.328 147.897 414.01 138.69 420.78C138.69 420.78 161.82 456.11 225.52 444.24C162.98 480.75 98.52 488.18 75.67 489.68C69.3944 490.108 63.1003 489.174 57.22 486.94C35.56 478.62 20.31 463.38 20.31 463.38Z" fill="#8E545C"/>
<path d="M117.34 72C101.86 79.37 87.8199 93.44 83.7699 119.79C83.3299 122.69 83.13 125.62 82.98 128.54L77.09 244.88C76.1495 260.395 73.4659 275.755 69.09 290.67C65.7299 302.57 65.0399 317.61 80.25 322.67C81.682 323.133 83.1752 323.379 84.6799 323.4C98.56 323.83 168.14 320.64 216.68 219.22C220.38 211.448 222.994 203.204 224.45 194.72C228.08 173.85 231.62 133.96 214.2 102.66C195.22 68.62 152.55 55.21 117.34 72Z" fill="#602E3A"/>
<path d="M131 67.0598C163 58.9298 197.65 72.9198 214.23 102.7C230.36 131.7 228.51 168 225.23 189.79C215.9 197.79 204.81 199.2 197.43 198.98C195.131 198.921 192.89 199.7 191.123 201.172C189.357 202.644 188.186 204.708 187.83 206.98L185.83 219.45C185.574 221.105 184.733 222.614 183.46 223.702C182.186 224.79 180.565 225.385 178.89 225.38H170.76C169.006 225.387 167.313 224.735 166.017 223.553C164.721 222.372 163.915 220.747 163.76 219L162.42 204.54C162.301 202.903 161.568 201.372 160.37 200.251C159.171 199.13 157.593 198.503 155.952 198.494C154.311 198.485 152.727 199.096 151.516 200.203C150.305 201.311 149.557 202.834 149.42 204.47L147.9 219.08C147.726 220.812 146.912 222.418 145.618 223.583C144.323 224.748 142.641 225.389 140.9 225.38H134.02C132.163 225.38 130.383 224.642 129.07 223.33C127.757 222.017 127.02 220.236 127.02 218.38V206.11C127.019 204.431 126.371 202.818 125.21 201.605C124.05 200.393 122.467 199.674 120.79 199.6H119.9C119.02 199.559 118.14 199.698 117.315 200.006C116.49 200.315 115.735 200.788 115.098 201.397C114.461 202.005 113.953 202.736 113.606 203.547C113.259 204.357 113.08 205.229 113.08 206.11V215.91C113.08 217.773 112.34 219.56 111.022 220.877C109.705 222.195 107.918 222.935 106.055 222.935C104.192 222.935 102.405 222.195 101.088 220.877C99.7701 219.56 99.0299 217.773 99.0299 215.91V125.21C98.9999 95.2498 117 76.8698 131 67.0598Z" fill="url(#paint1_linear_1_1043)"/>
<path d="M160.69 120.16C169.01 120.1 185.29 122.07 192.01 137.43C194.467 142.895 194.899 149.055 193.23 154.81L193.11 155.2C189.34 167.01 174.78 171.32 164.94 163.78C164.54 163.48 164.14 163.16 163.73 162.84C153.51 154.75 148.44 141.35 151.73 128.74C152 127.661 152.334 126.599 152.73 125.56C153.364 123.967 154.462 122.601 155.881 121.638C157.3 120.675 158.975 120.16 160.69 120.16Z" fill="#602E3A"/>
<path d="M124.36 124.72C118.41 125.92 107.78 129.84 107.11 142.56C107.027 145.099 107.628 147.613 108.85 149.84L108.97 150.07C109.85 151.666 111.1 153.028 112.615 154.042C114.129 155.057 115.864 155.694 117.675 155.9C119.486 156.107 121.321 155.877 123.025 155.23C124.729 154.582 126.253 153.537 127.47 152.18L127.88 151.72C133.47 145.42 135.24 136.26 131.56 128.72C131.41 128.42 131.26 128.12 131.09 127.82C130.447 126.652 129.446 125.721 128.235 125.163C127.024 124.605 125.666 124.45 124.36 124.72Z" fill="#602E3A"/>
<path d="M134.21 162.51C132.648 164.916 131.271 167.436 130.09 170.05C129.822 170.674 129.715 171.356 129.777 172.032C129.838 172.709 130.068 173.359 130.444 173.925C130.82 174.49 131.331 174.953 131.931 175.272C132.531 175.591 133.201 175.755 133.88 175.75H139.82C140.456 175.751 141.083 175.605 141.652 175.322C142.222 175.039 142.717 174.628 143.1 174.121C143.484 173.614 143.743 173.024 143.86 172.399C143.976 171.774 143.945 171.131 143.77 170.52C143.2 168.52 142.47 166.08 141.6 163.43C141.356 162.689 140.906 162.033 140.304 161.537C139.701 161.042 138.97 160.728 138.196 160.631C137.422 160.535 136.636 160.66 135.931 160.993C135.225 161.326 134.628 161.852 134.21 162.51Z" fill="#602E3A"/>
<path d="M255.39 305.8C242.51 317.67 222.86 334.75 206.49 344.53C205.475 345.117 204.61 345.934 203.966 346.914C203.321 347.894 202.914 349.011 202.777 350.177C202.64 351.342 202.777 352.523 203.177 353.626C203.577 354.729 204.228 355.723 205.08 356.53C206.446 357.835 208.254 358.577 210.144 358.607C212.033 358.636 213.864 357.952 215.27 356.69C224.69 348.24 244.92 329.18 259.16 309.16C259.557 308.654 259.746 308.015 259.689 307.374C259.632 306.733 259.333 306.138 258.853 305.71C258.372 305.282 257.747 305.053 257.103 305.069C256.46 305.086 255.847 305.347 255.39 305.8Z" fill="#8E545C"/>
<path d="M102 105.19C107.64 86.7399 120.42 74.4599 131 67.0599C144.686 63.5995 159.073 64.0908 172.492 68.4769C185.91 72.8629 197.81 80.9639 206.81 91.8399C185.44 82.7299 139.62 69.8599 102 105.19Z" fill="#E5B4F7"/>
<defs>
<linearGradient id="paint0_linear_1_1043" x1="168" y1="83.19" x2="168" y2="708.8" gradientUnits="userSpaceOnUse">
<stop offset="0.01" stop-color="#B7858F"/>
<stop offset="1" stop-color="#8E545C"/>
</linearGradient>
<linearGradient id="paint1_linear_1_1043" x1="163.23" y1="202.22" x2="163.23" y2="-46.5402" gradientUnits="userSpaceOnUse">
<stop offset="0.01" stop-color="#FFE1FF"/>
<stop offset="1" stop-color="#E5B4F7"/>
</linearGradient>
</defs>
</svg>
