<svg width="296" height="500" viewBox="0 0 296 500" fill="none" xmlns="http://www.w3.org/2000/svg">
<path d="M23.68 309.74C23.68 309.74 4.20997 318.64 4.75997 335.82C5.03504 341.091 7.13098 346.103 10.69 350C14.91 354.82 22.52 363.58 29.75 372.17C38.6863 382.717 45.6905 394.758 50.44 407.74C61.08 437.22 94.8 499.93 189.09 499.94C196.255 499.937 203.34 498.434 209.89 495.53C236.89 483.58 302.56 442.86 289.89 333.27C289.89 333.27 263.24 331.62 238.89 391.59C236.704 397.146 233.026 401.99 228.262 405.588C223.497 409.186 217.832 411.398 211.89 411.98C185.96 414.22 140.4 406.47 98.68 340.66C89.68 326.44 76.59 315.07 60.75 309.36C48.75 305 35 303.13 23.68 309.74Z" fill="#59E1FF"/>
<path d="M289.91 333.27C289.91 333.27 263.26 331.62 238.91 391.59C236.724 397.146 233.046 401.99 228.282 405.588C223.517 409.186 217.852 411.398 211.91 411.98C191.81 413.71 159.91 409.43 127.18 376.8L119.51 380.8C119.51 380.8 153.51 433.14 198.34 451.26C201.081 452.347 204.091 452.563 206.96 451.88C218.471 449.172 229.267 444.026 238.62 436.79C243.42 433.05 250.34 437.52 249.03 443.47C246.367 455.737 242.474 467.704 237.41 479.19C266.23 457.07 299.2 413.76 289.91 333.27Z" fill="#30A7EA"/>
<path d="M124.9 255.56C124.9 255.56 89.8999 234.93 64.4499 276.19C64.4499 276.19 17.1199 266.63 1.36988 307.85C0.699914 309.685 0.724638 311.702 1.4394 313.52C2.15415 315.338 3.50953 316.832 5.24988 317.72C6.43479 318.35 7.75929 318.673 9.10139 318.657C10.4435 318.641 11.7601 318.288 12.9299 317.63C20.4799 313.41 35.6699 302.57 51.4999 315.04C51.4999 315.04 77.8899 332.92 98.9299 360.27C107.086 371.102 116.088 381.27 125.85 390.68C143.74 407.57 171.32 429.58 199.28 436.24C201.411 436.732 203.641 436.586 205.69 435.82C215.81 432.15 245.75 417.26 262.52 366.01C264.897 358.494 269.139 351.703 274.85 346.27C278.85 342.5 284.02 339.15 289.98 338.18C290.815 338.058 291.614 337.762 292.327 337.31C293.039 336.858 293.648 336.262 294.114 335.559C294.58 334.856 294.893 334.062 295.032 333.23C295.171 332.398 295.133 331.546 294.92 330.73C293.04 324 288.33 314.65 276.48 311.68C276.48 311.68 275.14 287.22 252.3 278.1L124.9 255.56Z" fill="url(#paint0_linear_4_644)"/>
<path d="M262.87 364.93C264.198 360.538 266.271 356.408 269 352.72C273.35 347.04 280.62 339.72 290 338.18C290.834 338.058 291.634 337.762 292.346 337.31C293.059 336.858 293.668 336.262 294.134 335.559C294.6 334.856 294.913 334.062 295.052 333.23C295.191 332.398 295.152 331.546 294.94 330.73C293.06 324 288.35 314.65 276.5 311.68C276.5 311.68 275.16 287.22 252.32 278.1L231.39 274.4L211.74 312.64C229.45 315.91 233.1 328.35 233.53 336.39C233.647 338.481 234.245 340.517 235.277 342.34C236.309 344.163 237.747 345.723 239.48 346.9C259.15 360.54 251.14 388.79 247.48 398.9C254.01 388.265 259.18 376.852 262.87 364.93Z" fill="#A03774"/>
<path d="M161.56 309.74C161.56 309.74 192.06 329.92 193.47 360.38H202.24C202.24 360.38 199.24 331.38 220.62 313.59V309.74H161.56Z" fill="#A03774"/>
<path d="M98.7299 112.54C98.7299 112.54 74.5099 121.54 74.5099 148.47V197.54C74.5099 197.54 73.6699 210.48 64.0699 211.32C61.1465 211.631 58.2024 210.963 55.6999 209.42C54.8167 208.83 53.7951 208.481 52.7358 208.407C51.6765 208.332 50.6161 208.535 49.6591 208.996C48.7021 209.456 47.8817 210.158 47.2786 211.032C46.6755 211.906 46.3106 212.922 46.2199 213.98C45.7113 219.496 46.5806 225.053 48.7499 230.15C51.0309 235.535 54.5822 240.287 59.0999 244C69.8099 253 94.2299 266.41 132.92 249.33V112.54H98.7299Z" fill="#E6E6F8"/>
<path d="M253 208.43H248.38V170.29H253C258.058 170.29 262.908 172.299 266.484 175.875C270.061 179.452 272.07 184.302 272.07 189.36C272.07 194.418 270.061 199.268 266.484 202.844C262.908 206.421 258.058 208.43 253 208.43Z" fill="#C66760"/>
<path d="M252.3 112.54H128.68V266.29H252.3V112.54Z" fill="url(#paint1_linear_4_644)"/>
<path d="M152.18 129.47H212.11C216.152 129.47 220.028 131.076 222.886 133.934C225.744 136.792 227.35 140.668 227.35 144.71V266.29H252.3V112.54H152.18V129.47Z" fill="#E8897B"/>
<path d="M193.47 154.07C193.472 155.18 193.145 156.266 192.529 157.189C191.914 158.113 191.039 158.834 190.014 159.26C188.989 159.686 187.861 159.799 186.772 159.583C185.683 159.368 184.682 158.835 183.897 158.05C183.111 157.266 182.576 156.267 182.359 155.178C182.141 154.09 182.252 152.961 182.676 151.935C183.1 150.91 183.819 150.033 184.742 149.416C185.665 148.799 186.75 148.47 187.86 148.47C189.346 148.47 190.772 149.06 191.823 150.11C192.875 151.159 193.467 152.584 193.47 154.07Z" fill="#333345"/>
<path d="M241.79 154.07C241.79 155.178 241.461 156.26 240.846 157.181C240.231 158.102 239.356 158.82 238.333 159.244C237.31 159.668 236.184 159.778 235.097 159.562C234.011 159.346 233.013 158.813 232.23 158.03C231.447 157.247 230.914 156.249 230.697 155.162C230.481 154.076 230.592 152.95 231.016 151.927C231.44 150.904 232.158 150.029 233.079 149.414C234 148.798 235.082 148.47 236.19 148.47C236.925 148.47 237.653 148.615 238.333 148.896C239.012 149.178 239.63 149.59 240.15 150.11C240.67 150.63 241.082 151.248 241.364 151.927C241.645 152.606 241.79 153.335 241.79 154.07Z" fill="#333345"/>
<path d="M111.26 198.37C112.93 254.31 61.4299 245.8 61.3799 245.8C73.0699 254.58 96.7599 265.28 132.92 249.32V198.37H111.26Z" fill="#B3B3C5"/>
<path d="M157.18 112.54C157.18 112.54 163.32 146.86 137.45 159.67V221.11C137.38 225.429 138.294 229.707 140.122 233.621C141.949 237.534 144.644 240.981 148 243.7C152.764 247.398 158.423 249.768 164.4 250.57C165.87 250.758 167.358 250.395 168.577 249.551C169.796 248.707 170.659 247.442 171 246C173.51 236.42 182.17 215.88 210.77 211.16C220.321 209.443 230.16 210.359 239.23 213.81C250.57 218.32 263.91 228.41 264.47 250.95C264.47 259.7 262.747 268.364 259.398 276.448C256.05 284.532 251.142 291.877 244.955 298.064C238.767 304.252 231.422 309.16 223.338 312.508C215.254 315.856 206.59 317.58 197.84 317.58H186.11C168.447 317.58 151.507 310.567 139.013 298.082C126.519 285.597 119.493 268.663 119.48 251V112.54H157.18Z" fill="#E6E6F8"/>
<path d="M114.86 208.43H119.48V170.29H114.86C109.802 170.29 104.952 172.299 101.376 175.875C97.7992 179.452 95.79 184.302 95.79 189.36C95.79 194.418 97.7992 199.268 101.376 202.844C104.952 206.421 109.802 208.43 114.86 208.43Z" fill="#E8897B"/>
<path d="M229.63 194.33H218.39C216.621 194.33 214.924 193.627 213.673 192.376C212.422 191.126 211.72 189.429 211.72 187.66C211.72 185.891 212.422 184.194 213.673 182.944C214.924 181.693 216.621 180.99 218.39 180.99H229.63C230.506 180.99 231.373 181.163 232.182 181.498C232.991 181.833 233.727 182.324 234.346 182.944C234.965 183.563 235.457 184.298 235.792 185.107C236.127 185.917 236.3 186.784 236.3 187.66C236.301 188.536 236.129 189.404 235.795 190.214C235.46 191.024 234.969 191.76 234.349 192.379C233.729 192.999 232.994 193.49 232.184 193.825C231.374 194.16 230.506 194.331 229.63 194.33Z" fill="#E8897B"/>
<path d="M264.48 251C263.92 228.46 250.58 218.37 239.24 213.86C235.424 212.357 231.432 211.349 227.36 210.86C227.48 211.12 255.16 268.81 229.2 309.79C239.858 304.11 248.771 295.638 254.985 285.283C261.199 274.927 264.481 263.077 264.48 251Z" fill="#B3B3C5"/>
<path d="M141.59 68.9299C131.68 64.1299 127.8 51.9999 132 41.8199C132.84 39.7736 133.896 37.8226 135.15 35.9999C135.824 35.0463 136.185 33.9075 136.185 32.7399C136.185 31.5724 135.824 30.4335 135.15 29.4799C131.454 24.1833 128.085 18.6664 125.06 12.9599C124.735 12.3515 124.25 11.8428 123.659 11.4882C123.067 11.1335 122.39 10.9462 121.7 10.9462C121.01 10.9462 120.333 11.1335 119.741 11.4882C119.15 11.8428 118.665 12.3515 118.34 12.9599C115.315 18.6664 111.946 24.1833 108.25 29.4799C107.576 30.4335 107.215 31.5724 107.215 32.7399C107.215 33.9075 107.576 35.0463 108.25 35.9999C109.512 37.828 110.575 39.7858 111.42 41.8399C115.6 52.0399 111.72 64.1499 101.81 68.9499C98.2301 70.6799 90.8101 72.1999 84.8101 72.1999L87.6001 92.9999H155.8L159.08 70.6399C153.07 70.6799 145.17 70.6599 141.59 68.9299Z" fill="#AD6D2A"/>
<path d="M79.4199 129.47H132.92V112.54H98.7299C90.667 116.003 83.9074 121.929 79.4199 129.47Z" fill="#B3B3C5"/>
<path d="M157.26 129.47C158.008 123.849 157.981 118.153 157.18 112.54H119.48V129.47H157.26Z" fill="#B3B3C5"/>
<path d="M239.27 68.9299C229.35 64.1299 225.47 52.0199 229.65 41.8199C230.497 39.7727 231.559 37.8217 232.82 35.9999C233.496 35.0475 233.86 33.9081 233.86 32.7399C233.86 31.5717 233.496 30.4324 232.82 29.4799C229.121 24.1857 225.751 18.6685 222.73 12.9599C222.403 12.3518 221.918 11.8436 221.325 11.4893C220.733 11.1351 220.055 10.948 219.365 10.948C218.675 10.948 217.997 11.1351 217.405 11.4893C216.812 11.8436 216.327 12.3518 216 12.9599C212.979 18.6685 209.609 24.1857 205.91 29.4799C205.234 30.4324 204.87 31.5717 204.87 32.7399C204.87 33.9081 205.234 35.0475 205.91 35.9999C207.172 37.828 208.235 39.7858 209.08 41.8399C213.26 52.0399 209.38 64.1499 199.46 68.9499C195.89 70.6799 188.46 72.1999 182.46 72.1999L185.27 92.9999H253.48L256.75 70.6399C250.75 70.6799 242.84 70.6599 239.27 68.9299Z" fill="#AD6D2A"/>
<path d="M249.27 28.3599C248.282 29.7302 247.744 31.3732 247.73 33.0622C247.715 34.7513 248.226 36.4031 249.19 37.7899C251.096 40.5358 252.68 43.4919 253.91 46.5999C259.62 60.9399 253.58 78.5999 239.62 85.1599C234.55 87.5399 228.03 89.1599 219.62 89.1599C211.03 89.1599 204.39 87.5099 199.28 85.0299C185.08 78.1599 179.52 60.8099 185.51 46.2099C186.702 43.2543 188.207 40.4349 190 37.7999C190.971 36.4174 191.489 34.7667 191.48 33.077C191.471 31.3872 190.936 29.7421 189.95 28.3699C184.127 19.9678 178.855 11.196 174.17 2.10994C173.847 1.49179 173.36 0.973966 172.764 0.612645C172.167 0.251324 171.483 0.0603027 170.785 0.0603027C170.087 0.0603027 169.403 0.251324 168.806 0.612645C168.21 0.973966 167.723 1.49179 167.4 2.10994C162.709 11.1904 157.431 19.9557 151.6 28.3499C150.611 29.7258 150.074 31.3745 150.061 33.0688C150.048 34.7631 150.562 36.4196 151.53 37.8099C153.42 40.5446 154.996 43.4831 156.23 46.5699C162.05 61.1599 156.4 78.1899 142.23 85.0099C137.12 87.4799 130.5 89.1199 121.93 89.1199C113.6 89.1199 107.11 87.5699 102.06 85.2199C88 78.6799 81.93 60.9999 87.66 46.5999C88.8942 43.4938 90.4777 40.5382 92.38 37.7899C93.3471 36.4043 93.859 34.7519 93.8446 33.0622C93.8303 31.3724 93.2905 29.729 92.3 28.3599C87.9623 22.1497 83.9567 15.714 80.3 9.07994C79.8945 8.31823 79.2431 7.71622 78.4518 7.37198C77.6606 7.02774 76.7761 6.96155 75.9424 7.18417C75.1087 7.4068 74.3749 7.90514 73.8606 8.59802C73.3463 9.2909 73.0817 10.1375 73.11 10.9999V109.8C73.11 112.378 74.134 114.85 75.9569 116.673C77.7797 118.496 80.2521 119.52 82.83 119.52H258.74C260.016 119.52 261.28 119.269 262.46 118.78C263.639 118.292 264.71 117.576 265.613 116.673C266.516 115.77 267.232 114.699 267.72 113.52C268.209 112.34 268.46 111.076 268.46 109.8V10.9999C268.464 10.1537 268.187 9.33006 267.672 8.65831C267.158 7.98657 266.434 7.50474 265.616 7.28848C264.798 7.07221 263.931 7.13374 263.152 7.46341C262.372 7.79308 261.725 8.37223 261.31 9.10994C257.639 15.7347 253.62 22.1604 249.27 28.3599Z" fill="#FFCA95"/>
<path d="M258.74 119.52C260.016 119.52 261.28 119.268 262.459 118.78C263.639 118.292 264.71 117.576 265.613 116.673C266.515 115.77 267.231 114.699 267.72 113.52C268.208 112.34 268.46 111.076 268.46 109.8V10.9999C268.464 10.1536 268.187 9.33 267.672 8.65826C267.157 7.98651 266.434 7.50469 265.616 7.28842C264.798 7.07216 263.931 7.13369 263.152 7.46336C262.372 7.79303 261.724 8.37217 261.31 9.10989C257.653 15.744 253.647 22.1797 249.31 28.3899C248.322 29.7601 247.784 31.4031 247.769 33.0922C247.755 34.7812 248.265 36.4331 249.23 37.8199C251.136 40.5658 252.719 43.5219 253.95 46.6299C259.66 60.9699 253.62 78.6299 239.66 85.1899C234.59 87.5699 228.07 89.1899 219.66 89.1899C211.07 89.1899 204.43 87.5399 199.32 85.0599C185.12 78.1899 179.56 60.8399 185.55 46.2399C186.727 43.2756 188.219 40.4461 190 37.7999C190.971 36.4173 191.488 34.7667 191.479 33.0769C191.47 31.3872 190.936 29.7421 189.95 28.3699C184.126 19.9677 178.855 11.1959 174.17 2.10989C173.844 1.49886 173.356 0.989169 172.76 0.636467C172.164 0.283764 171.482 0.101609 170.79 0.109889V105.11C170.79 105.11 170.29 119.56 187.23 119.56H258.74V119.52Z" fill="#FBB04D"/>
<path d="M197.33 402.68C208.988 402.68 218.44 391.975 218.44 378.77C218.44 365.565 208.988 354.86 197.33 354.86C185.671 354.86 176.22 365.565 176.22 378.77C176.22 391.975 185.671 402.68 197.33 402.68Z" fill="#FBB04D"/>
<path d="M197.09 376.46C196.37 380.59 192.83 383.46 189.18 382.78C185.53 382.1 183.18 378.28 183.9 374.15C184.62 370.02 188.16 367.15 191.81 367.83C195.46 368.51 197.81 372.34 197.09 376.46Z" fill="#FFCA95"/>
<defs>
<linearGradient id="paint0_linear_4_644" x1="144.17" y1="351.13" x2="213.21" y2="-185.78" gradientUnits="userSpaceOnUse">
<stop stop-color="#CC5697"/>
<stop offset="1" stop-color="#8E3979"/>
</linearGradient>
<linearGradient id="paint1_linear_4_644" x1="190.49" y1="233.81" x2="190.49" y2="13.3599" gradientUnits="userSpaceOnUse">
<stop offset="0.01" stop-color="#FFC3B0"/>
<stop offset="1" stop-color="#E8897B"/>
</linearGradient>
</defs>
</svg>
