<svg width="296" height="500" viewBox="0 0 296 500" fill="none" xmlns="http://www.w3.org/2000/svg">
<path d="M272.32 309.74C272.32 309.74 291.79 318.64 291.24 335.82C290.965 341.091 288.869 346.103 285.31 350C281.09 354.82 273.48 363.58 266.25 372.17C257.314 382.717 250.31 394.758 245.56 407.74C234.92 437.22 201.2 499.93 106.91 499.94C99.745 499.937 92.6599 498.434 86.11 495.53C59.11 483.58 -6.56003 442.86 6.10999 333.27C6.10999 333.27 32.76 331.62 57.11 391.59C59.2958 397.146 62.9738 401.99 67.7381 405.588C72.5025 409.186 78.1681 411.398 84.11 411.98C110.04 414.22 155.6 406.47 197.32 340.66C206.32 326.44 219.41 315.07 235.25 309.36C247.25 305 261 303.13 272.32 309.74Z" fill="#59E1FF"/>
<path d="M6.08998 333.27C6.08998 333.27 32.74 331.62 57.09 391.59C59.2758 397.146 62.9537 401.99 67.7181 405.588C72.4825 409.186 78.1481 411.398 84.09 411.98C104.19 413.71 136.09 409.43 168.82 376.8L176.49 380.8C176.49 380.8 142.49 433.14 97.66 451.26C94.9185 452.347 91.9088 452.563 89.04 451.88C77.5291 449.172 66.7329 444.026 57.38 436.79C52.58 433.05 45.66 437.52 46.97 443.47C49.6325 455.737 53.5256 467.704 58.59 479.19C29.77 457.07 -3.20001 413.76 6.08998 333.27Z" fill="#30A7EA"/>
<path d="M171.1 255.56C171.1 255.56 206.1 234.93 231.55 276.19C231.55 276.19 278.88 266.63 294.63 307.85C295.3 309.685 295.275 311.702 294.56 313.52C293.846 315.338 292.49 316.832 290.75 317.72C289.565 318.35 288.241 318.672 286.898 318.657C285.556 318.641 284.24 318.288 283.07 317.63C275.52 313.41 260.33 302.57 244.5 315.04C244.5 315.04 218.11 332.92 197.07 360.27C188.914 371.101 179.912 381.27 170.15 390.68C152.26 407.57 124.68 429.58 96.72 436.24C94.5884 436.732 92.3591 436.586 90.31 435.82C80.19 432.15 50.25 417.26 33.48 366.01C31.1026 358.494 26.8607 351.703 21.15 346.27C17.15 342.5 11.98 339.15 6.01999 338.18C5.1853 338.058 4.38571 337.762 3.67331 337.31C2.96091 336.858 2.35175 336.262 1.88559 335.558C1.41943 334.855 1.10678 334.062 0.967957 333.23C0.829132 332.398 0.86731 331.546 1.07999 330.73C2.95999 324 7.66998 314.65 19.52 311.68C19.52 311.68 20.86 287.22 43.7 278.1L171.1 255.56Z" fill="url(#paint0_linear_1_985)"/>
<path d="M33.13 364.93C31.802 360.538 29.7284 356.408 27 352.72C22.65 347.04 15.38 339.72 6 338.18C5.16531 338.058 4.36568 337.762 3.65329 337.31C2.9409 336.858 2.33176 336.262 1.8656 335.559C1.39944 334.856 1.08675 334.062 0.947937 333.23C0.809128 332.398 0.847313 331.546 1.06 330.73C2.93999 324 7.65 314.65 19.5 311.68C19.5 311.68 20.84 287.22 43.68 278.1L64.61 274.4L84.26 312.64C66.55 315.91 62.9 328.35 62.47 336.39C62.3525 338.481 61.7545 340.517 60.7226 342.34C59.6907 344.163 58.2526 345.723 56.52 346.9C36.85 360.54 44.86 388.79 48.52 398.9C41.9897 388.265 36.8194 376.852 33.13 364.93Z" fill="#A03774"/>
<path d="M134.44 309.74C134.44 309.74 103.94 329.92 102.53 360.38H93.76C93.76 360.38 96.76 331.38 75.38 313.59V309.74H134.44Z" fill="#A03774"/>
<path d="M197.27 112.54C197.27 112.54 221.49 121.54 221.49 148.47V197.54C221.49 197.54 222.33 210.48 231.93 211.32C234.853 211.631 237.798 210.963 240.3 209.42C241.183 208.83 242.205 208.481 243.264 208.407C244.323 208.332 245.384 208.535 246.341 208.996C247.298 209.456 248.118 210.158 248.721 211.032C249.324 211.906 249.689 212.922 249.78 213.98C250.289 219.496 249.419 225.053 247.25 230.15C244.969 235.535 241.418 240.287 236.9 244C226.19 253 201.77 266.41 163.08 249.33V112.54H197.27Z" fill="#E6E6F8"/>
<path d="M43 208.43H47.62V170.29H43C37.9423 170.29 33.0918 172.299 29.5155 175.876C25.9392 179.452 23.93 184.302 23.93 189.36C23.93 194.418 25.9392 199.268 29.5155 202.845C33.0918 206.421 37.9423 208.43 43 208.43Z" fill="#C66760"/>
<path d="M43.7 112.54H167.32V266.29H43.7V112.54Z" fill="url(#paint1_linear_1_985)"/>
<path d="M143.82 129.47H83.89C79.8481 129.47 75.9717 131.076 73.1137 133.934C70.2556 136.792 68.65 140.668 68.65 144.71V266.29H43.7V112.54H143.82V129.47Z" fill="#E8897B"/>
<path d="M102.53 154.07C102.528 155.18 102.855 156.266 103.471 157.189C104.086 158.113 104.961 158.834 105.986 159.26C107.011 159.686 108.139 159.799 109.228 159.583C110.317 159.368 111.318 158.835 112.103 158.05C112.889 157.266 113.424 156.267 113.641 155.178C113.859 154.09 113.748 152.961 113.324 151.935C112.9 150.91 112.181 150.033 111.258 149.416C110.335 148.799 109.25 148.47 108.14 148.47C106.654 148.47 105.228 149.06 104.177 150.11C103.125 151.159 102.533 152.584 102.53 154.07Z" fill="#333345"/>
<path d="M54.21 154.07C54.21 155.178 54.5384 156.26 55.1538 157.181C55.7691 158.102 56.6437 158.82 57.667 159.244C58.6902 159.668 59.8162 159.778 60.9025 159.562C61.9888 159.346 62.9866 158.813 63.7698 158.03C64.553 157.247 65.0863 156.249 65.3024 155.162C65.5185 154.076 65.4076 152.95 64.9837 151.927C64.5599 150.904 63.8421 150.029 62.9212 149.414C62.0003 148.798 60.9176 148.47 59.81 148.47C59.0746 148.47 58.3464 148.615 57.667 148.896C56.9875 149.178 56.3702 149.59 55.8502 150.11C55.3302 150.63 54.9177 151.248 54.6363 151.927C54.3548 152.606 54.21 153.335 54.21 154.07Z" fill="#333345"/>
<path d="M184.74 198.37C183.07 254.31 234.57 245.8 234.62 245.8C222.93 254.58 199.24 265.28 163.08 249.32V198.37H184.74Z" fill="#B3B3C5"/>
<path d="M138.82 112.54C138.82 112.54 132.68 146.86 158.55 159.67V221.11C158.62 225.429 157.706 229.707 155.878 233.621C154.051 237.535 151.356 240.981 148 243.7C143.236 247.398 137.577 249.768 131.6 250.57C130.13 250.758 128.642 250.395 127.423 249.551C126.204 248.708 125.341 247.442 125 246C122.49 236.42 113.83 215.88 85.23 211.16C75.6787 209.443 65.8402 210.359 56.77 213.81C45.43 218.32 32.09 228.41 31.53 250.95C31.53 259.7 33.2534 268.364 36.6019 276.448C39.9504 284.532 44.8583 291.877 51.0455 298.065C57.2327 304.252 64.5779 309.16 72.6618 312.508C80.7457 315.857 89.41 317.58 98.16 317.58H109.89C127.553 317.58 144.493 310.567 156.987 298.082C169.481 285.598 176.507 268.663 176.52 251V112.54H138.82Z" fill="#E6E6F8"/>
<path d="M181.14 208.43H176.52V170.29H181.14C186.198 170.29 191.048 172.299 194.625 175.876C198.201 179.452 200.21 184.302 200.21 189.36C200.21 194.418 198.201 199.268 194.625 202.845C191.048 206.421 186.198 208.43 181.14 208.43Z" fill="#E8897B"/>
<path d="M66.37 194.33H77.61C79.379 194.33 81.0755 193.627 82.3264 192.376C83.5773 191.126 84.28 189.429 84.28 187.66C84.28 185.891 83.5773 184.194 82.3264 182.944C81.0755 181.693 79.379 180.99 77.61 180.99H66.37C65.4941 180.99 64.6267 181.163 63.8175 181.498C63.0083 181.833 62.273 182.324 61.6536 182.944C61.0342 183.563 60.5429 184.298 60.2077 185.107C59.8725 185.917 59.7 186.784 59.7 187.66C59.6987 188.536 59.8703 189.404 60.205 190.214C60.5398 191.024 61.031 191.76 61.6507 192.379C62.2703 192.999 63.0061 193.49 63.8159 193.825C64.6258 194.16 65.4937 194.331 66.37 194.33Z" fill="#E8897B"/>
<path d="M31.52 251C32.08 228.46 45.42 218.37 56.76 213.86C60.5758 212.357 64.5683 211.349 68.64 210.86C68.52 211.12 40.84 268.81 66.8 309.79C56.1422 304.109 47.2293 295.638 41.015 285.283C34.8006 274.927 31.5185 263.077 31.52 251Z" fill="#B3B3C5"/>
<path d="M154.41 68.93C164.32 64.13 168.2 52 164 41.82C163.16 39.7737 162.104 37.8227 160.85 36C160.176 35.0465 159.815 33.9076 159.815 32.74C159.815 31.5725 160.176 30.4336 160.85 29.48C164.546 24.1834 167.915 18.6665 170.94 12.96C171.265 12.3516 171.75 11.8429 172.341 11.4883C172.933 11.1336 173.61 10.9463 174.3 10.9463C174.99 10.9463 175.667 11.1336 176.259 11.4883C176.85 11.8429 177.335 12.3516 177.66 12.96C180.685 18.6665 184.054 24.1834 187.75 29.48C188.424 30.4336 188.785 31.5725 188.785 32.74C188.785 33.9076 188.424 35.0465 187.75 36C186.488 37.8281 185.425 39.7859 184.58 41.84C180.4 52.04 184.28 64.15 194.19 68.95C197.77 70.68 205.19 72.2 211.19 72.2L208.4 93H140.2L136.92 70.64C142.93 70.68 150.83 70.66 154.41 68.93Z" fill="#AD6D2A"/>
<path d="M216.58 129.47H163.08V112.54H197.27C205.333 116.003 212.093 121.929 216.58 129.47Z" fill="#B3B3C5"/>
<path d="M138.74 129.47C137.992 123.85 138.019 118.153 138.82 112.54H176.52V129.47H138.74Z" fill="#B3B3C5"/>
<path d="M56.73 68.9299C66.65 64.1299 70.53 52.0199 66.35 41.8199C65.5033 39.7727 64.4406 37.8217 63.18 35.9999C62.5035 35.0475 62.1401 33.9081 62.1401 32.7399C62.1401 31.5717 62.5035 30.4324 63.18 29.4799C66.8794 24.1857 70.2491 18.6685 73.27 12.9599C73.5967 12.3518 74.0822 11.8436 74.6747 11.4893C75.2672 11.1351 75.9447 10.948 76.635 10.948C77.3254 10.948 78.0028 11.1351 78.5953 11.4893C79.1878 11.8436 79.6732 12.3518 80 12.9599C83.0209 18.6685 86.3906 24.1857 90.09 29.4799C90.7665 30.4324 91.1299 31.5717 91.1299 32.7399C91.1299 33.9081 90.7665 35.0475 90.09 35.9999C88.8281 37.828 87.7654 39.7858 86.92 41.8399C82.74 52.0399 86.62 64.1499 96.54 68.9499C100.11 70.6799 107.54 72.1999 113.54 72.1999L110.73 92.9999H42.52L39.25 70.6399C45.25 70.6799 53.16 70.6599 56.73 68.9299Z" fill="#AD6D2A"/>
<path d="M46.73 28.3599C47.7177 29.7302 48.2558 31.3732 48.2702 33.0622C48.2845 34.7513 47.7743 36.4031 46.81 37.7899C44.9039 40.5358 43.3202 43.4919 42.09 46.5999C36.38 60.9399 42.42 78.5999 56.38 85.1599C61.45 87.5399 67.97 89.1599 76.38 89.1599C84.97 89.1599 91.61 87.5099 96.72 85.0299C110.92 78.1599 116.48 60.8099 110.49 46.2099C109.298 43.2543 107.793 40.4349 106 37.7999C105.029 36.4174 104.511 34.7667 104.52 33.077C104.529 31.3872 105.064 29.7421 106.05 28.3699C111.873 19.9678 117.145 11.196 121.83 2.10994C122.153 1.49179 122.64 0.973966 123.236 0.612645C123.833 0.251324 124.517 0.0603027 125.215 0.0603027C125.913 0.0603027 126.597 0.251324 127.194 0.612645C127.79 0.973966 128.277 1.49179 128.6 2.10994C133.291 11.1904 138.569 19.9557 144.4 28.3499C145.389 29.7258 145.926 31.3745 145.939 33.0688C145.952 34.7631 145.438 36.4196 144.47 37.8099C142.58 40.5446 141.003 43.4831 139.77 46.5699C133.95 61.1599 139.6 78.1899 153.77 85.0099C158.88 87.4799 165.5 89.1199 174.07 89.1199C182.4 89.1199 188.89 87.5699 193.94 85.2199C208 78.6799 214.07 60.9999 208.34 46.5999C207.106 43.4938 205.522 40.5382 203.62 37.7899C202.653 36.4043 202.141 34.7519 202.155 33.0622C202.17 31.3724 202.709 29.729 203.7 28.3599C208.038 22.1497 212.043 15.714 215.7 9.07994C216.105 8.31823 216.757 7.71622 217.548 7.37198C218.339 7.02774 219.224 6.96155 220.058 7.18417C220.891 7.4068 221.625 7.90514 222.139 8.59802C222.654 9.2909 222.918 10.1375 222.89 10.9999V109.8C222.89 112.378 221.866 114.85 220.043 116.673C218.22 118.496 215.748 119.52 213.17 119.52H37.26C35.9836 119.52 34.7196 119.269 33.5403 118.78C32.361 118.292 31.2895 117.576 30.3869 116.673C29.4843 115.77 28.7683 114.699 28.2799 113.52C27.7914 112.34 27.54 111.076 27.54 109.8V10.9999C27.5359 10.1537 27.813 9.33006 28.3277 8.65831C28.8424 7.98657 29.5656 7.50474 30.3837 7.28848C31.2019 7.07221 32.0687 7.13374 32.8481 7.46341C33.6275 7.79308 34.2753 8.37223 34.69 9.10994C38.3606 15.7347 42.3796 22.1604 46.73 28.3599Z" fill="#FFCA95"/>
<path d="M37.26 119.52C35.9836 119.52 34.7196 119.268 33.5403 118.78C32.361 118.292 31.2895 117.576 30.3869 116.673C29.4843 115.77 28.7683 114.699 28.2799 113.52C27.7914 112.34 27.54 111.076 27.54 109.8V10.9999C27.5359 10.1536 27.813 9.33 28.3277 8.65826C28.8424 7.98651 29.5656 7.50469 30.3837 7.28842C31.2019 7.07216 32.0687 7.13369 32.8481 7.46336C33.6275 7.79303 34.2754 8.37217 34.69 9.10989C38.3467 15.744 42.3523 22.1797 46.69 28.3899C47.6777 29.7601 48.2158 31.4031 48.2302 33.0922C48.2445 34.7812 47.7343 36.4331 46.77 37.8199C44.8639 40.5658 43.2802 43.5219 42.05 46.6299C36.34 60.9699 42.38 78.6299 56.34 85.1899C61.41 87.5699 67.93 89.1899 76.34 89.1899C84.93 89.1899 91.57 87.5399 96.68 85.0599C110.88 78.1899 116.44 60.8399 110.45 46.2399C109.273 43.2756 107.781 40.4461 106 37.7999C105.029 36.4173 104.511 34.7667 104.52 33.0769C104.529 31.3872 105.064 29.7421 106.05 28.3699C111.873 19.9677 117.145 11.1959 121.83 2.10989C122.156 1.49886 122.644 0.989169 123.24 0.636467C123.836 0.283764 124.517 0.101609 125.21 0.109889V105.11C125.21 105.11 125.71 119.56 108.77 119.56H37.26V119.52Z" fill="#FBB04D"/>
<path d="M98.67 402.68C87.0113 402.68 77.56 391.975 77.56 378.77C77.56 365.565 87.0113 354.86 98.67 354.86C110.329 354.86 119.78 365.565 119.78 378.77C119.78 391.975 110.329 402.68 98.67 402.68Z" fill="#FBB04D"/>
<path d="M98.91 376.46C99.63 380.59 103.17 383.46 106.82 382.78C110.47 382.1 112.82 378.28 112.1 374.15C111.38 370.02 107.84 367.15 104.19 367.83C100.54 368.51 98.19 372.34 98.91 376.46Z" fill="#FFCA95"/>
<defs>
<linearGradient id="paint0_linear_1_985" x1="151.83" y1="351.13" x2="82.79" y2="-185.78" gradientUnits="userSpaceOnUse">
<stop stop-color="#CC5697"/>
<stop offset="1" stop-color="#8E3979"/>
</linearGradient>
<linearGradient id="paint1_linear_1_985" x1="105.51" y1="233.81" x2="105.51" y2="13.36" gradientUnits="userSpaceOnUse">
<stop offset="0.01" stop-color="#FFC3B0"/>
<stop offset="1" stop-color="#E8897B"/>
</linearGradient>
</defs>
</svg>
