<svg width="416" height="508" viewBox="0 0 416 508" fill="none" xmlns="http://www.w3.org/2000/svg">
<path d="M66.88 259.82C66.88 259.82 86.54 249.88 109.25 313.25L70.2 353.66C70.2 353.66 42.57 292.26 66.88 259.82Z" fill="#375DAB"/>
<path d="M223.28 185.89V228.09C223.274 237.793 226.226 247.267 231.74 255.25C241.95 270.03 259.74 294.57 275.64 310.49C275.64 310.49 215.49 353.69 147.64 376.11L103.93 311C103.93 311 139.68 298.42 137.39 263.42L223.28 185.89Z" fill="url(#paint0_linear_1_1011)"/>
<path d="M137.39 263.46L223.28 185.89V228.09C223.28 228.65 223.28 229.21 223.34 229.77L121.18 336.7L103.93 311C103.93 311 139.68 298.46 137.39 263.46Z" fill="#E8897B"/>
<path d="M275.64 310.49C275.64 310.49 215.49 353.69 147.64 376.11L103.93 311C111.832 307.853 118.986 303.084 124.93 297C126.847 301.361 129.634 305.284 133.12 308.53C140.12 315.11 149.39 318.61 158.95 319.36C207.83 323.18 243.43 291.42 251.95 282.96C259.283 292.607 267.194 301.801 275.64 310.49Z" fill="#375DAB"/>
<path d="M325.37 353.44L260.11 293.17C260.11 293.17 208.72 339 157.38 357.85C155.784 358.421 154.053 358.495 152.415 358.063C150.776 357.631 149.307 356.713 148.2 355.43C140.99 347.13 125.7 328.07 120.34 309.94L103.93 311.04C103.93 311.04 87.08 330.04 72.2 342.34C68.3288 345.485 65.5499 349.772 64.26 354.59C58.12 378.11 48.03 448.89 127.42 504.79C129.978 506.57 133.024 507.516 136.14 507.5C153.51 507.5 212.88 503.02 261.62 447.2C261.62 447.2 287.17 419.02 316.83 405.84C321.983 403.535 326.427 399.898 329.706 395.303C332.984 390.708 334.977 385.322 335.48 379.7C335.918 374.841 335.234 369.946 333.481 365.393C331.728 360.84 328.953 356.751 325.37 353.44Z" fill="white"/>
<path d="M72.2 342.34C87.08 330.05 103.93 311.04 103.93 311.04L120.31 310C125.51 327.54 139.98 345.92 147.44 354.6C139.62 467.92 223.03 460.42 256.27 453.02C208.61 503.33 152.85 507.48 136.1 507.51C132.984 507.526 129.938 506.58 127.38 504.8C47.99 448.9 58.08 378.12 64.22 354.6C65.5188 349.773 68.3123 345.482 72.2 342.34Z" fill="#CDE0FF"/>
<path d="M64.26 354.59C65.55 349.772 68.3288 345.485 72.2 342.34C87.08 330.05 103.93 311.04 103.93 311.04L120.34 309.94C125.7 328.07 140.99 347.13 148.2 355.43C149.245 356.623 150.603 357.499 152.12 357.96C131 421.41 132.51 487.32 133.6 507.28C131.378 506.927 129.265 506.076 127.42 504.79C48 448.89 58.12 378.11 64.26 354.59Z" fill="#AFC8FF"/>
<path d="M285.06 287.68L264.92 276.25C262.408 274.821 259.476 274.314 256.63 274.816C253.783 275.318 251.202 276.798 249.33 279C242.97 286.46 233.67 298.82 227.56 313.35C225.749 317.6 225.536 322.361 226.96 326.755C228.385 331.15 231.35 334.881 235.31 337.26C238.705 339.286 242.646 340.207 246.587 339.896C250.529 339.584 254.276 338.055 257.31 335.52C268.054 326.654 278.288 317.185 287.96 307.16C289.272 305.786 290.254 304.13 290.828 302.319C291.403 300.508 291.557 298.59 291.277 296.71C290.997 294.831 290.292 293.04 289.214 291.475C288.137 289.91 286.716 288.612 285.06 287.68Z" fill="url(#paint1_linear_1_1011)"/>
<path d="M123.72 296.87L122.84 331.31C122.77 334.137 121.68 336.843 119.773 338.93C117.866 341.017 115.269 342.346 112.46 342.67C109.907 342.975 107.324 342.43 105.112 341.119C102.899 339.809 101.18 337.806 100.22 335.42C97.7153 329.312 95.9202 322.937 94.87 316.42C94.6498 314.78 94.8304 313.11 95.3964 311.555C95.9624 310 96.897 308.605 98.12 307.49C104.085 301.982 110.673 297.189 117.75 293.21C118.372 292.857 119.077 292.677 119.792 292.69C120.507 292.702 121.205 292.905 121.815 293.279C122.424 293.653 122.923 294.183 123.258 294.814C123.593 295.446 123.752 296.156 123.72 296.87Z" fill="url(#paint2_linear_1_1011)"/>
<path d="M336 243.62C314.49 255.53 268.95 289.35 267.39 362.74C267.354 365.607 268.009 368.44 269.3 371C275.3 383.1 296.66 416.39 351.48 421.64C353.849 421.87 356.239 421.545 358.461 420.691C360.683 419.837 362.675 418.477 364.28 416.72C371.7 408.59 387.28 393.32 406.98 384.47C409.701 383.236 411.961 381.17 413.433 378.57C414.905 375.969 415.513 372.968 415.17 370C412.85 350.28 402.73 309.28 359.07 289.72C356.498 288.588 354.211 286.897 352.375 284.769C350.54 282.641 349.202 280.13 348.46 277.42C346.073 268.386 345.144 259.028 345.71 249.7C345.779 248.53 345.532 247.364 344.994 246.323C344.457 245.282 343.65 244.404 342.657 243.783C341.664 243.161 340.522 242.818 339.351 242.789C338.179 242.76 337.022 243.047 336 243.62Z" fill="#EEF5FF"/>
<path d="M269.3 371C268.011 368.429 267.363 365.585 267.41 362.71C268.94 290.99 312.41 257.08 334.49 244.45C313.12 272.51 255.59 363.82 370.36 410.45C367.99 412.78 365.91 414.94 364.28 416.72C362.675 418.477 360.682 419.837 358.461 420.691C356.239 421.545 353.849 421.87 351.48 421.64C296.66 416.42 275.31 383.13 269.3 371Z" fill="#C7DAFF"/>
<path d="M378.37 324.09C375.931 318.799 371.811 314.464 366.65 311.76C366.372 311.602 366.081 311.469 365.78 311.36C362.716 310.232 359.485 309.624 356.22 309.56C355.152 309.547 354.1 309.815 353.168 310.338C352.237 310.86 351.459 311.618 350.913 312.536C350.367 313.454 350.072 314.499 350.057 315.567C350.043 316.635 350.309 317.688 350.83 318.62C353.83 323.88 359.83 330.47 371.64 332.51C372.729 332.716 373.853 332.621 374.893 332.236C375.932 331.851 376.846 331.19 377.538 330.325C378.23 329.459 378.673 328.421 378.82 327.323C378.966 326.224 378.811 325.107 378.37 324.09Z" fill="white"/>
<path d="M182.61 45.35C182.61 33.455 187.335 22.0473 195.746 13.6363C204.157 5.22525 215.565 0.5 227.46 0.5C249.55 0.5 270.735 9.27517 286.355 24.8951C301.975 40.515 310.75 61.7001 310.75 83.79V218.34C310.75 220.67 310.291 222.978 309.399 225.131C308.507 227.284 307.199 229.24 305.551 230.888C303.902 232.535 301.945 233.842 299.792 234.732C297.638 235.623 295.33 236.081 293 236.08C288.294 236.08 283.781 234.211 280.452 230.885C277.124 227.558 275.253 223.046 275.25 218.34V196.9C275.25 194.744 274.393 192.676 272.869 191.151C271.344 189.627 269.276 188.77 267.12 188.77C264.966 188.773 262.9 189.63 261.378 191.155C259.855 192.679 259 194.746 259 196.9V204.54C259 207.415 257.858 210.172 255.825 212.205C253.792 214.238 251.035 215.38 248.16 215.38C245.285 215.38 242.528 214.238 240.495 212.205C238.462 210.172 237.32 207.415 237.32 204.54V148.85C237.32 148.85 238.79 74.43 182.61 45.35Z" fill="url(#paint3_linear_1_1011)"/>
<path d="M227.46 0.500011C239.238 0.493837 250.882 2.99244 261.62 7.83001C241.62 12.1 211.4 25.99 221.69 71.18L214.92 73.88C206.645 61.8709 195.551 52.0747 182.61 45.35C182.61 39.4602 183.77 33.6281 186.024 28.1867C188.278 22.7452 191.582 17.801 195.746 13.6363C199.911 9.47157 204.855 6.16794 210.297 3.91401C215.738 1.66009 221.57 0.500011 227.46 0.500011Z" fill="#A03774"/>
<path d="M234.49 177.15C234.49 177.15 252.04 169.21 253.86 138.56C255.023 117.016 248.66 95.7381 235.86 78.3701C230.114 70.4737 223.306 63.4072 215.63 57.3701C199.916 45.1283 180.691 38.2492 160.778 37.7434C140.865 37.2376 121.315 43.1319 105 54.5601C90.31 64.8301 77.07 80.6801 73 105.07C72.4823 108.381 72.1683 111.721 72.06 115.07C71.61 125.99 71.68 149.07 79.43 158.72L234.49 177.15Z" fill="#EEF5FF"/>
<path d="M79.44 158.73C71.69 149.08 71.62 126 72.07 115.08C72.1783 111.731 72.4923 108.391 73.01 105.08C77.11 80.6901 90.35 64.8401 105.01 54.5701C123.728 41.5012 146.583 35.7384 169.26 38.3701C146.26 48.0401 109.65 79.4701 202.84 173.37L79.44 158.73Z" fill="#C7DAFF"/>
<path d="M239.41 118C238.25 110.92 234.18 93.22 221.48 81.29C219.911 79.8217 217.89 78.93 215.748 78.7611C213.606 78.5921 211.47 79.1559 209.69 80.36C207.624 81.7573 206.196 83.9159 205.719 86.3635C205.241 88.8111 205.752 91.3483 207.14 93.42C212.53 101.42 221.53 113.95 230.76 122.6C231.658 123.442 232.826 123.936 234.056 123.995C235.286 124.054 236.496 123.673 237.47 122.92C238.208 122.352 238.778 121.594 239.12 120.728C239.461 119.862 239.562 118.919 239.41 118Z" fill="white"/>
<path d="M223.28 185.89L215.52 218.12C214.127 223.965 210.708 229.127 205.87 232.69C184.722 248.032 161.543 260.36 137 269.32C133.13 270.681 129.052 271.358 124.95 271.32H116.51C113.634 271.323 110.819 270.492 108.406 268.929C105.992 267.365 104.083 265.136 102.91 262.51C98.12 251.79 90.63 231.7 87.01 204.51L213 177.15L223.28 185.89Z" fill="url(#paint4_linear_1_1011)"/>
<path d="M198.31 180.35L201.17 189.07C201.17 189.07 164.61 212.53 130 227C126.652 228.361 123.777 230.675 121.731 233.654C119.685 236.633 118.558 240.147 118.49 243.76C118.431 252.978 118.918 262.19 119.95 271.35H116.54C113.664 271.353 110.849 270.522 108.436 268.959C106.022 267.395 104.113 265.166 102.94 262.54C98.15 251.82 90.66 231.73 87.04 204.54L198.31 180.35Z" fill="#E8897B"/>
<path d="M221.13 166.64C210.93 156.64 173.99 122.81 111.07 92.6401C111.07 92.6401 76.8 126.91 59.45 160.76V177.27C59.45 177.27 75.79 204.18 108.37 224.92C108.37 224.92 162.81 214.38 219.9 178C221.476 176.99 222.606 175.416 223.06 173.6C223.378 172.373 223.367 171.083 223.028 169.861C222.689 168.64 222.035 167.529 221.13 166.64Z" fill="#EEF5FF"/>
<path d="M167.89 205.31C133.69 219.95 108.37 224.87 108.37 224.87C75.79 204.13 59.45 177.22 59.45 177.22V160.71C73.59 133.11 98.98 105.24 107.88 95.8901C107.24 120.46 111.28 184.66 167.89 205.31Z" fill="#C7DAFF"/>
<path d="M59.45 177.22V160.71C76.8 126.86 111.07 92.5901 111.07 92.5901C111.07 92.5901 101.86 143.88 108.37 224.87C75.79 204.13 59.45 177.22 59.45 177.22Z" fill="#819FEA"/>
<path d="M139.7 137.15C134.834 133.069 129.681 129.342 124.28 126C124.28 126 120.9 166.66 123.66 193.33L139.08 184.85L139.7 137.15Z" fill="#375DAB"/>
<path d="M162.11 152.37L160.31 173.37L174.45 165.27C174.45 165.27 165.86 156.82 162.11 152.37Z" fill="#375DAB"/>
<path d="M94.39 132.26C93.1793 152.239 93.0691 172.269 94.06 192.26L84.26 181.02L83.95 143.88L94.39 132.26Z" fill="#375DAB"/>
<path d="M70.2 161.53C71.55 159.97 73.2 158.13 74.65 156.66V172.9L70.2 167.9V161.53Z" fill="#375DAB"/>
<path d="M223.28 190.91C213.615 190.91 205.78 183.075 205.78 173.41C205.78 163.745 213.615 155.91 223.28 155.91C232.945 155.91 240.78 163.745 240.78 173.41C240.78 183.075 232.945 190.91 223.28 190.91Z" fill="#C7DAFF"/>
<path d="M66.88 259.82C66.88 259.82 50 291.41 72 342.71C73.2131 345.48 73.6438 348.529 73.2454 351.526C72.8469 354.523 71.6345 357.354 69.74 359.71C64.24 366.42 55.85 376 47.16 383.4C43.2825 386.69 38.5875 388.87 33.5721 389.71C28.5568 390.55 23.4077 390.018 18.67 388.17C13.9987 386.37 9.52781 384.088 5.32999 381.36C3.26208 379.992 1.76117 377.92 1.10635 375.529C0.451538 373.138 0.687363 370.59 1.76999 368.36C7.33999 356.96 20.41 334.6 45.77 311.99C46.4864 311.361 47.0683 310.594 47.4807 309.735C47.8932 308.876 48.1276 307.942 48.17 306.99C48.55 297.66 51.14 268.4 66.88 259.82Z" fill="#819FEA"/>
<path d="M277.46 432C259.84 410.84 227 373.23 191.53 341.77C198.66 337.77 205.53 333.56 212.03 329.33C223 353.8 246.87 386.75 299 415.71C291.457 420.643 284.26 426.086 277.46 432Z" fill="#CDE0FF"/>
<path d="M172.06 351.76C175.44 350.21 178.8 348.56 182.13 346.85C199.52 367.1 239.3 413.11 266.61 442.07C263.44 445.2 261.61 447.2 261.61 447.2C261.14 447.74 260.61 448.2 260.19 448.76C241.57 425.8 203.5 380.29 172.06 351.76Z" fill="#CDE0FF"/>
<defs>
<linearGradient id="paint0_linear_1_1011" x1="189.76" y1="308.22" x2="187.75" y2="153.14" gradientUnits="userSpaceOnUse">
<stop offset="0.01" stop-color="#FFC3B0"/>
<stop offset="1" stop-color="#E8897B"/>
</linearGradient>
<linearGradient id="paint1_linear_1_1011" x1="259.63" y1="306.03" x2="310.26" y2="226.22" gradientUnits="userSpaceOnUse">
<stop stop-color="#CC5697"/>
<stop offset="1" stop-color="#8E3979"/>
</linearGradient>
<linearGradient id="paint2_linear_1_1011" x1="115.64" y1="328.73" x2="97.62" y2="268.66" gradientUnits="userSpaceOnUse">
<stop stop-color="#CC5697"/>
<stop offset="1" stop-color="#8E3979"/>
</linearGradient>
<linearGradient id="paint3_linear_1_1011" x1="246.68" y1="117.61" x2="246.68" y2="409.53" gradientUnits="userSpaceOnUse">
<stop stop-color="#CC5697"/>
<stop offset="1" stop-color="#8E3979"/>
</linearGradient>
<linearGradient id="paint4_linear_1_1011" x1="127.84" y1="248.76" x2="219.42" y2="107.72" gradientUnits="userSpaceOnUse">
<stop offset="0.01" stop-color="#FFC3B0"/>
<stop offset="1" stop-color="#E8897B"/>
</linearGradient>
</defs>
</svg>
