<svg width="416" height="508" viewBox="0 0 416 508" fill="none" xmlns="http://www.w3.org/2000/svg">
<path d="M349.12 259.82C349.12 259.82 329.46 249.88 306.75 313.25L345.8 353.66C345.8 353.66 373.43 292.26 349.12 259.82Z" fill="#375DAB"/>
<path d="M192.72 185.89V228.09C192.725 237.793 189.774 247.267 184.26 255.25C174.05 270.03 156.26 294.57 140.36 310.49C140.36 310.49 200.51 353.69 268.36 376.11L312.07 311C312.07 311 276.32 298.42 278.61 263.42L192.72 185.89Z" fill="url(#paint0_linear_4_670)"/>
<path d="M278.61 263.46L192.72 185.89V228.09C192.72 228.65 192.72 229.21 192.66 229.77L294.82 336.7L312.07 311C312.07 311 276.32 298.46 278.61 263.46Z" fill="#E8897B"/>
<path d="M140.36 310.49C140.36 310.49 200.51 353.69 268.36 376.11L312.07 311C304.168 307.853 297.014 303.084 291.07 297C289.153 301.361 286.366 305.284 282.88 308.53C275.88 315.11 266.61 318.61 257.05 319.36C208.17 323.18 172.57 291.42 164.05 282.96C156.717 292.607 148.806 301.801 140.36 310.49Z" fill="#375DAB"/>
<path d="M90.6302 353.44L155.89 293.17C155.89 293.17 207.28 339 258.62 357.85C260.216 358.421 261.947 358.495 263.585 358.063C265.224 357.631 266.693 356.713 267.8 355.43C275.01 347.13 290.3 328.07 295.66 309.94L312.07 311.04C312.07 311.04 328.92 330.04 343.8 342.34C347.671 345.485 350.45 349.772 351.74 354.59C357.88 378.11 367.97 448.89 288.58 504.79C286.022 506.57 282.977 507.516 279.86 507.5C262.49 507.5 203.12 503.02 154.38 447.2C154.38 447.2 128.83 419.02 99.1702 405.84C94.0175 403.536 89.5727 399.898 86.2944 395.303C83.0161 390.708 81.0228 385.322 80.5202 379.7C80.0823 374.841 80.7661 369.946 82.519 365.393C84.2719 360.84 87.0469 356.751 90.6302 353.44Z" fill="white"/>
<path d="M343.8 342.34C328.92 330.05 312.07 311.04 312.07 311.04L295.69 310C290.49 327.54 276.02 345.92 268.56 354.6C276.38 467.92 192.97 460.42 159.73 453.02C207.39 503.33 263.15 507.48 279.9 507.51C283.016 507.526 286.062 506.58 288.62 504.8C368.01 448.9 357.92 378.12 351.78 354.6C350.481 349.773 347.688 345.482 343.8 342.34Z" fill="#CDE0FF"/>
<path d="M351.74 354.59C350.45 349.772 347.671 345.485 343.8 342.34C328.92 330.05 312.07 311.04 312.07 311.04L295.66 309.94C290.3 328.07 275.01 347.13 267.8 355.43C266.755 356.623 265.397 357.499 263.88 357.96C285 421.41 283.49 487.32 282.4 507.28C284.622 506.927 286.734 506.076 288.58 504.79C368 448.89 357.88 378.11 351.74 354.59Z" fill="#AFC8FF"/>
<path d="M130.94 287.68L151.08 276.25C153.592 274.821 156.525 274.314 159.371 274.816C162.217 275.318 164.798 276.798 166.67 279C173.03 286.46 182.33 298.82 188.44 313.35C190.251 317.6 190.464 322.361 189.04 326.755C187.616 331.15 184.65 334.881 180.69 337.26C177.295 339.286 173.354 340.207 169.413 339.896C165.472 339.584 161.724 338.055 158.69 335.52C147.946 326.654 137.713 317.185 128.04 307.16C126.728 305.786 125.747 304.13 125.172 302.319C124.597 300.508 124.444 298.59 124.723 296.71C125.003 294.831 125.709 293.04 126.786 291.475C127.864 289.91 129.284 288.612 130.94 287.68Z" fill="url(#paint1_linear_4_670)"/>
<path d="M292.28 296.87L293.16 331.31C293.23 334.137 294.32 336.843 296.227 338.93C298.134 341.017 300.731 342.346 303.54 342.67C306.093 342.975 308.676 342.43 310.888 341.119C313.101 339.809 314.82 337.806 315.78 335.42C318.285 329.312 320.08 322.937 321.13 316.42C321.35 314.78 321.17 313.11 320.604 311.555C320.038 310 319.103 308.605 317.88 307.49C311.915 301.982 305.327 297.189 298.25 293.21C297.628 292.857 296.923 292.677 296.208 292.69C295.493 292.702 294.795 292.905 294.185 293.279C293.576 293.653 293.077 294.183 292.742 294.814C292.407 295.446 292.248 296.156 292.28 296.87Z" fill="url(#paint2_linear_4_670)"/>
<path d="M80.0001 243.62C101.51 255.53 147.05 289.35 148.61 362.74C148.646 365.607 147.991 368.44 146.7 371C140.7 383.1 119.34 416.39 64.5201 421.64C62.151 421.87 59.761 421.545 57.5393 420.691C55.3176 419.837 53.3252 418.477 51.7201 416.72C44.3001 408.59 28.7201 393.32 9.02005 384.47C6.29861 383.236 4.03917 381.17 2.5673 378.57C1.09543 375.969 0.487133 372.968 0.830056 370C3.15006 350.28 13.2701 309.28 56.9301 289.72C59.5021 288.588 61.7892 286.897 63.6247 284.769C65.4602 282.641 66.7978 280.13 67.5401 277.42C69.9275 268.386 70.8559 259.028 70.2901 249.7C70.2214 248.53 70.4686 247.364 71.0058 246.323C71.543 245.282 72.3504 244.404 73.3433 243.783C74.3363 243.161 75.4782 242.818 76.6494 242.789C77.8206 242.76 78.9779 243.047 80.0001 243.62Z" fill="#EEF5FF"/>
<path d="M146.7 371C147.989 368.429 148.637 365.585 148.59 362.71C147.06 290.99 103.59 257.08 81.5101 244.45C102.88 272.51 160.41 363.82 45.6401 410.45C48.0101 412.78 50.0901 414.94 51.7201 416.72C53.3253 418.477 55.3176 419.837 57.5393 420.691C59.7611 421.545 62.1511 421.87 64.5201 421.64C119.34 416.42 140.69 383.13 146.7 371Z" fill="#C7DAFF"/>
<path d="M37.6302 324.09C40.0688 318.799 44.1896 314.464 49.3502 311.76C49.6285 311.602 49.9195 311.469 50.2202 311.36C53.2845 310.232 56.5156 309.624 59.7802 309.56C60.8481 309.547 61.9006 309.815 62.8322 310.338C63.7637 310.86 64.5415 311.618 65.0876 312.536C65.6336 313.454 65.9287 314.499 65.9432 315.567C65.9577 316.635 65.6911 317.688 65.1702 318.62C62.1702 323.88 56.1702 330.47 44.3602 332.51C43.2713 332.716 42.1469 332.621 41.1077 332.236C40.0686 331.851 39.1539 331.19 38.462 330.325C37.7701 329.459 37.3271 328.421 37.1805 327.323C37.034 326.224 37.1894 325.107 37.6302 324.09Z" fill="white"/>
<path d="M233.39 45.35C233.39 33.455 228.665 22.0473 220.254 13.6363C211.843 5.22525 200.435 0.5 188.54 0.5C166.45 0.5 145.265 9.27517 129.645 24.8951C114.025 40.515 105.25 61.7001 105.25 83.79V218.34C105.25 220.67 105.709 222.978 106.601 225.131C107.493 227.284 108.801 229.24 110.449 230.888C112.098 232.535 114.055 233.842 116.208 234.732C118.362 235.623 120.67 236.081 123 236.08C127.706 236.08 132.219 234.211 135.548 230.885C138.876 227.558 140.747 223.046 140.75 218.34V196.9C140.75 194.744 141.607 192.676 143.131 191.151C144.656 189.627 146.724 188.77 148.88 188.77C151.034 188.773 153.1 189.63 154.622 191.155C156.145 192.679 157 194.746 157 196.9V204.54C157 207.415 158.142 210.172 160.175 212.205C162.208 214.238 164.965 215.38 167.84 215.38C170.715 215.38 173.472 214.238 175.505 212.205C177.538 210.172 178.68 207.415 178.68 204.54V148.85C178.68 148.85 177.21 74.43 233.39 45.35Z" fill="url(#paint3_linear_4_670)"/>
<path d="M188.54 0.500011C176.762 0.493837 165.118 2.99244 154.38 7.83001C174.38 12.1 204.6 25.99 194.31 71.18L201.08 73.88C209.355 61.8709 220.449 52.0747 233.39 45.35C233.39 39.4602 232.23 33.6281 229.976 28.1867C227.722 22.7452 224.418 17.801 220.254 13.6363C216.089 9.47157 211.145 6.16794 205.703 3.91401C200.262 1.66009 194.43 0.500011 188.54 0.500011Z" fill="#A03774"/>
<path d="M181.51 177.15C181.51 177.15 163.96 169.21 162.14 138.56C160.977 117.016 167.34 95.7381 180.14 78.3701C185.887 70.4737 192.694 63.4072 200.37 57.3701C216.084 45.1283 235.31 38.2492 255.222 37.7434C275.135 37.2376 294.685 43.1319 311 54.5601C325.69 64.8301 338.93 80.6801 343 105.07C343.518 108.381 343.832 111.721 343.94 115.07C344.39 125.99 344.32 149.07 336.57 158.72L181.51 177.15Z" fill="#EEF5FF"/>
<path d="M336.56 158.73C344.31 149.08 344.38 126 343.93 115.08C343.822 111.731 343.508 108.391 342.99 105.08C338.89 80.69 325.65 64.84 310.99 54.57C292.272 41.5011 269.417 35.7383 246.74 38.37C269.74 48.04 306.35 79.47 213.16 173.37L336.56 158.73Z" fill="#C7DAFF"/>
<path d="M176.59 118C177.75 110.92 181.82 93.22 194.52 81.29C196.089 79.8217 198.11 78.93 200.252 78.7611C202.395 78.5921 204.531 79.1559 206.31 80.36C208.376 81.7573 209.804 83.9159 210.282 86.3635C210.76 88.8111 210.248 91.3483 208.86 93.42C203.47 101.42 194.47 113.95 185.24 122.6C184.342 123.442 183.174 123.936 181.944 123.995C180.715 124.054 179.504 123.673 178.53 122.92C177.792 122.352 177.222 121.594 176.88 120.728C176.539 119.862 176.439 118.919 176.59 118Z" fill="white"/>
<path d="M192.72 185.89L200.48 218.12C201.873 223.965 205.292 229.127 210.13 232.69C231.279 248.032 254.457 260.36 279 269.32C282.87 270.681 286.948 271.358 291.05 271.32H299.49C302.366 271.323 305.181 270.492 307.595 268.929C310.008 267.365 311.917 265.136 313.09 262.51C317.88 251.79 325.37 231.7 328.99 204.51L203 177.15L192.72 185.89Z" fill="url(#paint4_linear_4_670)"/>
<path d="M217.69 180.35L214.83 189.07C214.83 189.07 251.39 212.53 286 227C289.348 228.361 292.223 230.675 294.269 233.654C296.315 236.633 297.442 240.147 297.51 243.76C297.57 252.977 297.082 262.19 296.05 271.35H299.46C302.336 271.353 305.151 270.522 307.565 268.959C309.978 267.395 311.887 265.166 313.06 262.54C317.85 251.82 325.34 231.73 328.96 204.54L217.69 180.35Z" fill="#E8897B"/>
<path d="M194.87 166.64C205.07 156.64 242.01 122.81 304.93 92.64C304.93 92.64 339.2 126.91 356.55 160.76V177.27C356.55 177.27 340.21 204.18 307.63 224.92C307.63 224.92 253.19 214.38 196.1 178C194.524 176.99 193.394 175.416 192.94 173.6C192.622 172.373 192.633 171.083 192.972 169.861C193.311 168.64 193.965 167.529 194.87 166.64Z" fill="#EEF5FF"/>
<path d="M248.11 205.31C282.31 219.95 307.63 224.87 307.63 224.87C340.21 204.13 356.55 177.22 356.55 177.22V160.71C342.41 133.11 317.02 105.24 308.12 95.89C308.76 120.46 304.72 184.66 248.11 205.31Z" fill="#C7DAFF"/>
<path d="M356.55 177.22V160.71C339.2 126.86 304.93 92.59 304.93 92.59C304.93 92.59 314.14 143.88 307.63 224.87C340.21 204.13 356.55 177.22 356.55 177.22Z" fill="#819FEA"/>
<path d="M276.3 137.15C281.166 133.069 286.319 129.342 291.72 126C291.72 126 295.1 166.66 292.34 193.33L276.92 184.85L276.3 137.15Z" fill="#375DAB"/>
<path d="M253.89 152.37L255.69 173.37L241.55 165.27C241.55 165.27 250.14 156.82 253.89 152.37Z" fill="#375DAB"/>
<path d="M321.61 132.26C322.821 152.239 322.931 172.269 321.94 192.26L331.74 181.02L332.05 143.88L321.61 132.26Z" fill="#375DAB"/>
<path d="M345.8 161.53C344.45 159.97 342.8 158.13 341.35 156.66V172.9L345.8 167.9V161.53Z" fill="#375DAB"/>
<path d="M192.72 190.91C202.385 190.91 210.22 183.075 210.22 173.41C210.22 163.745 202.385 155.91 192.72 155.91C183.055 155.91 175.22 163.745 175.22 173.41C175.22 183.075 183.055 190.91 192.72 190.91Z" fill="#C7DAFF"/>
<path d="M349.12 259.82C349.12 259.82 366 291.41 344 342.71C342.787 345.48 342.356 348.529 342.755 351.526C343.153 354.523 344.365 357.354 346.26 359.71C351.76 366.42 360.15 376 368.84 383.4C372.718 386.69 377.412 388.87 382.428 389.71C387.443 390.55 392.592 390.018 397.33 388.17C402.001 386.37 406.472 384.088 410.67 381.36C412.738 379.992 414.239 377.92 414.894 375.529C415.548 373.138 415.313 370.59 414.23 368.36C408.66 356.96 395.59 334.6 370.23 311.99C369.514 311.361 368.932 310.594 368.519 309.735C368.107 308.876 367.872 307.942 367.83 306.99C367.45 297.66 364.86 268.4 349.12 259.82Z" fill="#819FEA"/>
<path d="M138.54 432C156.16 410.84 189 373.23 224.47 341.77C217.34 337.77 210.47 333.56 203.97 329.33C193 353.8 169.13 386.75 117 415.71C124.543 420.643 131.74 426.086 138.54 432Z" fill="#CDE0FF"/>
<path d="M243.94 351.76C240.56 350.21 237.2 348.56 233.87 346.85C216.48 367.1 176.7 413.11 149.39 442.07C152.56 445.2 154.39 447.2 154.39 447.2C154.86 447.74 155.39 448.2 155.81 448.76C174.43 425.8 212.5 380.29 243.94 351.76Z" fill="#CDE0FF"/>
<defs>
<linearGradient id="paint0_linear_4_670" x1="226.24" y1="308.22" x2="228.25" y2="153.14" gradientUnits="userSpaceOnUse">
<stop offset="0.01" stop-color="#FFC3B0"/>
<stop offset="1" stop-color="#E8897B"/>
</linearGradient>
<linearGradient id="paint1_linear_4_670" x1="156.37" y1="306.03" x2="105.74" y2="226.22" gradientUnits="userSpaceOnUse">
<stop stop-color="#CC5697"/>
<stop offset="1" stop-color="#8E3979"/>
</linearGradient>
<linearGradient id="paint2_linear_4_670" x1="300.36" y1="328.73" x2="318.38" y2="268.66" gradientUnits="userSpaceOnUse">
<stop stop-color="#CC5697"/>
<stop offset="1" stop-color="#8E3979"/>
</linearGradient>
<linearGradient id="paint3_linear_4_670" x1="169.32" y1="117.61" x2="169.32" y2="409.53" gradientUnits="userSpaceOnUse">
<stop stop-color="#CC5697"/>
<stop offset="1" stop-color="#8E3979"/>
</linearGradient>
<linearGradient id="paint4_linear_4_670" x1="288.16" y1="248.76" x2="196.58" y2="107.72" gradientUnits="userSpaceOnUse">
<stop offset="0.01" stop-color="#FFC3B0"/>
<stop offset="1" stop-color="#E8897B"/>
</linearGradient>
</defs>
</svg>
