<svg width="325" height="500" viewBox="0 0 325 500" fill="none" xmlns="http://www.w3.org/2000/svg">
<path d="M184.63 216.64C184.63 216.64 233.1 194.1 272.3 211.15C283.5 216.02 293.01 224.43 297.82 235.65C301.503 244.278 302.385 253.844 300.34 263C296.95 279.12 286.02 293 270.34 298.09C266.946 299.196 263.436 299.911 259.88 300.22C256.769 300.458 253.673 299.593 251.136 297.777C248.598 295.962 246.78 293.311 246 290.29C245.216 287.29 245.49 284.111 246.776 281.29C248.062 278.468 250.281 276.176 253.06 274.8C262.41 270.1 274.32 261.36 270.32 248.49C270.32 248.49 262.16 224.32 222.83 234.32C217.327 235.748 211.97 237.69 206.83 240.12C200.6 243.03 192.37 247.45 186.97 252.61L184.63 216.64Z" fill="#5B5A3C"/>
<path d="M192.59 252.53C192.59 252.53 187.44 290.61 190.21 315.18C190.21 315.18 191.29 343.85 216.21 349.74C218.504 350.266 220.868 350.418 223.21 350.19L237.75 348.84C241.049 348.529 244.376 348.935 247.503 350.029C250.631 351.123 253.485 352.88 255.87 355.18C261.96 361.05 268.7 370.97 269.33 386.46C269.448 389.72 268.625 392.945 266.96 395.75C261.48 405.19 247.76 428.55 240.53 438.86C240.53 438.86 244.69 483.47 207.78 496.22C196.788 499.938 184.918 500.185 173.78 496.93C162.48 493.67 148.65 486.33 145.7 469.78C145.7 469.78 136.57 496.9 109.14 498.78C99.5185 499.366 89.9741 496.746 82 491.33C69 482.54 52.48 462.79 66.53 422.21C66.53 422.21 63.93 402.21 63.47 387.28C63.213 379.535 65.7525 371.957 70.6239 365.93C75.4954 359.904 82.3733 355.832 90 354.46C95.8375 353.509 101.773 353.318 107.66 353.89C115.331 354.652 123.002 352.432 129.08 347.69C136.91 341.34 143.84 329.06 140.28 305.27L192.59 252.53Z" fill="url(#paint0_linear_1_896)"/>
<path d="M140.27 305.27L192.59 252.53C190.807 266.466 189.749 280.485 189.42 294.53C176.04 305.08 153.87 322.17 138.63 333.89C141.12 326.92 142.12 317.67 140.27 305.27Z" fill="#E8897B"/>
<path d="M169.62 337.85L165.47 342.56C165.054 343.03 164.548 343.411 163.982 343.681C163.417 343.952 162.802 344.106 162.176 344.135C161.549 344.164 160.923 344.067 160.335 343.85C159.746 343.632 159.207 343.299 158.75 342.87L156.87 341.1C156.65 340.897 156.373 340.768 156.077 340.729C155.78 340.691 155.479 340.746 155.215 340.887C154.951 341.028 154.738 341.247 154.604 341.515C154.471 341.782 154.424 342.085 154.47 342.38L156.75 355.93C156.858 356.551 157.14 357.128 157.565 357.593C157.989 358.059 158.537 358.394 159.145 358.559C159.753 358.724 160.395 358.712 160.997 358.524C161.598 358.337 162.134 357.981 162.54 357.5C167.081 352.189 170.353 345.913 172.11 339.15C172.183 338.837 172.15 338.508 172.016 338.215C171.882 337.923 171.655 337.683 171.369 337.534C171.084 337.385 170.757 337.336 170.441 337.393C170.124 337.45 169.835 337.611 169.62 337.85Z" fill="#E8897B"/>
<path d="M183.3 365.52C182.581 364.973 181.703 364.677 180.8 364.677C179.897 364.677 179.019 364.973 178.3 365.52C172.72 369.78 159.37 379.44 159.37 379.44C160.609 380.233 162.031 380.691 163.5 380.772C164.968 380.853 166.432 380.552 167.75 379.9L182.65 372.51C183.282 372.198 183.824 371.73 184.223 371.149C184.623 370.569 184.868 369.896 184.934 369.194C185 368.493 184.886 367.786 184.601 367.141C184.317 366.496 183.873 365.935 183.31 365.51L183.3 365.52Z" fill="#E8897B"/>
<path d="M131.09 361.92C131.813 361.61 132.619 361.547 133.381 361.74C134.144 361.933 134.822 362.373 135.31 362.99C139.13 367.77 148.37 378.75 148.37 378.75C147.156 379.16 145.857 379.248 144.598 379.006C143.34 378.764 142.166 378.2 141.19 377.37L130.19 367.98C129.722 367.582 129.363 367.071 129.148 366.495C128.933 365.919 128.869 365.298 128.962 364.69C129.056 364.083 129.303 363.509 129.681 363.024C130.058 362.539 130.554 362.159 131.12 361.92H131.09Z" fill="#E8897B"/>
<path d="M156.76 414.83C152.751 416.701 149.303 419.59 146.76 423.21C144.69 419.43 141.901 416.091 138.55 413.38C138.254 413.151 137.89 413.026 137.516 413.025C137.141 413.025 136.777 413.149 136.481 413.378C136.184 413.606 135.972 413.927 135.878 414.29C135.784 414.652 135.813 415.036 135.96 415.38C139.836 423.698 142.864 432.386 145 441.31C145.059 441.59 145.211 441.841 145.431 442.023C145.651 442.205 145.926 442.308 146.211 442.315C146.497 442.322 146.776 442.233 147.005 442.061C147.233 441.89 147.397 441.646 147.47 441.37C149.18 435.37 152.69 425.37 158.83 417.37C159.065 417.07 159.19 416.699 159.187 416.318C159.183 415.937 159.05 415.569 158.809 415.274C158.568 414.979 158.235 414.774 157.862 414.693C157.49 414.613 157.101 414.661 156.76 414.83Z" fill="#E8897B"/>
<path d="M239.83 409.34L250.13 424.09C246.58 429.86 243.18 435.19 240.61 438.86L236.26 410.77C236.216 410.338 236.313 409.903 236.538 409.531C236.763 409.159 237.102 408.871 237.506 408.709C237.909 408.548 238.354 408.522 238.774 408.636C239.193 408.749 239.564 408.997 239.83 409.34Z" fill="#E8897B"/>
<path d="M151.61 458.32C178.46 494.32 221.79 488.44 222.87 487.72C217.343 492.385 210.813 495.711 203.79 497.44C194.173 499.899 184.078 499.781 174.52 497.1C163.11 493.94 148.82 486.64 145.81 469.78C145.706 466.416 145.867 463.049 146.29 459.71C146.381 459.134 146.638 458.596 147.029 458.163C147.421 457.731 147.93 457.422 148.495 457.274C149.06 457.127 149.655 457.147 150.208 457.333C150.762 457.519 151.249 457.862 151.61 458.32Z" fill="#E8897B"/>
<path d="M63.48 387.28C63.2227 379.537 65.7607 371.959 70.6301 365.933C75.4996 359.907 82.3752 355.834 90 354.46C95.8375 353.509 101.773 353.318 107.66 353.89C109.657 354.061 111.666 354.045 113.66 353.84C104.33 360.01 89.1 372.72 87.91 390.57C87.8902 391.174 88.0075 391.775 88.2531 392.327C88.4988 392.879 88.8664 393.369 89.3284 393.759C89.7903 394.148 90.3346 394.428 90.9203 394.578C91.506 394.727 92.1179 394.741 92.71 394.62L96.58 393.82C96.7461 393.786 96.9188 393.806 97.0726 393.878C97.2263 393.95 97.3529 394.069 97.4337 394.218C97.5144 394.367 97.545 394.538 97.5209 394.706C97.4969 394.874 97.4194 395.03 97.3 395.15C91.15 401.04 74.42 419.98 82.3 445.37C87.3 461.51 100.89 473.64 117.3 477.75C124.745 479.539 132.356 480.544 140.01 480.75C134.56 488.5 124.89 497.69 109.33 498.75C99.6481 499.388 90.0303 496.776 82 491.33C69 482.54 52.48 462.79 66.53 422.21C66.54 422.21 63.94 402.18 63.48 387.28Z" fill="#E8897B"/>
<path d="M152.07 185.61C152.07 185.61 164.15 145.34 123.82 129.01C109.61 123.26 98.5201 111.24 95.0301 96.3101C92.9142 86.7531 92.9689 76.8432 95.1901 67.3101C97.5643 55.9768 102.565 45.3589 109.79 36.3101C110.49 35.4401 111.23 34.5701 111.99 33.7201C114.383 31.0203 115.748 27.5632 115.845 23.9566C115.942 20.35 114.765 16.8246 112.52 14.0001C111.239 12.3976 109.649 11.0685 107.845 10.0917C106.041 9.11482 104.059 8.5101 102.016 8.31334C99.9741 8.11657 97.9131 8.33176 95.9555 8.94616C93.998 9.56055 92.1836 10.5616 90.6201 11.8901C78.9801 21.8901 64.2901 44.6601 63.2101 71.3301L76.2801 147.33L131.85 175L152.07 185.61Z" fill="#5B5A3C"/>
<path d="M86.1101 31.0802C86.1101 31.9979 86.3823 32.895 86.8921 33.658C87.402 34.4211 88.1266 35.0158 88.9745 35.367C89.8223 35.7182 90.7553 35.8101 91.6553 35.631C92.5554 35.452 93.3822 35.0101 94.0311 34.3612C94.68 33.7122 95.1219 32.8855 95.301 31.9854C95.48 31.0853 95.3881 30.1524 95.0369 29.3045C94.6857 28.4567 94.091 27.732 93.328 27.2222C92.5649 26.7123 91.6678 26.4402 90.7501 26.4402C89.5195 26.4402 88.3393 26.929 87.4692 27.7992C86.599 28.6694 86.1101 29.8496 86.1101 31.0802Z" fill="white"/>
<path d="M135.66 173.58C135.66 173.58 122.19 141.87 88.66 138.22C57.13 134.77 27.2 155.22 19.28 185.91C17.2888 193.823 16.5199 201.994 17 210.14C17.73 224.71 23.52 238.8 34.48 248.43C37.154 250.789 40.0781 252.848 43.2 254.57C45.192 255.673 47.4101 256.304 49.6841 256.416C51.9581 256.528 54.2274 256.117 56.3179 255.215C58.4084 254.313 60.2645 252.944 61.7435 251.213C63.2225 249.482 64.2852 247.436 64.85 245.23L65.04 244.47C65.7531 241.528 65.5303 238.438 64.4027 235.629C63.2752 232.819 61.2991 230.432 58.75 228.8C51.2 223.8 42.09 214.19 44.75 197.69C45.678 192.19 47.7317 186.94 50.7826 182.27C53.8335 177.6 57.8158 173.61 62.48 170.55C74.2 162.83 93.15 157.64 113.42 181.55L135.66 173.58Z" fill="#7A7A51"/>
<path d="M40.3401 231.7C40.3401 232.618 40.6122 233.515 41.1221 234.278C41.6319 235.041 42.3566 235.636 43.2045 235.987C44.0523 236.338 44.9853 236.43 45.8853 236.251C46.7854 236.072 47.6122 235.63 48.2611 234.981C48.91 234.332 49.3519 233.505 49.531 232.605C49.71 231.705 49.6181 230.772 49.2669 229.924C48.9157 229.077 48.321 228.352 47.5579 227.842C46.7949 227.332 45.8978 227.06 44.9801 227.06C43.7495 227.06 42.5693 227.549 41.6991 228.419C40.829 229.289 40.3401 230.469 40.3401 231.7Z" fill="white"/>
<path d="M245.94 178.58C245.94 178.58 226.19 212.36 187.22 227.29L180.82 200.91L230.21 159.51L245.94 178.58Z" fill="#7A7A51"/>
<path d="M311.22 108.81C306.69 108.22 301.47 107.68 296.22 107.41C288.248 106.939 280.269 108.204 272.833 111.116C265.397 114.029 258.681 118.52 253.15 124.28C249.455 128.184 246.257 132.53 243.63 137.22L260.63 158.01C262.403 155.093 264.41 152.324 266.63 149.73C269.694 146.207 273.461 143.364 277.689 141.383C281.917 139.403 286.512 138.329 291.18 138.23L309.8 137.71C312.099 137.645 314.35 137.038 316.369 135.938C318.388 134.838 320.119 133.276 321.42 131.38L321.84 130.75C327.46 121.93 321.62 110.14 311.22 108.81Z" fill="#7A7A51"/>
<path d="M286.95 125.63C284.006 125.63 281.62 123.244 281.62 120.3C281.62 117.357 284.006 114.97 286.95 114.97C289.894 114.97 292.28 117.357 292.28 120.3C292.28 123.244 289.894 125.63 286.95 125.63Z" fill="white"/>
<path d="M269.4 275.54C269.4 276.459 269.673 277.358 270.185 278.122C270.697 278.886 271.424 279.481 272.274 279.831C273.124 280.181 274.059 280.27 274.96 280.088C275.861 279.905 276.688 279.46 277.335 278.807C277.982 278.154 278.421 277.323 278.596 276.421C278.77 275.518 278.673 274.584 278.315 273.737C277.958 272.889 277.357 272.168 276.589 271.663C275.82 271.158 274.919 270.892 274 270.9C272.776 270.911 271.606 271.404 270.745 272.273C269.883 273.142 269.4 274.316 269.4 275.54Z" fill="white"/>
<path d="M180.82 200.91L169.21 180.21C173.295 178.493 177.278 176.543 181.14 174.37C190.786 168.941 198.872 161.123 204.624 151.666C210.375 142.209 213.597 131.432 213.98 120.37L215.09 92.3001C216.19 64.3001 236.09 40.0101 263.59 34.7001L264.9 34.4601C267.783 33.9542 270.753 34.4615 273.305 35.896C275.857 37.3306 277.834 39.6038 278.9 42.3301C279.98 45.0535 280.081 48.0669 279.188 50.8569C278.294 53.6469 276.461 56.0406 274 57.6301C267.438 61.8039 261.212 66.4848 255.38 71.6301C249.368 77.1398 245.571 84.6521 244.7 92.7601C243.87 100.47 242.8 112.5 242.21 127.36C241.83 138.385 238.912 149.173 233.683 158.885C228.454 168.598 221.054 176.974 212.06 183.36C202.263 190.245 191.797 196.124 180.82 200.91Z" fill="#9D9E70"/>
<path d="M241.71 55.2201C241.708 56.2788 242.021 57.3142 242.609 58.1947C243.196 59.0753 244.033 59.7612 245.011 60.1654C245.99 60.5696 247.066 60.6738 248.104 60.4648C249.142 60.2558 250.094 59.743 250.84 58.9916C251.586 58.2402 252.092 57.284 252.293 56.2446C252.494 55.2052 252.382 54.1295 251.97 53.154C251.558 52.1786 250.866 51.3475 249.981 50.7664C249.096 50.1852 248.059 49.8802 247 49.8901C245.593 49.9007 244.248 50.4669 243.257 51.4653C242.266 52.4637 241.71 53.8134 241.71 55.2201Z" fill="white"/>
<path d="M214 120.4C243.61 122.92 279.73 149.18 275.25 205.08C274.25 217.76 269.09 229.97 260 238.88C255.63 243.203 250.465 246.639 244.79 249C241.593 250.324 238.031 250.471 234.735 249.417C231.44 248.362 228.625 246.174 226.79 243.24C224.993 240.315 224.277 236.853 224.767 233.456C225.256 230.058 226.92 226.939 229.47 224.64C238.26 216.54 248.78 201.64 241.73 179.98C240.867 177.811 239.813 175.723 238.58 173.74C221.63 145.68 180.74 145.84 163.04 173.43L160.73 177.03L138 174.19C137.757 173.243 137.709 172.256 137.86 171.29C142.49 133.65 176.2 117.19 214 120.4Z" fill="#828252"/>
<path d="M245.94 229.38C242.996 229.38 240.61 226.994 240.61 224.05C240.61 221.107 242.996 218.72 245.94 218.72C248.884 218.72 251.27 221.107 251.27 224.05C251.27 226.994 248.884 229.38 245.94 229.38Z" fill="white"/>
<path d="M106.39 193.4V233.34C106.39 233.34 103.31 223.41 86.7901 215.48C82.9601 213.64 79.1501 211.77 75.4701 209.66L57.1001 199.13C50.3268 195.219 44.8378 189.422 41.3025 182.446C37.7671 175.469 36.3383 167.615 37.1901 159.84C37.8508 154.199 38.0648 148.515 37.8301 142.84C37.6411 139.358 36.0983 136.088 33.531 133.728C30.9638 131.368 27.5756 130.106 24.0901 130.21H23.7601H13.6701C11.7226 130.208 9.79774 129.791 8.02448 128.986C6.25121 128.18 4.67033 127.006 3.38757 125.54C2.10482 124.075 1.14977 122.352 0.586273 120.488C0.0227814 118.624 -0.136147 116.661 0.120117 114.73C0.559097 111.636 2.04337 108.785 4.32635 106.652C6.60934 104.518 9.55363 103.229 12.6701 103L30.5701 101.68C46.9201 100.47 61.4501 112.54 62.7501 128.88C62.7501 129.14 62.7501 129.4 62.8001 129.66C62.8001 129.61 60.8401 187.9 106.39 193.4Z" fill="#9D9E70"/>
<path d="M175.23 185.33L148.62 170.07C152.745 168.448 156.633 166.279 160.18 163.62C180.18 148.62 185.41 120.5 170.53 100.44C167.975 97.0114 165.213 93.742 162.26 90.6501C162.26 90.6501 135.45 67.3101 140.64 38.7801C140.64 38.7801 148.49 -6.42989 201.69 1.78011C205.182 2.31348 208.337 4.16684 210.503 6.95787C212.668 9.74891 213.681 13.2647 213.33 16.7801C213.002 20.1386 211.442 23.2567 208.951 25.5334C206.46 27.81 203.214 29.0841 199.84 29.1101C190.46 29.1101 178.26 31.0201 173.21 40.1101C171.921 42.5336 171.303 45.2576 171.42 48.0001C171.61 54.6901 172.85 68.2901 192.11 83.7301C197.992 88.37 203.061 93.9563 207.11 100.26C213.57 110.48 219.17 125.44 212.87 142.07C212.84 142.1 202.46 170.63 175.23 185.33Z" fill="#C2C79A"/>
<path d="M187.61 20.17C184.666 20.17 182.28 17.7837 182.28 14.84C182.28 11.8963 184.666 9.51001 187.61 9.51001C190.554 9.51001 192.94 11.8963 192.94 14.84C192.94 17.7837 190.554 20.17 187.61 20.17Z" fill="white"/>
<path d="M122 174.62L105.68 198.32C105.68 198.32 62.49 192.53 60.91 154.08L58 97.1702C57.8303 92.4396 56.1163 87.8948 53.12 84.2302C51.3856 82.131 49.1975 80.4527 46.7206 79.3216C44.2436 78.1905 41.5423 77.6361 38.82 77.7002H30.58C27.599 77.7002 24.74 76.516 22.6321 74.4081C20.5242 72.3002 19.34 69.4412 19.34 66.4602C19.34 63.4791 20.5242 60.6202 22.6321 58.5123C24.74 56.4044 27.599 55.2202 30.58 55.2202H45.64C55.584 55.187 65.1525 59.0156 72.3289 65.8991C79.5053 72.7827 83.7291 82.1834 84.11 92.1202C84.11 92.4302 84.11 92.7502 84.11 93.0602V135.11C84.11 135.11 83 175.64 122 174.62Z" fill="#C2C79A"/>
<path d="M44.23 66.65C44.232 67.5673 44.5058 68.4634 45.0169 69.2251C45.5279 69.9868 46.2533 70.58 47.1013 70.9297C47.9493 71.2793 48.8819 71.3698 49.7814 71.1896C50.6808 71.0095 51.5066 70.5668 52.1545 69.9174C52.8024 69.2681 53.2434 68.4413 53.4216 67.5415C53.5998 66.6418 53.5073 65.7093 53.1558 64.862C52.8044 64.0148 52.2096 63.2907 51.4468 62.7813C50.684 62.2719 49.7873 62 48.87 62C48.2598 62 47.6557 62.1203 47.0921 62.3542C46.5285 62.588 46.0165 62.9306 45.5855 63.3626C45.1545 63.7945 44.8129 64.3072 44.5803 64.8713C44.3477 65.4354 44.2287 66.0398 44.23 66.65Z" fill="white"/>
<path d="M197.38 230V230.93C197.424 242.119 195.116 253.192 190.606 263.432C186.096 273.672 179.484 282.849 171.2 290.37C164.249 296.605 156.59 302.002 148.38 306.45C138.62 311.75 126.54 311.76 117.38 305.52C111 301.19 105.32 293.63 103.88 280.52L99.49 201.94C99.2751 198.478 99.5341 195.002 100.26 191.61C102.07 183.37 107.26 170.35 121.76 168.18L141.67 166.64C150.318 165.937 158.994 167.598 166.77 171.444C174.547 175.291 181.132 181.18 185.82 188.48C186.03 188.81 186.25 189.15 186.46 189.48C193.89 201.55 197.38 215.71 197.38 230Z" fill="url(#paint1_linear_1_896)"/>
<path d="M153.76 235.32C147.536 235.32 142.49 230.274 142.49 224.05C142.49 217.826 147.536 212.78 153.76 212.78C159.984 212.78 165.03 217.826 165.03 224.05C165.03 230.274 159.984 235.32 153.76 235.32Z" fill="white"/>
<path d="M118.79 235.32C112.566 235.32 107.52 230.274 107.52 224.05C107.52 217.826 112.566 212.78 118.79 212.78C125.014 212.78 130.06 217.826 130.06 224.05C130.06 230.274 125.014 235.32 118.79 235.32Z" fill="white"/>
<path d="M26 113C26 113.918 26.2722 114.815 26.782 115.578C27.2919 116.341 28.0165 116.936 28.8644 117.287C29.7122 117.638 30.6452 117.73 31.5452 117.551C32.4453 117.372 33.2721 116.93 33.921 116.281C34.5699 115.632 35.0118 114.805 35.1909 113.905C35.3699 113.005 35.278 112.072 34.9268 111.224C34.5756 110.377 33.9809 109.652 33.2179 109.142C32.4548 108.632 31.5577 108.36 30.64 108.36C29.4094 108.36 28.2292 108.849 27.3591 109.719C26.4889 110.589 26 111.77 26 113Z" fill="white"/>
<defs>
<linearGradient id="paint0_linear_1_896" x1="165.3" y1="325.64" x2="165.3" y2="640.26" gradientUnits="userSpaceOnUse">
<stop offset="0.01" stop-color="#FFC3B0"/>
<stop offset="1" stop-color="#E8897B"/>
</linearGradient>
<linearGradient id="paint1_linear_1_896" x1="148.38" y1="297.59" x2="148.38" y2="125.22" gradientUnits="userSpaceOnUse">
<stop offset="0.01" stop-color="#FFC3B0"/>
<stop offset="1" stop-color="#E8897B"/>
</linearGradient>
</defs>
</svg>
