<svg width="325" height="500" viewBox="0 0 325 500" fill="none" xmlns="http://www.w3.org/2000/svg">
<path d="M140.37 216.64C140.37 216.64 91.9001 194.1 52.7001 211.15C41.5001 216.02 31.9901 224.43 27.1801 235.65C23.4966 244.278 22.6152 253.844 24.6601 263C28.0501 279.12 38.9801 293 54.6601 298.09C58.0543 299.196 61.5637 299.911 65.1201 300.22C68.2313 300.458 71.3269 299.593 73.8646 297.777C76.4023 295.962 78.2203 293.311 79.0001 290.29C79.7845 287.29 79.5106 284.111 78.2245 281.29C76.9385 278.468 74.719 276.176 71.9401 274.8C62.5901 270.1 50.6801 261.36 54.6801 248.49C54.6801 248.49 62.8401 224.32 102.17 234.32C107.673 235.748 113.03 237.69 118.17 240.12C124.4 243.03 132.63 247.45 138.03 252.61L140.37 216.64Z" fill="#5B5A3C"/>
<path d="M132.41 252.53C132.41 252.53 137.56 290.61 134.79 315.18C134.79 315.18 133.71 343.85 108.79 349.74C106.496 350.266 104.133 350.418 101.79 350.19L87.2502 348.84C83.9515 348.529 80.6246 348.935 77.4972 350.029C74.3697 351.123 71.5157 352.88 69.1303 355.18C63.0403 361.05 56.3002 370.97 55.6702 386.46C55.5526 389.72 56.3753 392.945 58.0402 395.75C63.5202 405.19 77.2402 428.55 84.4702 438.86C84.4702 438.86 80.3102 483.47 117.22 496.22C128.213 499.938 140.082 500.185 151.22 496.93C162.52 493.67 176.35 486.33 179.3 469.78C179.3 469.78 188.43 496.9 215.86 498.78C225.482 499.366 235.026 496.746 243 491.33C256 482.54 272.52 462.79 258.47 422.21C258.47 422.21 261.07 402.21 261.53 387.28C261.787 379.535 259.248 371.957 254.376 365.93C249.505 359.904 242.627 355.832 235 354.46C229.163 353.509 223.227 353.318 217.34 353.89C209.669 354.652 201.998 352.432 195.92 347.69C188.09 341.34 181.16 329.06 184.72 305.27L132.41 252.53Z" fill="url(#paint0_linear_4_555)"/>
<path d="M184.73 305.27L132.41 252.53C134.193 266.466 135.251 280.485 135.58 294.53C148.96 305.08 171.13 322.17 186.37 333.89C183.88 326.92 182.88 317.67 184.73 305.27Z" fill="#E8897B"/>
<path d="M155.38 337.85L159.53 342.56C159.946 343.03 160.452 343.411 161.018 343.681C161.584 343.952 162.198 344.106 162.825 344.135C163.451 344.164 164.077 344.067 164.666 343.85C165.254 343.632 165.793 343.299 166.25 342.87L168.13 341.1C168.35 340.897 168.627 340.768 168.924 340.729C169.22 340.691 169.521 340.746 169.785 340.887C170.049 341.028 170.262 341.247 170.396 341.515C170.529 341.782 170.576 342.085 170.53 342.38L168.25 355.93C168.143 356.551 167.86 357.128 167.436 357.593C167.011 358.059 166.463 358.394 165.855 358.559C165.247 358.724 164.605 358.712 164.003 358.524C163.402 358.337 162.867 357.981 162.46 357.5C157.92 352.189 154.647 345.913 152.89 339.15C152.817 338.837 152.85 338.508 152.984 338.215C153.118 337.923 153.346 337.683 153.631 337.534C153.916 337.385 154.243 337.336 154.56 337.393C154.876 337.45 155.165 337.611 155.38 337.85Z" fill="#E8897B"/>
<path d="M141.7 365.52C142.419 364.973 143.297 364.677 144.2 364.677C145.103 364.677 145.981 364.973 146.7 365.52C152.28 369.78 165.63 379.44 165.63 379.44C164.391 380.232 162.969 380.691 161.5 380.772C160.032 380.852 158.568 380.552 157.25 379.9L142.35 372.51C141.718 372.198 141.176 371.73 140.777 371.149C140.377 370.569 140.132 369.896 140.066 369.194C140 368.493 140.114 367.786 140.399 367.141C140.683 366.496 141.127 365.935 141.69 365.51L141.7 365.52Z" fill="#E8897B"/>
<path d="M193.91 361.92C193.187 361.61 192.381 361.546 191.619 361.74C190.856 361.933 190.178 362.373 189.69 362.99C185.87 367.77 176.63 378.75 176.63 378.75C177.844 379.159 179.143 379.248 180.402 379.006C181.66 378.764 182.834 378.2 183.81 377.37L194.81 367.98C195.278 367.582 195.637 367.071 195.852 366.495C196.067 365.919 196.131 365.298 196.038 364.69C195.944 364.083 195.697 363.509 195.319 363.024C194.942 362.539 194.446 362.159 193.88 361.92H193.91Z" fill="#E8897B"/>
<path d="M168.24 414.83C172.249 416.701 175.697 419.59 178.24 423.21C180.311 419.43 183.1 416.091 186.45 413.38C186.746 413.15 187.11 413.025 187.484 413.025C187.859 413.024 188.223 413.148 188.519 413.377C188.816 413.606 189.028 413.927 189.122 414.29C189.216 414.652 189.188 415.036 189.04 415.38C185.165 423.698 182.136 432.385 180 441.31C179.941 441.589 179.789 441.84 179.569 442.023C179.349 442.205 179.074 442.308 178.789 442.315C178.503 442.322 178.224 442.233 177.996 442.061C177.767 441.89 177.603 441.646 177.53 441.37C175.82 435.37 172.31 425.37 166.17 417.37C165.936 417.07 165.81 416.699 165.814 416.318C165.817 415.937 165.951 415.569 166.191 415.274C166.432 414.978 166.766 414.774 167.138 414.693C167.51 414.612 167.899 414.661 168.24 414.83Z" fill="#E8897B"/>
<path d="M85.1701 409.34L74.8701 424.09C78.4201 429.86 81.8201 435.19 84.3901 438.86L88.7401 410.77C88.7845 410.338 88.687 409.903 88.4622 409.531C88.2374 409.159 87.8976 408.871 87.4943 408.709C87.0909 408.548 86.6459 408.522 86.2266 408.636C85.8072 408.749 85.4364 408.997 85.1701 409.34Z" fill="#E8897B"/>
<path d="M173.39 458.32C146.54 494.32 103.21 488.44 102.13 487.72C107.657 492.385 114.187 495.711 121.21 497.44C130.827 499.898 140.922 499.781 150.48 497.1C161.89 493.94 176.18 486.64 179.19 469.78C179.294 466.416 179.133 463.049 178.71 459.71C178.619 459.133 178.362 458.596 177.97 458.163C177.579 457.731 177.069 457.421 176.505 457.274C175.94 457.126 175.345 457.147 174.791 457.333C174.238 457.518 173.751 457.862 173.39 458.32Z" fill="#E8897B"/>
<path d="M261.52 387.28C261.778 379.537 259.24 371.959 254.37 365.933C249.501 359.907 242.625 355.834 235 354.46C229.163 353.509 223.227 353.318 217.34 353.89C215.343 354.061 213.334 354.044 211.34 353.84C220.67 360.01 235.9 372.72 237.09 390.57C237.11 391.174 236.993 391.775 236.747 392.327C236.501 392.879 236.134 393.369 235.672 393.758C235.21 394.148 234.666 394.428 234.08 394.577C233.494 394.727 232.882 394.741 232.29 394.62L228.42 393.82C228.254 393.786 228.081 393.806 227.928 393.878C227.774 393.949 227.647 394.069 227.567 394.218C227.486 394.367 227.455 394.538 227.479 394.706C227.503 394.874 227.581 395.029 227.7 395.15C233.85 401.04 250.58 419.98 242.7 445.37C237.7 461.51 224.11 473.64 207.7 477.75C200.256 479.539 192.644 480.544 184.99 480.75C190.44 488.5 200.11 497.69 215.67 498.75C225.352 499.387 234.97 496.776 243 491.33C256 482.54 272.52 462.79 258.47 422.21C258.46 422.21 261.06 402.18 261.52 387.28Z" fill="#E8897B"/>
<path d="M172.93 185.61C172.93 185.61 160.85 145.34 201.18 129.01C215.39 123.26 226.48 111.24 229.97 96.31C232.086 86.753 232.032 76.8431 229.81 67.31C227.436 55.9767 222.435 45.3587 215.21 36.31C214.51 35.44 213.77 34.57 213.01 33.72C210.617 31.0201 209.252 27.5631 209.155 23.9565C209.058 20.3499 210.236 16.8245 212.48 14C213.761 12.3974 215.351 11.0684 217.156 10.0915C218.96 9.1147 220.942 8.50998 222.984 8.31322C225.026 8.11645 227.087 8.33164 229.045 8.94603C231.002 9.56043 232.817 10.5615 234.38 11.89C246.02 21.89 260.71 44.66 261.79 71.33L248.72 147.33L193.15 175L172.93 185.61Z" fill="#5B5A3C"/>
<path d="M238.89 31.0799C238.89 31.9977 238.618 32.8947 238.108 33.6578C237.598 34.4208 236.873 35.0156 236.026 35.3667C235.178 35.7179 234.245 35.8098 233.345 35.6308C232.445 35.4518 231.618 35.0098 230.969 34.3609C230.32 33.712 229.878 32.8852 229.699 31.9852C229.52 31.0851 229.612 30.1521 229.963 29.3043C230.314 28.4564 230.909 27.7318 231.672 27.2219C232.435 26.7121 233.332 26.4399 234.25 26.4399C235.48 26.4399 236.661 26.9288 237.531 27.799C238.401 28.6691 238.89 29.8493 238.89 31.0799Z" fill="white"/>
<path d="M189.34 173.58C189.34 173.58 202.81 141.87 236.34 138.22C267.87 134.77 297.8 155.22 305.72 185.91C307.711 193.823 308.48 201.994 308 210.14C307.27 224.71 301.48 238.8 290.52 248.43C287.846 250.789 284.922 252.848 281.8 254.57C279.808 255.673 277.59 256.304 275.316 256.416C273.042 256.528 270.772 256.117 268.682 255.215C266.591 254.313 264.735 252.944 263.256 251.213C261.777 249.482 260.715 247.436 260.15 245.23L259.96 244.47C259.247 241.528 259.47 238.437 260.597 235.628C261.725 232.819 263.701 230.432 266.25 228.8C273.8 223.8 282.91 214.19 280.25 197.69C279.322 192.189 277.268 186.94 274.217 182.27C271.166 177.6 267.184 173.61 262.52 170.55C250.8 162.83 231.85 157.64 211.58 181.55L189.34 173.58Z" fill="#7A7A51"/>
<path d="M284.66 231.7C284.66 232.618 284.388 233.515 283.878 234.278C283.368 235.041 282.643 235.636 281.796 235.987C280.948 236.338 280.015 236.43 279.115 236.251C278.215 236.072 277.388 235.63 276.739 234.981C276.09 234.332 275.648 233.505 275.469 232.605C275.29 231.705 275.382 230.772 275.733 229.924C276.084 229.076 276.679 228.352 277.442 227.842C278.205 227.332 279.102 227.06 280.02 227.06C281.25 227.06 282.431 227.549 283.301 228.419C284.171 229.289 284.66 230.469 284.66 231.7Z" fill="white"/>
<path d="M79.0601 178.58C79.0601 178.58 98.8101 212.36 137.78 227.29L144.18 200.91L94.7901 159.51L79.0601 178.58Z" fill="#7A7A51"/>
<path d="M13.7801 108.81C18.3101 108.22 23.5301 107.68 28.7801 107.41C36.7521 106.939 44.7315 108.204 52.1674 111.116C59.6032 114.029 66.3186 118.52 71.8501 124.28C75.5455 128.184 78.7431 132.53 81.3701 137.22L64.3701 158.01C62.5966 155.093 60.5901 152.324 58.3701 149.73C55.3064 146.207 51.5395 143.364 47.3115 141.383C43.0835 139.403 38.4879 138.329 33.8201 138.23L15.2001 137.71C12.9014 137.645 10.6506 137.038 8.6312 135.938C6.61181 134.838 4.88105 133.276 3.58007 131.38L3.16007 130.75C-2.45993 121.93 3.38007 110.14 13.7801 108.81Z" fill="#7A7A51"/>
<path d="M38.0502 125.63C40.9939 125.63 43.3802 123.244 43.3802 120.3C43.3802 117.356 40.9939 114.97 38.0502 114.97C35.1065 114.97 32.7202 117.356 32.7202 120.3C32.7202 123.244 35.1065 125.63 38.0502 125.63Z" fill="white"/>
<path d="M55.5998 275.54C55.5998 276.459 55.3266 277.358 54.815 278.122C54.3033 278.886 53.5763 279.48 52.7261 279.83C51.8759 280.18 50.9409 280.27 50.0398 280.088C49.1386 279.905 48.312 279.459 47.6647 278.807C47.0174 278.154 46.5787 277.323 46.4042 276.42C46.2297 275.518 46.3273 274.584 46.6846 273.736C47.0419 272.889 47.6429 272.167 48.4112 271.662C49.1795 271.157 50.0805 270.892 50.9998 270.9C52.2235 270.911 53.3934 271.404 54.255 272.273C55.1165 273.142 55.5999 274.316 55.5998 275.54Z" fill="white"/>
<path d="M144.18 200.91L155.79 180.21C151.705 178.493 147.722 176.543 143.86 174.37C134.215 168.941 126.128 161.122 120.376 151.666C114.625 142.209 111.403 131.432 111.02 120.37L109.91 92.3C108.81 64.3 88.91 40.01 61.41 34.7L60.1 34.46C57.2166 33.9541 54.247 34.4614 51.6952 35.8959C49.1433 37.3304 47.1665 39.6037 46.1 42.33C45.0204 45.0533 44.9187 48.0668 45.8122 50.8568C46.7057 53.6467 48.5392 56.0405 51 57.63C57.5624 61.8038 63.788 66.4847 69.62 71.63C75.6317 77.1397 79.4287 84.652 80.3 92.76C81.13 100.47 82.2 112.5 82.79 127.36C83.1698 138.384 86.0878 149.173 91.3171 158.885C96.5464 168.598 103.946 176.973 112.94 183.36C122.737 190.245 133.203 196.124 144.18 200.91Z" fill="#9D9E70"/>
<path d="M83.2898 55.22C83.2918 56.2787 82.979 57.3141 82.3912 58.1946C81.8034 59.0751 80.9671 59.7611 79.9886 60.1653C79.0101 60.5695 77.9335 60.6737 76.8957 60.4647C75.8578 60.2557 74.9055 59.7429 74.1597 58.9915C73.4139 58.24 72.9083 57.2839 72.7072 56.2445C72.506 55.2051 72.6183 54.1293 73.0299 53.1539C73.4414 52.1785 74.1336 51.3474 75.0186 50.7662C75.9035 50.1851 76.9412 49.8801 77.9999 49.89C79.4065 49.9006 80.752 50.4668 81.7429 51.4652C82.7338 52.4636 83.2899 53.8133 83.2898 55.22Z" fill="white"/>
<path d="M111 120.4C81.3902 122.92 45.2702 149.18 49.7502 205.08C50.7502 217.76 55.9102 229.97 65.0002 238.88C69.3703 243.202 74.5351 246.639 80.2102 249C83.4071 250.323 86.9696 250.471 90.265 249.417C93.5605 248.362 96.3755 246.174 98.2102 243.24C100.007 240.315 100.723 236.853 100.233 233.455C99.7438 230.058 98.0798 226.939 95.5302 224.64C86.7402 216.54 76.2202 201.64 83.2702 179.98C84.1332 177.811 85.1874 175.723 86.4202 173.74C103.37 145.68 144.26 145.84 161.96 173.43L164.27 177.03L187 174.19C187.243 173.243 187.291 172.256 187.14 171.29C182.51 133.65 148.8 117.19 111 120.4Z" fill="#828252"/>
<path d="M79.06 229.38C82.0037 229.38 84.39 226.994 84.39 224.05C84.39 221.106 82.0037 218.72 79.06 218.72C76.1163 218.72 73.73 221.106 73.73 224.05C73.73 226.994 76.1163 229.38 79.06 229.38Z" fill="white"/>
<path d="M218.61 193.4V233.34C218.61 233.34 221.69 223.41 238.21 215.48C242.04 213.64 245.85 211.77 249.53 209.66L267.9 199.13C274.673 195.219 280.162 189.422 283.698 182.446C287.233 175.469 288.662 167.615 287.81 159.84C287.149 154.199 286.935 148.515 287.17 142.84C287.359 139.358 288.902 136.088 291.469 133.728C294.036 131.368 297.424 130.106 300.91 130.21H301.24H311.33C313.277 130.208 315.202 129.791 316.976 128.986C318.749 128.18 320.33 127.006 321.612 125.54C322.895 124.075 323.85 122.352 324.414 120.488C324.977 118.624 325.136 116.661 324.88 114.73C324.441 111.636 322.957 108.785 320.674 106.652C318.391 104.518 315.446 103.229 312.33 103L294.43 101.68C278.08 100.47 263.55 112.54 262.25 128.88C262.25 129.14 262.25 129.4 262.2 129.66C262.2 129.61 264.16 187.9 218.61 193.4Z" fill="#9D9E70"/>
<path d="M149.77 185.33L176.38 170.07C172.255 168.448 168.367 166.278 164.82 163.62C144.82 148.62 139.59 120.5 154.47 100.44C157.025 97.0113 159.787 93.7419 162.74 90.65C162.74 90.65 189.55 67.31 184.36 38.78C184.36 38.78 176.51 -6.43001 123.31 1.77999C119.818 2.31336 116.663 4.16671 114.498 6.95775C112.332 9.74878 111.32 13.2646 111.67 16.78C111.999 20.1385 113.559 23.2566 116.049 25.5332C118.54 27.8099 121.786 29.084 125.16 29.11C134.54 29.11 146.74 31.02 151.79 40.11C153.079 42.5335 153.697 45.2575 153.58 48C153.39 54.69 152.15 68.29 132.89 83.73C127.008 88.3699 121.939 93.9562 117.89 100.26C111.43 110.48 105.83 125.44 112.13 142.07C112.16 142.1 122.54 170.63 149.77 185.33Z" fill="#C2C79A"/>
<path d="M137.39 20.17C140.334 20.17 142.72 17.7837 142.72 14.84C142.72 11.8963 140.334 9.51001 137.39 9.51001C134.446 9.51001 132.06 11.8963 132.06 14.84C132.06 17.7837 134.446 20.17 137.39 20.17Z" fill="white"/>
<path d="M203 174.62L219.32 198.32C219.32 198.32 262.51 192.53 264.09 154.08L267 97.1699C267.17 92.4394 268.884 87.8945 271.88 84.2299C273.614 82.1308 275.802 80.4524 278.279 79.3213C280.756 78.1902 283.458 77.6358 286.18 77.6999H294.42C297.401 77.6999 300.26 76.5157 302.368 74.4078C304.476 72.2999 305.66 69.441 305.66 66.4599C305.66 63.4789 304.476 60.62 302.368 58.5121C300.26 56.4042 297.401 55.2199 294.42 55.2199H279.36C269.416 55.1867 259.847 59.0153 252.671 65.8989C245.495 72.7824 241.271 82.1832 240.89 92.1199C240.89 92.4299 240.89 92.7499 240.89 93.0599V135.11C240.89 135.11 242 175.64 203 174.62Z" fill="#C2C79A"/>
<path d="M280.77 66.65C280.768 67.5673 280.494 68.4634 279.983 69.2251C279.472 69.9868 278.747 70.58 277.899 70.9297C277.051 71.2793 276.118 71.3698 275.219 71.1896C274.319 71.0095 273.494 70.5668 272.846 69.9174C272.198 69.2681 271.757 68.4413 271.579 67.5415C271.4 66.6418 271.493 65.7093 271.844 64.862C272.196 64.0148 272.791 63.2907 273.553 62.7813C274.316 62.2719 275.213 62 276.13 62C276.74 62 277.345 62.1203 277.908 62.3542C278.472 62.588 278.984 62.9306 279.415 63.3626C279.846 63.7945 280.187 64.3072 280.42 64.8713C280.652 65.4354 280.772 66.0398 280.77 66.65Z" fill="white"/>
<path d="M127.62 230V230.93C127.577 242.119 129.885 253.192 134.395 263.432C138.905 273.671 145.516 282.849 153.8 290.37C160.751 296.604 168.411 302.001 176.62 306.45C186.38 311.75 198.46 311.76 207.62 305.52C214 301.19 219.68 293.63 221.12 280.52L225.51 201.94C225.725 198.478 225.466 195.002 224.74 191.61C222.93 183.37 217.74 170.35 203.24 168.18L183.33 166.64C174.683 165.937 166.007 167.597 158.23 171.444C150.453 175.291 143.869 181.18 139.18 188.48C138.97 188.81 138.75 189.15 138.54 189.48C131.11 201.55 127.62 215.71 127.62 230Z" fill="url(#paint1_linear_4_555)"/>
<path d="M171.24 235.32C177.464 235.32 182.51 230.274 182.51 224.05C182.51 217.826 177.464 212.78 171.24 212.78C165.016 212.78 159.97 217.826 159.97 224.05C159.97 230.274 165.016 235.32 171.24 235.32Z" fill="white"/>
<path d="M206.21 235.32C212.434 235.32 217.48 230.274 217.48 224.05C217.48 217.826 212.434 212.78 206.21 212.78C199.986 212.78 194.94 217.826 194.94 224.05C194.94 230.274 199.986 235.32 206.21 235.32Z" fill="white"/>
<path d="M299 113C299 113.918 298.728 114.815 298.218 115.578C297.708 116.341 296.984 116.936 296.136 117.287C295.288 117.638 294.355 117.73 293.455 117.551C292.555 117.372 291.728 116.93 291.079 116.281C290.43 115.632 289.988 114.805 289.809 113.905C289.63 113.005 289.722 112.072 290.073 111.224C290.425 110.376 291.019 109.652 291.782 109.142C292.545 108.632 293.443 108.36 294.36 108.36C295.591 108.36 296.771 108.849 297.641 109.719C298.511 110.589 299 111.769 299 113Z" fill="white"/>
<defs>
<linearGradient id="paint0_linear_4_555" x1="159.7" y1="325.64" x2="159.7" y2="640.26" gradientUnits="userSpaceOnUse">
<stop offset="0.01" stop-color="#FFC3B0"/>
<stop offset="1" stop-color="#E8897B"/>
</linearGradient>
<linearGradient id="paint1_linear_4_555" x1="176.62" y1="297.59" x2="176.62" y2="125.22" gradientUnits="userSpaceOnUse">
<stop offset="0.01" stop-color="#FFC3B0"/>
<stop offset="1" stop-color="#E8897B"/>
</linearGradient>
</defs>
</svg>
