<svg width="316" height="462" viewBox="0 0 316 462" fill="none" xmlns="http://www.w3.org/2000/svg">
<path d="M203.81 103.82H271.41C278.25 103.82 281.81 112.5 277.18 117.88C271.593 124.327 267.11 131.652 263.91 139.56C261.25 146.19 257.1 152.1 251.35 155.88C242.81 161.5 228.4 166.93 206.15 163.93L203.81 103.82Z" fill="#BFC29F"/>
<path d="M204.4 119H231.29C234.49 119 236.29 123.18 234.36 126.09C229.75 132.99 220.68 142.66 205.36 144.3L204.4 119Z" fill="#9B9B6E"/>
<path d="M208.41 188.49C208.41 188.49 204.49 234.94 260.31 259.8C260.31 259.8 299.49 277.32 314.31 310.69C315.433 313.242 315.686 316.093 315.03 318.803C314.374 321.514 312.846 323.933 310.68 325.69C298.52 335.54 274.1 359.2 264.68 396.49C263.085 402.882 259.951 408.787 255.55 413.69C241 429.93 203.75 459.37 133.76 446C112.433 441.995 92.7413 431.842 77.11 416.79C59.06 399.27 38.41 371.02 33.64 330.85C33.3229 328.047 33.6124 325.208 34.4889 322.527C35.3654 319.846 36.8084 317.384 38.72 315.31C50.94 301.9 80.47 271.48 109.72 256.31L208.41 188.49Z" fill="url(#paint0_linear_1_1054)"/>
<path d="M226.2 236.94L229.82 250.42C169.32 296.82 143.87 402.76 135.69 446.42C135.04 446.3 134.42 446.21 133.76 446.08C124.121 444.227 114.765 441.125 105.93 436.85C127.57 291.69 226.2 236.94 226.2 236.94Z" fill="#9B9B6E"/>
<path d="M59.4599 306.11L37.1499 317.32C37.6291 316.62 38.1536 315.952 38.7199 315.32C43.2199 310.38 50.0899 303.12 58.4199 295.17C61.8599 291.89 65.5499 288.5 69.4199 285.1C81.6299 274.38 95.6899 263.6 109.69 256.31L208.41 188.49C213 200.92 206.04 220.28 195.64 236.93C188.27 248.72 171.73 262.01 158.73 266.93L73.3899 299.1L87.9999 350.48L77.1299 416.79C66.8275 406.835 57.9804 395.476 50.8499 383.05C54.7199 365.55 67.7099 347.3 67.7099 347.3C63.7817 333.832 61.0215 320.051 59.4599 306.11Z" fill="#9B9B6E"/>
<path d="M48.7499 183.86C48.5199 181.36 48.39 178.86 48.39 176.28V84C48.39 61.8491 57.1893 40.6055 72.8524 24.9424C88.5154 9.27938 109.759 0.47998 131.91 0.47998C142.878 0.47998 153.739 2.64029 163.872 6.83756C174.005 11.0348 183.212 17.1869 190.967 24.9424C198.723 32.698 204.875 41.9051 209.072 52.0383C213.27 62.1714 215.43 73.032 215.43 84V176.33C215.427 198.48 206.627 219.722 190.965 235.385C175.302 251.047 154.06 259.847 131.91 259.85H101.78C93.9006 259.85 86.0985 258.298 78.8189 255.283C71.5394 252.267 64.9251 247.848 59.3535 242.276C53.782 236.705 49.3625 230.091 46.3472 222.811C43.3319 215.531 41.7799 207.729 41.7799 199.85V194.6C41.7787 192.328 42.4365 190.103 43.6736 188.197C44.9107 186.291 46.674 184.784 48.7499 183.86Z" fill="url(#paint1_linear_1_1054)"/>
<path d="M166.21 111.35H136.7C136.059 111.353 135.428 111.504 134.855 111.79C134.282 112.077 133.782 112.491 133.396 113.002C133.009 113.513 132.745 114.106 132.624 114.735C132.503 115.364 132.529 116.012 132.7 116.63C134.01 121.23 137.05 127.63 144.06 130.45C146.562 131.433 149.247 131.864 151.931 131.712C154.615 131.56 157.235 130.829 159.61 129.57C164.543 126.975 168.405 122.727 170.52 117.57C170.792 116.874 170.889 116.121 170.802 115.379C170.715 114.637 170.447 113.927 170.021 113.312C169.595 112.698 169.025 112.198 168.36 111.855C167.696 111.513 166.957 111.34 166.21 111.35Z" fill="#FCFAFF"/>
<path d="M113.31 146.71C113.31 147.717 113.609 148.702 114.169 149.539C114.728 150.376 115.524 151.028 116.454 151.413C117.385 151.798 118.409 151.899 119.397 151.701C120.384 151.504 121.291 151.018 122.003 150.306C122.714 149.593 123.198 148.685 123.393 147.697C123.589 146.709 123.486 145.685 123.1 144.755C122.713 143.825 122.059 143.031 121.221 142.473C120.382 141.915 119.397 141.618 118.39 141.62C117.722 141.62 117.061 141.752 116.444 142.008C115.827 142.263 115.266 142.639 114.794 143.111C114.323 143.584 113.949 144.145 113.694 144.763C113.439 145.38 113.309 146.042 113.31 146.71Z" fill="#9B9B6E"/>
<path d="M95.9999 146.71C95.9999 147.717 96.2987 148.702 96.8585 149.539C97.4182 150.376 98.2137 151.028 99.1444 151.413C100.075 151.798 101.099 151.899 102.087 151.701C103.074 151.504 103.981 151.018 104.693 150.306C105.404 149.593 105.888 148.685 106.083 147.697C106.279 146.709 106.176 145.685 105.79 144.755C105.403 143.825 104.749 143.031 103.911 142.473C103.072 141.915 102.087 141.618 101.08 141.62C100.412 141.62 99.7506 141.752 99.1336 142.008C98.5166 142.263 97.9561 142.639 97.4843 143.111C97.0124 143.584 96.6385 144.145 96.3838 144.763C96.129 145.38 95.9986 146.042 95.9999 146.71Z" fill="#9B9B6E"/>
<path d="M144.14 102.19H166.28C167.223 102.187 168.127 101.811 168.794 101.144C169.461 100.477 169.837 99.5733 169.84 98.6299V46.0899C169.84 44.8425 169.345 43.646 168.464 42.763C167.583 41.88 166.387 41.3826 165.14 41.3799C164.165 41.3756 163.213 41.6759 162.417 42.2389C161.621 42.8018 161.021 43.5993 160.7 44.5199C158.7 50.3499 153.54 62.8999 144.63 70.1699C143.395 71.1317 142.391 72.3572 141.69 73.7568C140.989 75.1565 140.61 76.695 140.58 78.2599V98.6299C140.583 99.5733 140.959 100.477 141.626 101.144C142.293 101.811 143.197 102.187 144.14 102.19Z" fill="#C9519C"/>
<path d="M164 140.6H149.84C148.535 140.6 147.284 141.118 146.361 142.041C145.438 142.964 144.92 144.215 144.92 145.52C144.919 146.262 145.086 146.995 145.408 147.663C145.73 148.332 146.199 148.919 146.78 149.38C150.13 152.02 157.12 158.16 160.31 165.63C160.637 166.365 161.172 166.989 161.849 167.424C162.526 167.859 163.315 168.087 164.12 168.08C165.234 168.08 166.302 167.638 167.09 166.85C167.877 166.062 168.32 164.994 168.32 163.88V144.93C168.321 144.362 168.21 143.799 167.994 143.274C167.777 142.749 167.459 142.271 167.058 141.869C166.657 141.467 166.18 141.148 165.655 140.93C165.131 140.712 164.568 140.6 164 140.6Z" fill="#C9519C"/>
<path d="M122.76 95.87L115.76 102.82C115.439 103.142 115.058 103.398 114.639 103.572C114.219 103.746 113.769 103.836 113.315 103.836C112.861 103.836 112.411 103.746 111.991 103.572C111.571 103.398 111.19 103.142 110.87 102.82L104.04 95.82C103.795 95.5735 103.636 95.2547 103.586 94.9108C103.536 94.5668 103.598 94.2159 103.762 93.9098C103.927 93.6038 104.186 93.3589 104.501 93.2112C104.815 93.0636 105.169 93.0211 105.51 93.09L110.51 94.79C112.403 95.4354 114.457 95.4354 116.35 94.79L121.35 93.1C121.692 93.0433 122.043 93.0969 122.352 93.2531C122.661 93.4093 122.912 93.6599 123.069 93.9686C123.227 94.2773 123.281 94.628 123.226 94.9699C123.17 95.3118 123.007 95.6271 122.76 95.87Z" fill="#9B9B6E"/>
<path d="M53.75 110H6.12C1.3 110 -1.21001 116.91 2.04999 121.19C6.04389 126.428 9.20142 132.254 11.41 138.46C13.28 143.74 16.21 148.46 20.26 151.46C26.26 155.93 36.43 160.26 52.11 157.87L53.75 110Z" fill="#7F7D56"/>
<path d="M108.15 259.8H101.78C93.9006 259.8 86.0984 258.248 78.8189 255.233C71.5394 252.217 64.925 247.798 59.3535 242.226C53.782 236.655 49.3624 230.04 46.3471 222.761C43.3319 215.481 41.7799 207.679 41.7799 199.8V194.6C41.7813 191.528 42.9962 188.581 45.1599 186.4H72.7599C71.6899 202.78 72.9999 242.5 108.15 259.8Z" fill="#9B9B6E"/>
<path d="M45.1299 186.4C46.1688 185.336 47.3963 184.475 48.7499 183.86C48.5199 181.36 48.39 178.86 48.39 176.28V84C48.3804 67.244 53.4116 50.8725 62.8297 37.0138C72.2478 23.155 85.6172 12.4499 101.2 6.29004C91.31 19.84 77.3099 50.98 77.3199 118.64H95.9999C95.1999 133.55 84.79 137.64 77.7 138.64C78.24 153.09 79.3599 168.95 81.2099 186.41L45.1299 186.4Z" fill="#9B9B6E"/>
<path d="M66.6799 111.35H96.1899C96.8312 111.351 97.4637 111.5 98.0378 111.786C98.6119 112.072 99.1121 112.487 99.4994 112.998C99.8867 113.509 100.151 114.103 100.27 114.733C100.39 115.363 100.363 116.012 100.19 116.63C98.8799 121.23 95.8399 127.63 88.8299 130.45C86.3278 131.433 83.6426 131.864 80.9586 131.712C78.2745 131.56 75.655 130.829 73.2799 129.57C68.3468 126.975 64.4844 122.727 62.3699 117.57C62.0977 116.874 62.0008 116.121 62.0878 115.379C62.1748 114.637 62.443 113.927 62.8687 113.312C63.2945 112.698 63.8648 112.198 64.5293 111.855C65.1939 111.513 65.9324 111.34 66.6799 111.35Z" fill="#FCFAFF"/>
<path d="M148.72 186.4C147.769 177.883 145.044 169.659 140.72 162.26C140.327 161.59 139.768 161.033 139.097 160.643C138.425 160.253 137.665 160.042 136.888 160.032C136.112 160.022 135.346 160.213 134.665 160.585C133.983 160.958 133.41 161.501 133 162.16C129.55 167.81 125 177.06 124.8 186.4H148.72Z" fill="#FCFAFF"/>
<path d="M86 186.4C85.0493 177.883 82.324 169.659 78 162.26C77.6058 161.59 77.0457 161.033 76.3736 160.643C75.7015 160.253 74.9402 160.043 74.1631 160.033C73.3861 160.023 72.6197 160.213 71.9377 160.586C71.2558 160.959 70.6814 161.501 70.27 162.16C66.82 167.81 62.27 177.06 62.07 186.4H86Z" fill="#FCFAFF"/>
<path d="M250.14 253.67C233.63 267.28 190.24 307.29 174.46 363.31L151.67 343.23C151.67 343.23 163.94 288.05 226.2 236.94C228.157 235.329 230.594 234.413 233.128 234.337C235.662 234.261 238.15 235.029 240.2 236.52L249.84 243.61C250.626 244.181 251.271 244.925 251.725 245.784C252.179 246.643 252.431 247.595 252.46 248.566C252.489 249.538 252.295 250.503 251.892 251.387C251.49 252.272 250.891 253.053 250.14 253.67Z" fill="#B77D85"/>
<path d="M83.6 271.54C84.46 284 87.77 313.19 100.39 341.8L81.22 355.19C81.22 355.19 62 317.93 63.2 286C63.2728 284.129 63.7664 282.299 64.6442 280.646C65.522 278.992 66.7613 277.558 68.27 276.45L78.19 269.1C78.6752 268.737 79.2487 268.51 79.8511 268.444C80.4534 268.378 81.0625 268.475 81.6149 268.724C82.1672 268.973 82.6427 269.366 82.9919 269.861C83.341 270.356 83.551 270.936 83.6 271.54Z" fill="#B77D85"/>
<path d="M174.46 363.31L151.67 343.23C153.353 336.722 155.577 330.367 158.32 324.23C166.78 329.743 174.509 336.305 181.32 343.76C178.641 350.132 176.35 356.661 174.46 363.31Z" fill="#9D5D65"/>
<path d="M93.57 323.69C95.5226 329.843 97.7992 335.888 100.39 341.8L81.22 355.19C78.3537 349.4 75.7903 343.466 73.54 337.41C79.0942 331.382 85.9424 326.691 93.57 323.69Z" fill="#9D5D65"/>
<path d="M184.59 460.65C152.85 463.44 85.4399 462.89 57.1799 413.27C55.0977 409.605 54.2823 405.355 54.8599 401.18C57.0171 385.766 62.5005 371.005 70.9299 357.92C92.3299 325.17 138.93 322.15 166.47 349.99C183.15 366.89 200.86 395.52 201.99 441.41C202.068 446.225 200.314 450.89 197.084 454.462C193.854 458.033 189.388 460.245 184.59 460.65Z" fill="#C4D5FF"/>
<path d="M84.9999 381.4L93.3599 387.61C93.5926 387.784 93.8706 387.887 94.1605 387.907C94.4504 387.927 94.7399 387.864 94.9944 387.723C95.2488 387.583 95.4573 387.372 95.5949 387.116C95.7325 386.86 95.7932 386.57 95.7699 386.28L94.3199 368.55C94.25 367.831 94.3904 367.107 94.7241 366.466C95.0579 365.825 95.5706 365.295 96.1999 364.94C102.271 361.725 109.096 360.203 115.958 360.534C122.82 360.864 129.466 363.036 135.2 366.82C167.79 388.18 166.77 444.43 165.65 461.55C135.56 461.78 93.5799 456.2 67.7199 427.7C69.2399 407.1 73.7799 392.7 79.4399 382.58C79.7053 382.113 80.0666 381.708 80.5001 381.391C80.9336 381.073 81.4294 380.852 81.9547 380.74C82.4801 380.629 83.0231 380.63 83.548 380.744C84.0729 380.857 84.5678 381.081 84.9999 381.4Z" fill="#7E9AEF"/>
<path d="M165.18 188.49C165.18 189.718 164.692 190.895 163.824 191.764C162.956 192.632 161.778 193.12 160.55 193.12H41.8599C42.1136 191.114 42.8812 189.207 44.0884 187.585C45.2955 185.962 46.9012 184.679 48.7499 183.86H160.55C161.778 183.86 162.956 184.348 163.824 185.216C164.692 186.084 165.18 187.262 165.18 188.49Z" fill="#9B9B6E"/>
<defs>
<linearGradient id="paint0_linear_1_1054" x1="181.17" y1="229.76" x2="154.32" y2="599.41" gradientUnits="userSpaceOnUse">
<stop stop-color="#BFC29F"/>
<stop offset="1" stop-color="#9B9B6E"/>
</linearGradient>
<linearGradient id="paint1_linear_1_1054" x1="138.13" y1="26.25" x2="96.06" y2="728.85" gradientUnits="userSpaceOnUse">
<stop stop-color="#BFC29F"/>
<stop offset="1" stop-color="#9B9B6E"/>
</linearGradient>
</defs>
</svg>
