<svg width="316" height="462" viewBox="0 0 316 462" fill="none" xmlns="http://www.w3.org/2000/svg">
<path d="M112.19 103.82H44.5896C37.7496 103.82 34.1896 112.5 38.8196 117.88C44.4061 124.327 48.8897 131.652 52.0896 139.56C54.7496 146.19 58.8996 152.1 64.6496 155.88C73.1896 161.5 87.5996 166.93 109.85 163.93L112.19 103.82Z" fill="#BFC29F"/>
<path d="M111.6 119H84.7099C81.5099 119 79.7099 123.18 81.6399 126.09C86.2499 132.99 95.3199 142.66 110.64 144.3L111.6 119Z" fill="#9B9B6E"/>
<path d="M107.59 188.49C107.59 188.49 111.51 234.94 55.6899 259.8C55.6899 259.8 16.5099 277.32 1.68991 310.69C0.567166 313.242 0.314273 316.093 0.970154 318.803C1.62604 321.514 3.15434 323.933 5.31991 325.69C17.4799 335.54 41.8999 359.2 51.3199 396.49C52.9149 402.882 56.0493 408.787 60.4499 413.69C74.9999 429.93 112.25 459.37 182.24 446C203.567 441.995 223.259 431.842 238.89 416.79C256.94 399.27 277.59 371.02 282.36 330.85C282.677 328.047 282.387 325.208 281.511 322.527C280.634 319.846 279.191 317.384 277.28 315.31C265.06 301.9 235.53 271.48 206.28 256.31L107.59 188.49Z" fill="url(#paint0_linear_4_713)"/>
<path d="M89.7997 236.94L86.1797 250.42C146.68 296.82 172.13 402.76 180.31 446.42C180.96 446.3 181.58 446.21 182.24 446.08C191.878 444.227 201.234 441.125 210.07 436.85C188.43 291.69 89.7997 236.94 89.7997 236.94Z" fill="#9B9B6E"/>
<path d="M256.54 306.11L278.85 317.32C278.371 316.62 277.846 315.952 277.28 315.32C272.78 310.38 265.91 303.12 257.58 295.17C254.14 291.89 250.45 288.5 246.58 285.1C234.37 274.38 220.31 263.6 206.31 256.31L107.59 188.49C103 200.92 109.96 220.28 120.36 236.93C127.73 248.72 144.27 262.01 157.27 266.93L242.61 299.1L228 350.48L238.87 416.79C249.172 406.835 258.019 395.476 265.15 383.05C261.28 365.55 248.29 347.3 248.29 347.3C252.218 333.832 254.978 320.051 256.54 306.11Z" fill="#9B9B6E"/>
<path d="M267.25 183.86C267.48 181.36 267.61 178.86 267.61 176.28V84C267.61 61.8491 258.811 40.6055 243.148 24.9424C227.485 9.27938 206.241 0.47998 184.09 0.47998C173.122 0.47998 162.262 2.64029 152.129 6.83756C141.995 11.0348 132.788 17.1869 125.033 24.9424C117.277 32.698 111.125 41.9051 106.928 52.0383C102.731 62.1714 100.57 73.032 100.57 84V176.33C100.573 198.48 109.373 219.722 125.036 235.385C140.698 251.047 161.94 259.847 184.09 259.85H214.22C222.1 259.85 229.902 258.298 237.181 255.283C244.461 252.267 251.075 247.848 256.647 242.276C262.218 236.705 266.638 230.091 269.653 222.811C272.668 215.531 274.22 207.729 274.22 199.85V194.6C274.222 192.328 273.564 190.103 272.327 188.197C271.09 186.291 269.326 184.784 267.25 183.86Z" fill="url(#paint1_linear_4_713)"/>
<path d="M149.79 111.35H179.3C179.941 111.353 180.572 111.504 181.145 111.79C181.718 112.077 182.218 112.491 182.604 113.002C182.991 113.513 183.255 114.106 183.376 114.735C183.497 115.364 183.471 116.012 183.3 116.63C181.99 121.23 178.95 127.63 171.94 130.45C169.438 131.433 166.753 131.864 164.069 131.712C161.385 131.56 158.765 130.829 156.39 129.57C151.457 126.975 147.595 122.727 145.48 117.57C145.208 116.874 145.111 116.121 145.198 115.379C145.285 114.637 145.553 113.927 145.979 113.312C146.405 112.698 146.975 112.198 147.64 111.855C148.304 111.513 149.043 111.34 149.79 111.35Z" fill="#FCFAFF"/>
<path d="M202.69 146.71C202.69 147.717 202.391 148.702 201.831 149.539C201.272 150.376 200.476 151.029 199.545 151.414C198.615 151.798 197.591 151.899 196.603 151.701C195.615 151.504 194.708 151.018 193.997 150.306C193.286 149.593 192.802 148.685 192.606 147.697C192.411 146.709 192.513 145.685 192.9 144.755C193.287 143.825 193.941 143.031 194.779 142.473C195.618 141.915 196.603 141.618 197.61 141.62C198.278 141.62 198.939 141.752 199.556 142.008C200.173 142.264 200.734 142.639 201.205 143.111C201.677 143.584 202.051 144.145 202.306 144.763C202.561 145.38 202.691 146.042 202.69 146.71Z" fill="#9B9B6E"/>
<path d="M220 146.71C220 147.717 219.702 148.702 219.142 149.539C218.582 150.376 217.786 151.029 216.856 151.414C215.925 151.798 214.901 151.899 213.914 151.701C212.926 151.504 212.019 151.018 211.308 150.306C210.596 149.593 210.112 148.685 209.917 147.697C209.722 146.709 209.824 145.685 210.211 144.755C210.597 143.825 211.251 143.031 212.09 142.473C212.928 141.915 213.913 141.618 214.92 141.62C215.588 141.62 216.25 141.752 216.867 142.008C217.484 142.264 218.044 142.639 218.516 143.111C218.988 143.584 219.362 144.145 219.616 144.763C219.871 145.38 220.002 146.042 220 146.71Z" fill="#9B9B6E"/>
<path d="M171.86 102.19H149.72C148.777 102.187 147.873 101.811 147.206 101.144C146.539 100.477 146.163 99.5733 146.16 98.6299V46.0899C146.16 44.8425 146.655 43.646 147.536 42.763C148.417 41.88 149.613 41.3826 150.86 41.3799C151.835 41.3756 152.787 41.6759 153.583 42.2389C154.379 42.8018 154.979 43.5993 155.3 44.5199C157.3 50.3499 162.46 62.8999 171.37 70.1699C172.605 71.1317 173.609 72.3572 174.31 73.7568C175.011 75.1565 175.39 76.695 175.42 78.2599V98.6299C175.418 99.5733 175.042 100.477 174.375 101.144C173.707 101.811 172.803 102.187 171.86 102.19Z" fill="#C9519C"/>
<path d="M152 140.6H166.16C167.465 140.6 168.716 141.118 169.639 142.041C170.561 142.964 171.08 144.215 171.08 145.52C171.081 146.262 170.914 146.995 170.592 147.663C170.27 148.332 169.801 148.918 169.22 149.38C165.87 152.02 158.88 158.16 155.69 165.63C155.362 166.365 154.827 166.989 154.151 167.424C153.474 167.859 152.684 168.087 151.88 168.08C150.766 168.08 149.698 167.637 148.91 166.85C148.122 166.062 147.68 164.994 147.68 163.88V144.93C147.678 144.362 147.789 143.799 148.006 143.274C148.222 142.748 148.54 142.271 148.941 141.869C149.343 141.467 149.819 141.147 150.344 140.93C150.869 140.712 151.432 140.6 152 140.6Z" fill="#C9519C"/>
<path d="M193.24 95.87L200.24 102.82C200.56 103.142 200.941 103.398 201.361 103.572C201.781 103.746 202.23 103.836 202.685 103.836C203.139 103.836 203.589 103.746 204.009 103.572C204.428 103.398 204.809 103.142 205.13 102.82L211.96 95.82C212.205 95.5735 212.364 95.2547 212.414 94.9108C212.464 94.5668 212.402 94.2159 212.237 93.9098C212.073 93.6038 211.814 93.3589 211.499 93.2112C211.184 93.0636 210.831 93.0211 210.49 93.09L205.49 94.79C203.597 95.4354 201.543 95.4354 199.65 94.79L194.65 93.1C194.308 93.0433 193.957 93.0969 193.648 93.2531C193.339 93.4093 193.087 93.6599 192.93 93.9686C192.773 94.2773 192.718 94.628 192.774 94.9699C192.83 95.3118 192.993 95.6271 193.24 95.87Z" fill="#9B9B6E"/>
<path d="M262.25 110H309.88C314.7 110 317.21 116.91 313.95 121.19C309.956 126.428 306.799 132.254 304.59 138.46C302.72 143.74 299.79 148.46 295.74 151.46C289.74 155.93 279.57 160.26 263.89 157.87L262.25 110Z" fill="#7F7D56"/>
<path d="M207.85 259.8H214.22C222.099 259.8 229.901 258.248 237.181 255.233C244.46 252.218 251.074 247.798 256.646 242.226C262.218 236.655 266.637 230.041 269.652 222.761C272.668 215.481 274.22 207.679 274.22 199.8V194.6C274.218 191.528 273.003 188.581 270.84 186.4H243.24C244.31 202.78 243 242.5 207.85 259.8Z" fill="#9B9B6E"/>
<path d="M270.87 186.4C269.831 185.336 268.603 184.475 267.25 183.86C267.48 181.36 267.61 178.86 267.61 176.28V84C267.619 67.244 262.588 50.8725 253.17 37.0138C243.752 23.155 230.383 12.4499 214.8 6.29004C224.69 19.84 238.69 50.98 238.68 118.64H220C220.8 133.55 231.21 137.64 238.3 138.64C237.76 153.09 236.64 168.95 234.79 186.41L270.87 186.4Z" fill="#9B9B6E"/>
<path d="M249.32 111.35H219.81C219.169 111.351 218.536 111.5 217.962 111.786C217.388 112.072 216.888 112.487 216.5 112.998C216.113 113.509 215.849 114.103 215.729 114.733C215.61 115.363 215.637 116.012 215.81 116.63C217.12 121.23 220.16 127.63 227.17 130.45C229.672 131.433 232.357 131.864 235.041 131.712C237.725 131.56 240.345 130.829 242.72 129.57C247.653 126.975 251.515 122.727 253.63 117.57C253.902 116.874 253.999 116.121 253.912 115.379C253.825 114.637 253.557 113.927 253.131 113.312C252.705 112.698 252.135 112.198 251.47 111.855C250.806 111.513 250.067 111.34 249.32 111.35Z" fill="#FCFAFF"/>
<path d="M167.28 186.4C168.231 177.883 170.956 169.659 175.28 162.26C175.673 161.59 176.232 161.033 176.904 160.643C177.575 160.253 178.336 160.042 179.112 160.032C179.889 160.022 180.654 160.213 181.336 160.585C182.017 160.958 182.59 161.501 183 162.16C186.45 167.81 191 177.06 191.2 186.4H167.28Z" fill="#FCFAFF"/>
<path d="M230 186.4C230.951 177.883 233.676 169.659 238 162.26C238.394 161.59 238.954 161.034 239.626 160.644C240.299 160.253 241.06 160.043 241.837 160.033C242.614 160.023 243.38 160.214 244.062 160.586C244.744 160.959 245.319 161.501 245.73 162.16C249.18 167.81 253.73 177.06 253.93 186.4H230Z" fill="#FCFAFF"/>
<path d="M65.8596 253.67C82.3696 267.28 125.76 307.29 141.54 363.31L164.33 343.23C164.33 343.23 152.06 288.05 89.7996 236.94C87.8424 235.329 85.4054 234.413 82.8714 234.337C80.3374 234.261 77.8499 235.029 75.7996 236.52L66.1596 243.61C65.3733 244.181 64.7283 244.925 64.2742 245.784C63.8201 246.643 63.5689 247.595 63.5399 248.566C63.511 249.538 63.705 250.503 64.1071 251.388C64.5092 252.272 65.1087 253.053 65.8596 253.67Z" fill="#B77D85"/>
<path d="M232.4 271.54C231.54 284 228.23 313.19 215.61 341.8L234.78 355.19C234.78 355.19 254 317.93 252.8 286C252.728 284.129 252.234 282.299 251.356 280.646C250.478 278.992 249.239 277.558 247.73 276.45L237.81 269.1C237.325 268.737 236.752 268.51 236.149 268.444C235.547 268.378 234.938 268.475 234.385 268.724C233.833 268.973 233.358 269.366 233.009 269.861C232.659 270.356 232.449 270.936 232.4 271.54Z" fill="#B77D85"/>
<path d="M141.54 363.31L164.33 343.23C162.647 336.722 160.422 330.367 157.68 324.23C149.219 329.743 141.491 336.305 134.68 343.76C137.359 350.132 139.65 356.661 141.54 363.31Z" fill="#9D5D65"/>
<path d="M222.43 323.69C220.478 329.843 218.201 335.888 215.61 341.8L234.78 355.19C237.647 349.4 240.21 343.466 242.46 337.41C236.906 331.382 230.058 326.691 222.43 323.69Z" fill="#9D5D65"/>
<path d="M131.41 460.65C163.15 463.44 230.56 462.89 258.82 413.27C260.903 409.605 261.718 405.355 261.14 401.18C258.983 385.766 253.5 371.005 245.07 357.92C223.67 325.17 177.07 322.15 149.53 349.99C132.85 366.89 115.14 395.52 114.01 441.41C113.932 446.225 115.686 450.89 118.916 454.462C122.146 458.033 126.612 460.245 131.41 460.65Z" fill="#C4D5FF"/>
<path d="M231 381.4L222.64 387.61C222.407 387.784 222.129 387.887 221.839 387.908C221.549 387.928 221.26 387.864 221.005 387.723C220.751 387.583 220.542 387.372 220.405 387.116C220.267 386.86 220.207 386.57 220.23 386.28L221.68 368.55C221.75 367.831 221.609 367.107 221.276 366.466C220.942 365.825 220.429 365.295 219.8 364.94C213.729 361.725 206.904 360.203 200.042 360.534C193.18 360.865 186.534 363.036 180.8 366.82C148.21 388.18 149.23 444.43 150.35 461.55C180.44 461.78 222.42 456.2 248.28 427.7C246.76 407.1 242.22 392.7 236.56 382.58C236.294 382.113 235.933 381.708 235.5 381.391C235.066 381.074 234.57 380.852 234.045 380.74C233.52 380.629 232.977 380.63 232.452 380.744C231.927 380.857 231.432 381.081 231 381.4Z" fill="#7E9AEF"/>
<path d="M150.82 188.49C150.82 189.718 151.308 190.896 152.176 191.764C153.045 192.632 154.222 193.12 155.45 193.12H274.14C273.887 191.114 273.119 189.207 271.912 187.585C270.705 185.962 269.099 184.679 267.25 183.86H155.45C154.222 183.86 153.045 184.348 152.176 185.216C151.308 186.084 150.82 187.262 150.82 188.49Z" fill="#9B9B6E"/>
<defs>
<linearGradient id="paint0_linear_4_713" x1="134.83" y1="229.76" x2="161.68" y2="599.41" gradientUnits="userSpaceOnUse">
<stop stop-color="#BFC29F"/>
<stop offset="1" stop-color="#9B9B6E"/>
</linearGradient>
<linearGradient id="paint1_linear_4_713" x1="177.87" y1="26.25" x2="219.94" y2="728.85" gradientUnits="userSpaceOnUse">
<stop stop-color="#BFC29F"/>
<stop offset="1" stop-color="#9B9B6E"/>
</linearGradient>
</defs>
</svg>
