<svg width="490" height="502" viewBox="0 0 490 502" fill="none" xmlns="http://www.w3.org/2000/svg">
<path d="M169 181L170.85 264.62C170.85 264.62 174.06 334.12 238.24 320.23C238.24 320.23 256.34 269.55 234.68 170.58L169 181Z" fill="#AD3A4C"/>
<path d="M236.69 270.6C236.69 270.6 246.85 315.47 220.18 327.69C216.856 329.122 213.288 329.906 209.67 330C198.48 330.54 162.78 335.81 169.89 381.42C169.89 381.42 186.47 411.6 263.53 419.02C263.53 419.02 330.69 419.51 361.37 372.51C361.37 372.51 351.47 327.98 322.28 326C322.28 326 306.54 325.75 294.79 320.69C291.621 319.295 288.868 317.101 286.802 314.322C284.735 311.544 283.425 308.276 283 304.84L275.77 248.45L236.69 270.6Z" fill="url(#paint0_linear_1_961)"/>
<path d="M275.77 248.45L279.93 280.87L229.85 320.22C244 303 236.69 270.6 236.69 270.6L275.77 248.45Z" fill="#E8897B"/>
<path d="M169.89 381.43C162.95 336.89 196.82 330.82 208.83 330.06C198.83 336.94 180.63 355.06 183.14 394.36C173.08 387.22 169.89 381.43 169.89 381.43Z" fill="#E8897B"/>
<path d="M263.49 395.5C260.04 398.14 252.39 405.45 251.66 419.03H238.93C238.93 419.03 242.71 401.53 233.62 391.64C233.536 391.557 233.485 391.448 233.474 391.331C233.463 391.214 233.493 391.097 233.56 391C233.627 390.903 233.726 390.833 233.839 390.802C233.953 390.771 234.073 390.781 234.18 390.83C237.56 392.26 243.75 397.47 246.97 403.01C246.97 403.01 251.97 396.12 263.09 394.59C263.203 394.568 263.321 394.586 263.423 394.64C263.525 394.693 263.606 394.78 263.652 394.886C263.699 394.991 263.708 395.11 263.678 395.221C263.649 395.333 263.583 395.431 263.49 395.5Z" fill="#E8897B"/>
<path d="M257 343.23C260.26 343.23 287.33 340.77 296.43 319.07C296.608 318.644 296.696 318.185 296.687 317.723C296.678 317.262 296.572 316.807 296.378 316.388C296.183 315.969 295.903 315.595 295.555 315.291C295.208 314.987 294.801 314.758 294.36 314.62C293.595 314.386 292.769 314.443 292.044 314.781C291.318 315.119 290.743 315.713 290.43 316.45C282.54 335.45 257.77 336.68 256.76 336.69C240.33 336.69 231.92 325.09 229.02 320C228.644 319.346 228.051 318.845 227.344 318.584C226.637 318.322 225.86 318.318 225.15 318.57C224.699 318.725 224.288 318.978 223.946 319.31C223.605 319.642 223.34 320.045 223.172 320.491C223.004 320.937 222.936 321.415 222.974 321.89C223.012 322.365 223.154 322.826 223.39 323.24C227.14 329.75 237.26 343.24 256.64 343.24L257 343.23Z" fill="#333345"/>
<path d="M314.45 152.09L320.18 184.87C320.18 184.87 361.02 183.87 407.58 197.62C407.58 197.62 494.58 225.26 488.72 134.71L314.45 152.09Z" fill="#6D4D7A"/>
<path d="M183.48 179.89L185.77 257.68C185.789 258.426 185.852 259.171 185.96 259.91C186.42 263.16 188.09 271.47 193.5 277.46C198.01 282.46 205.06 284.29 211.66 282.97C224.99 280.3 258.47 271.85 273.11 252.17V163.69L183.48 179.89Z" fill="url(#paint1_linear_1_961)"/>
<path d="M193.5 277.46C188.09 271.46 186.42 263.16 185.96 259.91C185.852 259.171 185.789 258.426 185.77 257.68L183.48 179.89L273.11 163.69V188.36C258.97 192.36 219.38 204.44 200.49 219.85C199.207 220.927 198.178 222.274 197.478 223.796C196.778 225.317 196.423 226.975 196.44 228.65V262.49C196.44 262.49 196.2 273.04 201.18 282.36C198.236 281.424 195.589 279.735 193.5 277.46Z" fill="#E8897B"/>
<path d="M221.52 223.54H208.58C208.107 223.533 207.64 223.65 207.226 223.878C206.812 224.107 206.464 224.439 206.218 224.843C205.971 225.247 205.835 225.708 205.821 226.181C205.807 226.654 205.917 227.123 206.14 227.54C207.65 230.37 210.37 233.68 214.85 233.68C216.807 233.563 218.695 232.917 220.314 231.811C221.932 230.705 223.22 229.181 224.04 227.4C224.228 226.981 224.307 226.522 224.271 226.065C224.235 225.607 224.085 225.166 223.834 224.782C223.583 224.398 223.24 224.083 222.835 223.866C222.431 223.649 221.979 223.537 221.52 223.54Z" fill="#E8897B"/>
<path d="M196.45 184.69C196.45 182.647 198.107 180.99 200.15 180.99C202.193 180.99 203.85 182.647 203.85 184.69V192.74C203.85 194.783 202.193 196.44 200.15 196.44C198.107 196.44 196.45 194.783 196.45 192.74V184.69Z" fill="#333345"/>
<path d="M219.43 173.33C219.43 173.33 224.11 208.81 263.53 225.66L268.19 292.81C270.05 319.54 291.33 341.45 318.1 342.54C319.16 342.54 320.24 342.6 321.34 342.54C325.539 342.447 329.66 341.39 333.385 339.449C337.109 337.509 340.338 334.738 342.82 331.35C345.045 328.383 346.659 325.002 347.567 321.406C348.475 317.809 348.66 314.068 348.11 310.4C345.151 290.51 339.712 271.068 331.92 252.53C328.917 245.396 327.551 237.681 327.92 229.95C328.78 209.03 329.69 167.95 324.43 154.31L219.43 173.33Z" fill="#E25A6C"/>
<path d="M328.1 178.91C315.57 181.3 287.1 187.18 268.23 194.61C267.319 194.97 266.499 195.527 265.829 196.242C265.159 196.957 264.657 197.812 264.357 198.744C264.058 199.677 263.969 200.664 264.098 201.636C264.226 202.607 264.568 203.537 265.1 204.36C267.525 208.19 270.343 211.756 273.51 215C275.239 216.741 276.586 218.822 277.468 221.112C278.349 223.402 278.745 225.849 278.63 228.3C277.41 253.43 277.45 327.56 319.07 342.54C291.85 341.94 270.07 319.83 268.19 292.78L263.53 225.63C224.12 208.78 219.43 173.29 219.43 173.29L324.43 154.29C326.44 159.48 327.54 168.53 328.1 178.91Z" fill="#AD3A4C"/>
<path d="M488.72 134.71C488.72 134.71 314.72 161.85 155.86 190.58C155.86 190.58 98.48 199.52 62.93 197.25C60.2097 197.058 57.5317 196.472 54.98 195.51C41.4 190.45 0.339996 171.51 0.980011 127.51C0.980011 127.51 68.06 111.46 175.84 120.76C175.84 120.76 166.37 60.26 263.5 3.22999C267.557 0.808864 272.372 -0.00795269 277 0.93999C290.27 3.72999 321.27 13.82 372.27 50.2C376.713 46.6105 381.427 43.3708 386.37 40.51C388.429 39.3451 390.768 38.7673 393.132 38.8396C395.497 38.9119 397.796 39.6315 399.78 40.92C411.845 48.7196 422.381 58.6598 430.87 70.25C431.481 71.0708 431.809 72.067 431.807 73.0899C431.804 74.1128 431.471 75.1075 430.857 75.9255C430.243 76.7434 429.38 77.3407 428.398 77.6281C427.417 77.9155 426.368 77.8775 425.41 77.52C419.241 75.1289 412.929 73.125 406.51 71.52C404.419 71.0555 402.254 71.0225 400.15 71.4232C398.045 71.8238 396.044 72.6496 394.27 73.85C386.3 79.0777 378.888 85.1093 372.15 91.85C370.365 93.7231 368.02 94.9652 365.468 95.3891C362.915 95.8129 360.294 95.3956 358 94.2C347.74 88.78 330.47 80.3 320.89 79.2L306.12 98.75C306.12 98.75 317.61 114.21 325.27 130.08C325.23 130.07 396.72 138.8 488.72 134.71Z" fill="#936FA0"/>
<path d="M347.93 89.1299C338.56 84.5899 327.73 79.9799 320.85 79.1899L329.27 65.5499C329.556 65.0905 329.962 64.7172 330.443 64.4695C330.924 64.2217 331.463 64.1088 332.003 64.1426C332.544 64.1764 333.065 64.3558 333.511 64.6616C333.958 64.9675 334.313 65.3884 334.54 65.8799C338.179 74.0764 342.667 81.869 347.93 89.1299Z" fill="#6D4D7A"/>
<path d="M217.94 112.35C217.737 114.626 218.057 116.918 218.875 119.051C219.693 121.185 220.988 123.103 222.66 124.66C224.77 126.66 227.32 128.9 229.94 131.08C230.503 131.534 230.913 132.15 231.113 132.845C231.313 133.54 231.295 134.28 231.06 134.964C230.825 135.648 230.385 136.243 229.8 136.668C229.215 137.093 228.513 137.328 227.79 137.34C207.68 137.74 163.79 139.06 143.05 143.2C143.05 143.2 118.38 148.63 110.3 165.72C109.254 167.899 108.79 170.311 108.953 172.722C109.116 175.134 109.9 177.462 111.23 179.48C115.634 185.949 121.801 191.019 129 194.09C109.33 196.3 82.74 198.52 62.91 197.25C60.1931 197.057 57.5185 196.471 54.97 195.51C41.39 190.45 0.329987 171.51 0.970001 127.51C0.970001 127.51 68.05 111.46 175.83 120.76C175.83 120.76 166.36 60.26 263.49 3.22998C263.53 3.23998 224 41 217.94 112.35Z" fill="#6D4D7A"/>
<path d="M234.65 347.89C234.649 344.49 235.589 341.155 237.365 338.255C239.141 335.356 241.684 333.004 244.713 331.459C247.742 329.914 251.14 329.237 254.53 329.503C257.92 329.768 261.17 330.966 263.922 332.963C266.674 334.961 268.82 337.68 270.123 340.821C271.426 343.962 271.835 347.402 271.305 350.761C270.774 354.12 269.326 357.267 267.119 359.854C264.912 362.441 262.033 364.367 258.8 365.42L258.04 372.91C257.989 373.424 257.837 373.924 257.592 374.379C257.348 374.834 257.016 375.237 256.615 375.564C256.215 375.891 255.754 376.136 255.259 376.284C254.764 376.433 254.244 376.482 253.73 376.43L246.2 375.68C245.165 375.561 244.217 375.044 243.558 374.237C242.898 373.43 242.58 372.398 242.67 371.36L243.46 363.59C240.769 361.948 238.545 359.641 237.002 356.892C235.46 354.142 234.65 351.043 234.65 347.89Z" fill="white"/>
<path d="M254 349.2C254 350.159 254.284 351.097 254.817 351.895C255.35 352.692 256.108 353.314 256.994 353.681C257.88 354.048 258.855 354.144 259.796 353.957C260.737 353.77 261.601 353.308 262.279 352.63C262.958 351.951 263.42 351.087 263.607 350.146C263.794 349.205 263.698 348.23 263.331 347.344C262.964 346.458 262.342 345.7 261.544 345.167C260.747 344.635 259.809 344.35 258.85 344.35C257.564 344.35 256.33 344.861 255.421 345.771C254.511 346.68 254 347.914 254 349.2Z" fill="#333345"/>
<path d="M239.94 347.42C239.94 348.38 240.225 349.318 240.758 350.116C241.291 350.913 242.049 351.535 242.936 351.902C243.823 352.269 244.799 352.364 245.74 352.176C246.681 351.988 247.545 351.525 248.223 350.846C248.901 350.167 249.362 349.302 249.548 348.36C249.734 347.419 249.637 346.443 249.268 345.557C248.899 344.671 248.276 343.914 247.477 343.383C246.678 342.851 245.74 342.568 244.78 342.57C243.495 342.573 242.264 343.085 241.357 343.994C240.45 344.903 239.94 346.136 239.94 347.42Z" fill="#333345"/>
<path d="M369.37 370C368.933 369.107 368.294 368.328 367.504 367.726C366.713 367.123 365.793 366.714 364.816 366.529C363.839 366.345 362.833 366.391 361.877 366.663C360.921 366.936 360.042 367.428 359.31 368.1C343.48 382.6 298.23 418.29 244.86 409.16C244.86 409.16 197.86 401.66 169.7 374.98C169.135 374.438 168.455 374.03 167.711 373.785C166.967 373.541 166.177 373.467 165.401 373.569C164.624 373.671 163.88 373.946 163.224 374.373C162.568 374.801 162.017 375.371 161.61 376.04C158.184 381.699 154.017 386.875 149.22 391.43C148.072 392.456 147.224 393.775 146.77 395.246C146.315 396.718 146.27 398.285 146.64 399.78C147.517 403.271 148.898 406.617 150.74 409.71C152.942 413.166 153.915 417.263 153.5 421.34C151.71 436.7 150.97 473.76 183.5 483.87C183.5 483.87 206.93 488.68 224.92 478.18C227.351 476.756 230.162 476.116 232.97 476.35C235.006 476.522 236.977 477.144 238.743 478.171C240.509 479.199 242.024 480.605 243.18 482.29C248.9 490.54 263.76 505.01 296.08 500.7C296.08 500.7 335.24 497.09 338 456.41C338.318 450.955 339.874 445.644 342.55 440.88C349.56 428.488 360.073 418.441 372.77 412C375.866 410.403 378.278 407.737 379.556 404.496C380.834 401.255 380.892 397.66 379.72 394.38C376.789 386.043 373.332 377.9 369.37 370Z" fill="#936FA0"/>
<path d="M256.47 436.43C257.242 435.632 258.166 434.999 259.189 434.568C260.211 434.136 261.31 433.916 262.42 433.92C264.287 433.929 266.098 434.565 267.561 435.725C269.024 436.886 270.056 438.504 270.49 440.32C281.63 485.96 310.3 488.46 325.59 486.23C313.19 499.08 296.06 500.67 296.06 500.67C263.74 504.98 248.88 490.51 243.16 482.26C239.9 456.88 251.09 442 256.47 436.43Z" fill="#6D4D7A"/>
<path d="M218.71 481.09C201.96 487.61 183.48 483.84 183.48 483.84C150.97 473.73 151.71 436.67 153.48 421.31C153.895 417.233 152.922 413.136 150.72 409.68C148.878 406.587 147.497 403.241 146.62 399.75C146.25 398.255 146.295 396.688 146.75 395.216C147.204 393.745 148.052 392.426 149.2 391.4C154.005 386.843 158.179 381.664 161.61 376C162.022 375.335 162.577 374.771 163.236 374.349C163.894 373.927 164.639 373.658 165.415 373.562C166.192 373.466 166.98 373.545 167.721 373.794C168.463 374.043 169.139 374.455 169.7 375C173.963 378.996 178.575 382.604 183.48 385.78C177.3 453.36 206.18 475 218.71 481.09Z" fill="#6D4D7A"/>
<defs>
<linearGradient id="paint0_linear_1_961" x1="265.17" y1="398.42" x2="265.17" y2="212.34" gradientUnits="userSpaceOnUse">
<stop offset="0.01" stop-color="#FFC3B0"/>
<stop offset="1" stop-color="#E8897B"/>
</linearGradient>
<linearGradient id="paint1_linear_1_961" x1="228.3" y1="272.03" x2="228.3" y2="140.34" gradientUnits="userSpaceOnUse">
<stop offset="0.01" stop-color="#FFC3B0"/>
<stop offset="1" stop-color="#E8897B"/>
</linearGradient>
</defs>
</svg>
