<svg width="490" height="502" viewBox="0 0 490 502" fill="none" xmlns="http://www.w3.org/2000/svg">
<path d="M321 181L319.15 264.62C319.15 264.62 315.94 334.12 251.76 320.23C251.76 320.23 233.66 269.55 255.32 170.58L321 181Z" fill="#AD3A4C"/>
<path d="M253.31 270.6C253.31 270.6 243.15 315.47 269.82 327.69C273.144 329.122 276.711 329.906 280.33 330C291.52 330.54 327.22 335.81 320.11 381.42C320.11 381.42 303.53 411.6 226.47 419.02C226.47 419.02 159.31 419.51 128.63 372.51C128.63 372.51 138.53 327.98 167.72 326C167.72 326 183.46 325.75 195.21 320.69C198.379 319.295 201.132 317.101 203.198 314.322C205.265 311.544 206.575 308.276 207 304.84L214.23 248.45L253.31 270.6Z" fill="url(#paint0_linear_4_620)"/>
<path d="M214.23 248.45L210.07 280.87L260.15 320.22C246 303 253.31 270.6 253.31 270.6L214.23 248.45Z" fill="#E8897B"/>
<path d="M320.11 381.43C327.05 336.89 293.18 330.82 281.17 330.06C291.17 336.94 309.37 355.06 306.86 394.36C316.92 387.22 320.11 381.43 320.11 381.43Z" fill="#E8897B"/>
<path d="M226.51 395.5C229.96 398.14 237.61 405.45 238.34 419.03H251.07C251.07 419.03 247.29 401.53 256.38 391.64C256.464 391.557 256.515 391.448 256.526 391.331C256.537 391.214 256.507 391.097 256.44 391C256.373 390.903 256.274 390.833 256.161 390.802C256.047 390.771 255.927 390.781 255.82 390.83C252.44 392.26 246.25 397.47 243.03 403.01C243.03 403.01 238.03 396.12 226.91 394.59C226.797 394.568 226.679 394.586 226.577 394.64C226.475 394.693 226.394 394.78 226.348 394.886C226.301 394.991 226.292 395.11 226.322 395.221C226.351 395.333 226.417 395.431 226.51 395.5Z" fill="#E8897B"/>
<path d="M233 343.23C229.74 343.23 202.67 340.77 193.57 319.07C193.392 318.644 193.304 318.185 193.313 317.723C193.322 317.262 193.427 316.807 193.622 316.388C193.817 315.969 194.097 315.595 194.445 315.291C194.792 314.987 195.199 314.758 195.64 314.62C196.405 314.386 197.23 314.443 197.956 314.781C198.682 315.119 199.257 315.713 199.57 316.45C207.46 335.45 232.23 336.68 233.24 336.69C249.67 336.69 258.08 325.09 260.98 320C261.356 319.346 261.949 318.845 262.656 318.584C263.363 318.322 264.14 318.318 264.85 318.57C265.301 318.725 265.712 318.978 266.054 319.31C266.395 319.642 266.66 320.045 266.828 320.491C266.996 320.937 267.064 321.415 267.026 321.89C266.988 322.365 266.846 322.826 266.61 323.24C262.86 329.75 252.74 343.24 233.36 343.24L233 343.23Z" fill="#333345"/>
<path d="M175.55 152.09L169.82 184.87C169.82 184.87 128.98 183.87 82.4199 197.62C82.4199 197.62 -4.58014 225.26 1.27986 134.71L175.55 152.09Z" fill="#6D4D7A"/>
<path d="M306.52 179.89L304.23 257.68C304.211 258.426 304.148 259.171 304.04 259.91C303.58 263.16 301.91 271.47 296.5 277.46C291.99 282.46 284.94 284.29 278.34 282.97C265.01 280.3 231.53 271.85 216.89 252.17V163.69L306.52 179.89Z" fill="url(#paint1_linear_4_620)"/>
<path d="M296.5 277.46C301.91 271.46 303.58 263.16 304.04 259.91C304.148 259.171 304.211 258.426 304.23 257.68L306.52 179.89L216.89 163.69V188.36C231.03 192.36 270.62 204.44 289.51 219.85C290.793 220.927 291.821 222.274 292.522 223.796C293.222 225.317 293.576 226.975 293.56 228.65V262.49C293.56 262.49 293.8 273.04 288.82 282.36C291.763 281.424 294.411 279.735 296.5 277.46Z" fill="#E8897B"/>
<path d="M268.48 223.54H281.42C281.893 223.533 282.36 223.65 282.774 223.878C283.188 224.107 283.536 224.439 283.782 224.843C284.029 225.247 284.165 225.708 284.179 226.181C284.193 226.654 284.083 227.123 283.86 227.54C282.35 230.37 279.63 233.68 275.15 233.68C273.193 233.563 271.305 232.917 269.687 231.811C268.068 230.705 266.78 229.18 265.96 227.4C265.773 226.981 265.693 226.522 265.729 226.065C265.765 225.607 265.916 225.166 266.166 224.782C266.417 224.398 266.76 224.083 267.165 223.866C267.569 223.649 268.021 223.537 268.48 223.54Z" fill="#E8897B"/>
<path d="M293.55 184.69C293.55 182.647 291.893 180.99 289.85 180.99C287.806 180.99 286.15 182.647 286.15 184.69V192.74C286.15 194.783 287.806 196.44 289.85 196.44C291.893 196.44 293.55 194.783 293.55 192.74V184.69Z" fill="#333345"/>
<path d="M270.57 173.33C270.57 173.33 265.89 208.81 226.47 225.66L221.81 292.81C219.95 319.54 198.67 341.45 171.9 342.54C170.84 342.54 169.76 342.6 168.66 342.54C164.461 342.447 160.34 341.39 156.615 339.449C152.891 337.509 149.662 334.738 147.18 331.35C144.954 328.382 143.341 325.002 142.433 321.406C141.525 317.809 141.34 314.068 141.89 310.4C144.849 290.509 150.288 271.068 158.08 252.53C161.082 245.396 162.449 237.681 162.08 229.95C161.22 209.03 160.31 167.95 165.57 154.31L270.57 173.33Z" fill="#E25A6C"/>
<path d="M161.9 178.91C174.43 181.3 202.9 187.18 221.77 194.61C222.681 194.97 223.501 195.527 224.171 196.242C224.84 196.957 225.343 197.812 225.643 198.744C225.942 199.677 226.031 200.664 225.902 201.636C225.774 202.607 225.431 203.537 224.9 204.36C222.475 208.19 219.657 211.756 216.49 215C214.761 216.741 213.414 218.822 212.532 221.112C211.651 223.402 211.255 225.849 211.37 228.3C212.59 253.43 212.55 327.56 170.93 342.54C198.15 341.94 219.93 319.83 221.81 292.78L226.47 225.63C265.88 208.78 270.57 173.29 270.57 173.29L165.57 154.29C163.56 159.48 162.46 168.53 161.9 178.91Z" fill="#AD3A4C"/>
<path d="M1.27979 134.71C1.27979 134.71 175.28 161.85 334.14 190.58C334.14 190.58 391.52 199.52 427.07 197.25C429.79 197.058 432.468 196.472 435.02 195.51C448.6 190.45 489.66 171.51 489.02 127.51C489.02 127.51 421.94 111.46 314.16 120.76C314.16 120.76 323.63 60.26 226.5 3.22999C222.443 0.808864 217.628 -0.00795269 213 0.93999C199.73 3.72999 168.73 13.82 117.73 50.2C113.287 46.6105 108.573 43.3708 103.63 40.51C101.571 39.3451 99.2319 38.7673 96.8674 38.8396C94.503 38.9119 92.2037 39.6315 90.2198 40.92C78.1551 48.7196 67.6184 58.6598 59.1298 70.25C58.5193 71.0708 58.1907 72.067 58.193 73.0899C58.1954 74.1128 58.5286 75.1075 59.1429 75.9255C59.7572 76.7434 60.6196 77.3407 61.6013 77.6281C62.583 77.9155 63.6314 77.8775 64.5898 77.52C70.7589 75.1289 77.0711 73.125 83.4898 71.52C85.5812 71.0555 87.7454 71.0225 89.85 71.4232C91.9546 71.8238 93.9553 72.6496 95.7298 73.85C103.699 79.0777 111.111 85.1093 117.85 91.85C119.635 93.7231 121.98 94.9652 124.532 95.3891C127.084 95.8129 129.705 95.3956 132 94.2C142.26 88.78 159.53 80.3 169.11 79.2L183.88 98.75C183.88 98.75 172.39 114.21 164.73 130.08C164.77 130.07 93.2798 138.8 1.27979 134.71Z" fill="#936FA0"/>
<path d="M142.07 89.13C151.44 84.59 162.27 79.98 169.15 79.19L160.73 65.55C160.444 65.0907 160.038 64.7173 159.557 64.4696C159.076 64.2218 158.537 64.1089 157.996 64.1427C157.456 64.1765 156.935 64.3559 156.489 64.6617C156.042 64.9676 155.687 65.3885 155.46 65.88C151.821 74.0765 147.333 81.8691 142.07 89.13Z" fill="#6D4D7A"/>
<path d="M272.06 112.35C272.263 114.626 271.943 116.918 271.125 119.051C270.307 121.185 269.012 123.103 267.34 124.66C265.23 126.66 262.68 128.9 260.06 131.08C259.497 131.534 259.087 132.15 258.887 132.845C258.686 133.54 258.705 134.28 258.94 134.964C259.175 135.648 259.615 136.243 260.2 136.668C260.785 137.093 261.487 137.328 262.21 137.34C282.32 137.74 326.21 139.06 346.95 143.2C346.95 143.2 371.62 148.63 379.7 165.72C380.746 167.899 381.21 170.311 381.047 172.722C380.884 175.134 380.099 177.462 378.77 179.48C374.365 185.949 368.198 191.019 361 194.09C380.67 196.3 407.26 198.52 427.09 197.25C429.807 197.057 432.481 196.471 435.03 195.51C448.61 190.45 489.67 171.51 489.03 127.51C489.03 127.51 421.95 111.46 314.17 120.76C314.17 120.76 323.64 60.26 226.51 3.22998C226.47 3.23998 266 41 272.06 112.35Z" fill="#6D4D7A"/>
<path d="M255.35 347.89C255.35 344.49 254.411 341.155 252.635 338.255C250.859 335.356 248.316 333.004 245.287 331.459C242.257 329.914 238.86 329.237 235.47 329.503C232.08 329.768 228.829 330.966 226.077 332.963C223.326 334.961 221.18 337.68 219.877 340.821C218.574 343.962 218.165 347.402 218.695 350.761C219.225 354.12 220.674 357.267 222.881 359.854C225.087 362.441 227.966 364.367 231.2 365.42L231.96 372.91C232.011 373.424 232.163 373.924 232.408 374.379C232.652 374.834 232.984 375.237 233.384 375.564C233.785 375.891 234.246 376.136 234.741 376.284C235.236 376.433 235.756 376.482 236.27 376.43L243.8 375.68C244.835 375.561 245.783 375.044 246.442 374.237C247.101 373.43 247.42 372.398 247.33 371.36L246.54 363.59C249.231 361.948 251.454 359.641 252.997 356.892C254.54 354.142 255.35 351.043 255.35 347.89Z" fill="white"/>
<path d="M236 349.2C236 350.159 235.715 351.097 235.182 351.894C234.65 352.692 233.892 353.314 233.006 353.681C232.12 354.048 231.144 354.144 230.204 353.957C229.263 353.77 228.399 353.308 227.72 352.629C227.042 351.951 226.58 351.087 226.393 350.146C226.206 349.205 226.302 348.23 226.669 347.344C227.036 346.458 227.658 345.7 228.455 345.167C229.253 344.634 230.191 344.35 231.15 344.35C232.436 344.35 233.67 344.861 234.579 345.771C235.489 346.68 236 347.914 236 349.2Z" fill="#333345"/>
<path d="M250.06 347.42C250.06 348.38 249.775 349.318 249.242 350.116C248.708 350.913 247.95 351.535 247.064 351.902C246.177 352.269 245.201 352.364 244.26 352.176C243.319 351.988 242.455 351.525 241.777 350.846C241.099 350.167 240.638 349.302 240.452 348.36C240.266 347.419 240.363 346.443 240.732 345.557C241.101 344.671 241.724 343.914 242.523 343.383C243.322 342.851 244.26 342.568 245.22 342.57C246.504 342.573 247.735 343.085 248.643 343.994C249.55 344.903 250.06 346.136 250.06 347.42Z" fill="#333345"/>
<path d="M120.63 370C121.067 369.107 121.706 368.329 122.496 367.726C123.287 367.124 124.207 366.714 125.184 366.529C126.16 366.345 127.167 366.391 128.122 366.663C129.078 366.936 129.957 367.428 130.69 368.1C146.52 382.6 191.77 418.29 245.14 409.16C245.14 409.16 292.14 401.66 320.3 374.98C320.865 374.438 321.545 374.03 322.289 373.786C323.033 373.541 323.823 373.467 324.599 373.569C325.376 373.671 326.119 373.946 326.775 374.373C327.432 374.801 327.983 375.371 328.39 376.04C331.816 381.699 335.983 386.875 340.78 391.43C341.928 392.456 342.775 393.775 343.23 395.247C343.684 396.718 343.729 398.285 343.36 399.78C342.482 403.272 341.101 406.617 339.26 409.71C337.057 413.166 336.085 417.263 336.5 421.34C338.29 436.7 339.03 473.76 306.5 483.87C306.5 483.87 283.07 488.68 265.08 478.18C262.649 476.756 259.837 476.117 257.03 476.35C254.994 476.522 253.022 477.144 251.257 478.171C249.491 479.199 247.975 480.606 246.82 482.29C241.1 490.54 226.24 505.01 193.92 500.7C193.92 500.7 154.76 497.09 152 456.41C151.681 450.955 150.125 445.644 147.45 440.88C140.44 428.488 129.927 418.441 117.23 412C114.133 410.403 111.722 407.737 110.444 404.496C109.166 401.255 109.107 397.661 110.28 394.38C113.211 386.043 116.668 377.9 120.63 370Z" fill="#936FA0"/>
<path d="M233.53 436.43C232.758 435.632 231.833 434.999 230.811 434.568C229.788 434.136 228.689 433.916 227.58 433.92C225.712 433.929 223.902 434.565 222.439 435.725C220.975 436.886 219.944 438.504 219.51 440.32C208.37 485.96 179.7 488.46 164.41 486.23C176.81 499.08 193.94 500.67 193.94 500.67C226.26 504.98 241.12 490.51 246.84 482.26C250.1 456.88 238.91 442 233.53 436.43Z" fill="#6D4D7A"/>
<path d="M271.29 481.09C288.04 487.61 306.52 483.84 306.52 483.84C339.03 473.73 338.29 436.67 336.52 421.31C336.105 417.233 337.078 413.136 339.28 409.68C341.122 406.587 342.503 403.242 343.38 399.75C343.75 398.255 343.705 396.688 343.25 395.217C342.796 393.745 341.948 392.426 340.8 391.4C335.995 386.843 331.821 381.664 328.39 376C327.978 375.335 327.423 374.771 326.764 374.349C326.106 373.927 325.361 373.658 324.585 373.562C323.808 373.466 323.02 373.546 322.279 373.794C321.537 374.043 320.861 374.455 320.3 375C316.037 378.997 311.425 382.604 306.52 385.78C312.7 453.36 283.82 475 271.29 481.09Z" fill="#6D4D7A"/>
<defs>
<linearGradient id="paint0_linear_4_620" x1="224.83" y1="398.42" x2="224.83" y2="212.34" gradientUnits="userSpaceOnUse">
<stop offset="0.01" stop-color="#FFC3B0"/>
<stop offset="1" stop-color="#E8897B"/>
</linearGradient>
<linearGradient id="paint1_linear_4_620" x1="261.7" y1="272.03" x2="261.7" y2="140.34" gradientUnits="userSpaceOnUse">
<stop offset="0.01" stop-color="#FFC3B0"/>
<stop offset="1" stop-color="#E8897B"/>
</linearGradient>
</defs>
</svg>
