<svg width="372" height="466" viewBox="0 0 372 466" fill="none" xmlns="http://www.w3.org/2000/svg">
<path d="M232 65.39C232 65.39 233 38.59 246.35 15.66C246.764 14.9539 247.332 14.3498 248.011 13.8922C248.69 13.4347 249.463 13.1354 250.273 13.0163C251.083 12.8973 251.909 12.9617 252.691 13.2046C253.473 13.4476 254.19 13.8629 254.79 14.42C263.72 22.62 281.72 43.42 285.12 80.31L232 65.39Z" fill="#466B8E"/>
<path d="M137.54 140.37C137.54 140.37 126.23 181.85 85.0002 210.18C84.5268 210.492 84.1483 210.928 83.9062 211.441C83.6642 211.953 83.5678 212.523 83.6277 213.087C83.6876 213.65 83.9014 214.187 84.2458 214.637C84.5902 215.088 85.0518 215.434 85.5802 215.64C87.5202 216.37 89.5311 216.897 91.5802 217.21C91.5802 217.21 59.5802 258.58 4.23019 277.21C3.18911 277.553 2.26338 278.177 1.55577 279.014C0.848157 279.851 0.386357 280.868 0.221645 281.952C0.0569321 283.035 0.19575 284.143 0.622684 285.153C1.04962 286.162 1.74796 287.033 2.64019 287.67C9.64019 292.74 21.2102 299.37 38.0202 304.05C38.0202 304.05 32.8202 312 20.7602 317.2C19.3574 317.836 18.1122 318.774 17.1134 319.946C16.1145 321.119 15.3867 322.497 14.9818 323.983C14.5768 325.469 14.5047 327.026 14.7707 328.543C15.0366 330.061 15.634 331.5 16.5202 332.76C33.1402 356.99 75.8702 412.52 140.78 450.24C141.423 450.618 142.159 450.81 142.905 450.792C143.651 450.774 144.377 450.548 145.001 450.139C145.625 449.73 146.123 449.155 146.437 448.478C146.751 447.802 146.87 447.051 146.78 446.31C146.12 440.66 145.27 432.9 144.7 426.31C144.618 425.699 144.727 425.078 145.01 424.531C145.294 423.984 145.739 423.538 146.285 423.253C146.832 422.967 147.452 422.857 148.063 422.938C148.674 423.018 149.246 423.284 149.7 423.7C163.35 435.01 202.55 462.04 268.51 465.03C270.318 465.104 272.113 464.702 273.717 463.865C275.321 463.028 276.677 461.785 277.65 460.26C287 445.62 314 400.86 319 360.19L326.06 357.93C326.77 357.702 327.422 357.322 327.97 356.817C328.518 356.311 328.95 355.693 329.236 355.004C329.521 354.315 329.653 353.573 329.623 352.828C329.593 352.083 329.401 351.353 329.06 350.69C325.63 344.04 318.58 332.94 307.38 326.84C307.38 326.84 323.11 326.5 334.03 316.84C334.815 316.164 335.408 315.294 335.75 314.316C336.093 313.339 336.172 312.288 335.981 311.271C335.789 310.253 335.334 309.303 334.66 308.517C333.986 307.73 333.117 307.135 332.14 306.79C313.14 300.27 267.14 279.01 265.48 225.98L137.54 140.37Z" fill="url(#paint0_linear_4_541)"/>
<path d="M332.11 306.75C313.11 300.23 267.11 278.97 265.45 225.94L158.75 154.56C168.497 167.225 177.493 180.451 185.69 194.17L154.69 183.03C153.75 206.42 170.69 222.28 170.69 222.28L201.6 223.94C214.22 251 223.46 281.73 220.5 310.5C220.5 310.5 216.85 349.03 173.41 335.84L170.52 338.59C170.52 338.59 197.15 361.59 228.32 364.87C228.32 364.87 274.64 449.8 208.41 454.6C227.882 460.736 248.081 464.266 268.48 465.1C270.288 465.174 272.083 464.772 273.687 463.935C275.291 463.098 276.647 461.855 277.62 460.33C287 445.62 314 400.86 319 360.19L326.06 357.93C326.77 357.702 327.422 357.322 327.97 356.817C328.518 356.311 328.95 355.693 329.235 355.004C329.521 354.315 329.653 353.573 329.623 352.828C329.592 352.083 329.4 351.353 329.06 350.69C325.63 344.04 318.58 332.94 307.38 326.84C307.38 326.84 323.11 326.5 334.03 316.84C334.824 316.163 335.425 315.288 335.771 314.304C336.118 313.32 336.198 312.262 336.003 311.237C335.808 310.212 335.345 309.257 334.661 308.469C333.977 307.681 333.097 307.088 332.11 306.75Z" fill="#6086AD"/>
<path d="M213.15 1.81997C225.05 10.82 248.88 31.82 253.71 59.32C253.71 59.32 287.48 68.97 308.49 96.41C309.974 98.3678 310.999 100.633 311.49 103.04C314.65 117.86 328.91 175.33 363.07 194.04C365.093 195.105 366.845 196.618 368.194 198.464C369.542 200.31 370.451 202.439 370.85 204.69C372.85 216.88 373.85 240.39 356.33 254.02C355.029 254.991 353.446 255.512 351.822 255.503C350.198 255.494 348.621 254.956 347.33 253.97L331.53 242.2C331.53 242.2 311.42 264.25 283.53 244.79L241.53 219.5C235.758 216.014 229.252 213.922 222.53 213.39C213.27 212.65 199.04 211.73 185.08 211.64C178.075 211.601 171.322 209.018 166.08 204.37C153.72 193.43 133.85 169.72 132.4 129.64C132.377 128.864 132.575 128.098 132.972 127.431C133.369 126.764 133.948 126.224 134.641 125.875C135.333 125.525 136.112 125.38 136.884 125.457C137.656 125.535 138.39 125.83 139 126.31C141.48 128.26 144.28 130.38 146.64 131.95C146.64 131.95 145.46 100 169.09 79.62C169.518 79.2468 170.018 78.9664 170.559 78.7965C171.101 78.6266 171.671 78.571 172.235 78.633C172.799 78.695 173.344 78.8734 173.836 79.1569C174.327 79.4404 174.754 79.8228 175.09 80.28L183 91.1C183 91.1 184.7 59.33 198.72 30.81C201.334 25.4784 203.237 19.8268 204.38 14C204.93 11.19 205.46 8.08997 205.83 4.99997C205.917 4.19364 206.216 3.42466 206.696 2.7713C207.176 2.11793 207.821 1.6035 208.565 1.28037C209.309 0.957241 210.125 0.836945 210.93 0.931728C211.736 1.02651 212.502 1.33299 213.15 1.81997Z" fill="#88ABD6"/>
<path d="M210.08 0.929932C209.008 1.00676 207.997 1.4555 207.221 2.19862C206.445 2.94175 205.953 3.93258 205.83 4.99993C205.46 8.08993 204.93 11.1899 204.38 13.9999C203.244 19.8292 201.348 25.4842 198.74 30.8199C184.72 59.3299 183 91.0999 183 91.0999C185.36 100.96 195.32 105.77 195.32 105.77C200.48 71.7199 228.23 63.2999 228.23 63.2999C228 22.7499 216.29 6.63993 210.08 0.929932Z" fill="#6086AD"/>
<path d="M371.86 217.21C371.856 213 371.521 208.797 370.86 204.64C370.462 202.387 369.551 200.257 368.199 198.412C366.847 196.567 365.088 195.057 363.06 194C361.086 192.909 359.179 191.701 357.35 190.38C355.904 193.042 355.145 196.024 355.142 199.053C355.139 202.083 355.892 205.066 357.333 207.731C358.774 210.397 360.857 212.66 363.394 214.317C365.93 215.974 368.84 216.972 371.86 217.22V217.21Z" fill="#333345"/>
<path d="M274.26 208.12C274.26 208.12 275.57 194.52 292.35 183.53C292.844 183.205 293.423 183.034 294.014 183.037C294.605 183.041 295.182 183.219 295.673 183.549C296.163 183.879 296.545 184.346 296.77 184.893C296.996 185.439 297.055 186.04 296.94 186.62C295.3 194.48 293.17 207.72 294.94 217.21L274.26 208.12Z" fill="white"/>
<path d="M292.5 217.21C293.21 222.143 293.418 227.135 293.12 232.11C293.089 232.551 293.182 232.993 293.387 233.385C293.593 233.777 293.903 234.104 294.284 234.33C294.664 234.556 295.1 234.672 295.543 234.665C295.985 234.658 296.417 234.528 296.79 234.29C299.89 232.29 303.87 229.16 305.79 225.4L292.5 217.21Z" fill="white"/>
<path d="M265.57 206.4C265.462 206.769 265.428 207.156 265.47 207.538C265.512 207.92 265.629 208.29 265.815 208.627C266.001 208.964 266.252 209.26 266.553 209.499C266.854 209.738 267.2 209.915 267.57 210.02C276.57 212.64 305.3 222.49 326.28 246.55C328.185 245.289 329.951 243.831 331.55 242.2C331.55 242.2 305.75 212 269 204.31C268.27 204.158 267.509 204.29 266.872 204.678C266.236 205.066 265.77 205.682 265.57 206.4Z" fill="#6086AD"/>
<path d="M102.17 290.92C108.35 302.45 119.23 317.81 135.86 325.34C135.86 325.34 135.34 312.85 138.4 301.53C138.492 301.126 138.707 300.76 139.015 300.483C139.324 300.207 139.711 300.033 140.123 299.986C140.534 299.938 140.951 300.02 141.314 300.22C141.677 300.42 141.969 300.727 142.15 301.1C148.15 311.99 167.45 340.5 209.15 353.61C212.416 354.647 215.944 354.49 219.105 353.168C222.266 351.845 224.855 349.443 226.41 346.39C232.06 335.2 239.77 315.99 239.8 294.33C239.785 293.908 239.903 293.493 240.138 293.142C240.374 292.792 240.714 292.525 241.11 292.38C241.506 292.234 241.938 292.218 242.344 292.333C242.75 292.448 243.109 292.688 243.37 293.02C245.71 295.72 248.5 299.57 249.65 303.58C252.999 294.168 255.205 284.388 256.22 274.45C256.22 274.222 256.311 274.003 256.472 273.842C256.633 273.681 256.852 273.59 257.08 273.59C257.308 273.59 257.527 273.681 257.688 273.842C257.849 274.003 257.94 274.222 257.94 274.45C259.02 284.61 259.54 302.94 252.62 320.45C252.496 320.773 252.28 321.053 251.999 321.255C251.718 321.457 251.384 321.572 251.038 321.586C250.692 321.599 250.35 321.511 250.053 321.333C249.757 321.154 249.519 320.892 249.37 320.58L246.2 313.79C246.2 313.79 247.1 333.98 231.5 364.93C229.942 368.046 227.307 370.492 224.084 371.814C220.861 373.136 217.267 373.245 213.97 372.12C197.2 366.35 166.2 352.34 146.37 323.23C145.513 328.112 144.988 333.047 144.8 338C144.797 338.265 144.734 338.526 144.614 338.762C144.495 338.999 144.323 339.205 144.111 339.364C143.899 339.523 143.654 339.632 143.394 339.682C143.134 339.731 142.865 339.72 142.61 339.65C135.49 337.65 113.09 328.65 100.15 291.87C100.052 291.607 100.056 291.316 100.163 291.056C100.269 290.796 100.469 290.585 100.723 290.466C100.977 290.346 101.267 290.327 101.535 290.411C101.803 290.495 102.03 290.677 102.17 290.92Z" fill="#6086AD"/>
<path d="M271.62 145.66L271.31 145.41C268.162 142.886 265.542 139.765 263.601 136.227C261.66 132.688 260.437 128.802 260 124.79C259.549 120.688 259.609 116.547 260.18 112.46C260.231 112.145 260.376 111.853 260.597 111.624C260.818 111.394 261.104 111.238 261.417 111.176C261.73 111.114 262.054 111.149 262.346 111.277C262.638 111.404 262.884 111.618 263.05 111.89L266.91 118.47L283.72 142.77L292.93 145.83C293.298 146.11 293.579 146.488 293.742 146.921C293.905 147.353 293.943 147.823 293.851 148.276C293.759 148.729 293.541 149.147 293.223 149.482C292.904 149.817 292.498 150.055 292.05 150.17C288.529 151.055 284.849 151.108 281.303 150.325C277.757 149.543 274.442 147.945 271.62 145.66Z" fill="#6086AD"/>
<path d="M270.7 112.75C276.07 117.01 284.48 124.14 288.82 130.23C289.7 131.452 290.163 132.924 290.14 134.43C290.14 136.38 290.06 139.43 290.07 142.52C290.08 143.227 289.902 143.924 289.555 144.54C289.208 145.156 288.704 145.669 288.095 146.026C287.485 146.384 286.791 146.574 286.084 146.576C285.377 146.579 284.682 146.394 284.07 146.04C276.87 142.04 265.81 133.14 265.44 115.42C265.418 114.8 265.573 114.187 265.888 113.652C266.203 113.118 266.664 112.685 267.217 112.404C267.77 112.123 268.392 112.007 269.009 112.068C269.626 112.129 270.213 112.366 270.7 112.75Z" fill="white"/>
<defs>
<linearGradient id="paint0_linear_4_541" x1="147.82" y1="381.17" x2="239.59" y2="40.47" gradientUnits="userSpaceOnUse">
<stop offset="0.01" stop-color="#88ABD6"/>
<stop offset="1" stop-color="#4F76A0"/>
</linearGradient>
</defs>
</svg>
