<svg width="372" height="466" viewBox="0 0 372 466" fill="none" xmlns="http://www.w3.org/2000/svg">
<path d="M140 65.39C140 65.39 139 38.59 125.65 15.66C125.236 14.9539 124.668 14.3498 123.989 13.8922C123.31 13.4347 122.537 13.1354 121.727 13.0163C120.917 12.8973 120.091 12.9617 119.309 13.2046C118.527 13.4476 117.81 13.8629 117.21 14.42C108.28 22.62 90.28 43.42 86.88 80.31L140 65.39Z" fill="#466B8E"/>
<path d="M234.46 140.37C234.46 140.37 245.77 181.85 287 210.18C287.473 210.492 287.852 210.928 288.094 211.441C288.336 211.954 288.432 212.523 288.373 213.087C288.313 213.651 288.099 214.187 287.754 214.637C287.41 215.088 286.948 215.435 286.42 215.64C284.48 216.371 282.469 216.897 280.42 217.21C280.42 217.21 312.42 258.58 367.77 277.21C368.811 277.553 369.737 278.177 370.444 279.014C371.152 279.851 371.614 280.868 371.779 281.952C371.943 283.035 371.804 284.143 371.378 285.153C370.951 286.162 370.252 287.034 369.36 287.67C362.36 292.74 350.79 299.37 333.98 304.05C333.98 304.05 339.18 312 351.24 317.2C352.643 317.836 353.888 318.774 354.887 319.946C355.886 321.119 356.614 322.497 357.018 323.983C357.423 325.469 357.496 327.026 357.23 328.544C356.964 330.061 356.366 331.5 355.48 332.76C338.86 356.99 296.13 412.52 231.22 450.24C230.577 450.619 229.841 450.81 229.095 450.792C228.349 450.774 227.623 450.548 226.999 450.139C226.375 449.73 225.878 449.155 225.563 448.479C225.249 447.802 225.13 447.051 225.22 446.31C225.88 440.66 226.73 432.9 227.3 426.31C227.382 425.699 227.273 425.078 226.99 424.531C226.706 423.984 226.261 423.538 225.715 423.253C225.169 422.968 224.548 422.858 223.937 422.938C223.326 423.018 222.754 423.284 222.3 423.7C208.65 435.01 169.45 462.04 103.49 465.03C101.682 465.104 99.887 464.703 98.2831 463.866C96.6793 463.029 95.3231 461.785 94.3501 460.26C85.0001 445.62 58.0001 400.86 53.0001 360.19L45.9401 357.93C45.2303 357.702 44.5786 357.322 44.0302 356.817C43.4819 356.312 43.05 355.693 42.7646 355.004C42.4792 354.316 42.3471 353.573 42.3774 352.828C42.4077 352.083 42.5997 351.353 42.9401 350.69C46.3701 344.04 53.42 332.94 64.6201 326.84C64.6201 326.84 48.8901 326.5 37.9701 316.84C37.1855 316.164 36.5923 315.294 36.25 314.316C35.9077 313.339 35.8283 312.288 36.0197 311.271C36.2111 310.253 36.6666 309.303 37.3406 308.517C38.0146 307.73 38.8835 307.135 39.86 306.79C58.86 300.27 104.86 279.01 106.52 225.98L234.46 140.37Z" fill="url(#paint0_linear_1_882)"/>
<path d="M39.8901 306.75C58.8901 300.23 104.89 278.97 106.55 225.94L213.25 154.56C203.503 167.225 194.507 180.451 186.31 194.17L217.31 183.03C218.25 206.42 201.31 222.28 201.31 222.28L170.4 223.94C157.78 251 148.54 281.73 151.5 310.5C151.5 310.5 155.15 349.03 198.59 335.84L201.48 338.59C201.48 338.59 174.85 361.59 143.68 364.87C143.68 364.87 97.36 449.8 163.59 454.6C144.118 460.736 123.919 464.266 103.52 465.1C101.712 465.174 99.917 464.772 98.3131 463.935C96.7093 463.098 95.3531 461.855 94.3801 460.33C85.0001 445.62 58.0001 400.86 53.0001 360.19L45.9401 357.93C45.2302 357.702 44.5786 357.322 44.0302 356.817C43.4819 356.312 43.0501 355.693 42.7646 355.004C42.4792 354.316 42.3471 353.573 42.3774 352.828C42.4077 352.083 42.5997 351.353 42.9401 350.69C46.3701 344.04 53.4201 332.94 64.6201 326.84C64.6201 326.84 48.8901 326.5 37.9701 316.84C37.176 316.163 36.5752 315.288 36.2287 314.304C35.8822 313.32 35.8025 312.262 35.9975 311.237C36.1925 310.212 36.6554 309.257 37.3391 308.469C38.0228 307.681 38.9029 307.088 39.8901 306.75Z" fill="#6086AD"/>
<path d="M158.85 1.82009C146.95 10.8201 123.12 31.8201 118.29 59.3201C118.29 59.3201 84.5201 68.9701 63.5101 96.4101C62.0268 98.3679 61.0016 100.634 60.5101 103.04C57.3501 117.86 43.0901 175.33 8.93007 194.04C6.90752 195.105 5.15512 196.618 3.80675 198.464C2.45837 200.31 1.54968 202.439 1.15007 204.69C-0.84993 216.88 -1.84991 240.39 15.6701 254.02C16.9718 254.991 18.5545 255.512 20.1785 255.503C21.8024 255.494 23.3793 254.956 24.6701 253.97L40.4701 242.2C40.4701 242.2 60.5801 264.25 88.4701 244.79L130.47 219.5C136.242 216.014 142.748 213.922 149.47 213.39C158.73 212.65 172.96 211.73 186.92 211.64C193.926 211.601 200.678 209.018 205.92 204.37C218.28 193.43 238.15 169.72 239.6 129.64C239.623 128.864 239.425 128.098 239.028 127.431C238.631 126.764 238.053 126.224 237.36 125.875C236.667 125.525 235.889 125.38 235.117 125.458C234.344 125.535 233.61 125.83 233 126.31C230.52 128.26 227.72 130.38 225.36 131.95C225.36 131.95 226.54 100 202.91 79.6201C202.483 79.2469 201.983 78.9666 201.441 78.7967C200.9 78.6268 200.329 78.5711 199.765 78.6331C199.201 78.6952 198.656 78.8736 198.165 79.1571C197.673 79.4406 197.246 79.823 196.91 80.2801L189 91.1001C189 91.1001 187.3 59.3301 173.28 30.8101C170.666 25.4785 168.763 19.8269 167.62 14.0001C167.07 11.1901 166.54 8.09009 166.17 5.00009C166.083 4.19376 165.785 3.42479 165.304 2.77142C164.824 2.11805 164.179 1.60362 163.435 1.28049C162.691 0.957363 161.875 0.837067 161.07 0.93185C160.264 1.02663 159.499 1.33311 158.85 1.82009Z" fill="#88ABD6"/>
<path d="M161.92 0.930176C162.992 1.007 164.003 1.45574 164.779 2.19887C165.555 2.94199 166.047 3.93282 166.17 5.00018C166.54 8.09018 167.07 11.1902 167.62 14.0002C168.756 19.8295 170.652 25.4845 173.26 30.8202C187.28 59.3302 189 91.1002 189 91.1002C186.64 100.96 176.68 105.77 176.68 105.77C171.52 71.7202 143.77 63.3002 143.77 63.3002C144 22.7502 155.71 6.64018 161.92 0.930176Z" fill="#6086AD"/>
<path d="M0.140005 217.21C0.144156 213 0.478516 208.798 1.14001 204.64C1.53817 202.388 2.4486 200.257 3.80102 198.412C5.15343 196.567 6.91165 195.058 8.93999 194C10.9145 192.91 12.8213 191.701 14.65 190.38C16.0961 193.043 16.855 196.024 16.8579 199.054C16.8609 202.083 16.1078 205.066 14.6669 207.731C13.226 210.397 11.1429 212.66 8.60625 214.317C6.06961 215.974 3.15964 216.972 0.140005 217.22V217.21Z" fill="#333345"/>
<path d="M97.74 208.12C97.74 208.12 96.43 194.52 79.65 183.53C79.1559 183.206 78.577 183.034 77.9859 183.038C77.3948 183.041 76.8179 183.219 76.3275 183.549C75.8372 183.879 75.4553 184.347 75.2298 184.893C75.0043 185.439 74.9452 186.04 75.06 186.62C76.7 194.48 78.83 207.72 77.06 217.21L97.74 208.12Z" fill="white"/>
<path d="M79.5 217.21C78.7895 222.143 78.5818 227.135 78.88 232.11C78.9106 232.552 78.818 232.993 78.6125 233.385C78.4071 233.777 78.0968 234.104 77.7163 234.33C77.3358 234.556 76.9 234.672 76.4575 234.665C76.0149 234.658 75.5831 234.528 75.21 234.29C72.11 232.29 68.13 229.16 66.21 225.4L79.5 217.21Z" fill="white"/>
<path d="M106.43 206.4C106.538 206.769 106.573 207.156 106.531 207.538C106.488 207.921 106.371 208.291 106.185 208.627C105.999 208.964 105.748 209.26 105.447 209.499C105.146 209.739 104.8 209.916 104.43 210.02C95.4301 212.64 66.7001 222.49 45.7201 246.55C43.8154 245.289 42.049 243.831 40.4501 242.2C40.4501 242.2 66.2501 212 103 204.31C103.73 204.159 104.491 204.29 105.128 204.678C105.764 205.066 106.23 205.682 106.43 206.4Z" fill="#6086AD"/>
<path d="M269.83 290.92C263.65 302.45 252.77 317.81 236.14 325.34C236.14 325.34 236.66 312.85 233.6 301.53C233.508 301.126 233.293 300.76 232.985 300.484C232.676 300.207 232.289 300.033 231.877 299.986C231.466 299.939 231.049 300.02 230.686 300.22C230.323 300.42 230.031 300.727 229.85 301.1C223.85 311.99 204.55 340.5 162.85 353.61C159.584 354.647 156.056 354.49 152.895 353.168C149.734 351.845 147.145 349.443 145.59 346.39C139.94 335.2 132.23 315.99 132.2 294.33C132.215 293.908 132.097 293.493 131.862 293.142C131.626 292.792 131.286 292.525 130.89 292.38C130.494 292.234 130.062 292.218 129.656 292.333C129.25 292.448 128.891 292.689 128.63 293.02C126.29 295.72 123.5 299.57 122.35 303.58C119.001 294.168 116.795 284.388 115.78 274.45C115.78 274.222 115.689 274.003 115.528 273.842C115.367 273.681 115.148 273.59 114.92 273.59C114.692 273.59 114.473 273.681 114.312 273.842C114.151 274.003 114.06 274.222 114.06 274.45C112.98 284.61 112.46 302.94 119.38 320.45C119.504 320.773 119.72 321.053 120.001 321.255C120.282 321.457 120.616 321.572 120.962 321.586C121.308 321.599 121.65 321.512 121.947 321.333C122.243 321.154 122.481 320.892 122.63 320.58L125.8 313.79C125.8 313.79 124.9 333.98 140.5 364.93C142.058 368.046 144.693 370.492 147.916 371.814C151.139 373.136 154.733 373.245 158.03 372.12C174.8 366.35 205.8 352.34 225.63 323.23C226.487 328.112 227.012 333.047 227.2 338C227.203 338.265 227.266 338.526 227.386 338.762C227.505 338.999 227.677 339.205 227.889 339.364C228.101 339.524 228.346 339.632 228.606 339.682C228.866 339.731 229.135 339.721 229.39 339.65C236.51 337.65 258.91 328.65 271.85 291.87C271.948 291.607 271.944 291.316 271.837 291.056C271.731 290.796 271.531 290.585 271.277 290.466C271.023 290.346 270.733 290.327 270.465 290.411C270.197 290.495 269.97 290.677 269.83 290.92Z" fill="#6086AD"/>
<path d="M100.38 145.66L100.69 145.41C103.839 142.886 106.459 139.765 108.399 136.227C110.34 132.689 111.564 128.802 112 124.79C112.451 120.689 112.391 116.547 111.82 112.46C111.77 112.145 111.624 111.854 111.403 111.624C111.182 111.395 110.896 111.238 110.583 111.176C110.271 111.114 109.947 111.149 109.655 111.277C109.363 111.405 109.117 111.619 108.95 111.89L105.09 118.47L88.2801 142.77L79.0701 145.83C78.7024 146.11 78.421 146.488 78.2583 146.921C78.0955 147.353 78.0579 147.823 78.1497 148.276C78.2416 148.729 78.4591 149.147 78.7775 149.482C79.096 149.817 79.5023 150.055 79.9501 150.17C83.4718 151.055 87.1513 151.108 90.6972 150.326C94.2431 149.543 97.5581 147.946 100.38 145.66Z" fill="#6086AD"/>
<path d="M101.3 112.75C95.9301 117.01 87.5201 124.14 83.1801 130.23C82.2999 131.452 81.8369 132.924 81.8601 134.43C81.8601 136.38 81.9401 139.43 81.9301 142.52C81.9202 143.227 82.0978 143.924 82.4448 144.54C82.7919 145.156 83.2959 145.669 83.9057 146.026C84.5154 146.384 85.2091 146.574 85.916 146.576C86.623 146.579 87.3179 146.394 87.9301 146.04C95.1301 142.04 106.19 133.14 106.56 115.42C106.583 114.8 106.427 114.187 106.112 113.652C105.798 113.118 105.336 112.685 104.783 112.404C104.23 112.123 103.608 112.007 102.991 112.068C102.374 112.129 101.787 112.366 101.3 112.75Z" fill="white"/>
<defs>
<linearGradient id="paint0_linear_1_882" x1="224.18" y1="381.17" x2="132.41" y2="40.4701" gradientUnits="userSpaceOnUse">
<stop offset="0.01" stop-color="#88ABD6"/>
<stop offset="1" stop-color="#4F76A0"/>
</linearGradient>
</defs>
</svg>
