<svg width="98" height="100" viewBox="0 0 98 100" fill="none" xmlns="http://www.w3.org/2000/svg">
<path d="M62.7634 40.933C62.7634 40.933 68.7295 43.2149 72.6936 46.6296C72.9733 46.8704 73.1613 47.1999 73.2257 47.5627C73.29 47.9255 73.2269 48.2994 73.047 48.6212C72.4044 49.7321 71.9004 51.6236 74.2679 53.359C74.2679 53.359 79.6175 56.9979 82.2823 61.0711C82.5016 61.4285 82.5716 61.8573 82.4773 62.2655C82.3831 62.6738 82.1322 63.0289 81.7783 63.2549C81.0995 63.7233 80.483 64.628 80.7361 66.3614C81.2441 69.8281 82.0755 81.8197 74.2679 86.0811C74.2679 86.0811 81.6799 64.628 63.1269 52.5643L62.7634 40.933Z" fill="url(#paint0_linear_209_3148)"/>
<path d="M1.2068 4.87417C7.90387 5.58274 20.8261 8.56112 27.8445 20.7709C28.0937 21.2058 28.2505 21.6872 28.3051 22.1851C28.3597 22.6831 28.3109 23.1869 28.1617 23.6652C27.1135 27.0279 24.9949 35.6188 28.6417 40.931L26.7962 42.5923C26.7962 42.5923 23.4467 39.5259 18.7537 38.5891C18.5425 38.5493 18.3416 38.4671 18.1633 38.3474C17.9851 38.2276 17.8331 38.073 17.7168 37.8928C17.6005 37.7126 17.5222 37.5107 17.4868 37.2993C17.4514 37.088 17.4595 36.8717 17.5107 36.6636C18.2035 33.9234 18.1011 28.5211 8.05649 25.6988C7.70073 25.6009 7.39081 25.3814 7.18086 25.0789C6.97091 24.7763 6.87428 24.4099 6.90784 24.0435C7.23115 20.7709 7.29541 12.18 0.403557 6.79171C-0.437844 6.13118 0.136478 4.75808 1.2068 4.87417Z" fill="url(#paint1_linear_209_3148)"/>
<path d="M48.2607 0.140421C43.9151 3.12881 36.1337 10.0003 35.8907 21.0311C35.8814 21.4227 35.9529 21.812 36.1007 22.1749C36.2486 22.5378 36.4696 22.8666 36.7502 23.1408C38.7362 25.0664 43.4231 30.1904 42.9071 35.2105L44.8007 35.6648C44.8007 35.6648 45.9554 32.3021 48.833 29.9042C48.9636 29.7981 49.0711 29.6665 49.1489 29.5176C49.2268 29.3686 49.2733 29.2054 49.2857 29.0379C49.2982 28.8705 49.2762 28.7022 49.2211 28.5435C49.166 28.3847 49.0791 28.2389 48.9655 28.1148C47.4594 26.4855 45.5015 22.7285 51.3572 17.0359C51.5656 16.8358 51.6969 16.569 51.7281 16.2822C51.7593 15.9953 51.6884 15.7067 51.5279 15.4667C50.0861 13.337 46.8048 7.44426 49.5198 1.16524C49.5875 0.997387 49.5996 0.812361 49.5544 0.63716C49.5091 0.461959 49.4089 0.30575 49.2683 0.191324C49.1277 0.0768992 48.9541 0.0102455 48.7729 0.00108831C48.5916 -0.00806889 48.4122 0.0407495 48.2607 0.140421Z" fill="url(#paint2_linear_209_3148)"/>
<path d="M90.9412 28.5772C89.6299 20.5708 84.5795 16.4515 79.7339 14.3438C76.2769 12.8485 72.5151 12.1857 68.7532 12.4089C64.9914 12.6322 61.3351 13.7353 58.0804 15.6289C49.0439 20.8871 45.9956 30.3486 45.2425 33.271C45.1773 33.5245 45.0292 33.7492 44.8215 33.9094C44.6139 34.0697 44.3585 34.1563 44.0959 34.1557C35.6811 34.1557 27.6109 37.4876 21.6607 43.4185C15.7105 49.3494 12.3677 57.3934 12.3677 65.781V66.5236C12.3658 69.4494 12.9423 72.3469 14.064 75.0506C15.1858 77.7543 16.831 80.2113 18.9055 82.2812C20.9801 84.351 23.4434 85.9933 26.1549 87.1141C28.8663 88.2349 31.7726 88.8123 34.708 88.8134H44.1943C49.7131 88.8134 55.006 86.6283 58.9086 82.7387C62.8112 78.8492 65.0039 73.5737 65.0044 68.0728V33.4451C65.0041 32.6938 65.1524 31.9498 65.4407 31.2556C65.7291 30.5615 66.1518 29.9307 66.6848 29.3995C67.2178 28.8682 67.8506 28.4469 68.547 28.1595C69.2434 27.8721 69.9898 27.7243 70.7436 27.7245H71.1332C71.9576 27.7245 72.7483 28.051 73.3313 28.6321C73.9142 29.2131 74.2417 30.0013 74.2417 30.823V36.8458C74.2417 37.1566 74.3143 37.463 74.4537 37.741C74.5932 38.0189 74.7956 38.2607 75.045 38.4471C76.4708 39.514 79.3142 42.3522 79.6637 48.2029C79.6831 48.5272 79.8258 48.8319 80.0627 49.0551C80.2996 49.2782 80.6129 49.4029 80.9388 49.4039H84.4189C84.7447 49.4025 85.0577 49.2776 85.2945 49.0545C85.5313 48.8315 85.6741 48.5271 85.694 48.2029C86.0414 42.3522 88.8849 39.514 90.3127 38.4471C90.5621 38.2607 90.7645 38.0189 90.9039 37.741C91.0434 37.463 91.1159 37.1566 91.1159 36.8458V29.7081C91.1153 29.3245 91.0564 28.9433 90.9412 28.5772Z" fill="url(#paint3_linear_209_3148)"/>
<path d="M65.0046 33.449C65.0051 32.6243 65.1853 31.8096 65.5327 31.0611L54.4098 33.8373C54.4098 33.8373 46.0399 60.2704 28.5051 60.5026C28.5051 60.5026 17.4343 61.5435 18.0328 47.7564C14.3337 53.0485 12.3542 59.3451 12.3618 65.7949V66.5375C12.3618 72.445 14.7161 78.1107 18.9068 82.2881C23.0975 86.4656 28.7814 88.8127 34.7081 88.8133H44.1945C49.7133 88.8133 55.0061 86.6282 58.9087 82.7386C62.8113 78.8491 65.0041 73.5736 65.0046 68.0727V33.449Z" fill="#0D3794"/>
<path d="M66.3805 24.4559C66.3805 24.4559 54.4162 24.4559 53.9784 37.1921V64.7081C53.9878 67.6001 53.2135 70.4409 51.7373 72.9306C48.4099 78.4951 40.7449 86.7877 24.7222 86.4654C27.822 88.0127 31.2417 88.8167 34.7085 88.8133H44.1949C49.7137 88.8133 55.0065 86.6282 58.9091 82.7387C62.8117 78.8491 65.0044 73.5737 65.005 68.0727V33.4451C65.0047 32.6937 65.153 31.9497 65.4413 31.2556C65.7296 30.5614 66.1524 29.9307 66.6853 29.3994C67.2183 28.8682 67.8511 28.4468 68.5476 28.1594C69.244 27.872 69.9904 27.7242 70.7442 27.7245H71.1337C71.9582 27.7245 72.7489 28.0509 73.3318 28.632C73.9148 29.2131 74.2423 30.0012 74.2423 30.823V31.5856C74.2423 31.5856 75.1419 24.4559 66.3805 24.4559Z" fill="#82B4FF"/>
<path d="M70.7443 27.7285H71.1338C71.9583 27.7285 72.749 28.0549 73.3319 28.636C73.9149 29.2171 74.2424 30.0052 74.2424 30.827V31.5896C74.2424 31.5896 75.142 24.4559 66.3806 24.4559C66.3806 24.4559 54.4163 24.4559 53.9785 37.1921V40.4687C56.1252 34.642 59.6012 34.636 59.6012 34.636C62.8142 34.4899 64.3183 36.3834 65.0071 37.8386V33.4491C65.0068 32.6979 65.155 31.9541 65.4432 31.26C65.7314 30.566 66.154 29.9354 66.6868 29.4041C67.2195 28.8729 67.8521 28.4515 68.5483 28.164C69.2445 27.8765 69.9907 27.7285 70.7443 27.7285Z" fill="#0F2132"/>
<path d="M65.005 68.0727V60.4666C64.638 62.0654 64.0713 63.6121 63.3181 65.0703C61.4426 68.5311 56.6914 69.1516 54.1531 66.1412C54.0788 66.0531 54.0085 65.953 53.9362 65.8589C53.7701 68.3567 53.0168 70.7805 51.7373 72.9346C48.4099 78.499 40.7449 86.7917 24.7222 86.4694C27.822 88.0167 31.2417 88.8207 34.7085 88.8173H44.1949C46.9279 88.8173 49.6341 88.2807 52.159 87.2381C54.6839 86.1956 56.9781 84.6675 58.9105 82.7412C60.843 80.8149 62.3758 78.528 63.4215 76.0112C64.4672 73.4943 65.0052 70.7968 65.005 68.0727Z" fill="#0F2132"/>
<path d="M91.1279 34.7541C91.1279 34.7541 93.8831 35.3546 95.8932 32.6864C96.3506 32.0528 96.6312 31.3097 96.7065 30.5327C96.8149 29.606 97.1081 28.1508 97.8772 27.0259C97.9516 26.9244 97.994 26.8031 97.9992 26.6775C98.0043 26.552 97.9719 26.4277 97.9061 26.3204C97.8403 26.2132 97.744 26.1279 97.6294 26.0753C97.5149 26.0228 97.3873 26.0053 97.2627 26.0251C96.0251 26.2036 94.8392 26.6401 93.7821 27.306C92.7251 27.972 91.8207 28.8525 91.1279 29.8902V34.7541Z" fill="#0D3794"/>
<path d="M74.2678 34.7541C74.2678 34.7541 71.5107 35.3546 69.5026 32.6865C69.0412 32.0542 68.757 31.3108 68.6792 30.5328C68.5728 29.606 68.2776 28.1509 67.5085 27.026C67.4349 26.9241 67.3932 26.8028 67.3886 26.6774C67.384 26.552 67.4167 26.428 67.4826 26.321C67.5485 26.2141 67.6446 26.1289 67.7589 26.0763C67.8732 26.0236 68.0006 26.0058 68.125 26.0252C69.3625 26.2039 70.5484 26.6405 71.6054 27.3064C72.6624 27.9723 73.5668 28.8527 74.2598 29.8902L74.2678 34.7541Z" fill="#0D3794"/>
<path d="M74.4304 30.4147C73.8094 30.4125 73.2146 30.165 72.7764 29.7264C72.3382 29.2878 72.0924 28.6938 72.093 28.0748V25.1405C72.0962 24.3677 71.9311 23.6035 71.609 22.9007C71.1339 21.9085 70.5058 20.9968 69.7475 20.1985C69.4671 19.902 69.2849 19.5268 69.2254 19.1236C69.0246 17.6965 68.7916 14.1837 70.5728 11.4995C70.6593 11.3744 70.7836 11.2799 70.9277 11.23C71.0717 11.18 71.228 11.1772 71.3737 11.2218C71.5195 11.2665 71.6472 11.3563 71.7383 11.4782C71.8294 11.6002 71.879 11.7479 71.8801 11.8999C71.8801 12.2121 71.8801 12.5524 71.9022 12.9127C72.0227 15.6949 73.107 18.317 74.7758 20.5508C75.7799 21.8939 76.9687 24.3238 76.7839 28.2229C76.7498 28.8199 76.4862 29.3808 76.0479 29.789C75.6096 30.1972 75.0302 30.4213 74.4304 30.4147Z" fill="#E3F3FF"/>
<path d="M65.0044 51.2613V67.8546C65.0265 70.4755 64.4999 73.0721 63.4581 75.4787C61.7291 79.3758 58.0925 83.8373 50.4897 84.1796C50.4897 84.1796 43.4031 84.4859 38.0916 82.7525C35.0935 81.7717 31.997 81.0831 28.8422 81.0051C23.6613 80.879 16.8879 82.0559 11.6126 87.6744C11.3667 87.9299 11.2062 88.255 11.1533 88.6051C11.1003 88.9552 11.1574 89.313 11.3168 89.6294C11.4762 89.9458 11.73 90.2052 12.0433 90.372C12.3566 90.5388 12.714 90.6047 13.0665 90.5607C16.9683 90.0603 22.7958 89.8762 27.2458 92.172C27.6714 92.4009 28.0813 92.6577 28.4727 92.9406C30.9287 94.644 41.6279 101.431 53.9758 99.728C53.9758 99.728 71.4765 99.1916 76.8523 83.1148C78.6939 77.5206 78.6332 71.4773 76.6796 65.921C74.9827 61.0331 71.6211 54.9803 65.0044 51.2613Z" fill="url(#paint4_linear_209_3148)"/>
<path d="M76.6816 65.921C74.9827 61.0331 71.6211 54.9803 65.0044 51.2613V67.8546C65.0265 70.4755 64.4999 73.0721 63.4581 75.4787C63.4039 75.6008 63.3417 75.7229 63.2854 75.847C61.5283 93.3029 49.1041 97.7405 41.0938 98.7673C44.9212 99.8061 49.327 100.369 53.9798 99.728C53.9798 99.728 71.4806 99.1916 76.8563 83.1148C78.6973 77.5204 78.6359 71.477 76.6816 65.921Z" fill="#0D3794"/>
<path d="M90.9415 28.5772C90.8773 28.1769 90.7949 27.8026 90.7126 27.4243C90.1282 31.3994 87.843 32.2141 86.3831 33.5171C85.2726 34.5079 84.2505 35.901 84.2505 37.4162C84.3537 38.1377 84.5995 38.8316 84.9734 39.4579C85.5879 40.5027 86.1783 42.4062 86.0116 45.7989C86.8691 41.5315 89.1222 39.3298 90.3331 38.4271C90.5823 38.2441 90.7848 38.0053 90.9243 37.7299C91.0639 37.4545 91.1365 37.1503 91.1363 36.8418V29.7081C91.1291 29.3235 91.0635 28.9422 90.9415 28.5772Z" fill="#0D3794"/>
<path d="M77.6818 33.7814C77.7003 34.5205 77.8683 35.2482 78.1758 35.9211C78.3576 36.2671 78.6085 36.5724 78.9131 36.8181C79.2177 37.0639 79.5695 37.245 79.9469 37.3502L80.4369 37.5004C80.5484 37.5307 80.6664 37.5283 80.7766 37.4937C80.8869 37.459 80.9848 37.3934 81.0587 37.3048C81.1326 37.2161 81.1793 37.1082 81.1933 36.9938C81.2073 36.8794 81.188 36.7634 81.1377 36.6597C80.4836 35.4019 79.5756 34.2925 78.4709 33.4011C78.3998 33.3424 78.3133 33.3053 78.2216 33.2942C78.1299 33.2831 78.037 33.2985 77.9538 33.3386C77.8707 33.3787 77.8008 33.4417 77.7526 33.5202C77.7044 33.5987 77.6798 33.6894 77.6818 33.7814Z" fill="white"/>
<path d="M88.1442 33.7814C88.1256 34.5205 87.9576 35.2483 87.6502 35.9211C87.4683 36.2671 87.2174 36.5724 86.9128 36.8182C86.6082 37.0639 86.2564 37.245 85.879 37.3503L85.389 37.5004C85.2775 37.5307 85.1596 37.5284 85.0493 37.4937C84.9391 37.459 84.8412 37.3934 84.7673 37.3048C84.6934 37.2162 84.6466 37.1082 84.6326 36.9938C84.6186 36.8794 84.6379 36.7635 84.6882 36.6597C85.3431 35.4041 86.2509 34.2968 87.355 33.4071C87.4257 33.3488 87.5117 33.3118 87.6028 33.3005C87.694 33.2892 87.7864 33.3041 87.8693 33.3434C87.9522 33.3827 88.0222 33.4449 88.0709 33.5224C88.1195 33.6 88.145 33.6899 88.1442 33.7814Z" fill="white"/>
<path d="M90.9152 30.4147C91.2233 30.4147 91.5285 30.3541 91.8132 30.2365C92.0979 30.1189 92.3566 29.9465 92.5744 29.7292C92.7922 29.5119 92.9649 29.254 93.0827 28.9701C93.2004 28.6862 93.2609 28.382 93.2606 28.0748V25.1405C93.2574 24.3677 93.4225 23.6035 93.7446 22.9007C94.2197 21.9085 94.8478 20.9968 95.6061 20.1985C95.8865 19.902 96.0687 19.5268 96.1282 19.1236C96.329 17.6965 96.562 14.1837 94.7808 11.4995C94.6943 11.3744 94.57 11.2799 94.4259 11.23C94.2819 11.18 94.1256 11.1772 93.9798 11.2218C93.8341 11.2665 93.7064 11.3563 93.6153 11.4782C93.5242 11.6002 93.4746 11.7479 93.4735 11.8999C93.4735 12.2121 93.4735 12.5524 93.4514 12.9127C93.3329 15.6949 92.2465 18.317 90.5778 20.5508C89.5737 21.8939 88.3849 24.3238 88.5697 28.2229C88.6037 28.8185 88.8662 29.3782 89.3028 29.7862C89.7394 30.1942 90.3167 30.4192 90.9152 30.4147Z" fill="#E3F3FF"/>
<defs>
<linearGradient id="paint0_linear_209_3148" x1="62.1228" y1="49.0435" x2="71.864" y2="63.9365" gradientUnits="userSpaceOnUse">
<stop stop-color="#C5C391"/>
<stop offset="1" stop-color="#DEE0B1"/>
</linearGradient>
<linearGradient id="paint1_linear_209_3148" x1="24.9006" y1="37.8165" x2="17.4833" y2="22.7793" gradientUnits="userSpaceOnUse">
<stop stop-color="#C5C391"/>
<stop offset="1" stop-color="#DEE0B1"/>
</linearGradient>
<linearGradient id="paint2_linear_209_3148" x1="43.4111" y1="31.0071" x2="44.0296" y2="11.9617" gradientUnits="userSpaceOnUse">
<stop stop-color="#C5C391"/>
<stop offset="1" stop-color="#DEE0B1"/>
</linearGradient>
<linearGradient id="paint3_linear_209_3148" x1="51.7428" y1="18.3871" x2="51.7428" y2="144.084" gradientUnits="userSpaceOnUse">
<stop stop-color="#065ED9"/>
<stop offset="1" stop-color="#2575CE"/>
</linearGradient>
<linearGradient id="paint4_linear_209_3148" x1="20.8801" y1="82.9446" x2="111.355" y2="65.6165" gradientUnits="userSpaceOnUse">
<stop stop-color="#065ED9"/>
<stop offset="1" stop-color="#2575CE"/>
</linearGradient>
</defs>
</svg>
