<svg width="108" height="125" viewBox="0 0 108 125" fill="none" xmlns="http://www.w3.org/2000/svg">
<path d="M83.2654 18.3094H83.9835C84.6937 18.3094 85.3748 18.0286 85.877 17.5289C86.3791 17.0291 86.6613 16.3513 86.6613 15.6445C86.6606 14.9382 86.3782 14.261 85.8761 13.7618C85.374 13.2626 84.6933 12.9822 83.9835 12.9822H83.2654V18.3094Z" fill="#E8897B"/>
<path d="M67.7906 18.3094H67.07C66.3602 18.3087 65.6798 18.0277 65.1781 17.528C64.6765 17.0283 64.3947 16.3509 64.3947 15.6445C64.3947 14.9384 64.6766 14.2613 65.1783 13.762C65.68 13.2627 66.3604 12.9822 67.07 12.9822H67.7906V18.3094Z" fill="#E8897B"/>
<path d="M17.566 77.3795C17.566 77.3795 17.2854 73.5621 14.2789 71.2042C10.5442 68.2827 4.91062 69.3069 2.3947 73.3155C1.11272 75.3538 0.278301 78.4238 0.877569 83.0339C1.02639 84.0906 1.26235 85.1334 1.58304 86.1517C2.08875 87.8477 2.80433 91.0511 1.22651 92.2691C0.860323 92.5297 0.559263 92.8706 0.346617 93.2655C0.133968 93.6604 0.0154285 94.0987 0.00015831 94.5464V94.7075C-0.00244141 95.2663 0.168924 95.8122 0.4907 96.2702C1.21639 97.2943 2.75375 98.935 5.1483 98.935C5.1483 98.935 11.6593 99.5012 13.6291 92.7371L17.566 77.3795Z" fill="#F9C8B2"/>
<path d="M15.184 86.6675L13.6289 92.732C11.6592 99.4961 5.14815 98.93 5.14815 98.93C2.75361 98.93 1.21625 97.2893 0.490554 96.2651C0.168777 95.8071 -0.00258636 95.2612 1.33514e-05 94.7024V94.5439C0.0152817 94.0961 0.133822 93.6578 0.34647 93.2629C0.559118 92.868 0.860177 92.5271 1.22636 92.2665C2.80418 91.0486 2.09872 87.8452 1.58289 86.1491C1.25977 85.1319 1.02128 84.09 0.869837 83.0338C0.268041 78.4238 1.10499 75.3537 2.38697 73.3155C3.51663 71.5373 5.29953 70.2686 7.35558 69.7799C6.68552 74.3447 6.76896 82.7469 15.184 86.6675Z" fill="#CE957D"/>
<path d="M39.2812 96.2375C39.2812 96.2375 27.4703 108.294 35.6451 120.347C36.0052 121.009 36.2958 121.705 36.5124 122.426C36.6018 122.724 36.62 123.038 36.5656 123.345C36.5112 123.651 36.3856 123.94 36.199 124.19C36.0124 124.439 35.7698 124.642 35.4906 124.782C35.2114 124.922 34.9033 124.995 34.5907 124.995H24.9215C24.9215 124.995 17.6367 109.197 27.177 96.2375H39.2812Z" fill="#56232B"/>
<path d="M34.8182 118.991C35.0711 119.444 35.3391 119.897 35.645 120.347C36.0051 121.008 36.2957 121.705 36.5123 122.426C36.6017 122.724 36.6199 123.038 36.5655 123.345C36.5111 123.651 36.3856 123.94 36.1989 124.19C36.0123 124.439 35.7697 124.642 35.4905 124.782C35.2113 124.922 34.9032 124.995 34.5906 124.995H24.9214C24.102 123.059 23.4761 121.048 23.0528 118.991H34.8182Z" fill="#333345"/>
<path d="M74.2284 59.8352L88.2644 63.713V97.4328C88.2673 98.2786 88.1429 99.12 87.8953 99.9291C86.8839 103.168 84.3983 112.934 87.1898 122.111C87.293 122.445 87.3162 122.798 87.2573 123.142C87.1985 123.487 87.0593 123.812 86.851 124.093C86.6427 124.374 86.3711 124.603 86.058 124.76C85.7449 124.918 85.399 125 85.0481 125H78.221C77.7268 125.002 77.2399 124.881 76.8048 124.647C76.3697 124.414 76.0003 124.076 75.7304 123.664C74.3264 121.454 73.3496 119.003 72.8504 116.437C72.7543 115.961 73.2448 107.667 73.8188 102.038C73.8711 101.52 73.8138 100.997 73.6504 100.503C73.487 100.008 73.2212 99.5534 72.8702 99.1676C72.5192 98.7817 72.0908 98.4734 71.6126 98.2626C71.1345 98.0518 70.6172 97.9431 70.0942 97.9437H66.2761C65.3328 97.9429 64.4239 98.2969 63.7318 98.9348C63.0397 99.5728 62.6154 100.447 62.544 101.384C62.1419 106.618 61.7854 116.603 64.1319 122.617C64.2326 122.883 64.2672 123.168 64.2329 123.45C64.1987 123.732 64.0965 124.001 63.9351 124.235C63.7737 124.469 63.5578 124.661 63.3059 124.794C63.054 124.927 62.7736 124.998 62.4883 125H55.4286C54.8348 125.002 54.2519 124.842 53.7429 124.538C53.2339 124.233 52.8183 123.796 52.541 123.274C51.7091 121.701 50.5687 119.275 50.0301 116.93C49.9396 116.517 49.9039 116.094 49.9239 115.672L50.4297 100.573C50.4412 100.214 50.38 99.8559 50.2497 99.5205C50.1194 99.1851 49.9227 98.8792 49.6712 98.6209C49.4198 98.3627 49.1187 98.1574 48.786 98.0173C48.4532 97.8772 48.0955 97.8051 47.7342 97.8053H32.4289C31.7104 97.8043 31.0014 97.9685 30.3571 98.2849C29.7129 98.6014 29.1507 99.0616 28.7144 99.6296C26.0645 103.07 21.5485 111.185 26.7295 122.071C26.8803 122.379 26.9505 122.72 26.9337 123.062C26.9168 123.404 26.8134 123.736 26.6331 124.028C26.4528 124.319 26.2013 124.561 25.9021 124.73C25.6029 124.899 25.2656 124.99 24.9216 124.995H18.4156C17.9611 124.997 17.5132 124.887 17.1117 124.675C16.7103 124.463 16.3677 124.155 16.1146 123.78C14.8883 121.955 12.6985 118.223 11.7048 113.598C11.4625 112.43 11.6548 111.214 12.2459 110.176L12.4988 109.743C12.9162 109.002 13.1356 108.167 13.136 107.317V86.2726C13.1357 83.4913 13.9765 80.7743 15.5491 78.4751C17.1216 76.1759 19.353 74.4009 21.9531 73.381L60.8928 58.0989L74.2284 59.8352Z" fill="url(#paint0_linear_1_175)"/>
<path d="M64.1344 122.612C64.235 122.878 64.2697 123.163 64.2354 123.445C64.2012 123.727 64.099 123.996 63.9376 124.23C63.7762 124.464 63.5603 124.656 63.3084 124.789C63.0565 124.922 62.776 124.993 62.4908 124.995H55.4311C54.8373 124.997 54.2544 124.837 53.7454 124.533C53.2364 124.228 52.8208 123.791 52.5435 123.269C51.7116 121.696 50.5712 119.27 50.0326 116.925C49.9421 116.512 49.9064 116.089 49.9264 115.667L50.2931 104.773C51.9569 109.386 55.7876 117.129 63.2595 119.668C63.4792 120.669 63.7716 121.653 64.1344 122.612Z" fill="#773E41"/>
<path d="M12.4786 109.743C12.896 109.002 13.1154 108.167 13.1157 107.317V86.2725C13.1134 84.3888 13.4975 82.5245 14.2445 80.7937C14.9915 79.0629 16.0856 77.5021 17.4598 76.2068C18.4915 81.2095 22.9872 93.3436 42.4369 97.8026H32.4339C31.7144 97.8013 31.0043 97.9654 30.3591 98.2824C29.7138 98.5993 29.151 99.0603 28.7144 99.6296C26.0645 103.069 21.5485 111.185 26.7295 122.071C26.8803 122.379 26.9505 122.719 26.9337 123.061C26.9168 123.403 26.8134 123.736 26.6331 124.027C26.4528 124.319 26.2013 124.561 25.9021 124.73C25.6029 124.899 25.2656 124.99 24.9216 124.995H18.4156C17.9611 124.997 17.5132 124.887 17.1117 124.675C16.7103 124.463 16.3677 124.155 16.1146 123.78C14.8883 121.955 12.6985 118.223 11.7048 113.598C11.4625 112.43 11.6548 111.214 12.2459 110.176L12.4786 109.743Z" fill="#773E41"/>
<path d="M73.5001 105.548C74.6658 109.411 77.9024 116.266 86.6486 120.075C86.8003 120.755 86.9672 121.432 87.172 122.106C87.2753 122.44 87.2984 122.793 87.2396 123.137C87.1807 123.482 87.0416 123.807 86.8333 124.088C86.625 124.369 86.3533 124.598 86.0402 124.755C85.7271 124.913 85.3812 124.995 85.0304 124.995H78.2032C77.709 124.997 77.2221 124.876 76.787 124.643C76.3519 124.409 75.9826 124.071 75.7126 123.659C74.3086 121.449 73.3319 118.998 72.8326 116.432C72.7744 116.049 73.0804 110.596 73.5001 105.548Z" fill="#773E41"/>
<path d="M68.309 93.0668C69.0941 93.0645 69.8717 93.2191 70.5957 93.5215C71.3196 93.8239 71.9752 94.2678 72.5234 94.8271C73.0717 95.3864 73.5016 96.0495 73.7875 96.7772C74.0734 97.5049 74.2096 98.2823 74.1879 99.0634C74.1531 100.062 74.0304 101.056 73.8213 102.033C73.8736 101.515 73.8162 100.992 73.6528 100.497C73.4894 100.003 73.2236 99.5483 72.8726 99.1624C72.5216 98.7766 72.0932 98.4684 71.6151 98.2575C71.1369 98.0467 70.6197 97.9381 70.0967 97.9386H66.2786C65.3352 97.9378 64.4264 98.2918 63.7343 98.9297C63.0422 99.5677 62.6179 100.442 62.5464 101.378C62.4548 100.518 62.4151 99.6521 62.4276 98.7866C62.46 97.2566 63.0943 95.8004 64.194 94.7309C65.2938 93.6613 66.7713 93.0638 68.309 93.0668Z" fill="#773E41"/>
<path d="M30.2315 70.1198L60.8801 58.0989L63.1052 58.3883C64.018 62.4548 65.2393 66.091 66.8652 68.1242C66.8652 68.1242 42.538 77.6488 30.2315 70.1198Z" fill="#773E41"/>
<path d="M45.1499 32.3635C47.5268 28.4354 52.058 24.2431 60.5741 24.2431H90.004C92.5831 24.3513 103.206 25.5013 106.993 37.0894C108.655 42.1649 108.344 48.1288 105.431 52.6106C103.36 55.7963 99.5291 59.045 93.6628 59.9836C93.123 60.0619 92.5726 60.0202 92.0508 59.8618C91.5291 59.7033 91.0491 59.4319 90.6453 59.067C90.2414 58.7021 89.9237 58.2528 89.7149 57.7513C89.5061 57.2497 89.4114 56.7085 89.4376 56.1662V56.0681C89.4732 55.3436 89.7204 54.6451 90.1489 54.0582C90.5773 53.4714 91.1684 53.0216 91.8498 52.7641C94.4745 51.7424 97.5113 49.6991 97.357 44.7116C97.1446 37.7487 91.1216 36.3596 89.425 36.1029L88.2542 63.7004C88.2542 63.7004 80.8633 68.864 74.4281 71.6824C73.7128 71.9913 72.924 72.0917 72.1536 71.9719C71.3833 71.852 70.6629 71.5169 70.0764 71.0055C67.2015 68.5168 61.9345 63.7079 60.0684 60.3485L60.5741 36.0224V35.7078C60.5741 35.7078 55.3198 36.3722 53.077 40.6325C52.3027 42.1261 52.0247 43.8257 52.283 45.4866C52.5662 47.3563 53.5473 49.8224 56.6372 51.0932C57.3764 51.3845 58.0116 51.8884 58.462 52.5405C58.9123 53.1925 59.1573 53.9633 59.1657 54.7545C59.1682 55.3454 59.0365 55.9292 58.7804 56.4623C58.5243 56.9954 58.1504 57.464 57.6867 57.833C57.2229 58.2021 56.6814 58.462 56.1025 58.5935C55.5237 58.7249 54.9224 58.7244 54.3438 58.5921C49.6482 57.4622 43.9615 54.2714 42.6947 45.2702C42.055 40.8187 42.811 36.2237 45.1499 32.3635Z" fill="url(#paint1_linear_1_175)"/>
<path d="M81.6926 46.4251H83.9051C84.1184 46.4251 84.3229 46.3408 84.4737 46.1907C84.6245 46.0406 84.7092 45.8371 84.7092 45.6249C84.7095 45.5196 84.689 45.4153 84.6487 45.3179C84.6085 45.2205 84.5493 45.132 84.4746 45.0574C84.3999 44.9828 84.3111 44.9237 84.2134 44.8833C84.1157 44.8429 84.0109 44.8221 83.9051 44.8221H81.6926C81.5868 44.8221 81.4821 44.8429 81.3843 44.8833C81.2866 44.9237 81.1979 44.9828 81.1232 45.0574C81.0485 45.132 80.9893 45.2205 80.949 45.3179C80.9088 45.4153 80.8882 45.5196 80.8885 45.6249C80.8885 45.8371 80.9733 46.0406 81.1241 46.1907C81.2748 46.3408 81.4794 46.4251 81.6926 46.4251Z" fill="#E8897B"/>
<path d="M65.9726 46.4251H68.1826C68.2884 46.4254 68.3932 46.405 68.4911 46.3649C68.5889 46.3248 68.6779 46.266 68.7528 46.1916C68.8277 46.1173 68.8872 46.0289 68.9277 45.9317C68.9683 45.8344 68.9892 45.7302 68.9892 45.6249C68.9892 45.412 68.9042 45.2078 68.7529 45.0573C68.6017 44.9067 68.3965 44.8221 68.1826 44.8221H65.9726C65.7587 44.8221 65.5535 44.9067 65.4023 45.0573C65.251 45.2078 65.166 45.412 65.166 45.6249C65.166 45.7302 65.1869 45.8344 65.2275 45.9317C65.268 46.0289 65.3275 46.1173 65.4024 46.1916C65.4774 46.266 65.5663 46.3248 65.6641 46.3649C65.762 46.405 65.8668 46.4254 65.9726 46.4251Z" fill="#E8897B"/>
<path d="M64.7892 29.0595V24.2481H76.9263V36.2715H72.0285C71.0772 36.2712 70.1354 36.0843 69.2568 35.7217C68.3781 35.359 67.5798 34.8277 66.9076 34.158C66.2353 33.4882 65.7022 32.6932 65.3388 31.8184C64.9753 30.9436 64.7885 30.0061 64.7892 29.0595Z" fill="#E8897B"/>
<path d="M60.0685 60.3611L60.5312 37.7537C60.5312 37.7537 61.5552 61.491 66.8526 68.1242C64.2482 65.6682 61.3555 62.6737 60.0685 60.3611Z" fill="#E8897B"/>
<path d="M75.5281 36.6213C77.8256 36.6213 80.029 35.713 81.6536 34.0962C83.2782 32.4794 84.1909 30.2865 84.1909 28.0001V8.62372C84.1916 7.49127 83.968 6.36978 83.5329 5.32337C83.0978 4.27695 82.4598 3.32613 81.6552 2.52525C80.8507 1.72436 79.8955 1.08911 78.8442 0.655818C77.7928 0.222521 76.666 -0.00033047 75.5281 3.67822e-07C74.3906 -0.000330153 73.2641 0.222355 72.2131 0.655337C71.1621 1.08832 70.2071 1.72311 69.4027 2.52347C68.5982 3.32382 67.9601 4.27405 67.5247 5.31988C67.0893 6.36571 66.8652 7.48666 66.8652 8.61869V27.995C66.8646 29.1276 67.0881 30.2492 67.5232 31.2958C67.9582 32.3423 68.5962 33.2933 69.4007 34.0944C70.2052 34.8955 71.1604 35.531 72.2118 35.9645C73.2631 36.3981 74.39 36.6213 75.5281 36.6213Z" fill="url(#paint2_linear_1_175)"/>
<path d="M84.1909 26.9306V27.7057C84.1909 32.2981 80.709 36.3067 76.0995 36.6037C74.9159 36.6819 73.7288 36.5174 72.6116 36.1204C71.4945 35.7235 70.4712 35.1025 69.605 34.2959C68.7388 33.4893 68.0483 32.5144 67.5761 31.4314C67.104 30.3485 66.8603 29.1806 66.8601 28.0001V26.9306C66.8601 25.798 67.0844 24.6765 67.52 23.6302C67.9557 22.5839 68.5943 21.6333 69.3992 20.8327C70.2042 20.0321 71.1597 19.3972 72.2113 18.9642C73.263 18.5312 74.39 18.3087 75.528 18.3094C76.6656 18.3094 77.7921 18.5324 78.8431 18.9656C79.8942 19.3989 80.8492 20.0339 81.6536 20.8345C82.458 21.635 83.0961 22.5854 83.5314 23.6314C83.9668 24.6774 84.1909 25.7984 84.1909 26.9306Z" fill="url(#paint3_linear_1_175)"/>
<path d="M77.3284 12.9821C77.3294 13.2412 77.4075 13.4942 77.5528 13.7091C77.6982 13.924 77.9043 14.0913 78.1451 14.1898C78.3859 14.2882 78.6506 14.3135 78.9058 14.2623C79.161 14.2111 79.3953 14.0859 79.579 13.9023C79.7628 13.7188 79.8877 13.4852 79.9382 13.231C79.9886 12.9768 79.9622 12.7135 79.8623 12.4742C79.7625 12.2349 79.5936 12.0305 79.3771 11.8866C79.1606 11.7428 78.9061 11.666 78.6457 11.666C78.4723 11.666 78.3006 11.7001 78.1404 11.7663C77.9803 11.8325 77.8348 11.9295 77.7124 12.0518C77.59 12.1741 77.4931 12.3192 77.4272 12.4788C77.3613 12.6385 77.3277 12.8095 77.3284 12.9821Z" fill="#333345"/>
<path d="M71.0904 12.9821C71.0909 13.2418 71.1687 13.4955 71.3141 13.7112C71.4594 13.9269 71.6657 14.0948 71.907 14.1939C72.1482 14.2929 72.4135 14.3186 72.6694 14.2676C72.9252 14.2166 73.1602 14.0913 73.3445 13.9075C73.5289 13.7237 73.6543 13.4897 73.705 13.2349C73.7558 12.9802 73.7295 12.7162 73.6295 12.4763C73.5295 12.2364 73.3604 12.0314 73.1434 11.8872C72.9264 11.743 72.6713 11.666 72.4103 11.666C72.2368 11.666 72.0649 11.7001 71.9046 11.7662C71.7443 11.8324 71.5987 11.9294 71.4761 12.0516C71.3535 12.1739 71.2563 12.319 71.1902 12.4786C71.124 12.6383 71.0901 12.8094 71.0904 12.9821Z" fill="#333345"/>
<path d="M85.0429 124.995H78.2158C77.7215 124.997 77.2346 124.876 76.7995 124.642C76.3644 124.409 75.9951 124.071 75.7251 123.659C74.7957 122.202 74.0556 120.633 73.5228 118.991H86.4412C86.6295 120.042 86.8777 121.082 87.1846 122.106C87.2878 122.44 87.3109 122.793 87.2521 123.137C87.1932 123.481 87.0541 123.807 86.8458 124.088C86.6375 124.369 86.3659 124.597 86.0527 124.755C85.7396 124.912 85.3937 124.995 85.0429 124.995Z" fill="#4D4D5F"/>
<path d="M62.4908 124.995H55.4311C54.8373 124.997 54.2544 124.837 53.7454 124.533C53.2364 124.228 52.8208 123.791 52.5435 123.269C51.8082 121.89 51.1736 120.46 50.6446 118.991H63.1027C63.3415 120.225 63.685 121.436 64.1293 122.612C64.2298 122.877 64.2646 123.162 64.2306 123.444C64.1965 123.725 64.0948 123.994 63.934 124.228C63.7732 124.462 63.558 124.654 63.3067 124.787C63.0555 124.921 62.7756 124.992 62.4908 124.995Z" fill="#4D4D5F"/>
<path d="M25.498 118.991C25.8451 120.043 26.259 121.071 26.737 122.071C26.888 122.379 26.9582 122.721 26.941 123.063C26.9238 123.406 26.8197 123.739 26.6385 124.031C26.4573 124.322 26.2048 124.564 25.9046 124.733C25.6044 124.901 25.2662 124.991 24.9215 124.995H18.4155C17.961 124.997 17.5131 124.887 17.1116 124.675C16.7101 124.463 16.3676 124.155 16.1145 123.78C15.1045 122.263 14.2264 120.664 13.4899 118.998L25.498 118.991Z" fill="#4D4D5F"/>
<defs>
<linearGradient id="paint0_linear_1_175" x1="88.2594" y1="91.547" x2="11.591" y2="91.547" gradientUnits="userSpaceOnUse">
<stop stop-color="#A06260"/>
<stop offset="1" stop-color="#82494C"/>
</linearGradient>
<linearGradient id="paint1_linear_1_175" x1="75.2347" y1="27.0564" x2="75.2347" y2="83.1975" gradientUnits="userSpaceOnUse">
<stop offset="0.01" stop-color="#FFC3B0"/>
<stop offset="1" stop-color="#E8897B"/>
</linearGradient>
<linearGradient id="paint2_linear_1_175" x1="75.5281" y1="7.79834" x2="75.5281" y2="30.8285" gradientUnits="userSpaceOnUse">
<stop offset="0.01" stop-color="#FFC3B0"/>
<stop offset="1" stop-color="#E8897B"/>
</linearGradient>
<linearGradient id="paint3_linear_1_175" x1="84.1909" y1="27.4666" x2="66.8652" y2="27.4666" gradientUnits="userSpaceOnUse">
<stop stop-color="#A06260"/>
<stop offset="1" stop-color="#82494C"/>
</linearGradient>
</defs>
</svg>
