<svg width="31" height="19" viewBox="0 0 31 19" fill="none" xmlns="http://www.w3.org/2000/svg">
<path d="M10.8672 10.9288C9.29463 10.1671 8.67892 8.24227 9.34541 6.62682C9.47876 6.30209 9.64633 5.99249 9.84527 5.70326C9.95217 5.55194 10.0096 5.37121 10.0096 5.18594C10.0096 5.00067 9.95217 4.81994 9.84527 4.66862C9.25881 3.82811 8.7241 2.95265 8.24411 2.0471C8.1925 1.95055 8.11564 1.86983 8.02173 1.81355C7.92783 1.75727 7.8204 1.72754 7.71092 1.72754C7.60144 1.72754 7.49402 1.75727 7.40012 1.81355C7.30621 1.86983 7.22935 1.95055 7.17773 2.0471C6.69775 2.95265 6.16304 3.82811 5.57657 4.66862C5.46967 4.81994 5.41228 5.00067 5.41228 5.18594C5.41228 5.37121 5.46967 5.55194 5.57657 5.70326C5.77682 5.99335 5.94546 6.30403 6.07961 6.63C6.74293 8.24861 6.12722 10.1703 4.55462 10.932C3.98652 11.2066 2.80906 11.4478 1.85693 11.4478L2.29967 14.7485H13.1222L13.6427 11.2002C12.689 11.2066 11.4353 11.2034 10.8672 10.9288Z" fill="#AD6D2A"/>
<path d="M26.3678 10.9288C24.7936 10.1671 24.1779 8.24539 24.8413 6.62678C24.9756 6.30191 25.1443 5.9923 25.3443 5.70321C25.4516 5.55207 25.5093 5.37128 25.5093 5.18589C25.5093 5.00051 25.4516 4.81971 25.3443 4.66857C24.7573 3.82844 24.2225 2.95294 23.7431 2.04705C23.6913 1.95055 23.6143 1.8699 23.5202 1.81369C23.4262 1.75747 23.3187 1.72778 23.2092 1.72778C23.0996 1.72778 22.9921 1.75747 22.8981 1.81369C22.8041 1.8699 22.727 1.95055 22.6752 2.04705C22.1958 2.95294 21.6611 3.82844 21.074 4.66857C20.9667 4.81971 20.909 5.00051 20.909 5.18589C20.909 5.37128 20.9667 5.55207 21.074 5.70321C21.2743 5.99331 21.4429 6.30399 21.577 6.62995C22.2404 8.24856 21.6247 10.1703 20.0505 10.932C19.484 11.2065 18.3049 11.4477 17.3528 11.4477L17.7987 14.7484H28.6228L29.1417 11.2002C28.1896 11.2065 26.9343 11.2033 26.3678 10.9288Z" fill="#AD6D2A"/>
<path d="M27.9547 4.49081C27.798 4.70825 27.7126 4.96897 27.7103 5.237C27.7081 5.50503 27.789 5.76716 27.9421 5.98723C28.2445 6.42297 28.4958 6.89207 28.6911 7.38527C29.5972 9.66085 28.6387 12.4633 26.4234 13.5043C25.6189 13.8819 24.5842 14.139 23.2497 14.139C21.8865 14.139 20.8328 13.8772 20.022 13.4836C17.7686 12.3935 16.8863 9.64022 17.8368 7.32338C18.026 6.85436 18.2649 6.40695 18.5493 5.98882C18.7035 5.76942 18.7856 5.50748 18.7841 5.23934C18.7827 4.9712 18.6979 4.71014 18.5414 4.49239C17.6173 3.15907 16.7808 1.76709 16.0373 0.325253C15.986 0.227159 15.9088 0.144987 15.8141 0.08765C15.7194 0.0303128 15.6108 0 15.5001 0C15.3894 0 15.2809 0.0303128 15.1862 0.08765C15.0915 0.144987 15.0143 0.227159 14.963 0.325253C14.2185 1.76622 13.381 3.15715 12.4557 4.48922C12.2988 4.70756 12.2135 4.96918 12.2115 5.23804C12.2095 5.50691 12.291 5.76977 12.4446 5.9904C12.7445 6.42436 12.9947 6.89066 13.1904 7.38051C14.114 9.69576 13.2174 12.3982 10.9688 13.4805C10.1579 13.8724 9.10741 14.1327 7.74746 14.1327C6.42559 14.1327 5.39571 13.8867 4.59433 13.5138C2.36318 12.476 1.39995 9.67037 2.30923 7.38527C2.50509 6.89237 2.75637 6.42334 3.05824 5.98723C3.21171 5.76734 3.29294 5.50513 3.29066 5.23699C3.28839 4.96885 3.20272 4.70806 3.04554 4.49081C2.35721 3.50532 1.72156 2.48405 1.14129 1.43131C1.07695 1.31043 0.973579 1.2149 0.848015 1.16027C0.72245 1.10565 0.582089 1.09514 0.449792 1.13047C0.317495 1.1658 0.201059 1.24488 0.119443 1.35483C0.0378269 1.46478 -0.00415885 1.59913 0.000325299 1.73599L0.000325299 17.4143C0.000325299 17.8234 0.162833 18.2157 0.452097 18.505C0.741362 18.7943 1.13369 18.9568 1.54277 18.9568H29.4575C29.6601 18.9568 29.8607 18.9169 30.0478 18.8394C30.2349 18.7618 30.405 18.6482 30.5482 18.505C30.6914 18.3618 30.805 18.1917 30.8826 18.0046C30.9601 17.8175 31 17.6169 31 17.4143V1.73599C31.0006 1.6017 30.9566 1.471 30.875 1.3644C30.7933 1.2578 30.6785 1.18134 30.5487 1.14702C30.4189 1.1127 30.2813 1.12247 30.1576 1.17478C30.034 1.2271 29.9311 1.319 29.8654 1.43607C29.2829 2.48733 28.6451 3.50701 27.9547 4.49081V4.49081Z" fill="#FFCA95"/>
<path d="M29.4576 18.9568C29.6601 18.9568 29.8607 18.9169 30.0478 18.8393C30.235 18.7618 30.405 18.6482 30.5482 18.505C30.6915 18.3618 30.8051 18.1917 30.8826 18.0046C30.9601 17.8174 31 17.6169 31 17.4143V1.73596C31.0007 1.60168 30.9567 1.47097 30.875 1.36438C30.7933 1.25778 30.6786 1.18132 30.5487 1.147C30.4189 1.11268 30.2814 1.12245 30.1577 1.17476C30.034 1.22708 29.9312 1.31898 29.8654 1.43604C29.2851 2.48879 28.6495 3.51006 27.9611 4.49554C27.8044 4.71298 27.719 4.97371 27.7167 5.24174C27.7145 5.50977 27.7954 5.7719 27.9484 5.99197C28.2509 6.42771 28.5022 6.89681 28.6975 7.39001C29.6036 9.66559 28.6451 12.468 26.4298 13.509C25.6253 13.8867 24.5906 14.1438 23.256 14.1438C21.8929 14.1438 20.8392 13.8819 20.0283 13.4884C17.775 12.3982 16.8927 9.64496 17.8432 7.32812C18.03 6.85772 18.2668 6.40871 18.5494 5.9888C18.7035 5.7694 18.7856 5.50746 18.7842 5.23932C18.7827 4.97118 18.6979 4.71012 18.5414 4.49237C17.6173 3.15905 16.7809 1.76707 16.0373 0.325231C15.9856 0.228268 15.9082 0.147386 15.8136 0.0914168C15.719 0.0354472 15.6109 0.00654145 15.501 0.00785538L15.501 16.6701C15.501 16.6701 15.4216 18.9631 18.1098 18.9631H29.4576V18.9568Z" fill="#FBB04D"/>
</svg>
