<svg width="108" height="110" viewBox="0 0 108 110" fill="none" xmlns="http://www.w3.org/2000/svg">
<path d="M69.1681 45.0263C69.1681 45.0263 75.743 47.5363 80.1115 51.2925C80.4198 51.5574 80.6269 51.9199 80.6979 52.319C80.7688 52.7181 80.6993 53.1293 80.501 53.4833C79.7928 54.7053 79.2374 56.7859 81.8465 58.6949C81.8465 58.6949 87.742 62.6977 90.6787 67.1782C90.9203 67.5714 90.9975 68.043 90.8936 68.4921C90.7898 68.9411 90.5132 69.3318 90.1232 69.5804C89.3752 70.0956 88.6958 71.0908 88.9747 72.9975C89.5346 76.8109 90.4508 90.0017 81.8465 94.6892C81.8465 94.6892 90.0148 71.0908 69.5686 57.8208L69.1681 45.0263Z" fill="url(#paint0_linear_219_722)"/>
<path d="M1.32995 5.36156C8.71039 6.14098 22.9512 9.4172 30.6857 22.8479C30.9604 23.3264 31.1332 23.8559 31.1933 24.4036C31.2535 24.9513 31.1997 25.5055 31.0354 26.0317C29.8802 29.7306 27.5454 39.1806 31.5643 45.0241L29.5305 46.8515C29.5305 46.8515 25.8392 43.4784 20.6674 42.448C20.4346 42.4042 20.2132 42.3138 20.0167 42.1821C19.8203 42.0504 19.6528 41.8802 19.5247 41.682C19.3965 41.4838 19.3102 41.2617 19.2712 41.0292C19.2321 40.7968 19.2411 40.5588 19.2975 40.3299C20.061 37.3157 19.9481 31.3732 8.87858 28.2687C8.48652 28.1609 8.14497 27.9196 7.9136 27.5867C7.68222 27.2539 7.57573 26.8508 7.61272 26.4478C7.96902 22.8479 8.03984 13.398 0.444736 7.47085C-0.482521 6.74426 0.150404 5.23386 1.32995 5.36156Z" fill="url(#paint1_linear_219_722)"/>
<path d="M53.1856 0.154463C48.3966 3.44169 39.8211 11.0003 39.5533 23.1342C39.5431 23.565 39.6219 23.9932 39.7848 24.3924C39.9477 24.7916 40.1913 25.1532 40.5005 25.4549C42.6892 27.573 47.8544 33.2095 47.2856 38.7315L49.3725 39.2313C49.3725 39.2313 50.645 35.5324 53.8163 32.8946C53.9602 32.7779 54.0787 32.6332 54.1644 32.4694C54.2502 32.3055 54.3015 32.126 54.3152 31.9417C54.3289 31.7575 54.3046 31.5724 54.244 31.3978C54.1833 31.2232 54.0875 31.0628 53.9623 30.9263C52.3026 29.134 50.1449 25.0013 56.598 18.7395C56.8277 18.5193 56.9724 18.2259 57.0068 17.9104C57.0412 17.5949 56.9631 17.2774 56.7861 17.0133C55.1972 14.6707 51.5811 8.18869 54.5731 1.28176C54.6477 1.09713 54.6611 0.893597 54.6112 0.700876C54.5614 0.508155 54.4509 0.336325 54.296 0.210457C54.1411 0.0845891 53.9498 0.0112701 53.75 0.00119714C53.5502 -0.00887578 53.3525 0.0448245 53.1856 0.154463Z" fill="url(#paint2_linear_219_722)"/>
<path d="M100.221 31.4349C98.776 22.6278 93.2103 18.0966 87.8702 15.7782C84.0604 14.1333 79.9148 13.4042 75.7691 13.6498C71.6233 13.8953 67.594 15.1087 64.0072 17.1917C54.0486 22.9757 50.6892 33.3834 49.8593 36.598C49.7875 36.8769 49.6242 37.1241 49.3953 37.3003C49.1665 37.4766 48.8851 37.5719 48.5957 37.5712C39.3222 37.5712 30.4285 41.2363 23.8711 47.7603C17.3138 54.2843 13.6299 63.1327 13.6299 72.359V73.1759C13.6279 76.3942 14.2631 79.5815 15.4993 82.5556C16.7356 85.5297 18.5486 88.2324 20.8349 90.5092C23.1211 92.7861 25.8358 94.5926 28.8239 95.8255C31.812 97.0583 35.0149 97.6935 38.2498 97.6947H48.7041C54.7861 97.6947 60.619 95.2911 64.9198 91.0125C69.2206 86.734 71.6371 80.931 71.6377 74.88V36.7896C71.6374 35.9631 71.8008 35.1447 72.1186 34.3811C72.4363 33.6176 72.9022 32.9237 73.4896 32.3394C74.0769 31.755 74.7743 31.2915 75.5418 30.9753C76.3093 30.6592 77.1319 30.4967 77.9625 30.4969H78.3919C79.3004 30.4969 80.1718 30.856 80.8142 31.4952C81.4567 32.1344 81.8176 33.0013 81.8176 33.9053V40.5304C81.8176 40.8722 81.8976 41.2093 82.0513 41.515C82.2049 41.8207 82.428 42.0867 82.7028 42.2918C84.2741 43.4653 87.4077 46.5874 87.7928 53.0232C87.8142 53.3799 87.9714 53.7151 88.2325 53.9605C88.4936 54.206 88.8389 54.3432 89.1981 54.3442H93.0332C93.3923 54.3426 93.7373 54.2053 93.9982 53.9599C94.2592 53.7146 94.4166 53.3797 94.4385 53.0232C94.8214 46.5874 97.955 43.4653 99.5285 42.2918C99.8033 42.0867 100.026 41.8207 100.18 41.515C100.334 41.2093 100.414 40.8722 100.414 40.5304V32.6789C100.413 32.2569 100.348 31.8375 100.221 31.4349Z" fill="url(#paint3_linear_219_722)"/>
<path d="M71.6378 36.7939C71.6383 35.8868 71.8369 34.9905 72.2198 34.1672L59.9618 37.2211C59.9618 37.2211 50.738 66.2975 31.4138 66.5529C31.4138 66.5529 19.2134 67.6978 19.8729 52.5321C15.7964 58.3533 13.6148 65.2796 13.6233 72.3744V73.1912C13.6233 79.6896 16.2178 85.9218 20.8361 90.517C25.4544 95.1122 31.7183 97.694 38.2499 97.6946H48.7042C54.7862 97.6946 60.6191 95.291 64.9199 91.0125C69.2207 86.734 71.6372 80.931 71.6378 74.88V36.7939Z" fill="#734ACA"/>
<path d="M73.1537 26.9014C73.1537 26.9014 59.9685 26.9014 59.4861 40.9112V71.1788C59.4964 74.36 58.6432 77.485 57.0163 80.2237C53.3494 86.3446 44.9022 95.4664 27.2445 95.112C30.6607 96.814 34.4293 97.6984 38.2499 97.6946H48.7042C54.7862 97.6946 60.6191 95.291 64.9199 91.0125C69.2207 86.734 71.6372 80.931 71.6378 74.88V36.7895C71.6375 35.9631 71.8009 35.1447 72.1186 34.3811C72.4364 33.6175 72.9023 32.9237 73.4896 32.3393C74.077 31.7549 74.7744 31.2914 75.5419 30.9753C76.3094 30.6592 77.1319 30.4966 77.9626 30.4969H78.3919C79.3005 30.4969 80.1719 30.856 80.8143 31.4952C81.4568 32.1344 81.8177 33.0013 81.8177 33.9052V34.7441C81.8177 34.7441 82.8091 26.9014 73.1537 26.9014Z" fill="#EACFE8"/>
<path d="M77.9626 30.5013H78.392C79.3005 30.5013 80.1719 30.8604 80.8143 31.4996C81.4568 32.1388 81.8177 33.0057 81.8177 33.9096V34.7485C81.8177 34.7485 82.8092 26.9014 73.1537 26.9014C73.1537 26.9014 59.9685 26.9014 59.4861 40.9112V44.5155C61.8518 38.1062 65.6826 38.0996 65.6826 38.0996C69.2234 37.9389 70.8809 40.0217 71.64 41.6224V36.7939C71.6397 35.9677 71.8031 35.1495 72.1207 34.386C72.4383 33.6226 72.9039 32.9289 73.4911 32.3445C74.0782 31.7602 74.7753 31.2966 75.5426 30.9803C76.3098 30.6641 77.1321 30.5013 77.9626 30.5013Z" fill="#553F82"/>
<path d="M71.6378 74.88V66.5133C71.2334 68.272 70.6089 69.9733 69.7789 71.5774C67.7119 75.3842 62.4759 76.0668 59.6786 72.7553C59.5967 72.6585 59.5193 72.5484 59.4396 72.4449C59.2565 75.1925 58.4264 77.8587 57.0163 80.2281C53.3494 86.349 44.9022 95.4709 27.2445 95.1164C30.6607 96.8184 34.4293 97.7028 38.2499 97.6991H48.7042C51.7161 97.6991 54.6985 97.1088 57.481 95.962C60.2636 94.8152 62.7919 93.1344 64.9215 91.0154C67.0511 88.8964 68.7403 86.3808 69.8927 83.6123C71.0451 80.8438 71.6381 77.8766 71.6378 74.88Z" fill="#553F82"/>
<path d="M100.427 38.2295C100.427 38.2295 103.463 38.89 105.679 35.955C106.183 35.2581 106.492 34.4406 106.575 33.5859C106.694 32.5665 107.017 30.9658 107.865 29.7285C107.947 29.6168 107.994 29.4834 107.999 29.3453C108.005 29.2071 107.969 29.0704 107.897 28.9525C107.824 28.8345 107.718 28.7407 107.592 28.6828C107.466 28.625 107.325 28.6058 107.188 28.6276C105.824 28.8239 104.517 29.304 103.352 30.0366C102.187 30.7692 101.19 31.7377 100.427 32.8792V38.2295Z" fill="#734ACA"/>
<path d="M81.8465 38.2295C81.8465 38.2295 78.808 38.8901 76.595 35.9551C76.0865 35.2596 75.7734 34.4419 75.6877 33.586C75.5704 32.5666 75.2451 30.9659 74.3975 29.7285C74.3164 29.6165 74.2704 29.4831 74.2654 29.3451C74.2603 29.2072 74.2963 29.0708 74.3689 28.9531C74.4415 28.8355 74.5475 28.7418 74.6734 28.6839C74.7994 28.626 74.9398 28.6064 75.0769 28.6277C76.4407 28.8243 77.7476 29.3045 78.9124 30.037C80.0773 30.7696 81.074 31.738 81.8377 32.8793L81.8465 38.2295Z" fill="#734ACA"/>
<path d="M82.0257 33.4561C81.3413 33.4538 80.6858 33.1815 80.2029 32.699C79.72 32.2165 79.4491 31.5632 79.4497 30.8823V27.6545C79.4533 26.8045 79.2714 25.9639 78.9164 25.1907C78.3928 24.0994 77.7006 23.0964 76.8649 22.2183C76.5559 21.8921 76.3551 21.4794 76.2895 21.036C76.0682 19.4661 75.8115 15.6021 77.7744 12.6495C77.8698 12.5118 78.0068 12.4079 78.1655 12.353C78.3242 12.298 78.4965 12.2949 78.6571 12.344C78.8178 12.3931 78.9585 12.4919 79.0589 12.626C79.1592 12.7602 79.214 12.9226 79.2151 13.0898C79.2151 13.4333 79.2151 13.8076 79.2395 14.2039C79.3723 17.2644 80.5673 20.1487 82.4063 22.6059C83.5128 24.0832 84.8229 26.7562 84.6193 31.0452C84.5818 31.7019 84.2913 32.3189 83.8082 32.7679C83.3252 33.2169 82.6867 33.4634 82.0257 33.4561Z" fill="#E3F3FF"/>
<path d="M71.6377 56.3874V74.64C71.6621 77.523 71.0817 80.3793 69.9337 83.0265C68.0283 87.3133 64.0205 92.221 55.642 92.5975C55.642 92.5975 47.8322 92.9344 41.9787 91.0277C38.6747 89.9488 35.2622 89.1914 31.7856 89.1055C26.0759 88.9668 18.6114 90.2615 12.7978 96.4418C12.5268 96.7228 12.35 97.0805 12.2916 97.4656C12.2332 97.8506 12.2962 98.2443 12.4718 98.5923C12.6474 98.9403 12.9271 99.2257 13.2724 99.4092C13.6177 99.5926 14.0116 99.6651 14.4 99.6168C18.6999 99.0663 25.1221 98.8638 30.0262 101.389C30.4952 101.641 30.9469 101.923 31.3784 102.235C34.0849 104.108 45.8759 111.575 59.4838 109.701C59.4838 109.701 78.7703 109.111 84.6946 91.4262C86.7241 85.2727 86.6572 78.625 84.5042 72.5131C82.6342 67.1364 78.9296 60.4783 71.6377 56.3874Z" fill="url(#paint4_linear_219_722)"/>
<path d="M84.5065 72.5131C82.6342 67.1364 78.9296 60.4783 71.6377 56.3874V74.64C71.6621 77.523 71.0817 80.3793 69.9337 83.0265C69.8739 83.1608 69.8053 83.2951 69.7434 83.4316C67.807 102.633 54.115 107.514 45.2872 108.644C49.5053 109.787 54.3606 110.405 59.4882 109.701C59.4882 109.701 78.7747 109.111 84.699 91.4262C86.7279 85.2724 86.6602 78.6247 84.5065 72.5131Z" fill="#734ACA"/>
<path d="M100.221 31.4349C100.15 30.9945 100.06 30.5828 99.9689 30.1667C99.3249 34.5394 96.8065 35.4355 95.1976 36.8688C93.9738 37.9587 92.8474 39.4911 92.8474 41.1579C92.9612 41.9515 93.232 42.7148 93.6441 43.4037C94.3213 44.553 94.9719 46.6469 94.7882 50.3788C95.7332 45.6847 98.2162 43.2628 99.5507 42.2698C99.8253 42.0685 100.049 41.8058 100.202 41.5029C100.356 41.2 100.436 40.8653 100.436 40.526V32.6789C100.428 32.2558 100.356 31.8364 100.221 31.4349Z" fill="#734ACA"/>
<path d="M85.6086 37.1595C85.6291 37.9725 85.8143 38.773 86.1531 39.5132C86.3535 39.8938 86.63 40.2296 86.9657 40.4999C87.3013 40.7703 87.689 40.9694 88.1049 41.0852L88.6449 41.2504C88.7678 41.2837 88.8978 41.2811 89.0193 41.243C89.1408 41.2048 89.2487 41.1327 89.3301 41.0352C89.4116 40.9377 89.4631 40.819 89.4785 40.6932C89.494 40.5673 89.4727 40.4397 89.4173 40.3256C88.6963 38.9421 87.6958 37.7217 86.4784 36.7412C86.4 36.6766 86.3046 36.6358 86.2036 36.6236C86.1025 36.6114 86.0001 36.6284 85.9085 36.6724C85.8168 36.7165 85.7399 36.7858 85.6867 36.8722C85.6336 36.9585 85.6065 37.0583 85.6086 37.1595Z" fill="white"/>
<path d="M97.1385 37.1595C97.118 37.9725 96.9328 38.773 96.5941 39.5132C96.3936 39.8938 96.1171 40.2296 95.7814 40.4999C95.4458 40.7703 95.0581 40.9694 94.6422 41.0852L94.1022 41.2504C93.9793 41.2837 93.8493 41.2811 93.7278 41.243C93.6063 41.2048 93.4984 41.1327 93.417 41.0352C93.3355 40.9377 93.284 40.819 93.2686 40.6932C93.2531 40.5673 93.2744 40.4397 93.3298 40.3256C94.0515 38.9445 95.052 37.7264 96.2687 36.7478C96.3467 36.6836 96.4415 36.6429 96.5419 36.6305C96.6423 36.6181 96.7442 36.6344 96.8356 36.6777C96.9269 36.721 97.004 36.7893 97.0576 36.8746C97.1113 36.96 97.1393 37.0588 97.1385 37.1595Z" fill="white"/>
<path d="M100.192 33.4561C100.532 33.4561 100.868 33.3895 101.182 33.2602C101.496 33.1308 101.781 32.9412 102.021 32.7021C102.261 32.4631 102.451 32.1793 102.581 31.8671C102.711 31.5548 102.778 31.2202 102.777 30.8823V27.6545C102.774 26.8045 102.956 25.9639 103.311 25.1907C103.834 24.0994 104.526 23.0964 105.362 22.2183C105.671 21.8921 105.872 21.4794 105.937 21.036C106.159 19.4661 106.415 15.6021 104.453 12.6495C104.357 12.5118 104.22 12.4079 104.061 12.353C103.903 12.298 103.731 12.2949 103.57 12.344C103.409 12.3931 103.268 12.4919 103.168 12.626C103.068 12.7602 103.013 12.9226 103.012 13.0898C103.012 13.4333 103.012 13.8076 102.988 14.2039C102.857 17.2644 101.66 20.1487 99.8207 22.6059C98.7142 24.0832 97.404 26.7562 97.6076 31.0452C97.6451 31.7003 97.9344 32.316 98.4155 32.7648C98.8967 33.2136 99.5329 33.4611 100.192 33.4561Z" fill="#E3F3FF"/>
<defs>
<linearGradient id="paint0_linear_219_722" x1="68.4621" y1="53.9479" x2="79.1694" y2="70.3483" gradientUnits="userSpaceOnUse">
<stop stop-color="#C5C391"/>
<stop offset="1" stop-color="#DEE0B1"/>
</linearGradient>
<linearGradient id="paint1_linear_219_722" x1="27.4414" y1="41.5981" x2="19.2916" y2="25.0453" gradientUnits="userSpaceOnUse">
<stop stop-color="#C5C391"/>
<stop offset="1" stop-color="#DEE0B1"/>
</linearGradient>
<linearGradient id="paint2_linear_219_722" x1="47.8411" y1="34.1078" x2="48.5202" y2="13.1578" gradientUnits="userSpaceOnUse">
<stop stop-color="#C5C391"/>
<stop offset="1" stop-color="#DEE0B1"/>
</linearGradient>
<linearGradient id="paint3_linear_219_722" x1="57.0229" y1="20.2257" x2="57.0229" y2="158.492" gradientUnits="userSpaceOnUse">
<stop stop-color="#9A75E7"/>
<stop offset="1" stop-color="#8562CE"/>
</linearGradient>
<linearGradient id="paint4_linear_219_722" x1="23.0109" y1="91.2391" x2="122.705" y2="72.1099" gradientUnits="userSpaceOnUse">
<stop stop-color="#9A75E7"/>
<stop offset="1" stop-color="#8562CE"/>
</linearGradient>
</defs>
</svg>
