<svg width="21" height="30" viewBox="0 0 21 30" fill="none" xmlns="http://www.w3.org/2000/svg">
<path d="M10.5 0L8.71117 0C8.63909 1.70036e-05 8.56786 0.0154476 8.50229 0.0452472C8.43673 0.0750468 8.37836 0.11852 8.33114 0.172724C8.28392 0.226927 8.24895 0.290596 8.2286 0.35942C8.20825 0.428245 8.20299 0.500618 8.21318 0.57164L8.53008 2.80413H12.47L12.7869 0.57164C12.7971 0.500618 12.7918 0.428245 12.7715 0.35942C12.7511 0.290596 12.7161 0.226927 12.6689 0.172724C12.6217 0.11852 12.5633 0.0750468 12.4978 0.0452472C12.4322 0.0154476 12.361 1.70036e-05 12.2889 0L10.5 0Z" fill="#55B419"/>
<path d="M8.33105 1.40015L8.53025 2.80221H10.5002H12.4701L12.6693 1.40015H8.33105Z" fill="#418C12"/>
<path d="M15.2038 10.2071H15.2096H15.2005C15.085 10.1488 14.9692 10.0938 14.8532 10.0423C13.9168 9.61425 13.184 8.82438 12.9221 7.83238C12.8936 7.72552 12.8703 7.62381 12.8516 7.52854C12.7737 7.15585 12.7556 6.77324 12.7979 6.39491C12.854 5.92542 13.0068 5.47249 13.2467 5.06444C13.4866 4.65638 13.8085 4.30198 14.1923 4.02338H6.80787C7.19164 4.30198 7.51354 4.65638 7.75346 5.06444C7.99338 5.47249 8.14615 5.92542 8.20222 6.39491C8.24457 6.77324 8.22646 7.15585 8.14854 7.52854C8.12979 7.62381 8.10651 7.72616 8.07805 7.83238C7.81612 8.81923 7.08338 9.61103 6.14691 10.0423C6.02963 10.096 5.91387 10.1513 5.79961 10.2084H5.79056H5.79638C3.93087 11.1384 2.3861 12.6007 1.35927 14.4085C0.33245 16.2163 -0.129846 18.2877 0.031403 20.3583C0.429144 25.6105 4.79847 29.7897 10.0862 29.9918C12.4842 30.0863 14.8424 29.3602 16.7679 27.9344C18.6934 26.5085 20.07 24.4691 20.6684 22.1557C21.2668 19.8423 21.0508 17.3947 20.0565 15.2206C19.0622 13.0465 17.3495 11.2771 15.2038 10.2071Z" fill="url(#paint0_linear_209_2935)"/>
<path d="M14.177 2.32068H6.64446C6.41805 2.32068 6.20091 2.4102 6.04081 2.56956C5.88071 2.72892 5.79077 2.94505 5.79077 3.17041C5.79077 3.39578 5.88071 3.61191 6.04081 3.77127C6.20091 3.93062 6.41805 4.02015 6.64446 4.02015H14.177C14.4034 4.02015 14.6205 3.93062 14.7806 3.77127C14.9407 3.61191 15.0306 3.39578 15.0306 3.17041C15.0306 2.94505 14.9407 2.72892 14.7806 2.56956C14.6205 2.4102 14.4034 2.32068 14.177 2.32068Z" fill="#73D933"/>
<path d="M6.80786 4.02014C7.1687 4.27851 7.47319 4.60699 7.70294 4.98575H13.2972C13.5269 4.60699 13.8314 4.27851 14.1923 4.02014H6.80786Z" fill="#64AF34"/>
<path d="M18.788 19.9559C18.8212 19.3347 18.7843 18.7118 18.678 18.0987C18.5565 17.396 18.1771 16.7632 17.6135 16.3231C17.0498 15.883 16.342 15.667 15.6274 15.7169C13.3341 15.8817 10.9541 17.2374 10.2019 17.6996C10.0227 17.8125 9.83726 17.9153 9.6464 18.0073C7.10215 19.2111 5.13026 18.9729 3.78959 18.4264C3.61431 18.3553 3.42415 18.3283 3.23589 18.3476C3.04762 18.367 2.86703 18.4321 2.71003 18.5373C2.55302 18.6425 2.42443 18.7845 2.33559 18.9509C2.24674 19.1172 2.20037 19.3028 2.20056 19.4911V19.5105C2.19996 20.6424 2.43304 21.7623 2.88533 22.8008C3.33762 23.8393 3.99948 24.7743 4.82984 25.5476C5.6602 26.3209 6.64136 26.9162 7.71243 27.2964C8.78351 27.6767 9.92166 27.8338 11.0563 27.758C15.2154 27.4877 18.5687 24.1016 18.788 19.9559Z" fill="#91DA64"/>
<path d="M5.97302 11.7927C5.97302 11.7927 3.64996 12.2929 3.14356 15.1994C3.11817 15.3521 3.15421 15.5087 3.2439 15.6352C3.33358 15.7617 3.4697 15.8479 3.62279 15.8753C4.12207 15.9635 4.92014 15.9706 5.83268 15.471C6.23966 15.2421 6.60536 14.947 6.91466 14.5981C7.29817 14.1739 7.76576 13.5353 7.82785 12.8858C7.88993 12.2362 7.34603 11.7064 6.69865 11.7064C6.45413 11.7054 6.21042 11.7344 5.97302 11.7927Z" fill="white"/>
<path d="M6.17279 23.2329C6.70078 23.0152 6.9515 22.4127 6.7328 21.8871C6.51411 21.3616 5.9088 21.112 5.38081 21.3297C4.85282 21.5474 4.6021 22.1499 4.82079 22.6755C5.03949 23.201 5.6448 23.4506 6.17279 23.2329Z" fill="#4FA419"/>
<path d="M10.0476 20.3621C10.0476 20.4246 10.0289 20.4858 9.99401 20.5378C9.95908 20.5898 9.90945 20.6303 9.85139 20.6542C9.79333 20.6781 9.72945 20.6843 9.66783 20.6721C9.60622 20.6598 9.54964 20.6296 9.50525 20.5854C9.46087 20.5411 9.43068 20.4847 9.4185 20.4234C9.40632 20.362 9.4127 20.2984 9.43683 20.2407C9.46097 20.1829 9.50177 20.1336 9.55407 20.099C9.60638 20.0643 9.66784 20.0459 9.73067 20.046C9.77234 20.046 9.8136 20.0542 9.85209 20.0701C9.89058 20.086 9.92554 20.1093 9.95498 20.1386C9.98441 20.168 10.0077 20.2028 10.0236 20.2412C10.0395 20.2795 10.0477 20.3206 10.0476 20.3621Z" fill="#4FA419"/>
<path d="M13.9379 24.319C14.0939 23.362 13.441 22.4603 12.4796 22.3049C11.5182 22.1496 10.6122 22.7995 10.4562 23.7565C10.3001 24.7135 10.953 25.6152 11.9144 25.7705C12.8759 25.9259 13.7818 25.276 13.9379 24.319Z" fill="#4FA419"/>
<path d="M15.4177 19.882C15.8656 19.882 16.2287 19.5205 16.2287 19.0747C16.2287 18.6289 15.8656 18.2675 15.4177 18.2675C14.9698 18.2675 14.6067 18.6289 14.6067 19.0747C14.6067 19.5205 14.9698 19.882 15.4177 19.882Z" fill="#4FA419"/>
<defs>
<linearGradient id="paint0_linear_209_2935" x1="10.5001" y1="29.1395" x2="10.5001" y2="-2.37089" gradientUnits="userSpaceOnUse">
<stop offset="0.01" stop-color="#4D8A26"/>
<stop offset="1" stop-color="#A2F46E" stop-opacity="0.5"/>
</linearGradient>
</defs>
</svg>
