<svg width="60" height="92" viewBox="0 0 60 92" fill="none" xmlns="http://www.w3.org/2000/svg">
<path d="M10.4831 67.7605V83.0561C10.4831 83.2632 10.5481 83.4649 10.6688 83.6328C10.7895 83.8007 10.9598 83.9262 11.1556 83.9914C11.3514 84.0567 11.5627 84.0584 11.7595 83.9964C11.9563 83.9343 12.1286 83.8117 12.2521 83.6458L14.8786 80.1037C14.8999 80.074 14.928 80.0498 14.9605 80.0331C14.993 80.0165 15.0289 80.0078 15.0654 80.0078C15.1019 80.0078 15.1379 80.0165 15.1704 80.0331C15.2028 80.0498 15.2309 80.074 15.2523 80.1037L17.7438 83.5583C17.8652 83.7277 18.0371 83.8541 18.2346 83.9192C18.4322 83.9843 18.6453 83.9848 18.8431 83.9206C19.041 83.8564 19.2135 83.7309 19.3357 83.562C19.4579 83.3932 19.5235 83.1898 19.5232 82.9811V67.7605H10.4831Z" fill="#3E7CC4"/>
<path d="M41.1371 67.7605V91.3238C41.136 91.4717 41.1835 91.6157 41.2723 91.7337C41.3612 91.8516 41.4864 91.9368 41.6284 91.976C41.7704 92.0152 41.9214 92.0062 42.0579 91.9505C42.1943 91.8947 42.3086 91.7953 42.3829 91.6676C43.6909 89.4569 45.8773 86.1815 48.1964 84.5167C48.2838 84.4561 48.3553 84.3751 48.4048 84.2808C48.4543 84.1865 48.4804 84.0816 48.4809 83.975V67.7605H41.1371Z" fill="#224281"/>
<path d="M47.5569 0H57.1181C57.4966 0 57.8713 0.0748046 58.221 0.220142C58.5706 0.36548 58.8883 0.578505 59.1559 0.847054C59.4235 1.1156 59.6358 1.43442 59.7806 1.78529C59.9255 2.13617 60 2.51224 60 2.89202V66.4415C60.0003 66.8215 59.9259 67.1978 59.7812 67.5489C59.6365 67.9 59.4243 68.2191 59.1567 68.4879C58.889 68.7566 58.5712 68.9698 58.2215 69.1153C57.8717 69.2608 57.4968 69.3356 57.1181 69.3356H47.5569V0Z" fill="#224281"/>
<path d="M32.5455 1.74811H53.167C53.5898 1.74783 54.0085 1.83117 54.3992 1.99335C54.7899 2.15553 55.1449 2.39337 55.444 2.69329C55.743 2.99321 55.9803 3.34933 56.1421 3.74129C56.304 4.13326 56.3873 4.55339 56.3873 4.97767V66.104C56.3876 66.5284 56.3045 66.9488 56.1427 67.341C55.981 67.7332 55.7438 68.0896 55.4447 68.3897C55.1456 68.6898 54.7905 68.9279 54.3997 69.0902C54.0088 69.2525 53.59 69.3359 53.167 69.3356H32.5455V1.74811Z" fill="#B57B76"/>
<path d="M3.74351 5.21333e-06H34.4598L39.4429 7.31133C39.5548 7.47558 39.7138 7.60182 39.8988 7.67331C40.0839 7.74479 40.2862 7.75814 40.479 7.71158C40.6717 7.66503 40.8459 7.56077 40.9782 7.41263C41.1106 7.26449 41.195 7.07947 41.2202 6.88211L42.1088 0.00625573H48.4788C49.1947 0.00625573 49.8812 0.291633 50.3874 0.799607C50.8936 1.30758 51.1779 1.99654 51.1779 2.71492V66.627C51.1779 67.3454 50.8936 68.0343 50.3874 68.5423C49.8812 69.0503 49.1947 69.3357 48.4788 69.3357H3.56911C2.62252 69.3357 1.71471 68.9583 1.04537 68.2866C0.376032 67.6149 2.31297e-06 66.7039 2.31297e-06 65.754V3.75464C-0.000544661 3.26124 0.0959252 2.77259 0.283886 2.31667C0.471847 1.86075 0.747604 1.44654 1.09536 1.09775C1.44311 0.748964 1.85603 0.472464 2.31045 0.284093C2.76486 0.0957222 3.25185 -0.000817417 3.74351 5.21333e-06Z" fill="url(#paint0_linear_40_83)"/>
<path d="M32 35.5087C32 39.0744 29.1346 41.9649 25.6 41.9649C22.0654 41.9649 19.2 39.0744 19.2 35.5087C19.2 31.9431 22.0654 29.0526 25.6 29.0526C29.1346 29.0526 32 31.9431 32 35.5087ZM21.1099 35.5087C21.1099 38.0103 23.1202 40.0383 25.6 40.0383C28.0799 40.0383 30.0902 38.0103 30.0902 35.5087C30.0902 33.0072 28.0799 30.9792 25.6 30.9792C23.1202 30.9792 21.1099 33.0072 21.1099 35.5087Z" fill="#D9D9D9"/>
<path d="M53.0569 9.26984V31.6226L58.0545 10.8284C58.1 10.6436 58.1029 10.4508 58.063 10.2648C58.023 10.0787 57.9412 9.90429 57.8238 9.75477C57.7065 9.60524 57.5567 9.48459 57.3858 9.40199C57.2149 9.3194 57.0275 9.27705 56.8378 9.27817L53.0569 9.26984Z" fill="#DDAEA9"/>
<path fill-rule="evenodd" clip-rule="evenodd" d="M26.5513 20.8275C26.4575 20.6525 26.3182 20.5063 26.1482 20.4043C25.9782 20.3024 25.7839 20.2485 25.5858 20.2485C25.3878 20.2485 25.1935 20.3024 25.0235 20.4043C24.8535 20.5063 24.7142 20.6525 24.6204 20.8275L13.4937 41.503C13.4035 41.6708 13.3583 41.8592 13.3624 42.0498C13.3665 42.2404 13.4198 42.4266 13.5171 42.5904C13.6144 42.7541 13.7523 42.8898 13.9174 42.984C14.0825 43.0783 14.2692 43.128 14.4591 43.1282H36.7105C36.9005 43.128 37.0871 43.0783 37.2522 42.984C37.4173 42.8898 37.5553 42.7541 37.6525 42.5904C37.7498 42.4266 37.8031 42.2404 37.8072 42.0498C37.8113 41.8592 37.7661 41.6708 37.676 41.503L26.5513 20.8275ZM34.6067 40.9561L25.6 23.4035L16.5933 40.9561H34.6067Z" fill="#D9D9D9"/>
<path d="M5.73881 59.9699L6.0461 55.8027C6.06436 55.556 6.16384 55.3225 6.32887 55.1388C6.4939 54.9552 6.71511 54.8318 6.95769 54.7881C7.20026 54.7444 7.45042 54.7829 7.66879 54.8976C7.88715 55.0122 8.06133 55.1965 8.16389 55.4214L9.71279 58.8218C9.77463 58.9581 9.80852 59.1055 9.81243 59.2552C9.81635 59.405 9.79022 59.5539 9.73559 59.6933C9.68097 59.8327 9.59896 59.9596 9.49446 60.0666C9.38995 60.1735 9.26508 60.2582 9.12728 60.3157L7.2711 61.0867C7.09558 61.1602 6.90416 61.1872 6.71524 61.1651C6.52632 61.1429 6.34625 61.0724 6.19235 60.9602C6.03846 60.848 5.9159 60.698 5.83647 60.5246C5.75704 60.3511 5.72341 60.1601 5.73881 59.9699Z" fill="#224281"/>
<path d="M47.2704 11.0785C47.1726 11.0155 47.0622 10.9747 46.9471 10.9589C46.8319 10.9431 46.7147 10.9527 46.6036 10.987C46.4925 11.0213 46.3902 11.0795 46.3039 11.1576C46.2175 11.2356 46.1491 11.3316 46.1035 11.4389C45.7651 12.2453 45.4038 13.4079 45.8751 13.8809C46.0817 14.0967 46.2726 14.3272 46.4461 14.5706C46.5451 14.7095 46.6856 14.8132 46.8473 14.8667C47.009 14.9201 47.1834 14.9205 47.3453 14.8679C47.5072 14.8152 47.6482 14.7121 47.7479 14.5736C47.8475 14.4351 47.9006 14.2684 47.8995 14.0976V11.9181C47.8996 11.7829 47.8658 11.6498 47.8012 11.5311C47.7367 11.4124 47.6434 11.3119 47.5299 11.2389L47.2704 11.0785Z" fill="#224281"/>
<path d="M9.95984 32.4831C10.7903 26.3845 15.2045 21.2713 21.0803 19.5128C24.0096 18.6199 27.1371 18.6199 30.0664 19.5128C30.1575 19.5418 30.2534 19.5523 30.3485 19.5439C30.4437 19.5354 30.5362 19.5081 30.6208 19.4636C30.7053 19.419 30.7803 19.3581 30.8412 19.2842C30.9022 19.2104 30.9479 19.1252 30.9758 19.0336L31.4347 17.4854C31.4899 17.3039 31.4713 17.1078 31.383 16.94C31.2947 16.7721 31.1439 16.6461 30.9634 16.5895C27.9127 15.6723 24.6794 15.5498 21.5685 16.2337C18.4576 16.9176 15.5714 18.3852 13.1822 20.4983C13.0579 20.6102 12.9742 20.7603 12.9441 20.9251C12.9141 21.0899 12.9394 21.26 13.0161 21.4088L13.72 22.7944L12.5718 21.9839C12.4226 21.8776 12.24 21.8295 12.058 21.8487C11.8761 21.8679 11.7074 21.953 11.5835 22.0881C9.66516 24.2338 8.26291 26.7926 7.48463 29.5675C6.70635 32.3424 6.57277 35.2595 7.09419 38.0943C7.61561 40.9292 8.77812 43.6062 10.4923 45.9194C12.2064 48.2327 14.4265 50.1205 16.9818 51.4376C17.0795 51.4865 17.1865 51.5141 17.2956 51.5187C17.4048 51.5233 17.5136 51.5047 17.6152 51.4642C17.7167 51.4237 17.8085 51.3622 17.8847 51.2836C17.9609 51.2051 18.0197 51.1113 18.0573 51.0083L18.5847 49.5957C18.6503 49.4157 18.6481 49.2179 18.5785 49.0394C18.5089 48.861 18.3767 48.7142 18.2068 48.6268C15.348 47.1098 13.0233 44.7471 11.5481 41.8592C10.0728 38.9713 9.51832 35.698 9.95984 32.4831Z" fill="white"/>
<path d="M35.4128 19.2232L34.246 20.7401C34.1973 20.8029 34.1622 20.8751 34.1429 20.9522C34.1235 21.0293 34.1204 21.1096 34.1337 21.188C34.147 21.2664 34.1764 21.3412 34.22 21.4075C34.2636 21.4739 34.3206 21.5304 34.3872 21.5735C36.5782 23.05 38.3642 25.0555 39.581 27.4056C40.7979 29.7558 41.4065 32.3752 41.351 35.0231C41.189 42.5074 34.6633 49.6249 27.2448 50.4146C24.9295 50.6617 22.5885 50.3862 20.3931 49.6082C20.3121 49.5782 20.2254 49.5666 20.1394 49.5744C20.0533 49.5821 19.9701 49.6091 19.8957 49.6532C19.8213 49.6973 19.7577 49.7575 19.7094 49.8293C19.6611 49.9012 19.6294 49.983 19.6166 50.0687L19.3425 51.9689C19.323 52.1048 19.3513 52.2432 19.4225 52.3604C19.4938 52.4775 19.6035 52.566 19.7328 52.6107C22.3788 53.4807 25.184 53.7511 27.9466 53.4025C36.8371 52.3023 43.8113 44.8285 44.3491 35.8565C44.5513 32.5933 43.9047 29.3333 42.4728 26.3965C41.0408 23.4596 38.8727 20.9468 36.181 19.1045C36.0616 19.0238 35.9162 18.9912 35.7738 19.0132C35.6314 19.0352 35.5026 19.1102 35.4128 19.2232Z" fill="white"/>
<path d="M24.4 23H26.8V41.1579H24.4V23Z" fill="#D9D9D9"/>
<defs>
<linearGradient id="paint0_linear_40_83" x1="53.9415" y1="12.9287" x2="-28.8907" y2="76.7565" gradientUnits="userSpaceOnUse">
<stop offset="0.01" stop-color="#3D63AD"/>
<stop offset="1" stop-color="#819FEA"/>
</linearGradient>
</defs>
</svg>
