<svg width="60" height="92" viewBox="0 0 60 92" fill="none" xmlns="http://www.w3.org/2000/svg">
<path d="M10.4835 67.7606V83.0562C10.4835 83.2632 10.5485 83.465 10.6692 83.6329C10.7899 83.8007 10.9602 83.9262 11.156 83.9915C11.3518 84.0567 11.5631 84.0585 11.7599 83.9964C11.9567 83.9344 12.1291 83.8117 12.2525 83.6458L14.879 80.1037C14.9003 80.0741 14.9284 80.0499 14.9609 80.0332C14.9934 80.0165 15.0294 80.0078 15.0659 80.0078C15.1023 80.0078 15.1383 80.0165 15.1708 80.0332C15.2033 80.0499 15.2314 80.0741 15.2527 80.1037L17.7442 83.5583C17.8657 83.7277 18.0375 83.8541 18.2351 83.9192C18.4326 83.9843 18.6457 83.9848 18.8436 83.9207C19.0414 83.8565 19.2139 83.7309 19.3361 83.5621C19.4583 83.3933 19.524 83.1898 19.5236 82.9812V67.7606H10.4835Z" fill="#7A2B5A"/>
<path d="M41.1375 67.7606V91.3238C41.1364 91.4717 41.1839 91.6158 41.2727 91.7337C41.3616 91.8516 41.4867 91.9368 41.6288 91.976C41.7708 92.0152 41.9218 92.0062 42.0583 91.9505C42.1947 91.8947 42.309 91.7953 42.3833 91.6676C43.6913 89.4569 45.8777 86.1816 48.1969 84.5168C48.2842 84.4561 48.3557 84.3752 48.4052 84.2809C48.4547 84.1866 48.4808 84.0816 48.4813 83.975V67.7606H41.1375Z" fill="#5B153E"/>
<path d="M47.5569 0H57.1181C57.4966 0 57.8713 0.0748043 58.221 0.220141C58.5706 0.365479 58.8883 0.578502 59.1559 0.84705C59.4235 1.1156 59.6358 1.43441 59.7806 1.78529C59.9254 2.13616 60 2.51223 60 2.89201V66.4413C60.0003 66.8212 59.9259 67.1975 59.7812 67.5486C59.6365 67.8997 59.4243 68.2188 59.1566 68.4876C58.889 68.7563 58.5712 68.9696 58.2214 69.115C57.8717 69.2605 57.4967 69.3354 57.1181 69.3354H47.5569V0Z" fill="#5B153E"/>
<path d="M32.5452 1.74866H53.1667C53.5895 1.74838 54.0082 1.83172 54.3989 1.9939C54.7896 2.15607 55.1446 2.39392 55.4437 2.69383C55.7427 2.99375 55.9799 3.34987 56.1418 3.74183C56.3037 4.1338 56.387 4.55392 56.387 4.97821V66.1042C56.3873 66.5287 56.3041 66.949 56.1424 67.3412C55.9807 67.7335 55.7435 68.0898 55.4444 68.39C55.1453 68.6901 54.7902 68.9281 54.3994 69.0904C54.0085 69.2527 53.5897 69.3361 53.1667 69.3359H32.5452V1.74866Z" fill="#B57B76"/>
<path d="M3.74352 5.21331e-06H34.4599L39.4429 7.3113C39.5548 7.47555 39.7138 7.60179 39.8989 7.67327C40.0839 7.74476 40.2862 7.75811 40.479 7.71155C40.6718 7.665 40.8459 7.56074 40.9783 7.4126C41.1107 7.26446 41.195 7.07944 41.2202 6.88208L42.1089 0.00625571H48.4789C49.1947 0.00625571 49.8813 0.291632 50.3874 0.799603C50.8936 1.30757 51.178 1.99653 51.178 2.71491V66.6267C51.178 67.3451 50.8936 68.034 50.3874 68.542C49.8813 69.05 49.1947 69.3354 48.4789 69.3354H3.56911C2.62252 69.3354 1.71471 68.958 1.04537 68.2863C0.376033 67.6146 2.31297e-06 66.7036 2.31297e-06 65.7537V3.75462C-0.000544661 3.26123 0.0959254 2.77258 0.283887 2.31666C0.471848 1.86075 0.747605 1.44653 1.09536 1.09775C1.44311 0.748961 1.85603 0.472462 2.31045 0.284092C2.76487 0.0957218 3.25186 -0.000817414 3.74352 5.21331e-06Z" fill="url(#paint0_linear_25_925)"/>
<path d="M53.0572 9.26953V31.6222L58.0548 10.828C58.1003 10.6433 58.1032 10.4505 58.0632 10.2645C58.0232 10.0784 57.9414 9.90398 57.8241 9.75446C57.7067 9.60494 57.5569 9.48428 57.386 9.40169C57.2152 9.31909 57.0277 9.27674 56.8381 9.27787L53.0572 9.26953Z" fill="#DDAEA9"/>
<path d="M33.9616 34.604L37.6823 27.7032C37.7725 27.5354 37.8177 27.347 37.8136 27.1564C37.8095 26.9658 37.7562 26.7796 37.6589 26.6158C37.5616 26.4521 37.4237 26.3165 37.2586 26.2222C37.0935 26.1279 36.9068 26.0783 36.7169 26.078H29.3772L26.5514 20.8274C26.4576 20.6524 26.3183 20.5061 26.1483 20.4042C25.9783 20.3022 25.784 20.2484 25.586 20.2484C25.3879 20.2484 25.1936 20.3022 25.0236 20.4042C24.8536 20.5061 24.7143 20.6524 24.6205 20.8274L21.7947 26.078H14.4592C14.2693 26.0783 14.0826 26.1279 13.9175 26.2222C13.7524 26.3165 13.6144 26.4521 13.5172 26.6158C13.4199 26.7796 13.3666 26.9658 13.3625 27.1564C13.3584 27.347 13.4036 27.5354 13.4938 27.7032L17.2061 34.604L13.4938 41.5028C13.4036 41.6706 13.3584 41.859 13.3625 42.0496C13.3666 42.2402 13.4199 42.4264 13.5172 42.5902C13.6144 42.7539 13.7524 42.8895 13.9175 42.9838C14.0826 43.0781 14.2693 43.1277 14.4592 43.128H21.7926L24.6184 48.3786C24.7122 48.5536 24.8515 48.6999 25.0215 48.8018C25.1915 48.9037 25.3859 48.9576 25.5839 48.9576C25.7819 48.9576 25.9763 48.9037 26.1462 48.8018C26.3162 48.6999 26.4555 48.5536 26.5494 48.3786L29.3772 43.128H36.7106C36.9006 43.1277 37.0872 43.0781 37.2524 42.9838C37.4175 42.8895 37.5554 42.7539 37.6527 42.5902C37.75 42.4264 37.8032 42.2402 37.8074 42.0496C37.8115 41.859 37.7662 41.6706 37.6761 41.5028L33.9616 34.604ZM34.7319 28.3637L32.6681 32.1975L30.6043 28.3637H34.7319ZM31.3746 34.604L28.0173 40.8423H23.1484L19.7911 34.604L23.1484 28.3637H28.0152L31.3746 34.604ZM25.5839 23.8423L26.786 26.078H24.3796L25.5839 23.8423ZM16.4358 28.3637H20.5635L18.4996 32.1975L16.4358 28.3637ZM16.4358 40.8423L18.4996 37.0085L20.5635 40.8423H16.4358ZM25.5839 45.3741L24.3796 43.1384H26.786L25.5839 45.3741ZM32.6681 37.0189L34.7319 40.8527H30.6043L32.6681 37.0189Z" fill="white"/>
<path d="M5.7393 59.9695L6.04659 55.8023C6.06485 55.5557 6.16432 55.3221 6.32936 55.1385C6.49439 54.9548 6.7156 54.8314 6.95818 54.7877C7.20075 54.744 7.45091 54.7826 7.66928 54.8972C7.88764 55.0119 8.06182 55.1961 8.16438 55.421L9.71328 58.8214C9.77512 58.9577 9.80901 59.1051 9.81292 59.2549C9.81684 59.4046 9.79071 59.5536 9.73608 59.6929C9.68146 59.8323 9.59945 59.9592 9.49495 60.0662C9.39044 60.1731 9.26557 60.2578 9.12777 60.3153L7.27158 61.0863C7.09607 61.1598 6.90465 61.1868 6.71573 61.1647C6.52681 61.1425 6.34674 61.072 6.19284 60.9598C6.03895 60.8476 5.91639 60.6976 5.83696 60.5242C5.75753 60.3507 5.7239 60.1597 5.7393 59.9695Z" fill="#5B153E"/>
<path d="M47.2696 11.0789C47.1718 11.016 47.0615 10.9752 46.9464 10.9594C46.8313 10.9436 46.7142 10.9532 46.6031 10.9875C46.4921 11.0218 46.3898 11.08 46.3035 11.158C46.2171 11.2361 46.1488 11.3321 46.1032 11.4394C45.7649 12.2457 45.4038 13.4084 45.8749 13.8814C46.0814 14.0972 46.2722 14.3277 46.4457 14.571C46.5446 14.71 46.6851 14.8137 46.8467 14.8672C47.0083 14.9206 47.1827 14.921 47.3445 14.8683C47.5064 14.8156 47.6473 14.7126 47.7469 14.5741C47.8465 14.4356 47.8996 14.2689 47.8985 14.0981V11.9186C47.8986 11.7834 47.8648 11.6503 47.8003 11.5316C47.7357 11.4129 47.6424 11.3124 47.5291 11.2394L47.2696 11.0789Z" fill="#5B153E"/>
<path d="M9.96021 32.4836C10.7907 26.385 15.2049 21.2718 21.0807 19.5133C24.01 18.6204 27.1375 18.6204 30.0668 19.5133C30.1579 19.5423 30.2538 19.5529 30.3489 19.5444C30.4441 19.536 30.5366 19.5087 30.6212 19.4641C30.7057 19.4195 30.7807 19.3586 30.8416 19.2848C30.9026 19.211 30.9483 19.1258 30.9762 19.0341L31.4351 17.486C31.4903 17.3045 31.4718 17.1084 31.3835 16.9405C31.2952 16.7727 31.1443 16.6467 30.9638 16.59C27.9131 15.6728 24.6798 15.5504 21.5689 16.2342C18.458 16.9181 15.5718 18.3858 13.1826 20.4988C13.0583 20.6107 12.9746 20.7608 12.9445 20.9256C12.9145 21.0904 12.9398 21.2606 13.0165 21.4094L13.7203 22.7949L12.5722 21.9844C12.423 21.8781 12.2403 21.83 12.0584 21.8492C11.8765 21.8684 11.7077 21.9535 11.5839 22.0886C9.66553 24.2343 8.26328 26.7931 7.48499 29.568C6.70671 32.3429 6.57314 35.2599 7.09456 38.0948C7.61598 40.9296 8.77849 43.6066 10.4926 45.9198C12.2068 48.2331 14.4269 50.1208 16.9822 51.4379C17.0799 51.4868 17.1869 51.5145 17.296 51.5191C17.4052 51.5237 17.514 51.5051 17.6155 51.4646C17.717 51.4241 17.8089 51.3625 17.8851 51.284C17.9613 51.2054 18.0201 51.1116 18.0577 51.0087L18.585 49.596C18.6507 49.4161 18.6485 49.2183 18.5789 49.0398C18.5093 48.8614 18.3771 48.7146 18.2072 48.6272C15.3484 47.1102 13.0237 44.7475 11.5484 41.8596C10.0732 38.9718 9.51869 35.6984 9.96021 32.4836Z" fill="white"/>
<path d="M35.4125 19.2228L34.2456 20.7396C34.197 20.8024 34.1618 20.8746 34.1425 20.9517C34.1232 21.0288 34.1201 21.1091 34.1333 21.1875C34.1466 21.2659 34.176 21.3407 34.2196 21.407C34.2633 21.4734 34.3202 21.5299 34.3868 21.573C36.5778 23.0495 38.3639 25.055 39.5807 27.4051C40.7976 29.7553 41.4062 32.3747 41.3506 35.0225C41.1887 42.5068 34.6629 49.6243 27.2444 50.414C24.9292 50.6611 22.5882 50.3856 20.3927 49.6076C20.3117 49.5775 20.225 49.566 20.139 49.5737C20.053 49.5815 19.9697 49.6084 19.8954 49.6525C19.821 49.6966 19.7573 49.7568 19.7091 49.8287C19.6608 49.9006 19.6291 49.9824 19.6162 50.0681L19.3421 51.9683C19.3226 52.1041 19.3509 52.2426 19.4222 52.3597C19.4934 52.4769 19.6032 52.5654 19.7325 52.6101C22.3784 53.4801 25.1836 53.7505 27.9462 53.4018C36.8368 52.3017 43.811 44.8279 44.3487 35.856C44.551 32.5927 43.9044 29.3328 42.4724 26.3959C41.0405 23.4591 38.8723 20.9463 36.1807 19.104C36.0612 19.0233 35.9158 18.9907 35.7735 19.0127C35.6311 19.0347 35.5022 19.1097 35.4125 19.2228Z" fill="white"/>
<defs>
<linearGradient id="paint0_linear_25_925" x1="53.9415" y1="12.9286" x2="-28.8904" y2="76.7566" gradientUnits="userSpaceOnUse">
<stop offset="0.01" stop-color="#78264D"/>
<stop offset="1" stop-color="#93486F"/>
</linearGradient>
</defs>
</svg>
