<svg width="18" height="32" viewBox="0 0 18 32" fill="none" xmlns="http://www.w3.org/2000/svg">
<path d="M10.973 0L5.19864 5.60565L2.84668 14.5456L6.41088 28.9487L11.4716 32L12.3989 28.736L14.3235 8.44361L10.973 0Z" fill="#5B153E"/>
<path d="M14.323 8.44363L10.7588 4.61243L5.83984 11.4234L11.4711 32L12.3984 28.736L14.323 8.44363Z" fill="url(#paint0_linear_209_2657)"/>
<path d="M14.323 8.44361L10.9725 0L10.7588 4.6124L14.323 8.44361Z" fill="#F49FD3"/>
<path d="M10.7589 4.6124L10.9726 0L5.19824 5.60565L5.83998 11.4234L10.7589 4.6124Z" fill="#A03774"/>
<path d="M5.83984 11.4233L6.41035 28.9487L11.4711 32L5.83984 11.4233Z" fill="#A03774"/>
<path d="M1.14624 2.45282C1.14624 2.45282 1.31223 4.0536 0 4.78992C0 4.78992 1.31223 5.21922 1.38608 6.77122C1.38608 6.77122 1.44163 4.99221 2.45848 4.45884C2.45848 4.45884 1.31223 3.99896 1.14624 2.45282Z" fill="#FFE9FB"/>
<path d="M16.6873 13.8411C16.6873 13.8411 16.8532 15.4418 15.541 16.1775C15.541 16.1775 16.8532 16.6075 16.9271 18.1588C16.9271 18.1588 16.9826 16.3805 17.9995 15.8464C17.9995 15.8464 16.8532 15.3866 16.6873 13.8411Z" fill="#FFE9FB"/>
<path d="M2.37476 22.5559C2.37476 22.5559 2.5414 24.1567 1.22852 24.893C1.22852 24.893 2.5414 25.3223 2.61525 26.8737C2.61525 26.8737 2.6708 25.0953 3.68765 24.5613C3.68765 24.5613 2.5414 24.1014 2.37476 22.5559Z" fill="#FFE9FB"/>
<defs>
<linearGradient id="paint0_linear_209_2657" x1="15.313" y1="25.9683" x2="5.31971" y2="1.97411" gradientUnits="userSpaceOnUse">
<stop stop-color="#CC5697"/>
<stop offset="1" stop-color="#E585BE"/>
</linearGradient>
</defs>
</svg>
