<svg width="31" height="30" viewBox="0 0 31 30" fill="none" xmlns="http://www.w3.org/2000/svg">
<path d="M0.0303742 7.51591C0.315297 8.17522 0.734529 9.36615 0.732976 10.6615C0.73074 10.7366 0.754316 10.8101 0.79979 10.8699C0.845264 10.9297 0.909899 10.9723 0.982963 10.9904C1.33776 11.0678 1.93012 11.3193 1.93012 12.162C1.93012 12.162 1.93012 12.9173 1.23994 13.2183C1.17614 13.2451 1.12249 13.2914 1.08665 13.3505C1.05082 13.4095 1.03463 13.4784 1.04041 13.5472C1.18404 14.9439 1.8323 21.8164 1.60405 27.227C1.60405 27.227 2.2756 27.6735 2.92385 28.0782C2.97099 28.1078 3.02434 28.126 3.07972 28.1316C3.13511 28.1371 3.19103 28.1298 3.24313 28.1103C3.29522 28.0907 3.34207 28.0594 3.38002 28.0188C3.41796 27.9782 3.44598 27.9295 3.46187 27.8763C3.58841 27.4491 3.77785 26.7875 3.91215 26.2079C3.91215 26.2079 4.3508 27.4894 4.38728 28.808C4.39016 28.8982 4.42725 28.984 4.49108 29.048C4.5549 29.1121 4.64071 29.1496 4.73121 29.1531C5.64964 29.1972 8.21317 29.1376 9.98792 27.3392C9.98792 27.3392 13.5592 24.4931 17.007 25.7335C17.007 25.7335 21.5028 17.5309 17.628 4.33777C16.752 4.3403 15.879 4.4397 15.0249 4.63415C14.9334 4.65569 14.8505 4.70406 14.7868 4.77303C14.7232 4.84199 14.6817 4.92839 14.6678 5.02106C14.5964 5.53876 14.4349 6.59272 14.202 7.24507C14.1921 7.27181 14.1739 7.29473 14.1501 7.31053C14.1263 7.32634 14.0981 7.3342 14.0695 7.333C14.041 7.33179 14.0135 7.32158 13.9911 7.30383C13.9687 7.28608 13.9526 7.26171 13.945 7.23423C13.8433 6.87053 13.6818 6.27855 13.5335 5.6796C13.5189 5.61835 13.4921 5.56064 13.4546 5.50992C13.4172 5.45919 13.3699 5.41647 13.3156 5.38429C13.2613 5.3521 13.2011 5.33111 13.1385 5.32255C13.0759 5.31399 13.0123 5.31805 12.9513 5.33447C12.2844 5.51632 10.9273 6.00306 8.96002 7.26905C8.96002 7.26905 6.1434 9.04887 3.10552 7.83473C2.87261 7.74187 2.64669 7.64746 2.41068 7.57008C1.75137 7.34646 1.07679 7.17035 0.392156 7.04309C0.331719 7.03342 0.269781 7.04027 0.212936 7.0629C0.156091 7.08553 0.106467 7.1231 0.0693457 7.17161C0.0322248 7.22013 0.00899687 7.27777 0.00213422 7.33839C-0.00472844 7.39902 0.00503113 7.46037 0.0303742 7.51591Z" fill="url(#paint0_linear_5_1048)"/>
<path d="M17.0047 25.7343C17.0047 25.7343 21.5005 17.5316 17.6257 4.3385C17.101 4.34045 16.5769 4.37638 16.0567 4.44606C16.4954 6.93007 18.0659 17.3823 15.0801 25.4224C15.7352 25.4095 16.3873 25.5152 17.0047 25.7343Z" fill="#F79A80"/>
<path d="M5.15297 11.8462C5.05102 11.8629 4.95835 11.9152 4.8915 11.9938C4.82466 12.0723 4.78801 12.172 4.78809 12.2749V14.3241C4.78809 14.4391 4.83387 14.5494 4.91538 14.6308C4.99689 14.7121 5.10747 14.758 5.22285 14.7582H5.37812C5.43785 14.7582 5.49696 14.746 5.55175 14.7223C5.60653 14.6985 5.65583 14.6638 5.69655 14.6202C5.73727 14.5767 5.76855 14.5252 5.78843 14.4691C5.80831 14.4129 5.81637 14.3533 5.8121 14.2939L5.65683 12.2448C5.65264 12.1846 5.63591 12.1259 5.60772 12.0726C5.57952 12.0192 5.54047 11.9723 5.49307 11.9348C5.44566 11.8973 5.39093 11.87 5.33238 11.8548C5.27382 11.8395 5.21272 11.8366 5.15297 11.8462Z" fill="#E2526F"/>
<path d="M7.03857 12.3469V13.8768C7.03852 13.9269 7.0522 13.976 7.07813 14.0189C7.10405 14.0618 7.14125 14.0968 7.18569 14.1201C7.23013 14.1435 7.28013 14.1543 7.33028 14.1513C7.38043 14.1484 7.42882 14.1319 7.47023 14.1035L8.19457 13.6075C8.29549 13.5384 8.37032 13.4376 8.40718 13.3212C8.44404 13.2049 8.4408 13.0795 8.39797 12.9652C8.36331 12.8744 8.30519 12.7943 8.2295 12.7331L7.48964 12.1372C7.44946 12.1042 7.40072 12.0831 7.34904 12.0765C7.29737 12.07 7.24488 12.0781 7.19767 12.1001C7.15046 12.122 7.11046 12.1569 7.0823 12.2006C7.05414 12.2442 7.03898 12.295 7.03857 12.3469Z" fill="#E2526F"/>
<path d="M8.84375 11.755V11.8625C8.84385 11.9548 8.87787 12.0439 8.93938 12.1129C9.00089 12.1819 9.08563 12.2261 9.17758 12.2371C9.23074 12.2435 9.28468 12.2387 9.33581 12.2228C9.38695 12.2069 9.43411 12.1804 9.47419 12.145C9.51427 12.1096 9.54634 12.0661 9.56828 12.0174C9.59022 11.9687 9.60154 11.9159 9.60147 11.8625V11.755C9.60152 11.67 9.57281 11.5875 9.51997 11.5208C9.46714 11.4541 9.39328 11.4071 9.31034 11.3874C9.25466 11.3742 9.19671 11.3737 9.14083 11.386C9.08495 11.3984 9.03259 11.4231 8.98769 11.4585C8.94279 11.4939 8.90651 11.5389 8.88158 11.5903C8.85665 11.6416 8.84372 11.6979 8.84375 11.755Z" fill="#E2526F"/>
<path d="M11.6968 10.7087C11.6339 10.7368 11.5813 10.7837 11.5462 10.8429C11.5112 10.9021 11.4954 10.9707 11.5011 11.0392L11.6254 12.5017C11.6334 12.6085 11.669 12.7114 11.7288 12.8003C11.7886 12.8893 11.8706 12.9613 11.9666 13.0092C12.0627 13.0572 12.1696 13.0795 12.2769 13.0739C12.3841 13.0684 12.4882 13.0352 12.5787 12.9776C12.6765 12.9157 12.7728 12.8515 12.8605 12.7857C12.9277 12.7358 12.9841 12.6729 13.0262 12.6008C13.0684 12.5286 13.0954 12.4487 13.1058 12.3659C13.1162 12.283 13.1096 12.199 13.0866 12.1187C13.0635 12.0385 13.0244 11.9637 12.9716 11.8989L12.0935 10.8039C12.0472 10.7465 11.9832 10.7061 11.9114 10.6889C11.8397 10.6716 11.7642 10.6786 11.6968 10.7087Z" fill="#E2526F"/>
<path d="M13.1638 10.5013L13.6382 11.163C13.6641 11.1989 13.6995 11.227 13.7403 11.2441C13.7812 11.2613 13.8261 11.2669 13.8699 11.2604C13.9138 11.2538 13.955 11.2353 13.9891 11.207C14.0231 11.1786 14.0486 11.1414 14.0629 11.0995L14.184 10.7358C14.1974 10.6955 14.1999 10.6523 14.1911 10.6107C14.1824 10.5692 14.1628 10.5306 14.1343 10.499L13.7523 10.0757C13.7151 10.0345 13.6647 10.0073 13.6096 9.99885C13.5546 9.99038 13.4983 10.0011 13.4503 10.0293L13.2376 10.1554C13.2089 10.1723 13.1839 10.195 13.1645 10.222C13.145 10.249 13.1313 10.2797 13.1244 10.3122C13.1175 10.3448 13.1174 10.3784 13.1242 10.4109C13.131 10.4435 13.1445 10.4743 13.1638 10.5013Z" fill="#E2526F"/>
<path d="M16.794 8.87785L15.8709 9.02333C15.827 9.02997 15.7848 9.04534 15.7468 9.06853C15.7089 9.09172 15.6761 9.12227 15.6502 9.15835C15.6244 9.19443 15.6061 9.23532 15.5964 9.27859C15.5867 9.32186 15.5858 9.36663 15.5938 9.41025C15.6582 9.76002 15.77 10.3319 15.9043 10.8805C15.9214 10.9482 15.9593 11.0088 16.0128 11.0538C16.0662 11.0988 16.1325 11.1259 16.2023 11.1313C16.2721 11.1367 16.3418 11.1201 16.4016 11.0838C16.4614 11.0476 16.5082 10.9935 16.5355 10.9293L17.2086 9.33519C17.2308 9.28428 17.2398 9.22863 17.2349 9.17334C17.23 9.11804 17.2112 9.06487 17.1803 9.01868C17.1494 8.97249 17.1074 8.93476 17.0581 8.90894C17.0088 8.88312 16.9537 8.87004 16.8981 8.87089H16.8414C16.8254 8.8719 16.8096 8.87423 16.794 8.87785Z" fill="#E2526F"/>
<path d="M5.26623 20.572L5.23518 20.8398C5.22307 20.9458 5.24504 21.0529 5.29792 21.1456C5.3508 21.2384 5.43186 21.312 5.52942 21.3559C5.62271 21.3976 5.72652 21.41 5.82705 21.3915C5.92759 21.373 6.02009 21.3244 6.09228 21.2522L6.32518 21.0201C6.39757 20.9483 6.44625 20.8562 6.4647 20.756C6.48315 20.6559 6.4705 20.5526 6.42844 20.4598L6.41136 20.4211C6.37175 20.3326 6.30726 20.2575 6.22569 20.2047C6.14413 20.152 6.04898 20.1239 5.95176 20.124H5.77009C5.64536 20.1232 5.5248 20.1687 5.43172 20.2514C5.33865 20.3342 5.27968 20.4484 5.26623 20.572Z" fill="#E2526F"/>
<path d="M5.52154 23.1118L5.6279 22.5028C5.63869 22.4408 5.67109 22.3846 5.71938 22.3441C5.76768 22.3036 5.82876 22.2814 5.89186 22.2814H7.22953C7.29145 22.2812 7.35153 22.3024 7.39955 22.3414C7.44757 22.3803 7.48057 22.4347 7.49292 22.4951C7.50528 22.5556 7.49623 22.6185 7.46731 22.6731C7.4384 22.7276 7.39141 22.7706 7.33433 22.7945L5.88953 23.4035C5.84521 23.4221 5.79667 23.4285 5.74902 23.422C5.70136 23.4155 5.65634 23.3963 5.61869 23.3665C5.58105 23.3366 5.55216 23.2972 5.53506 23.2524C5.51797 23.2076 5.5133 23.159 5.52154 23.1118Z" fill="#E2526F"/>
<path d="M9.62993 19.2565L9.89311 21.6129C9.89706 21.65 9.90881 21.686 9.92762 21.7183C9.94642 21.7506 9.97184 21.7787 10.0022 21.8006C10.0326 21.8225 10.0673 21.8378 10.104 21.8454C10.1407 21.8531 10.1786 21.8529 10.2153 21.845C10.4753 21.7967 10.7285 21.7169 10.9691 21.6074C11.0148 21.583 11.0522 21.5458 11.0769 21.5005C11.1016 21.4551 11.1125 21.4035 11.1081 21.3521L11.0149 20.1077C11.0122 20.0704 11.0173 20.033 11.03 19.9978C11.0428 19.9626 11.0627 19.9305 11.0887 19.9034L11.4055 19.573C11.4528 19.523 11.4791 19.4568 11.4792 19.3881V19.0244C11.4793 18.9857 11.4709 18.9475 11.4546 18.9123C11.4384 18.8772 11.4147 18.846 11.3851 18.8209C11.3556 18.7958 11.3209 18.7774 11.2836 18.767C11.2462 18.7565 11.207 18.7543 11.1687 18.7605L9.85274 18.9648C9.78525 18.9759 9.72458 19.0123 9.68315 19.0665C9.64172 19.1207 9.62268 19.1887 9.62993 19.2565Z" fill="#E2526F"/>
<path d="M12.4234 18.7458L12.4793 19.0886C12.4874 19.1364 12.5083 19.1812 12.54 19.2181C12.5716 19.255 12.6127 19.2827 12.6589 19.2981C12.705 19.3135 12.7545 19.3161 12.8021 19.3057C12.8496 19.2952 12.8934 19.2721 12.9288 19.2387C12.955 19.2137 12.9759 19.1837 12.9902 19.1505C13.0045 19.1172 13.0119 19.0814 13.0119 19.0452V18.6932C13.0119 18.6541 13.0034 18.6154 12.9868 18.58C12.9702 18.5446 12.9461 18.5132 12.916 18.4881C12.8859 18.463 12.8507 18.4448 12.8128 18.4348C12.7749 18.4248 12.7353 18.4231 12.6967 18.43L12.6408 18.4401C12.5715 18.4524 12.5099 18.4914 12.4693 18.5485C12.4286 18.6057 12.4121 18.6766 12.4234 18.7458Z" fill="#E2526F"/>
<path d="M14.1276 18.2738L13.5391 20.572C13.5282 20.6146 13.528 20.6591 13.5385 20.7017C13.5489 20.7444 13.5698 20.7838 13.5992 20.8164C13.6286 20.8491 13.6656 20.8741 13.707 20.8891C13.7484 20.9041 13.7929 20.9087 13.8365 20.9025L14.2898 20.8382C14.3421 20.8312 14.391 20.8088 14.4304 20.7739C14.4698 20.7391 14.4979 20.6933 14.5111 20.6425C14.5825 20.3716 14.7906 19.8624 15.3651 19.7456C15.4171 19.7344 15.4645 19.7078 15.5011 19.6693C15.5377 19.6307 15.5617 19.5821 15.5701 19.5297L15.6345 19.1389C15.6424 19.0914 15.6372 19.0427 15.6196 18.9979C15.602 18.953 15.5725 18.9138 15.5343 18.8843L14.5546 18.1298C14.5195 18.1019 14.478 18.0832 14.4338 18.0755C14.3896 18.0678 14.3442 18.0712 14.3016 18.0855C14.2591 18.0999 14.2209 18.1246 14.1905 18.1575C14.1601 18.1904 14.1385 18.2304 14.1276 18.2738Z" fill="#E2526F"/>
<path d="M18.1576 17.1943L17.3424 17.5812C17.2861 17.6081 17.241 17.6537 17.2148 17.7102C17.1885 17.7667 17.1829 17.8305 17.1988 17.8907L17.6824 19.6992C17.6978 19.7566 17.732 19.8073 17.7795 19.8432C17.827 19.8791 17.8852 19.8982 17.9449 19.8974C18.0045 19.8966 18.0622 19.876 18.1087 19.8388C18.1553 19.8016 18.188 19.75 18.2018 19.6922C18.3641 18.9958 18.5427 18.0819 18.5419 17.4295C18.5412 17.3847 18.5292 17.3407 18.5069 17.3018C18.4847 17.2628 18.4529 17.2301 18.4146 17.2066C18.3763 17.1831 18.3326 17.1697 18.2877 17.1675C18.2427 17.1654 18.198 17.1746 18.1576 17.1943Z" fill="#C7304D"/>
<path d="M17.3871 10.547L17.1837 11.101C17.1759 11.122 17.1738 11.1446 17.1777 11.1666C17.1815 11.1886 17.1911 11.2092 17.2056 11.2263C17.22 11.2434 17.2388 11.2564 17.2599 11.2638C17.281 11.2713 17.3038 11.2731 17.3258 11.269L17.7419 11.1916C17.7608 11.1881 17.7785 11.1803 17.794 11.169C17.8094 11.1577 17.8221 11.143 17.831 11.1261C17.84 11.1093 17.845 11.0906 17.8457 11.0715C17.8464 11.0524 17.8428 11.0334 17.8351 11.0159L17.6224 10.5385C17.6122 10.5153 17.5953 10.4957 17.5738 10.4822C17.5523 10.4688 17.5272 10.4621 17.5018 10.463C17.4765 10.4639 17.452 10.4724 17.4315 10.4874C17.4111 10.5024 17.3956 10.5231 17.3871 10.547Z" fill="#C7304D"/>
<path d="M17.0044 3.46563C17.0044 3.46563 18.03 2.11452 20.3971 1.00639C22.1393 0.189881 24.0714 -0.13938 25.9868 0.0537962C26.9029 0.14743 27.802 0.36333 28.2561 0.813702C28.2561 0.813702 27.9456 3.33408 26.8633 6.93396C26.8633 6.93396 19.3731 7.65982 17.0044 3.46563Z" fill="#A34F46"/>
<path d="M21.9312 3.49042L22.2813 6.67552C23.7905 6.95825 25.3302 7.04512 26.8618 6.93398C27.9448 3.3341 28.2546 0.813721 28.2546 0.813721C28.2546 0.813721 26.6801 3.71947 21.9312 3.49042Z" fill="#F79A80"/>
<path d="M30.9999 4.9816C30.9999 4.9816 29.6708 3.6181 26.8853 3.49042L26.2339 6.98196C26.2339 6.98196 30.0334 6.89839 30.9999 4.9816Z" fill="#A34F46"/>
<path d="M26.0407 2.73438C25.8187 3.85799 25.3078 5.50316 24.0703 6.9185C25 6.99786 25.9346 7.00303 26.8652 6.93398C27.9482 3.3341 28.258 0.813721 28.258 0.813721C28.258 0.813721 27.6462 1.93888 26.0407 2.73438Z" fill="#CE735F"/>
<path d="M17.0047 3.46564C17.0047 3.46564 21.7964 8.01424 31.0001 4.98158C31.0001 4.98158 29.3271 21.7367 26.4367 27.7261C26.4367 27.7261 24.7621 29.523 23.0727 29.9873C23.0171 30.0014 22.959 30.0038 22.9023 29.9942C22.8457 29.9847 22.7917 29.9634 22.7438 29.9318C22.6958 29.9001 22.6551 29.8588 22.6242 29.8105C22.5933 29.7623 22.5728 29.7081 22.5642 29.6514L22.2537 27.7261C21.9924 28.4366 21.6717 29.1238 21.2949 29.7807C21.246 29.8652 21.1686 29.9297 21.0766 29.9629C20.9845 29.996 20.8836 29.9956 20.7918 29.9617C19.965 29.6522 17.7035 28.7708 16.0258 27.7517C15.8604 27.6519 15.7391 27.4933 15.6865 27.3078C15.6339 27.1224 15.6539 26.924 15.7424 26.7526C16.8603 24.5882 20.2181 16.5984 17.0047 3.46564Z" fill="url(#paint1_linear_5_1048)"/>
<path d="M25.2866 6.01696C25.9077 6.58495 26.9325 7.85095 26.8005 9.95268C26.8005 9.95268 26.6748 17.674 25.2804 25.3025C25.0584 26.5166 24.5646 27.6758 23.772 28.6245C23.647 28.7739 23.5119 28.9225 23.3659 29.0679C23.3377 29.097 23.3029 29.1191 23.2646 29.1324C23.2262 29.1457 23.1852 29.1497 23.1449 29.1443C23.1046 29.1389 23.0662 29.1241 23.0327 29.1012C22.9992 29.0782 22.9716 29.0478 22.9521 29.0122L22.2534 27.7261L22.564 29.6514C22.5726 29.708 22.593 29.7623 22.6239 29.8105C22.6549 29.8588 22.6956 29.9001 22.7435 29.9317C22.7914 29.9634 22.8454 29.9847 22.9021 29.9942C22.9587 30.0038 23.0168 30.0014 23.0725 29.9873C24.7618 29.523 26.4364 27.7261 26.4364 27.7261C29.3268 21.7366 30.9998 4.98157 30.9998 4.98157C28.854 5.68885 26.9488 5.98059 25.2866 6.01696Z" fill="#F79A80"/>
<path d="M16.9031 8.87398H16.8464C16.8291 8.87241 16.8117 8.87241 16.7944 8.87398L16.6392 8.89874C16.6826 9.37929 16.7215 9.88693 16.7548 10.4155L17.2121 9.33209C17.2329 9.28159 17.2409 9.22676 17.2354 9.17245C17.2299 9.11814 17.211 9.06603 17.1804 9.02073C17.1499 8.97543 17.1086 8.93834 17.0602 8.91274C17.0118 8.88714 16.9579 8.87383 16.9031 8.87398Z" fill="#9C304D"/>
<defs>
<linearGradient id="paint0_linear_5_1048" x1="0.698041" y1="9.7461" x2="24.1004" y2="25.6967" gradientUnits="userSpaceOnUse">
<stop offset="0.01" stop-color="#FFDDCD"/>
<stop offset="1" stop-color="#F79A80"/>
</linearGradient>
<linearGradient id="paint1_linear_5_1048" x1="17.8471" y1="10.9819" x2="39.2614" y2="31.5109" gradientUnits="userSpaceOnUse">
<stop offset="0.01" stop-color="#FFDDCD"/>
<stop offset="1" stop-color="#F79A80"/>
</linearGradient>
</defs>
</svg>
