<svg width="92" height="45" viewBox="0 0 92 45" fill="none" xmlns="http://www.w3.org/2000/svg">
<path d="M17.624 18.6992L19.8584 12.0513L11.679 11.0817C12.0143 10.4069 12.2682 9.6952 12.4355 8.96143C13.1735 5.6905 10.0885 2.67567 6.90008 3.76599C5.9074 4.10442 4.94425 4.84166 4.29292 6.29602C4.29292 6.29602 3.5438 8.52238 5.03097 10.1469C5.07743 10.2 5.10787 10.2651 5.11882 10.3346C5.12977 10.4041 5.12077 10.4753 5.09287 10.5399C5.06497 10.6046 5.01928 10.6602 4.96102 10.7004C4.90277 10.7405 4.83429 10.7636 4.76343 10.767C3.37773 10.8311 1.02335 11.3159 0.20965 13.8331C0.0224121 14.4371 -0.0403372 15.0723 0.0251373 15.7009C0.161677 17.1644 0.947701 19.57 4.69331 19.6011C5.17827 19.6032 5.66164 19.5461 6.13251 19.431C7.37244 19.1292 9.71944 17.8998 10.6457 16.0613L17.624 18.6992Z" fill="#E3EEFF"/>
<path d="M11.939 16.5571L17.6238 18.6993L19.8583 12.0513L17.1625 11.7311C16.3986 13.2751 14.8155 15.5985 11.939 16.5571Z" fill="#C7DAFF"/>
<path d="M9.75816 17.2797C7.45728 17.8084 2.23557 18.2859 1.27057 12.1117C0.779708 12.5927 0.416497 13.1866 0.213312 13.8405C0.0260743 14.4445 -0.0366751 15.0797 0.0287994 15.7083C0.165339 17.1718 0.951363 19.5774 4.69697 19.6085C5.18193 19.6106 5.66531 19.5535 6.13617 19.4384C7.51057 19.0394 8.75804 18.296 9.75816 17.2797Z" fill="#C7DAFF"/>
<path d="M61.5234 5.45821C61.5234 5.45821 53.3642 6.28875 48.6887 7.41016C47.9615 7.58652 47.2135 7.66346 46.4653 7.63884H46.4025C44.2643 7.54356 42.2435 6.64253 40.7528 5.11977L37.2083 1.53418C36.4923 0.807652 35.5735 0.309911 34.5701 0.104874C33.5667 -0.100163 32.5243 -0.00313385 31.5769 0.383499C28.2059 1.76834 23.0395 4.70999 19.4083 10.5713C17.5991 13.5286 16.6964 16.9437 16.8104 20.4006C16.91 24.0283 17.4875 29.0353 19.6593 32.3721C19.9795 32.8653 20.4268 33.2647 20.9549 33.5291C21.483 33.7935 22.0727 33.9132 22.6631 33.8759C26.1191 33.6527 34.1195 33.3508 38.4334 34.9278C38.8935 35.0976 39.3846 35.1693 39.8745 35.1381C41.0074 35.0631 43.2178 35.2058 44.5297 37.1816C44.6988 37.4468 44.8975 37.6922 45.122 37.9133C46.4745 39.1939 51.5966 43.5076 60.3259 44.5467L61.5234 5.45821Z" fill="url(#paint0_linear_209_2900)"/>
<path d="M21.5601 19.989C21.2298 20.8379 20.7704 22.1934 20.6836 23.3496C20.6537 23.7096 20.722 24.0709 20.8814 24.3957C21.0408 24.7205 21.2854 24.9967 21.5896 25.1955C21.9858 25.4476 22.4099 25.6539 22.8535 25.8101C22.9859 25.858 23.1274 25.8756 23.2676 25.8615C23.4078 25.8475 23.5429 25.8021 23.6629 25.7289C23.7829 25.6557 23.8847 25.5565 23.9605 25.4388C24.0363 25.3211 24.0843 25.1878 24.1008 25.0491C24.225 23.9392 24.2095 22.8184 24.0547 21.7123C23.9888 21.2453 23.7596 20.816 23.407 20.4994L22.5657 19.7549C22.49 19.688 22.3993 19.6402 22.3011 19.6155C22.2029 19.5908 22.1001 19.5899 22.0015 19.6128C21.9029 19.6358 21.8112 19.682 21.7344 19.7475C21.6576 19.8129 21.5978 19.8958 21.5601 19.989Z" fill="#FA6B5A"/>
<path d="M34.1362 8.65601L35.7378 10.9866C35.9343 11.2726 36.2117 11.4945 36.535 11.6247C36.8583 11.7549 37.2133 11.7875 37.5552 11.7184L38.2176 11.583C38.3529 11.556 38.473 11.4798 38.5546 11.3695C38.6362 11.2592 38.6733 11.1227 38.6586 10.9866C38.5792 10.3029 38.4175 9.63099 38.177 8.9853C38.049 8.65759 37.8295 8.37279 37.5443 8.16416C37.2591 7.95554 36.9198 7.83172 36.5662 7.80718C35.8906 7.75641 35.2122 7.75641 34.5366 7.80718C34.4423 7.81753 34.3522 7.85175 34.2751 7.90656C34.1979 7.96137 34.1363 8.03493 34.0961 8.12016C34.0559 8.2054 34.0384 8.29945 34.0455 8.39329C34.0525 8.48713 34.0837 8.5776 34.1362 8.65601Z" fill="#FA6B5A"/>
<path d="M19.8586 32.6374C20.1913 33.052 20.6199 33.3809 21.1082 33.5962C21.5965 33.8115 22.1299 33.9068 22.6632 33.8741C26.1192 33.6509 34.1196 33.349 38.4335 34.926C38.8936 35.0958 39.3847 35.1675 39.8746 35.1363C41.0075 35.0613 43.218 35.204 44.5298 37.1798C44.6989 37.445 44.8976 37.6905 45.1221 37.9115C46.4746 39.1921 51.5967 43.5058 60.326 44.5449L61.5235 5.45093C61.5235 5.45093 58.2281 5.78753 54.6245 6.31989C54.2297 12.8526 50.4435 31.8947 19.8586 32.6374Z" fill="#FF8E73"/>
<path d="M61.5236 5.45825C61.5236 5.45825 52.167 13.0063 49.5635 29.1378C49.2322 31.159 49.6575 33.2305 50.7592 34.9626C52.4198 37.5749 55.1875 41.4642 57.9681 43.579C58.6581 44.0964 59.4696 44.4313 60.3261 44.5522L63.0311 44.9455C63.7864 45.0554 64.5568 44.9988 65.2875 44.7796C66.0182 44.5605 66.6911 44.1843 67.2583 43.6777C70.7769 40.5422 77.6943 32.9722 76.7976 22.5264C76.7396 21.8295 76.4969 21.1602 76.0942 20.5861C75.6915 20.012 75.1429 19.5536 74.5041 19.2573C72.9394 18.5438 70.9559 17.0437 70.8138 13.9978C70.7615 13.1472 70.4201 12.3392 69.8452 11.7056C68.3451 10.0061 65.2859 6.9492 61.5236 5.45825Z" fill="#FA6B5A"/>
<path d="M63.9681 27.923C63.9681 27.8517 63.9681 27.7803 63.9681 27.7071C63.9978 27.048 64.1858 26.4054 64.5163 25.8327C64.8467 25.2601 65.3103 24.7739 65.8684 24.4145C66.4264 24.0551 67.0629 23.8329 67.725 23.7663C68.3871 23.6998 69.0556 23.7908 69.6751 24.0319C72.7417 25.2228 76.9467 26.7485 79.0852 27.0431C79.0852 27.0431 81.4489 21.1268 86.3864 21.3409C87.267 21.3858 88.1256 21.6297 88.8966 22.054C89.6676 22.4782 90.3306 23.0715 90.835 23.7886C91.6486 24.9189 92.0566 26.287 91.9938 27.6742C91.8904 29.9865 90.5029 32.1178 88.3478 33.0105C88.1246 33.1028 87.896 33.1816 87.6632 33.2465C87.2737 33.3553 86.9402 33.6064 86.73 33.9493C86.5198 34.2921 86.4484 34.7012 86.5303 35.0942C86.6651 35.748 86.7325 36.4136 86.7315 37.0809C86.7075 41.7513 81.4747 44.7808 77.3693 42.4904C76.2973 41.8922 75.3692 40.8952 74.9005 39.2634C74.7326 38.6816 74.6477 35.7711 75.9061 34.3588C75.9061 34.3588 71.2287 32.7965 67.3262 31.9806C65.3815 31.5726 63.9275 29.8932 63.9681 27.923Z" fill="#E3EEFF"/>
<path d="M86.663 37.9608C85.9454 38.5529 85.0808 38.9433 84.1592 39.0914C83.3676 39.2359 82.5532 39.2008 81.7773 38.9885C81.0013 38.7762 80.284 38.3923 79.6792 37.8657C77.8987 36.2705 78.0555 34.0972 78.4559 32.6337C78.5098 32.4482 78.5221 32.2534 78.492 32.0628C78.4619 31.8722 78.3901 31.6904 78.2816 31.5302C78.1731 31.37 78.0306 31.2353 77.8641 31.1355C77.6975 31.0357 77.5109 30.9732 77.3175 30.9524C72.7932 30.4896 66.7504 28.17 64.0584 27.0723C64.0137 27.2832 63.9859 27.4973 63.9753 27.7126V27.8773C63.9571 28.838 64.2796 29.7747 64.8866 30.5239C65.4935 31.273 66.3464 31.7873 67.2966 31.9769C71.2082 32.791 75.9133 34.3642 75.9133 34.3642C74.6549 35.7765 74.7398 38.6871 74.9059 39.2688C75.3764 40.9006 76.3045 41.8977 77.3765 42.4959C81.2125 44.6344 86.0375 42.119 86.663 37.9608Z" fill="#C7DAFF"/>
<defs>
<linearGradient id="paint0_linear_209_2900" x1="33.1232" y1="3.64895" x2="55.5679" y2="50.6316" gradientUnits="userSpaceOnUse">
<stop offset="0.01" stop-color="#FFC8A8"/>
<stop offset="1" stop-color="#FF8E73"/>
</linearGradient>
</defs>
</svg>
