<svg width="108" height="144" viewBox="0 0 108 144" fill="none" xmlns="http://www.w3.org/2000/svg">
<path d="M48.5802 91.7894C48.5802 91.7894 53.6752 122.26 48.5802 143.333C48.5505 143.453 48.5603 143.582 48.6078 143.695C48.6553 143.809 48.7376 143.9 48.8397 143.952C48.9419 144.004 49.0574 144.014 49.1656 143.98C49.2738 143.946 49.3676 143.871 49.4303 143.767C52.9094 137.949 60.5834 122.746 60.4834 101.99L48.5802 91.7894Z" fill="#C76266"/>
<path d="M59.4097 67.8079C59.4097 67.8079 65.4626 75.5339 75.0604 78.6126C75.161 78.6443 75.2683 78.6362 75.3641 78.5897C75.46 78.5432 75.5384 78.4612 75.5861 78.3576C75.6339 78.254 75.6479 78.1352 75.626 78.0213C75.604 77.9075 75.5474 77.8056 75.4656 77.733C71.4997 74.5077 62.6388 66.6585 59.8702 58.8093L59.4097 67.8079Z" fill="#C76266"/>
<path d="M63.2491 37.2554C63.2491 37.2554 67.723 56.0941 59.6673 61.2985C59.6673 61.2985 52.4433 57.4106 52.8855 46.5296C53.1223 40.6654 57.9146 35.8011 63.0359 37.2026L63.2491 37.2554Z" fill="#5D90C1"/>
<path d="M60.6886 35.9124V46.4093C60.6998 47.2378 60.5648 48.0607 60.2912 48.8312C59.7438 50.2973 58.449 52.1298 55.4147 52.1298C55.4147 52.1298 50.9855 49.3092 52.1093 41.7883C52.1093 41.7883 53.4462 35.0504 60.6886 35.9124Z" fill="#FFC3B0"/>
<path d="M50.33 53.4259C49.7246 52.8898 48.9685 52.6095 48.1955 52.6347C47.4225 52.66 46.6824 52.989 46.1061 53.5637C45.2286 54.4973 44.5536 55.6414 44.1324 56.9092C44.1324 56.9092 38.5269 75.0618 27.758 80.1519C27.2474 80.3952 27.3448 81.3247 27.8974 81.2837C32.2713 80.9436 39.7216 80.5682 46.4693 67.6758C46.4693 67.6758 48.2878 74.578 48.801 78.9615C48.851 79.419 48.8166 79.8831 48.6998 80.3253C48.583 80.7675 48.3864 81.1784 48.122 81.5329C46.4404 83.8405 43.2244 89.86 50.1511 95.4779L63.4201 106.327C63.555 106.437 63.6674 106.578 63.7497 106.74C63.8321 106.903 63.8825 107.083 63.8977 107.269C63.9128 107.454 63.8924 107.642 63.8378 107.818C63.7831 107.994 63.6955 108.155 63.5806 108.291C61.5384 110.71 55.8934 116.293 46.4246 117.53C46.2468 117.548 46.0808 117.637 45.9572 117.78C45.8336 117.924 45.7607 118.112 45.752 118.311C45.7434 118.509 45.7995 118.705 45.9101 118.861C46.0206 119.017 46.1781 119.124 46.3535 119.16C52.8933 120.673 65.3149 121.609 74.9653 110.76C75.7959 109.811 76.2667 108.543 76.28 107.218C76.2932 105.893 75.8478 104.613 75.0364 103.644L58.3672 83.5824C58.3672 83.5824 64.3833 65.8374 50.33 53.4259Z" fill="url(#paint0_linear_40_2)"/>
<path d="M75.0366 103.635L58.3674 83.5824C58.3674 83.5824 63.6676 67.9514 52.6829 55.7598C53.7856 58.2432 55.9831 63.046 56.3436 69.4732L57.7963 70.0039C57.7963 70.0039 58.3227 71.1151 57.1094 72.1355C56.8667 72.1515 56.6232 72.1515 56.3805 72.1355V72.1355C54.9965 72.0705 53.6871 71.4192 52.7198 70.3147C52.6817 70.2486 52.6217 70.202 52.5528 70.1852C52.484 70.1685 52.412 70.1829 52.3526 70.2252C52.2933 70.2676 52.2515 70.3345 52.2365 70.4112C52.2214 70.4879 52.2343 70.5682 52.2724 70.6343C53.2251 73.2732 55.5173 74.0824 56.2462 74.2789C55.9643 77.2199 55.3095 80.1015 54.3014 82.8376C54.1577 83.2205 54.1215 83.6428 54.1976 84.049C54.2738 84.4552 54.4586 84.8262 54.7277 85.1129C57.5779 88.0773 66.3072 97.2254 71.5838 103.409C72.2544 104.203 72.697 105.201 72.8549 106.277C73.036 107.215 73.0052 108.188 72.7654 109.109C72.7654 109.109 71.6732 113.068 66.4625 117.319C69.6438 115.752 72.5292 113.526 74.9655 110.76C75.7984 109.811 76.2707 108.541 76.2839 107.213C76.2972 105.886 75.8504 104.604 75.0366 103.635Z" fill="#E8897B"/>
<path d="M63.2097 36.7862C63.3331 37.1731 63.3738 37.5867 63.3284 37.9942C63.2831 38.4017 63.153 38.7917 62.9486 39.1334C62.7442 39.475 62.471 39.7588 62.1509 39.9621C61.8307 40.1655 61.4724 40.2828 61.1044 40.3047C59.3333 40.3956 57.1884 41.0055 55.6673 43.5564C53.7067 46.8403 54.0883 50.5084 56.47 53.4258C59.928 57.6656 65.1335 66.4677 60.9044 77.6156L60.3912 79.1432C60.317 79.4055 60.1624 79.6305 59.9544 79.7787C59.7465 79.9269 59.4984 79.989 59.2535 79.9541C59.0086 79.9191 58.7825 79.7894 58.6148 79.5876C58.4471 79.3858 58.3483 79.1247 58.3359 78.85C58.1069 76.1261 57.499 72.9653 56.0831 70.2062C55.1068 68.3032 54.4646 67.2301 52.633 64.9724C51.1434 63.1398 48.538 61.3337 46.8064 56.9443C45.4511 53.4991 45.1589 49.661 45.7116 45.949C46.5485 40.3311 48.6065 33.8042 53.6067 31.7049C55.5704 30.9108 57.7366 31.0162 59.6306 31.9981C61.0018 32.6754 62.386 34.2323 63.2097 36.7862Z" fill="#F0FFFF"/>
<path d="M58.4727 40.9234C59.3105 40.5456 60.2012 40.3342 61.1044 40.2988C61.4724 40.2769 61.8307 40.1596 62.1509 39.9562C62.4711 39.7529 62.7442 39.4691 62.9486 39.1275C63.1531 38.7859 63.2831 38.3958 63.3284 37.9883C63.3738 37.5808 63.3331 37.1672 63.2098 36.7803C62.3861 34.2294 61.0018 32.6754 59.6228 31.9746C58.4003 31.356 57.0598 31.083 55.72 31.18C57.7806 32.6431 59.6728 35.4814 58.4727 40.9234Z" fill="#A3CBFA"/>
<path d="M58.3358 78.8354C58.3483 79.1101 58.447 79.3712 58.6147 79.573C58.7825 79.7748 59.0085 79.9045 59.2534 79.9395C59.4983 79.9744 59.7464 79.9123 59.9544 79.7641C60.1623 79.6159 60.3169 79.3909 60.3911 79.1286L60.9043 77.601C64.1387 69.0715 61.8517 61.9201 59.0621 57.1291C60.699 61.2809 61.8728 71.4612 56.9384 72.1385C57.8516 74.8946 58.1305 76.3871 58.3358 78.8354Z" fill="#A3CBFA"/>
<path d="M14.0813 27.8551C27.1503 31.96 33.9979 43.2192 37.2402 50.7928C37.8402 52.1944 39.8087 51.6959 39.7271 50.1448C39.7258 50.1322 39.7258 50.1194 39.7271 50.1067C39.464 46.0252 38.5139 36.8214 35.0111 30.6523C34.6525 30.036 34.2559 29.4482 33.8242 28.893C30.6452 24.7529 16.6708 6.96391 4.92296 0.513303C4.67444 0.384385 4.41862 0.273707 4.15713 0.181977L4.12029 0.167316C3.67068 0.00560495 3.19389 -0.0396771 2.7262 0.0349176C2.25851 0.109512 1.81227 0.302017 1.42144 0.597775C1.03062 0.893534 0.705511 1.28475 0.470881 1.74163C0.236251 2.19852 0.0982815 2.70902 0.0674774 3.23429C-0.398333 11.5702 1.2649 23.844 14.0813 27.8551Z" fill="url(#paint1_linear_40_2)"/>
<path d="M104.001 12.4264C103.766 12.4866 103.535 12.564 103.309 12.6581C95.4822 16.0827 86.3502 24.4539 80.8737 29.9574C75.176 35.6691 71.5154 43.2163 70.5495 51.3763C70.5495 51.4115 70.5495 51.4467 70.5364 51.4819C70.4805 52.0059 70.5482 52.537 70.7328 53.0229C70.9174 53.5088 71.2125 53.9327 71.589 54.2527L72.0391 54.1266C74.4076 45.7672 79.592 37.9796 91.9952 34.5139C101.914 31.7401 106.127 22.6829 107.862 16.7102C108.57 14.2619 106.448 11.796 104.046 12.4264H104.001Z" fill="url(#paint2_linear_40_2)"/>
<path d="M38.7825 84.547C37.6061 84.9125 36.4856 85.4729 35.4587 86.2095C30.7216 89.6518 28.7347 93.0501 27.132 95.6655C25.8067 97.7569 25.2133 100.316 25.4635 102.861C25.4872 103.066 25.5161 103.268 25.5503 103.462C26.1109 106.743 28.4163 108.69 30.9427 109.074C31.1243 109.096 31.3081 109.069 31.4782 108.995C31.6483 108.92 31.7996 108.801 31.919 108.647C32.0384 108.493 32.1224 108.308 32.1637 108.11C32.2049 107.912 32.2023 107.705 32.1559 107.508C30.14 98.2018 35.9456 89.7544 39.4168 85.7022C39.5124 85.5905 39.5722 85.4466 39.5868 85.2931C39.6015 85.1395 39.5703 84.9849 39.498 84.8532C39.4256 84.7214 39.3163 84.62 39.1869 84.5647C39.0576 84.5093 38.9154 84.5031 38.7825 84.547V84.547Z" fill="url(#paint3_linear_40_2)"/>
<path d="M81.8317 90.3086C77.621 91.0739 72.3839 87.8955 68.7706 85.1335C68.6812 85.0664 68.5738 85.0355 68.4664 85.0459C68.359 85.0564 68.2581 85.1076 68.1805 85.191C68.1029 85.2744 68.0533 85.3849 68.04 85.5041C68.0267 85.6233 68.0505 85.744 68.1074 85.846C69.3733 88.0539 71.3892 91.3466 72.6813 92.842C73.5353 93.8238 74.4932 94.6863 75.5341 95.4105C78.7079 97.5656 82.5976 94.9707 82.7818 91.285C82.7902 91.1471 82.7708 91.0089 82.725 90.8805C82.6791 90.7521 82.608 90.6368 82.5168 90.5431C82.4256 90.4494 82.3168 90.3797 82.1982 90.3391C82.0796 90.2986 81.9544 90.2881 81.8317 90.3086V90.3086Z" fill="url(#paint4_linear_40_2)"/>
<defs>
<linearGradient id="paint0_linear_40_2" x1="51.1248" y1="65.7612" x2="54.9919" y2="186.663" gradientUnits="userSpaceOnUse">
<stop offset="0.01" stop-color="#FFC3B0"/>
<stop offset="1" stop-color="#E8897B"/>
</linearGradient>
<linearGradient id="paint1_linear_40_2" x1="4.19924" y1="6.36869" x2="40.4765" y2="42.9646" gradientUnits="userSpaceOnUse">
<stop stop-color="#DCEFFF"/>
<stop offset="1" stop-color="#B8E0F1"/>
</linearGradient>
<linearGradient id="paint2_linear_40_2" x1="104.351" y1="18.1675" x2="65.2398" y2="44.7034" gradientUnits="userSpaceOnUse">
<stop stop-color="#DCEFFF"/>
<stop offset="1" stop-color="#B8E0F1"/>
</linearGradient>
<linearGradient id="paint3_linear_40_2" x1="28.7426" y1="103.743" x2="37.176" y2="89.5149" gradientUnits="userSpaceOnUse">
<stop stop-color="#DCEFFF"/>
<stop offset="1" stop-color="#B8E0F1"/>
</linearGradient>
<linearGradient id="paint4_linear_40_2" x1="79.4" y1="93.2026" x2="71.5781" y2="89.1536" gradientUnits="userSpaceOnUse">
<stop stop-color="#DCEFFF"/>
<stop offset="1" stop-color="#B8E0F1"/>
</linearGradient>
</defs>
</svg>
