<svg width="21" height="23" viewBox="0 0 21 23" fill="none" xmlns="http://www.w3.org/2000/svg">
<path d="M20.5614 10.5198C20.6289 10.5835 20.6964 10.6632 20.7638 10.7588C20.865 10.8226 20.9325 10.8863 20.9663 10.9501C21.0337 11.0776 21 11.2051 20.865 11.3326C20.7638 11.4602 20.6457 11.5558 20.5108 11.6195C20.3758 11.7789 20.3084 11.9383 20.3084 12.0977C20.3421 12.2571 20.3084 12.4165 20.2071 12.5759C20.4433 12.8628 20.5108 13.0859 20.4096 13.2453C20.0047 13.2134 19.7685 13.1975 19.7011 13.1975C19.3637 13.1337 19.1444 13.2294 19.0431 13.4844C18.8745 13.5482 18.7395 13.5163 18.6383 13.3888C18.5371 13.2613 18.419 13.1337 18.284 13.0062C17.8117 13.0062 17.508 12.9265 17.3731 12.7672C17.2381 12.6078 17.0863 12.5599 16.9176 12.6237C16.6477 12.815 16.4621 12.8947 16.3609 12.8628C16.2934 12.8309 16.2091 12.799 16.1079 12.7672C15.9392 12.799 15.7874 12.815 15.6524 12.815C15.5174 12.7831 15.3825 12.799 15.2475 12.8628C14.9101 12.8628 14.5728 12.8309 14.2354 12.7672C13.9317 12.7034 13.6112 12.7193 13.2738 12.815C13.2063 13.2613 13.1726 13.5482 13.1726 13.6757C13.1726 13.7713 13.1726 13.8669 13.1726 13.9626C13.4762 14.5364 13.6112 14.9986 13.5775 15.3493C13.2401 15.8274 13.0376 16.2259 12.9702 16.5447C13.1389 16.7041 13.2907 16.8794 13.4256 17.0707C13.5943 17.262 13.6618 17.4373 13.6281 17.5967C13.6955 17.6923 13.7799 17.772 13.8811 17.8358C13.9823 17.8995 14.0161 17.9951 13.9823 18.1227C13.8474 18.3458 13.7462 18.5052 13.6787 18.6008C13.6449 18.6965 13.5943 18.808 13.5269 18.9356C13.5943 19.2862 13.5606 19.4615 13.4256 19.4615C13.3244 19.4615 13.2232 19.4615 13.122 19.4615C13.0208 19.5253 12.9027 19.5891 12.7677 19.6528C12.6665 19.6847 12.5653 19.7166 12.4641 19.7484C12.2616 19.7803 12.1098 19.7006 12.0086 19.5094C11.9411 19.2862 11.823 19.1746 11.6543 19.1746C11.4857 19.5572 11.2495 19.7484 10.9458 19.7484C10.6759 19.7166 10.4904 19.7006 10.3891 19.7006C10.1192 19.86 10.1024 20.115 10.3385 20.4657C10.2711 20.6888 10.153 20.8323 9.98428 20.896C9.9168 21.0554 9.88306 21.2308 9.88306 21.422C9.88306 21.5814 9.81558 21.7249 9.68063 21.8524C9.51193 21.9161 9.34324 21.9799 9.17455 22.0437C9.00585 22.1074 8.85403 22.1712 8.71907 22.2349C8.55038 22.3306 8.44916 22.474 8.41542 22.6653C8.38168 22.8247 8.28047 22.9362 8.11177 23C7.84186 22.9044 7.72378 22.8247 7.75752 22.7609C7.79125 22.6972 7.77439 22.6175 7.70691 22.5218C7.77439 22.3306 7.82499 22.1393 7.85873 21.948C7.89247 21.7568 7.8756 21.5177 7.80812 21.2308C7.94308 20.8164 7.95995 20.5773 7.85873 20.5135C7.79125 20.4498 7.74065 20.3541 7.70691 20.2266C7.80812 20.131 7.92621 20.0513 8.06117 19.9875C8.22986 19.8919 8.36481 19.7803 8.46603 19.6528C8.33108 19.334 8.28047 19.0949 8.31421 18.9356C8.34795 18.7762 8.39855 18.6168 8.46603 18.4574C8.43229 18.298 8.39855 18.1386 8.36481 17.9792C8.36481 17.7879 8.44916 17.6126 8.61786 17.4532V16.1622C8.4829 15.8753 8.53351 15.5884 8.76968 15.3015C8.7022 15.1421 8.65159 15.0146 8.61786 14.9189C8.58412 14.7914 8.4829 14.6639 8.31421 14.5364C8.38168 14.1538 8.39855 13.9148 8.36481 13.8191C8.36481 13.6916 8.39855 13.5641 8.46603 13.4366C8.39855 13.3728 8.31421 13.3569 8.21299 13.3888C8.11177 13.3888 8.01056 13.341 7.90934 13.2453C7.8756 13.0859 7.90934 12.9744 8.01056 12.9106C8.11177 12.8468 8.19612 12.7831 8.2636 12.7193C8.0949 12.6556 7.92621 12.6237 7.75752 12.6237C7.62256 12.6237 7.48761 12.6396 7.35265 12.6715C7.18396 12.6396 7.03213 12.6078 6.89718 12.5759C6.76222 12.544 6.6104 12.5121 6.4417 12.4802C6.0031 12.3846 5.68258 12.3527 5.48015 12.3846C5.27771 12.4165 5.07528 12.4643 4.87285 12.5281C4.80537 12.5918 4.72102 12.6396 4.61981 12.6715C4.51859 12.6715 4.43424 12.7034 4.36677 12.7672C3.72573 12.6396 3.08469 12.6715 2.44365 12.8628C2.34244 12.8309 2.24122 12.8309 2.14 12.8628C2.03879 12.8628 1.93757 12.8468 1.83636 12.815C1.53271 12.9106 1.27966 13.0541 1.07723 13.2453C1.00975 13.3091 0.925407 13.2613 0.824191 13.1019C0.756713 12.9425 0.739844 12.799 0.773583 12.6715C0.739844 12.1615 0.790452 11.8108 0.925407 11.6195C1.06036 11.3964 1.00975 11.1573 0.773583 10.9023C0.739844 10.6473 0.807321 10.4082 0.976016 10.185C0.874799 10.0256 0.739844 9.94595 0.57115 9.94595C0.402456 9.91407 0.250631 9.85031 0.115676 9.75468C-0.0192793 9.59529 -0.0361487 9.4359 0.0650677 9.27651C0.132545 9.08524 0.200023 8.90991 0.267501 8.75052C0.233762 8.55925 0.250631 8.38392 0.318109 8.22453C0.351848 8.03326 0.402456 7.842 0.469933 7.65073C0.908538 7.58697 1.17845 7.57103 1.27966 7.60291C1.78575 7.92169 2.20748 8.01732 2.54487 7.88981C2.71356 7.92169 2.88226 7.93763 3.05095 7.93763C3.21965 7.93763 3.38834 7.88981 3.55703 7.79418C3.82695 7.88981 4.07999 8.00139 4.31616 8.1289C4.55233 8.22453 4.7885 8.24047 5.02467 8.17672C5.53075 8.27235 6.0031 8.25641 6.4417 8.1289C6.6104 7.842 6.72848 7.73042 6.79596 7.79418C6.89718 7.85793 6.98152 7.88981 7.049 7.88981C7.48761 7.92169 7.75752 7.95357 7.85873 7.98545C7.95995 7.98545 8.0949 7.95357 8.2636 7.88981C8.36481 7.60291 8.38168 7.3957 8.31421 7.26819C8.28047 7.1088 8.31421 6.94941 8.41542 6.79002C8.34795 6.69439 8.29734 6.59875 8.2636 6.50312C8.22986 6.40748 8.17925 6.32779 8.11177 6.26403L8.2636 5.40333C8.16238 4.98891 8.19612 4.63825 8.36481 4.35135C8.29734 4.06445 8.21299 3.79349 8.11177 3.53846C8.0443 3.25156 8.0443 2.94872 8.11177 2.62994C8.31421 2.31116 8.38168 2.10395 8.31421 2.00832C8.24673 1.8808 8.19612 1.76923 8.16238 1.6736C8.19612 1.32294 8.17925 1.13167 8.11177 1.09979C8.0443 1.06791 8.01056 1.0201 8.01056 0.956341C8.17925 0.605683 8.19612 0.382536 8.06117 0.286902C7.95995 0.191268 7.94308 0.111573 8.01056 0.047817C8.14551 -0.015939 8.2636 -0.015939 8.36481 0.047817C8.46603 0.0796951 8.56725 0.111573 8.66846 0.143451C9.10707 0.143451 9.4782 0.223146 9.78184 0.382536C10.018 0.541927 10.2036 0.6535 10.3385 0.717256C10.4735 0.781012 10.6084 0.81289 10.7434 0.81289C11.0808 0.781012 11.2495 0.765073 11.2495 0.765073C11.2832 0.765073 11.3338 0.733195 11.4013 0.669439C11.7387 0.733195 12.0761 0.781012 12.4135 0.81289C12.7509 0.844768 13.0882 1.03604 13.4256 1.38669C13.4594 1.76923 13.4594 1.97644 13.4256 2.00832C13.4256 2.00832 13.4256 2.04019 13.4256 2.10395C13.5943 2.26334 13.6449 2.42273 13.5775 2.58212C13.5437 2.74151 13.4256 2.85308 13.2232 2.91684C13.2232 3.07623 13.2401 3.23562 13.2738 3.39501C13.3076 3.52252 13.2401 3.61816 13.0714 3.68191C13.0714 3.80942 13.0882 3.93694 13.122 4.06445C13.1895 4.16008 13.2401 4.27166 13.2738 4.39917C13.2738 4.55856 13.2569 4.74983 13.2232 4.97297C13.2232 5.16424 13.2232 5.33957 13.2232 5.49896C13.5269 5.84962 13.6449 6.0887 13.5775 6.21622C13.6449 6.27997 13.7124 6.35967 13.7799 6.4553C13.8811 6.51906 13.9486 6.58281 13.9823 6.64657C13.9148 6.86972 13.8642 7.07692 13.8305 7.26819C13.8305 7.42758 13.7968 7.58697 13.7293 7.74636C13.8305 7.77824 13.9317 7.7623 14.0329 7.69854C14.1342 7.63479 14.2185 7.61885 14.286 7.65073C14.4547 7.74636 14.4884 7.85793 14.3872 7.98545C14.286 8.08108 14.2354 8.17672 14.2354 8.27235C14.3028 8.33611 14.4041 8.35204 14.539 8.32017C14.674 8.25641 14.7752 8.19265 14.8427 8.1289C15.315 8.1289 15.6187 8.14484 15.7536 8.17672C15.8886 8.20859 16.0404 8.24047 16.2091 8.27235C16.4115 8.30423 16.6646 8.30423 16.9682 8.27235C17.1032 8.20859 17.2213 8.16078 17.3225 8.1289C17.4574 8.09702 17.5924 8.03326 17.7273 7.93763C17.9635 7.96951 18.1997 8.08108 18.4359 8.27235C18.5708 8.20859 18.7058 8.19265 18.8407 8.22453C19.0094 8.22453 19.1781 8.20859 19.3468 8.17672C19.5492 7.98545 19.6842 7.88981 19.7517 7.88981C19.8191 7.85793 19.8866 7.81012 19.9541 7.74636C20.0553 7.77824 20.1397 7.85793 20.2071 7.98545C20.2746 8.11296 20.2746 8.19265 20.2071 8.22453C20.2746 8.38392 20.3421 8.4955 20.4096 8.55925C20.477 8.62301 20.477 8.73458 20.4096 8.89397C20.2746 9.27651 20.2577 9.49965 20.359 9.56341C20.4602 9.62717 20.5614 9.70686 20.6626 9.80249C20.6964 9.89813 20.6795 9.99376 20.612 10.0894C20.5783 10.1532 20.5951 10.2328 20.6626 10.3285L20.5614 10.5198Z" fill="#B7B8B8"/>
</svg>
