<svg width="86" height="75" viewBox="0 0 86 75" fill="none" xmlns="http://www.w3.org/2000/svg">
<path d="M14.1482 7.95007C15.6125 6.48651 15.6125 4.11359 14.1482 2.65002C12.684 1.18646 10.31 1.18646 8.84574 2.65002C7.38149 4.11359 7.38149 6.48651 8.84574 7.95007C10.31 9.41364 12.684 9.41364 14.1482 7.95007Z" fill="#FFBF76"/>
<path d="M10.6513 1.6521C9.82654 1.8434 9.09086 2.30822 8.56415 2.97084C8.03744 3.63346 7.75073 4.45483 7.75073 5.30113C7.75073 6.14744 8.03744 6.9688 8.56415 7.63142C9.09086 8.29404 9.82654 8.75886 10.6513 8.95016C11.1567 8.48597 11.5601 7.92196 11.8361 7.29384C12.1121 6.66571 12.2546 5.98716 12.2546 5.30113C12.2546 4.6151 12.1121 3.93655 11.8361 3.30842C11.5601 2.6803 11.1567 2.11629 10.6513 1.6521Z" fill="#FFD9BE"/>
<path d="M0.589312 48.8948C7.36713 44.3406 29.8037 29.2194 35.972 24.3151C36.3505 24.0131 36.7992 23.8117 37.2765 23.7298C37.7538 23.6479 38.2441 23.6881 38.7017 23.8467C43.1533 25.3773 56.096 29.8028 61.9605 31.5188C62.1365 31.5705 62.2993 31.6595 62.4378 31.7797C62.5763 31.8998 62.6872 32.0484 62.7631 32.2153C62.839 32.3822 62.8781 32.5635 62.8777 32.7468C62.8772 32.9301 62.8373 33.1112 62.7606 33.2777L60.0755 39.1532L67.104 34.3725C67.3276 34.2203 67.5833 34.1216 67.8513 34.0841C68.1192 34.0466 68.3922 34.0713 68.6491 34.1563C71.1728 34.992 78.9721 37.5471 84.8434 39.1601C85.1068 39.2318 85.3469 39.371 85.5401 39.5639C85.7332 39.7568 85.8726 39.9967 85.9445 40.26C86.0165 40.5232 86.0185 40.8006 85.9503 41.0649C85.8821 41.3291 85.7462 41.571 85.5559 41.7667C81.5678 45.8678 72.2938 55.383 68.498 59.1101C68.2849 59.3199 68.0047 59.4481 67.7066 59.4721L62.5751 59.896L64.0808 61.2688C64.2098 61.3855 64.3136 61.5274 64.3857 61.6857C64.4578 61.844 64.4968 62.0154 64.5001 62.1893C64.5035 62.3632 64.4712 62.536 64.4053 62.697C64.3394 62.858 64.2412 63.0038 64.1168 63.1255C61.7734 65.4266 55.7613 71.3296 52.8908 74.1541C52.4537 74.582 51.8947 74.8642 51.2907 74.962C50.6867 75.0597 50.0672 74.9681 49.5174 74.6997L27.8585 64.2168C27.5935 64.0891 27.3805 63.874 27.2554 63.6077C27.1303 63.3415 27.1008 63.0403 27.1718 62.7548L27.807 60.2323L22.6979 62.8543C22.4983 62.9572 22.275 63.0056 22.0507 62.9944C21.8264 62.9833 21.609 62.913 21.4206 62.7908C14.7692 58.5267 7.8705 54.6607 0.760989 51.2131C0.548257 51.1111 0.366213 50.9549 0.23324 50.7601C0.100267 50.5653 0.0210743 50.3388 0.00365841 50.1037C-0.0137575 49.8685 0.0312204 49.6329 0.13405 49.4206C0.236879 49.2084 0.39392 49.027 0.589312 48.8948Z" fill="url(#paint0_linear_1_269)"/>
<path d="M73.724 44.0489C73.9092 43.8757 74.0467 43.6577 74.1233 43.416C74.1998 43.1743 74.2129 42.917 74.1611 42.6688C74.1094 42.4206 73.9946 42.1898 73.8279 41.9988C73.6611 41.8077 73.448 41.6628 73.209 41.5779C70.4965 40.6135 66.5754 39.1755 62.3246 37.6174L60.0653 39.1618L60.9924 37.1352C52.3072 33.9229 42.6504 30.3177 39.2169 29.0341C38.823 28.8854 38.3979 28.8389 37.9812 28.8989C37.5645 28.9589 37.1698 29.1235 36.834 29.3773C31.6184 33.3241 16.6499 44.4144 11.6455 48.1158C11.4901 48.2307 11.3685 48.3851 11.2931 48.5629C11.2177 48.7407 11.1913 48.9355 11.2167 49.1269C11.2421 49.3184 11.3184 49.4996 11.4376 49.6516C11.5567 49.8036 11.7145 49.9209 11.8944 49.9914C16.4696 51.764 23.8157 55.6541 23.8157 55.6541C30.4682 59.2422 43.4641 64.5669 47.8505 66.3378C48.2928 66.5169 48.7773 66.5652 49.2463 66.4769C49.7153 66.3887 50.1491 66.1677 50.4961 65.8402C55.6532 60.996 68.917 48.5705 73.724 44.0489Z" fill="#FFE7D0"/>
<path d="M52.9234 54.7944L50.9217 52.9977C50.8524 52.9365 50.7696 52.8926 50.6801 52.8696C50.5906 52.8467 50.4968 52.8453 50.4066 52.8656L47.1448 53.6395L45.4486 51.8068C45.3804 51.7338 45.2944 51.6796 45.1991 51.6496C45.1037 51.6195 45.0022 51.6146 44.9044 51.6352L42.3052 52.1878C42.2075 52.2084 42.1168 52.2539 42.0418 52.3199C41.9669 52.3859 41.9104 52.4702 41.8777 52.5645C41.8451 52.6588 41.8374 52.76 41.8554 52.8582C41.8735 52.9563 41.9166 53.0482 41.9807 53.1247L43.1825 54.5764L39.7317 55.3932C39.6305 55.4171 39.5376 55.4679 39.4628 55.5401C39.388 55.6123 39.3341 55.7034 39.3066 55.8036C39.2792 55.9039 39.2794 56.0097 39.3071 56.1099C39.3347 56.2101 39.3889 56.301 39.4639 56.3731L41.3524 58.192C41.4222 58.2594 41.5078 58.3083 41.6014 58.334C41.695 58.3598 41.7935 58.3617 41.888 58.3396L45.5962 57.4627L47.5156 59.7638C47.5886 59.8509 47.6856 59.9147 47.7945 59.9474C47.9035 59.98 48.0196 59.98 48.1285 59.9474L51.035 59.0689C51.1291 59.0403 51.2144 58.9884 51.2829 58.9178C51.3514 58.8473 51.4009 58.7605 51.4266 58.6657C51.4524 58.5708 51.4536 58.4709 51.4301 58.3755C51.4066 58.28 51.3593 58.1921 51.2925 58.1199L49.7714 56.476L52.6779 55.7896C52.7802 55.764 52.8736 55.711 52.948 55.6364C53.0225 55.5617 53.0751 55.4682 53.1004 55.3658C53.1256 55.2635 53.1225 55.1562 53.0913 55.0555C53.0601 54.9549 53.0021 54.8646 52.9234 54.7944Z" fill="#C14C82"/>
<path d="M40.537 34.8237C40.2932 35.7126 39.3026 36.2188 38.3241 35.9511C37.3455 35.6835 36.7515 34.75 36.9953 33.8542C37.2391 32.9585 38.2297 32.4608 39.2065 32.7268C40.1834 32.9928 40.7808 33.9332 40.537 34.8237Z" fill="#C14C82"/>
<path fill-rule="evenodd" clip-rule="evenodd" d="M52.2986 46.115L50.5406 46.1356C50.5467 47.3 50.4264 48.4617 50.1818 49.6001L51.8986 49.9554C52.1698 48.6934 52.3039 47.4058 52.2986 46.115Z" fill="#C14C82"/>
<path fill-rule="evenodd" clip-rule="evenodd" d="M50.2591 39.4587L48.8307 40.4883C49.475 41.388 49.9439 42.4009 50.2128 43.4741L51.9158 43.0383C51.5927 41.7519 51.0307 40.5377 50.2591 39.4587Z" fill="#C14C82"/>
<path fill-rule="evenodd" clip-rule="evenodd" d="M44.6709 35.3369L44.0597 36.9843C45.1222 37.3748 46.1186 37.9257 47.0143 38.6179L48.0941 37.2314C47.057 36.4282 45.9024 35.7892 44.6709 35.3369Z" fill="#C14C82"/>
<path d="M11.6692 10.3814C12.3697 9.53883 13.7757 8.3651 16.1329 8.4406C16.3774 8.45157 16.6157 8.52104 16.8278 8.64316C17.0399 8.76529 17.2196 8.93651 17.3518 9.14244L24.8558 20.6L17.9887 24.6875C17.9887 24.6875 13.8684 17.4924 11.4649 11.9995C11.3445 11.7376 11.2998 11.4473 11.3359 11.1613C11.3721 10.8753 11.4875 10.6052 11.6692 10.3814Z" fill="#B75798"/>
<path d="M11.3809 11.9429C12.0917 10.9373 13.8188 9.04801 16.8094 8.91931C16.8969 8.91716 16.9822 8.89115 17.056 8.84409C17.1298 8.79704 17.1894 8.73072 17.2283 8.6523C17.2672 8.57388 17.2839 8.48634 17.2766 8.39912C17.2693 8.31191 17.2384 8.22833 17.1871 8.15741L16.9811 7.87771C16.7178 7.51734 16.3533 7.24335 15.9339 7.09057C15.5145 6.9378 15.0591 6.91313 14.6256 7.01972C13.2397 7.3669 11.9659 8.06345 10.926 9.04286C10.5401 9.40785 10.2944 9.89653 10.2316 10.4239C10.1689 10.9512 10.2931 11.4839 10.5826 11.9291C10.6255 11.9954 10.6839 12.0501 10.7529 12.0884C10.8219 12.1267 10.8992 12.1474 10.9781 12.1488C11.057 12.1502 11.135 12.1321 11.2053 12.0962C11.2755 12.0602 11.3359 12.0076 11.3809 11.9429Z" fill="#FFD9BE"/>
<path d="M18.5949 24.3203L24.856 20.6001L17.3537 9.14593C17.2215 8.94 17.0418 8.76878 16.8297 8.64666C16.6176 8.52453 16.3793 8.45507 16.1348 8.4441C15.6892 8.43076 15.2435 8.46702 14.806 8.55221C17.4137 11.538 22.1229 18.22 18.5949 24.3203Z" fill="#7F2467"/>
<path d="M14.4745 9.43239C15.216 9.12354 16.0066 8.94922 16.8093 8.9176C16.8968 8.91545 16.9821 8.88944 17.056 8.84239C17.1298 8.79533 17.1893 8.72901 17.2282 8.65059C17.2671 8.57217 17.2838 8.48463 17.2765 8.39741C17.2693 8.3102 17.2383 8.22662 17.187 8.15571L16.981 7.876C16.7178 7.51563 16.3533 7.24164 15.9339 7.08887C15.5144 6.93609 15.0591 6.91142 14.6256 7.01801C14.304 7.09917 13.9875 7.19945 13.6779 7.31831C13.9514 7.59527 14.1637 7.92658 14.3009 8.29077C14.4381 8.65496 14.4973 9.0439 14.4745 9.43239Z" fill="#FFBF76"/>
<path d="M17.2817 27.234C17.2817 27.234 23.7659 38.4462 27.0999 42.381H36.5593C36.5593 42.381 29.9824 26.2713 26.9214 21.458L17.2817 27.234Z" fill="url(#paint1_linear_1_269)"/>
<path d="M36.5593 42.381C36.5593 42.381 29.9824 26.2713 26.9214 21.458L17.2817 27.2357C17.2817 27.2357 17.3984 27.4382 17.6044 27.79C20.1796 28.5879 24.8561 30.1254 24.8561 30.1254L31.7936 42.3827L36.5593 42.381Z" fill="url(#paint2_linear_1_269)"/>
<path d="M9.62117 28.4094L31.6148 16.1831C31.9254 16.0075 32.2704 15.9013 32.626 15.8717C32.9816 15.8421 33.3395 15.8898 33.6749 16.0115C34.3444 16.2637 35.1135 16.7373 35.5067 17.6193L35.541 17.6983C36.4938 20.0251 34.0131 22.3572 31.7641 21.2383C31.5488 21.1325 31.3471 21.0012 31.1633 20.8471C30.9956 20.7028 30.7872 20.6143 30.567 20.5937C30.3467 20.5731 30.1255 20.6215 29.934 20.7321L28.2962 21.6896C28.109 21.7989 27.9597 21.9631 27.8688 22.1598L25.2936 27.6853C25.1626 27.9671 24.9502 28.2032 24.6836 28.3632C24.4171 28.5232 24.1087 28.5997 23.7983 28.5827L16.7424 28.2001C16.554 28.1897 16.3662 28.2293 16.1981 28.315L14.3784 29.2537C14.1865 29.3512 14.0292 29.5051 13.9276 29.6947C13.826 29.8843 13.785 30.1005 13.8101 30.3142C13.8748 30.867 13.8557 31.4264 13.7534 31.9735C13.6428 32.5772 13.2994 33.1132 12.7972 33.4663C12.295 33.8193 11.6742 33.9611 11.0684 33.8611L10.9894 33.8474C8.9379 33.4698 7.68122 31.2391 8.65806 29.3858C8.70661 29.2924 8.76049 29.2019 8.81944 29.1147C9.0266 28.8191 9.30149 28.5773 9.62117 28.4094Z" fill="#FFD9BE"/>
<path d="M25.3005 27.6786L27.8757 22.1531C27.9666 21.9563 28.1159 21.7922 28.3031 21.6829L29.9409 20.7254C30.1325 20.6147 30.3537 20.5664 30.5739 20.587C30.7941 20.6076 31.0025 20.6961 31.1702 20.8404C31.354 20.9945 31.5557 21.1258 31.771 21.2316C34.0252 22.3504 36.5059 20.0184 35.5479 17.6916L35.5136 17.6126C35.1205 16.7306 34.3513 16.257 33.6818 16.0048C33.3464 15.883 32.9885 15.8354 32.6329 15.865C32.2773 15.8946 31.9323 16.0008 31.6217 16.1764L21.1906 21.9729C22.7773 23.8422 23.8049 26.1206 24.1554 28.5469C24.4024 28.5057 24.6356 28.4052 24.8351 28.2539C25.0346 28.1026 25.1943 27.9052 25.3005 27.6786Z" fill="#FFBF76"/>
<path d="M24.461 42.52C24.4155 42.5211 24.3714 42.5042 24.3384 42.4728C24.3054 42.4414 24.2862 42.3982 24.2851 42.3527C24.2839 42.3072 24.3009 42.2631 24.3323 42.2301C24.3637 42.1971 24.4069 42.1779 24.4524 42.1768C26.7625 41.8919 29.0866 41.735 31.414 41.7066C31.414 41.7066 35.8295 41.5728 39.5017 42.1476C39.5472 42.1495 39.5902 42.1693 39.6211 42.2027C39.652 42.2362 39.6683 42.2806 39.6665 42.3261C39.6647 42.3716 39.6448 42.4145 39.6114 42.4454C39.5779 42.4763 39.5335 42.4927 39.4879 42.4908C37.6321 42.6624 34.0921 42.949 31.4552 42.9816C31.347 42.985 27.5083 42.7825 24.461 42.52Z" fill="url(#paint3_linear_1_269)"/>
<defs>
<linearGradient id="paint0_linear_1_269" x1="36.6398" y1="26.1667" x2="56.1793" y2="85.1263" gradientUnits="userSpaceOnUse">
<stop offset="0.01" stop-color="#A84A78"/>
<stop offset="1" stop-color="#C36C9A"/>
</linearGradient>
<linearGradient id="paint1_linear_1_269" x1="30.542" y1="38.3244" x2="21.2417" y2="22.942" gradientUnits="userSpaceOnUse">
<stop stop-color="white"/>
<stop offset="1" stop-color="#C7DAFF"/>
</linearGradient>
<linearGradient id="paint2_linear_1_269" x1="17.2817" y1="31.9186" x2="36.5593" y2="31.9186" gradientUnits="userSpaceOnUse">
<stop stop-color="#819FEA"/>
<stop offset="1" stop-color="#A7C1FC"/>
</linearGradient>
<linearGradient id="paint3_linear_1_269" x1="24.2996" y1="42.3433" x2="39.6476" y2="42.3433" gradientUnits="userSpaceOnUse">
<stop offset="0.01" stop-color="#A84A78"/>
<stop offset="1" stop-color="#C36C9A"/>
</linearGradient>
</defs>
</svg>
