<svg width="98" height="100" viewBox="0 0 98 100" fill="none" xmlns="http://www.w3.org/2000/svg">
<path d="M62.7634 40.933C62.7634 40.933 68.7295 43.2149 72.6936 46.6296C72.9733 46.8704 73.1613 47.1999 73.2257 47.5627C73.29 47.9255 73.2269 48.2994 73.047 48.6212C72.4044 49.7321 71.9004 51.6236 74.2679 53.359C74.2679 53.359 79.6175 56.9979 82.2823 61.0711C82.5016 61.4285 82.5716 61.8573 82.4773 62.2655C82.3831 62.6738 82.1322 63.0289 81.7783 63.2549C81.0995 63.7233 80.483 64.628 80.7361 66.3614C81.2441 69.8281 82.0755 81.8197 74.2679 86.0811C74.2679 86.0811 81.6799 64.628 63.1269 52.5643L62.7634 40.933Z" fill="url(#paint0_linear_209_2913)"/>
<path d="M1.2068 4.87417C7.90387 5.58274 20.8261 8.56112 27.8445 20.7709C28.0937 21.2058 28.2505 21.6872 28.3051 22.1851C28.3597 22.6831 28.3109 23.1869 28.1617 23.6652C27.1135 27.0279 24.9949 35.6188 28.6417 40.931L26.7962 42.5923C26.7962 42.5923 23.4467 39.5259 18.7537 38.5891C18.5425 38.5493 18.3416 38.4671 18.1633 38.3474C17.9851 38.2276 17.8331 38.073 17.7168 37.8928C17.6005 37.7126 17.5222 37.5107 17.4868 37.2993C17.4514 37.088 17.4595 36.8717 17.5107 36.6636C18.2035 33.9234 18.1011 28.5211 8.05649 25.6988C7.70073 25.6009 7.39081 25.3814 7.18086 25.0789C6.97091 24.7763 6.87428 24.4099 6.90784 24.0435C7.23115 20.7709 7.29541 12.18 0.403557 6.79171C-0.437844 6.13118 0.136478 4.75808 1.2068 4.87417Z" fill="url(#paint1_linear_209_2913)"/>
<path d="M48.2611 0.140421C43.9155 3.12881 36.134 10.0003 35.8911 21.0311C35.8818 21.4227 35.9533 21.812 36.1011 22.1749C36.2489 22.5378 36.47 22.8666 36.7505 23.1408C38.7366 25.0664 43.4235 30.1904 42.9074 35.2105L44.8011 35.6648C44.8011 35.6648 45.9557 32.3021 48.8334 29.9042C48.964 29.7981 49.0715 29.6665 49.1493 29.5176C49.2272 29.3686 49.2737 29.2054 49.2861 29.0379C49.2985 28.8705 49.2765 28.7022 49.2215 28.5435C49.1664 28.3847 49.0794 28.2389 48.9659 28.1148C47.4598 26.4855 45.5019 22.7285 51.3576 17.0359C51.566 16.8358 51.6973 16.569 51.7285 16.2822C51.7597 15.9953 51.6888 15.7067 51.5283 15.4667C50.0864 13.337 46.8052 7.44426 49.5201 1.16524C49.5878 0.997387 49.6 0.812361 49.5547 0.63716C49.5095 0.461959 49.4093 0.30575 49.2687 0.191324C49.1281 0.0768992 48.9545 0.0102455 48.7732 0.00108831C48.592 -0.00806889 48.4125 0.0407495 48.2611 0.140421Z" fill="url(#paint2_linear_209_2913)"/>
<path d="M90.9415 28.5772C89.6302 20.5708 84.5798 16.4515 79.7342 14.3438C76.2771 12.8485 72.5154 12.1857 68.7535 12.4089C64.9916 12.6322 61.3353 13.7353 58.0807 15.6289C49.0442 20.8871 45.9958 30.3486 45.2428 33.271C45.1776 33.5245 45.0294 33.7492 44.8218 33.9094C44.6141 34.0697 44.3588 34.1563 44.0962 34.1557C35.6813 34.1557 27.6111 37.4876 21.6609 43.4185C15.7107 49.3494 12.3679 57.3934 12.3679 65.781V66.5236C12.3661 69.4494 12.9425 72.3469 14.0643 75.0506C15.1861 77.7543 16.8312 80.2113 18.9058 82.2812C20.9804 84.351 23.4437 85.9933 26.1551 87.1141C28.8665 88.2349 31.7729 88.8123 34.7082 88.8134H44.1946C49.7134 88.8134 55.0062 86.6283 58.9088 82.7387C62.8114 78.8492 65.0041 73.5737 65.0047 68.0728V33.4451C65.0044 32.6938 65.1527 31.9498 65.441 31.2556C65.7293 30.5615 66.1521 29.9307 66.685 29.3995C67.218 28.8682 67.8508 28.4469 68.5472 28.1595C69.2437 27.8721 69.9901 27.7243 70.7438 27.7245H71.1334C71.9579 27.7245 72.7485 28.051 73.3315 28.6321C73.9145 29.2131 74.242 30.0013 74.242 30.823V36.8458C74.242 37.1566 74.3146 37.463 74.454 37.741C74.5934 38.0189 74.7958 38.2607 75.0452 38.4471C76.471 39.514 79.3145 42.3522 79.6639 48.2029C79.6833 48.5272 79.826 48.8319 80.0629 49.0551C80.2998 49.2782 80.6131 49.4029 80.939 49.4039H84.4191C84.7449 49.4025 85.058 49.2776 85.2948 49.0545C85.5316 48.8315 85.6744 48.5271 85.6943 48.2029C86.0417 42.3522 88.8852 39.514 90.3129 38.4471C90.5623 38.2607 90.7648 38.0189 90.9042 37.741C91.0436 37.463 91.1162 37.1566 91.1162 36.8458V29.7081C91.1155 29.3245 91.0566 28.9433 90.9415 28.5772Z" fill="url(#paint3_linear_209_2913)"/>
<path d="M65.0046 33.449C65.0051 32.6243 65.1853 31.8096 65.5327 31.0611L54.4098 33.8373C54.4098 33.8373 46.0399 60.2704 28.5051 60.5026C28.5051 60.5026 17.4343 61.5435 18.0328 47.7564C14.3337 53.0485 12.3542 59.3451 12.3618 65.7949V66.5375C12.3618 72.445 14.7161 78.1107 18.9068 82.2881C23.0975 86.4656 28.7814 88.8127 34.7081 88.8133H44.1945C49.7133 88.8133 55.0061 86.6282 58.9087 82.7386C62.8113 78.8491 65.0041 73.5736 65.0046 68.0727V33.449Z" fill="#C51010"/>
<path d="M66.3803 24.4559C66.3803 24.4559 54.4159 24.4559 53.9782 37.1921V64.7081C53.9876 67.6001 53.2133 70.4409 51.7371 72.9306C48.4097 78.4951 40.7447 86.7877 24.7219 86.4654C27.8218 88.0127 31.2415 88.8167 34.7083 88.8133H44.1946C49.7135 88.8133 55.0063 86.6282 58.9089 82.7387C62.8115 78.8491 65.0042 73.5737 65.0047 68.0727V33.4451C65.0045 32.6937 65.1527 31.9497 65.441 31.2556C65.7294 30.5614 66.1521 29.9307 66.6851 29.3994C67.2181 28.8682 67.8509 28.4468 68.5473 28.1594C69.2437 27.872 69.9902 27.7242 70.7439 27.7245H71.1335C71.9579 27.7245 72.7486 28.0509 73.3316 28.632C73.9145 29.2131 74.2421 30.0012 74.2421 30.823V31.5856C74.2421 31.5856 75.1417 24.4559 66.3803 24.4559Z" fill="#EACFE8"/>
<path d="M70.744 27.7285H71.1336C71.958 27.7285 72.7487 28.0549 73.3317 28.636C73.9147 29.2171 74.2422 30.0052 74.2422 30.827V31.5896C74.2422 31.5896 75.1418 24.4559 66.3804 24.4559C66.3804 24.4559 54.416 24.4559 53.9783 37.1921V40.4687C56.1249 34.642 59.601 34.636 59.601 34.636C62.814 34.4899 64.3181 36.3834 65.0068 37.8386V33.4491C65.0066 32.6979 65.1548 31.9541 65.443 31.26C65.7312 30.566 66.1537 29.9354 66.6865 29.4041C67.2193 28.8729 67.8518 28.4515 68.548 28.164C69.2442 27.8765 69.9904 27.7285 70.744 27.7285Z" fill="#BF9D9D"/>
<path d="M65.0047 68.0727V60.4666C64.6378 62.0654 64.0711 63.6121 63.3179 65.0703C61.4423 68.5311 56.6911 69.1516 54.1529 66.1412C54.0786 66.0531 54.0083 65.953 53.936 65.8589C53.7698 68.3567 53.0166 70.7805 51.7371 72.9346C48.4097 78.499 40.7447 86.7917 24.7219 86.4694C27.8218 88.0167 31.2415 88.8207 34.7083 88.8173H44.1946C46.9276 88.8173 49.6338 88.2807 52.1588 87.2381C54.6837 86.1956 56.9779 84.6675 58.9103 82.7412C60.8427 80.8149 62.3755 78.528 63.4212 76.0112C64.4669 73.4943 65.005 70.7968 65.0047 68.0727Z" fill="#BF9D9D"/>
<path d="M91.1283 34.7541C91.1283 34.7541 93.8834 35.3546 95.8936 32.6864C96.3509 32.0528 96.6316 31.3097 96.7068 30.5327C96.8153 29.606 97.1085 28.1508 97.8776 27.0259C97.952 26.9244 97.9944 26.8031 97.9996 26.6775C98.0047 26.552 97.9723 26.4277 97.9065 26.3204C97.8406 26.2132 97.7443 26.1279 97.6298 26.0753C97.5153 26.0228 97.3876 26.0053 97.2631 26.0251C96.0255 26.2036 94.8395 26.6401 93.7825 27.306C92.7254 27.972 91.8211 28.8525 91.1283 29.8902V34.7541Z" fill="#C51010"/>
<path d="M74.2681 34.7541C74.2681 34.7541 71.5109 35.3546 69.5028 32.6865C69.0414 32.0542 68.7572 31.3108 68.6795 30.5328C68.573 29.606 68.2779 28.1509 67.5087 27.026C67.4352 26.9241 67.3935 26.8028 67.3889 26.6774C67.3842 26.552 67.4169 26.428 67.4828 26.321C67.5487 26.2141 67.6448 26.1289 67.7591 26.0763C67.8734 26.0236 68.0008 26.0058 68.1252 26.0252C69.3628 26.2039 70.5486 26.6405 71.6056 27.3064C72.6626 27.9723 73.5671 28.8527 74.26 29.8902L74.2681 34.7541Z" fill="#C51010"/>
<path d="M74.4306 30.4147C73.8096 30.4125 73.2148 30.165 72.7766 29.7264C72.3384 29.2878 72.0927 28.6938 72.0932 28.0748V25.1405C72.0965 24.3677 71.9314 23.6035 71.6092 22.9007C71.1342 21.9085 70.506 20.9968 69.7477 20.1985C69.4674 19.902 69.2851 19.5268 69.2256 19.1236C69.0248 17.6965 68.7919 14.1837 70.5731 11.4995C70.6596 11.3744 70.7839 11.2799 70.9279 11.23C71.0719 11.18 71.2282 11.1772 71.374 11.2218C71.5198 11.2665 71.6475 11.3563 71.7385 11.4782C71.8296 11.6002 71.8793 11.7479 71.8803 11.8999C71.8803 12.2121 71.8803 12.5524 71.9024 12.9127C72.0229 15.6949 73.1073 18.317 74.776 20.5508C75.7801 21.8939 76.9689 24.3238 76.7842 28.2229C76.7501 28.8199 76.4865 29.3808 76.0481 29.789C75.6098 30.1972 75.0305 30.4213 74.4306 30.4147Z" fill="#E3F3FF"/>
<path d="M65.0048 51.2613V67.8546C65.0269 70.4755 64.5002 73.0721 63.4585 75.4787C61.7295 79.3758 58.0928 83.8373 50.4901 84.1796C50.4901 84.1796 43.4035 84.4859 38.092 82.7525C35.0939 81.7717 31.9974 81.0831 28.8426 81.0051C23.6617 80.879 16.8883 82.0559 11.613 87.6744C11.3671 87.9299 11.2066 88.255 11.1536 88.6051C11.1007 88.9552 11.1578 89.313 11.3172 89.6294C11.4765 89.9458 11.7303 90.2052 12.0436 90.372C12.357 90.5388 12.7144 90.6047 13.0669 90.5607C16.9686 90.0603 22.7962 89.8762 27.2462 92.172C27.6717 92.4009 28.0816 92.6577 28.4731 92.9406C30.929 94.644 41.6283 101.431 53.9762 99.728C53.9762 99.728 71.4769 99.1916 76.8526 83.1148C78.6943 77.5206 78.6336 71.4773 76.6799 65.921C74.9831 61.0331 71.6215 54.9803 65.0048 51.2613Z" fill="url(#paint4_linear_209_2913)"/>
<path d="M76.6817 65.921C74.9828 61.0331 71.6213 54.9803 65.0045 51.2613V67.8546C65.0266 70.4755 64.5 73.0721 63.4583 75.4787C63.404 75.6008 63.3418 75.7229 63.2856 75.847C61.5285 93.3029 49.1042 97.7405 41.0939 98.7673C44.9213 99.8061 49.3271 100.369 53.9799 99.728C53.9799 99.728 71.4807 99.1916 76.8564 83.1148C78.6974 77.5204 78.636 71.477 76.6817 65.921Z" fill="#C51010"/>
<path d="M90.9415 28.5772C90.8773 28.1769 90.7949 27.8026 90.7126 27.4243C90.1282 31.3994 87.843 32.2141 86.3831 33.5171C85.2726 34.5079 84.2505 35.901 84.2505 37.4162C84.3537 38.1377 84.5995 38.8316 84.9734 39.4579C85.5879 40.5027 86.1783 42.4062 86.0116 45.7989C86.8691 41.5315 89.1222 39.3298 90.3331 38.4271C90.5823 38.2441 90.7848 38.0053 90.9243 37.7299C91.0639 37.4545 91.1365 37.1503 91.1363 36.8418V29.7081C91.1291 29.3235 91.0635 28.9422 90.9415 28.5772Z" fill="#C51010"/>
<path d="M77.6819 33.7814C77.7004 34.5205 77.8685 35.2482 78.1759 35.9211C78.3577 36.2671 78.6087 36.5724 78.9133 36.8181C79.2178 37.0639 79.5696 37.245 79.947 37.3502L80.437 37.5004C80.5486 37.5307 80.6665 37.5283 80.7767 37.4937C80.887 37.459 80.9849 37.3934 81.0588 37.3048C81.1327 37.2161 81.1794 37.1082 81.1934 36.9938C81.2075 36.8794 81.1882 36.7634 81.1378 36.6597C80.4837 35.4019 79.5758 34.2925 78.4711 33.4011C78.3999 33.3424 78.3134 33.3053 78.2217 33.2942C78.13 33.2831 78.0371 33.2985 77.9539 33.3386C77.8708 33.3787 77.801 33.4417 77.7527 33.5202C77.7045 33.5987 77.6799 33.6894 77.6819 33.7814Z" fill="white"/>
<path d="M88.1442 33.7814C88.1256 34.5205 87.9576 35.2483 87.6502 35.9211C87.4683 36.2671 87.2174 36.5724 86.9128 36.8182C86.6082 37.0639 86.2564 37.245 85.879 37.3503L85.389 37.5004C85.2775 37.5307 85.1596 37.5284 85.0493 37.4937C84.9391 37.459 84.8412 37.3934 84.7673 37.3048C84.6934 37.2162 84.6466 37.1082 84.6326 36.9938C84.6186 36.8794 84.6379 36.7635 84.6882 36.6597C85.3431 35.4041 86.2509 34.2968 87.355 33.4071C87.4257 33.3488 87.5117 33.3118 87.6028 33.3005C87.694 33.2892 87.7864 33.3041 87.8693 33.3434C87.9522 33.3827 88.0222 33.4449 88.0709 33.5224C88.1195 33.6 88.145 33.6899 88.1442 33.7814Z" fill="white"/>
<path d="M90.9152 30.4147C91.2233 30.4147 91.5285 30.3541 91.8132 30.2365C92.0979 30.1189 92.3566 29.9465 92.5744 29.7292C92.7922 29.5119 92.9649 29.254 93.0827 28.9701C93.2004 28.6862 93.2609 28.382 93.2606 28.0748V25.1405C93.2574 24.3677 93.4225 23.6035 93.7446 22.9007C94.2197 21.9085 94.8478 20.9968 95.6061 20.1985C95.8865 19.902 96.0687 19.5268 96.1282 19.1236C96.329 17.6965 96.562 14.1837 94.7808 11.4995C94.6943 11.3744 94.57 11.2799 94.4259 11.23C94.2819 11.18 94.1256 11.1772 93.9798 11.2218C93.8341 11.2665 93.7064 11.3563 93.6153 11.4782C93.5242 11.6002 93.4746 11.7479 93.4735 11.8999C93.4735 12.2121 93.4735 12.5524 93.4514 12.9127C93.3329 15.6949 92.2465 18.317 90.5778 20.5508C89.5737 21.8939 88.3849 24.3238 88.5697 28.2229C88.6037 28.8185 88.8662 29.3782 89.3028 29.7862C89.7394 30.1942 90.3167 30.4192 90.9152 30.4147Z" fill="#E3F3FF"/>
<defs>
<linearGradient id="paint0_linear_209_2913" x1="62.1228" y1="49.0435" x2="71.864" y2="63.9365" gradientUnits="userSpaceOnUse">
<stop stop-color="#C5C391"/>
<stop offset="1" stop-color="#DEE0B1"/>
</linearGradient>
<linearGradient id="paint1_linear_209_2913" x1="24.9006" y1="37.8165" x2="17.4833" y2="22.7793" gradientUnits="userSpaceOnUse">
<stop stop-color="#C5C391"/>
<stop offset="1" stop-color="#DEE0B1"/>
</linearGradient>
<linearGradient id="paint2_linear_209_2913" x1="43.4115" y1="31.0071" x2="44.0299" y2="11.9617" gradientUnits="userSpaceOnUse">
<stop stop-color="#C5C391"/>
<stop offset="1" stop-color="#DEE0B1"/>
</linearGradient>
<linearGradient id="paint3_linear_209_2913" x1="51.7431" y1="18.3871" x2="51.7431" y2="144.084" gradientUnits="userSpaceOnUse">
<stop stop-color="#FF5959"/>
<stop offset="1" stop-color="#CD4545"/>
</linearGradient>
<linearGradient id="paint4_linear_209_2913" x1="20.8804" y1="82.9446" x2="111.355" y2="65.6165" gradientUnits="userSpaceOnUse">
<stop stop-color="#FF5959"/>
<stop offset="1" stop-color="#CD4545"/>
</linearGradient>
</defs>
</svg>
