<svg width="108" height="120" viewBox="0 0 108 120" fill="none" xmlns="http://www.w3.org/2000/svg">
<path d="M61.6602 83.1514H51.6602L53.2602 91.1074H60.7268L61.6602 83.1514Z" fill="url(#paint0_linear_63_1224)"/>
<path fill-rule="evenodd" clip-rule="evenodd" d="M87.4812 78.8501L85.231 72.9983L63.7134 81.9448L63.5454 84.5623L87.4812 78.8501Z" fill="url(#paint1_linear_63_1224)"/>
<path fill-rule="evenodd" clip-rule="evenodd" d="M26.6602 79.6877L28.8706 73.9392L50.1036 82.7562L50.3765 85.4126L26.6602 79.6877Z" fill="url(#paint2_linear_63_1224)"/>
<path fill-rule="evenodd" clip-rule="evenodd" d="M49.497 59.4926L40.5386 55.5146C40.5386 55.5146 41.0308 58.6027 41.4789 63.0518H57.4424C57.6304 60.8836 57.9022 58.5983 58.247 56.1427L49.497 59.4926ZM42.0324 70.1704C41.9637 68.8746 41.8775 67.6102 41.7813 66.4017H57.2161C57.156 67.6884 57.1308 68.9403 57.1433 70.1704H42.0324ZM57.2756 73.5202H42.1645C42.1959 74.7738 42.206 76.0368 42.1885 77.2888H57.6767C57.4966 76.0336 57.364 74.7824 57.2756 73.5202ZM51.0636 81.8949L48.0963 80.6387H58.2675C58.3546 81.0554 58.447 81.474 58.5449 81.8949H51.0636ZM40.3291 90.2697C39.379 92.7138 37.9976 94.4097 36.0352 94.8758L63.3269 95.9966C62.481 93.9834 61.7322 92.0844 61.0742 90.2697H40.3291Z" fill="url(#paint3_linear_63_1224)"/>
<path fill-rule="evenodd" clip-rule="evenodd" d="M30.6098 9.41064C38.498 0.462259 53.8253 -2.86803 65.6255 2.77943L69.1199 7.46184L70.8749 13.2957V18.1798L71.6849 13.2957L70.6702 8.19655L74.1148 11.9389L73.9798 16.1447L74.6548 11.9389L70.335 6.51242L70.3349 6.51215L69.4735 5.00845C77.7075 10.4584 81.4285 16.5768 81.4167 28.4776V66.457C81.4167 67.2371 81.1083 67.9853 80.5593 68.537C80.0104 69.0887 79.2659 69.3986 78.4896 69.3986C77.7133 69.3986 76.9688 69.0887 76.4198 68.537C75.8709 67.9853 75.5625 67.2371 75.5625 66.457V62.3533C75.5624 61.9843 75.4877 61.6192 75.3432 61.28C75.1987 60.9408 74.9873 60.6346 74.7217 60.3798C74.4561 60.125 74.1418 59.927 73.7979 59.7976C73.454 59.6683 73.0876 59.6104 72.7208 59.6274H72.35C71.6514 59.6586 70.9916 59.9594 70.5081 60.4672C70.0246 60.975 69.7546 61.6505 69.7542 62.3533V67.4912C69.7542 68.2686 69.4469 69.0142 68.8999 69.5639C68.3529 70.1136 67.611 70.4224 66.8375 70.4224H63.9708C63.2453 70.426 62.5444 70.1578 62.0051 69.67C61.4657 69.1822 61.1267 68.5099 61.0541 67.7844L60.4208 61.6666C60.3637 60.9818 60.0518 60.3439 59.5473 59.88C59.0428 59.4162 58.3828 59.1606 57.699 59.1643C57.0152 59.168 56.358 59.4307 55.8584 59.9C55.3589 60.3693 55.0538 61.0106 55.0041 61.6959L54.4458 67.7509C54.3811 68.4824 54.0454 69.1629 53.5053 69.6576C52.9652 70.1523 52.2599 70.4253 51.5291 70.4224H48.1416C47.4437 70.4246 46.7682 70.1753 46.2376 69.7197C45.707 69.2641 45.3566 68.6324 45.2499 67.9393L44.4166 62.7176C44.2682 61.7664 43.7805 60.9019 43.0444 60.2855C42.3084 59.6691 41.3743 59.3429 40.4166 59.3678C37.8355 59.4451 35.7167 57.5629 32.8036 54.9752C32.2461 54.48 31.6596 53.959 31.0351 53.4209C24.7475 46.0817 18.5669 29.6739 25.2999 17.099C26.7694 14.3544 28.5512 11.746 30.6098 9.41064Z" fill="url(#paint4_linear_63_1224)"/>
<path d="M44.01 28.4907L45.9 32.4252L48.6 30.3901L45.63 28.3551L47.385 23.878L44.01 28.4907Z" fill="#602E3A"/>
<path d="M55.7103 48.2703L54.7315 44.0136L51.651 45.3993L54.1005 48.0432L51.4051 52.0203L55.7103 48.2703Z" fill="#602E3A"/>
<path d="M76.4198 68.537C75.8709 67.9853 75.5625 67.2371 75.5625 66.4569C75.8658 68.3481 81.0937 71.3947 81.4166 62.424V66.4569C81.4166 67.2371 81.1082 67.9853 80.5593 68.537C80.0104 69.0886 79.2659 69.3986 78.4896 69.3986C77.7133 69.3986 76.9688 69.0886 76.4198 68.537Z" fill="#AF8CB8"/>
<path d="M63.9709 70.4224C63.2453 70.426 62.5444 70.1578 62.0051 69.67C66.9491 70.2401 69.1484 69.9407 69.7542 62.3533V67.4912C69.7542 68.2686 69.447 69.0142 68.9 69.5639C68.353 70.1136 67.6111 70.4224 66.8376 70.4224H63.9709Z" fill="#AF8CB8"/>
<path d="M48.1415 70.4224C47.4437 70.4247 46.7681 70.1754 46.2375 69.7197C52.9966 70.4747 53.9536 67.5959 55.0041 61.696L54.7249 64.7234L54.4457 67.7509C54.381 68.4825 54.0454 69.1629 53.5053 69.6577C52.9651 70.1524 52.2599 70.4253 51.5291 70.4224H48.1415Z" fill="#AF8CB8"/>
<path d="M40.4166 59.3678C37.3416 59.46 34.9227 56.7708 31.0352 53.421C35.6423 56.102 38.3614 57.0519 43.9519 55.7244L44.4166 62.7177C44.2682 61.7665 43.7805 60.902 43.0445 60.2856C42.3084 59.6692 41.3744 59.343 40.4166 59.3678Z" fill="#AF8CB8"/>
<path d="M55.7249 26.3631C52.2582 26.3379 45.4749 27.1628 42.6749 33.5946C41.6513 35.883 41.4711 38.4626 42.1666 40.8723L42.2166 41.0356C43.7874 45.9808 49.8541 47.7856 53.9541 44.6283C54.1208 44.5027 54.2874 44.3687 54.4583 44.2347C58.7166 40.8471 60.8291 35.2361 59.4583 29.9558C59.3457 29.5041 59.2066 29.0594 59.0416 28.6242C58.7773 27.9571 58.32 27.385 57.7287 26.9819C57.1374 26.5788 56.4394 26.3632 55.7249 26.3631Z" fill="#602E3A"/>
<path d="M70.8625 28.2724C73.3417 28.7749 77.7708 30.4164 78.05 35.7427C78.0846 36.8057 77.8342 37.8586 77.325 38.7911L77.275 38.8874C76.9082 39.5557 76.3875 40.1261 75.7564 40.5508C75.1254 40.9755 74.4024 41.2423 73.6478 41.3288C72.8932 41.4153 72.1289 41.319 71.4189 41.0479C70.7089 40.7769 70.0738 40.3391 69.5666 39.7709L69.3958 39.5783C67.0666 36.9403 66.3291 33.1046 67.8625 29.9474C67.925 29.8217 67.9875 29.6961 68.0583 29.5705C68.3264 29.0814 68.7433 28.6915 69.2479 28.4579C69.7526 28.2243 70.3184 28.1593 70.8625 28.2724Z" fill="#602E3A"/>
<path d="M66.7583 44.0965C67.4089 45.1039 67.9827 46.1594 68.4749 47.2538C68.5863 47.5153 68.6312 47.8005 68.6055 48.0838C68.5797 48.367 68.4842 48.6394 68.3275 48.8762C68.1707 49.1131 67.9578 49.307 67.7078 49.4405C67.4579 49.5739 67.1788 49.6427 66.8958 49.6406H64.4207C64.1559 49.6411 63.8945 49.5798 63.6573 49.4614C63.4201 49.343 63.2135 49.1709 63.0539 48.9584C62.8942 48.746 62.7859 48.4992 62.7375 48.2376C62.6891 47.9759 62.7019 47.7064 62.7749 47.4506C63.0124 46.6131 63.3166 45.5914 63.6791 44.4817C63.7808 44.1715 63.9682 43.8967 64.2192 43.6893C64.4703 43.4818 64.7748 43.3503 65.0974 43.3099C65.4199 43.2696 65.7472 43.3221 66.0412 43.4613C66.3353 43.6006 66.5839 43.8208 66.7583 44.0965Z" fill="#602E3A"/>
<path d="M18.352 82.5877C23.5019 86.8827 36.8096 99.0074 39.4311 111.601L48.619 109.859C48.619 109.859 47.2023 97.7739 27.7702 81.6195C27.1595 81.1108 26.3409 80.6925 25.4428 80.4306C24.5447 80.1686 23.618 80.0777 22.8083 80.1721L18.9969 80.6317C18.6864 80.6678 18.417 80.7517 18.2094 80.8769C18.0018 81.0022 17.8614 81.1656 17.7991 81.3545C17.7369 81.5433 17.7543 81.7527 17.8502 81.9665C17.946 82.1803 18.1177 82.3928 18.352 82.5877Z" fill="#B77D85"/>
<path d="M79.4437 78.0408C79.0877 81.0474 77.7176 88.091 72.4937 94.9947L80.4289 98.2257C80.4289 98.2257 88.3848 89.2348 87.888 81.53C87.8579 81.0786 87.6536 80.637 87.2902 80.238C86.9269 79.8391 86.4139 79.493 85.7894 79.2256L81.6831 77.452C81.4823 77.3644 81.2448 77.3098 80.9955 77.2938C80.7462 77.2778 80.4941 77.3011 80.2654 77.3612C80.0368 77.4214 79.8399 77.5161 79.6954 77.6356C79.5509 77.7551 79.464 77.895 79.4437 78.0408Z" fill="#B77D85"/>
<path d="M31.4096 96.1765C32.102 97.461 38.7796 92.4691 38.7796 92.4691C38.1611 91.2108 36.822 90.269 35.8297 89.0899C32.855 90.2198 30.7469 90.7721 28.3627 92.2702C29.3333 93.4956 30.7172 94.8919 31.4096 96.1765Z" fill="#9D5D65"/>
<path d="M76.2437 88.8041C75.202 90.6884 74.7086 92.7428 73.7437 94.5505L80.8833 98.6444C81.9509 96.8743 82.9103 95.0851 83.952 93.4102C81.8834 91.5672 79.0845 89.7217 76.2437 88.8041Z" fill="#9D5D65"/>
<path fill-rule="evenodd" clip-rule="evenodd" d="M28.7029 92.9309C39.1455 86.6317 68.8741 85.8261 80.6212 91.9467C82.5883 92.9717 83.9552 94.8043 84.8406 96.8381C87.6188 103.22 87.2794 107.599 83.3827 114.687C79.6695 120.171 75.6538 120.125 60.0666 119.946C58.4865 119.928 56.7875 119.909 54.9579 119.894L55.0797 119.118L54.1347 117.083L50.4897 114.777L53.8647 117.49L54.4047 119.118L54.0827 119.887C52.0632 119.872 49.8893 119.863 47.5463 119.868C44.8034 119.934 42.332 119.918 40.1089 119.795L40.4998 116.948L38.0698 113.692L38.8798 111.656L37.5298 113.692L39.4198 116.948L38.4815 119.682C28.0685 118.797 23.6228 115.108 22.3407 105.461C22.1084 103.714 22.185 101.915 22.7795 100.255C23.7657 97.5024 25.3934 95.6023 28.7029 92.9309Z" fill="#D9D9D9"/>
<path fill-rule="evenodd" clip-rule="evenodd" d="M28.7029 92.9309C39.1455 86.6317 68.8741 85.8261 80.6212 91.9467C82.5883 92.9717 83.9552 94.8043 84.8406 96.8381C87.6188 103.22 87.2794 107.599 83.3827 114.687C79.6695 120.171 75.6538 120.125 60.0666 119.946C58.4865 119.928 56.7875 119.909 54.9579 119.894L55.0797 119.118L54.1347 117.083L50.4897 114.777L53.8647 117.49L54.4047 119.118L54.0827 119.887C52.0632 119.872 49.8893 119.863 47.5463 119.868C44.8034 119.934 42.332 119.918 40.1089 119.795L40.4998 116.948L38.0698 113.692L38.8798 111.656L37.5298 113.692L39.4198 116.948L38.4815 119.682C28.0685 118.797 23.6228 115.108 22.3407 105.461C22.1084 103.714 22.185 101.915 22.7795 100.255C23.7657 97.5024 25.3934 95.6023 28.7029 92.9309Z" fill="#AEAEAE"/>
<path d="M47.5464 119.868C50.2856 119.863 52.7938 119.876 55.0943 119.895C72.2603 118.984 85.7622 111.153 83.5353 94.2477C86.1884 98.0086 89.0743 106.359 83.3829 114.687C79.3025 120.713 74.8571 120.062 55.0943 119.895C52.6414 120.025 50.1137 120.014 47.5464 119.868Z" fill="#8F8F8F"/>
<path d="M4.6271 90.9906C7.12329 85.1733 18.7157 75.7843 26.1204 73.5316C28.2594 72.8808 30.5651 73.4024 32.3876 74.698C34.7006 76.3422 35.6726 78.3504 36.1147 82.0758C36.2225 86.5111 33.4648 87.5004 21.6946 96.324C14.7208 101.789 10.9278 103.056 6.75156 99.4572C5.36373 98.2612 4.21253 96.6649 4.0712 94.8324C3.98797 93.7533 4.17956 92.598 4.6271 90.9906Z" fill="#D9D9D9"/>
<path d="M4.6271 90.9906C7.12329 85.1733 18.7157 75.7843 26.1204 73.5316C28.2594 72.8808 30.5651 73.4024 32.3876 74.698C34.7006 76.3422 35.6726 78.3504 36.1147 82.0758C36.2225 86.5111 33.4648 87.5004 21.6946 96.324C14.7208 101.789 10.9278 103.056 6.75156 99.4572C5.36373 98.2612 4.21253 96.6649 4.0712 94.8324C3.98797 93.7533 4.17956 92.598 4.6271 90.9906Z" fill="url(#paint5_linear_63_1224)"/>
<path d="M36.1146 82.0757C36.2224 86.511 33.4647 87.5003 21.6945 96.3239C30.1558 86.414 32.886 81.1701 29.1601 73.1014C33.1276 73.6546 35.5727 76.6188 36.1146 82.0757Z" fill="#D9D9D9"/>
<path d="M36.1146 82.0757C36.2224 86.511 33.4647 87.5003 21.6945 96.3239C30.1558 86.414 32.886 81.1701 29.1601 73.1014C33.1276 73.6546 35.5727 76.6188 36.1146 82.0757Z" fill="#8F8F8F"/>
<path d="M84.396 72.5344C90.248 73.9483 100.535 83.4452 103.598 90.1884C104.513 92.2034 104.266 94.5367 103.239 96.4965C101.923 99.0087 100.104 100.286 96.5677 101.343C92.3164 102.196 91.0499 99.7085 81.2216 89.8676C75.1176 84.0267 73.4901 80.5798 76.5791 75.8895C77.5355 74.4374 78.8474 73.1434 80.5179 72.6807C81.5784 72.387 82.7365 72.3688 84.396 72.5344Z" fill="#D9D9D9"/>
<path d="M84.396 72.5344C90.248 73.9483 100.535 83.4452 103.598 90.1884C104.513 92.2034 104.266 94.5367 103.239 96.4965C101.923 99.0087 100.104 100.286 96.5677 101.343C92.3164 102.196 91.0499 99.7085 81.2216 89.8676C75.1176 84.0267 73.4901 80.5798 76.5791 75.8895C77.5355 74.4374 78.8474 73.1434 80.5179 72.6807C81.5784 72.387 82.7365 72.3688 84.396 72.5344Z" fill="#8F8F8F"/>
<path d="M84.3961 72.5343C90.957 74.1195 98.4279 84.9254 99.2918 91.4754C99.3695 92.0646 99.3018 92.6568 99.1695 93.2361C97.9873 98.4129 91.598 100.263 87.8557 96.5128C85.9424 94.5954 83.7257 92.3748 81.2217 89.8676C75.1176 84.0266 73.4901 80.5797 76.5791 75.8894C77.5355 74.4373 78.8475 73.1433 80.518 72.6806C81.5784 72.3869 82.7366 72.3687 84.3961 72.5343Z" fill="#D9D9D9"/>
<path d="M84.3961 72.5343C90.957 74.1195 98.4279 84.9254 99.2918 91.4754C99.3695 92.0646 99.3018 92.6568 99.1695 93.2361C97.9873 98.4129 91.598 100.263 87.8557 96.5128C85.9424 94.5954 83.7257 92.3748 81.2217 89.8676C75.1176 84.0266 73.4901 80.5797 76.5791 75.8894C77.5355 74.4373 78.8475 73.1433 80.518 72.6806C81.5784 72.3869 82.7366 72.3687 84.3961 72.5343Z" fill="#AEAEAE"/>
<path d="M67.23 25.506L68.58 30.1188L69.795 30.7971L67.23 25.506Z" fill="#602E3A"/>
<path d="M76.1687 44.6167L74.4375 40.1344L73.17 39.5611L76.1687 44.6167Z" fill="#602E3A"/>
<defs>
<linearGradient id="paint0_linear_63_1224" x1="79.1602" y1="109.532" x2="56.5714" y2="91.217" gradientUnits="userSpaceOnUse">
<stop stop-color="#ECC0FA"/>
<stop offset="1" stop-color="#F8D4FD"/>
</linearGradient>
<linearGradient id="paint1_linear_63_1224" x1="85.8269" y1="82.7326" x2="46.6255" y2="70.4908" gradientUnits="userSpaceOnUse">
<stop stop-color="#ECC0FA"/>
<stop offset="1" stop-color="#F8D4FD"/>
</linearGradient>
<linearGradient id="paint2_linear_63_1224" x1="90.202" y1="109.532" x2="29.0163" y2="75.4537" gradientUnits="userSpaceOnUse">
<stop stop-color="#ECC0FA"/>
<stop offset="1" stop-color="#F8D4FD"/>
</linearGradient>
<linearGradient id="paint3_linear_63_1224" x1="49.5769" y1="68.4954" x2="52.1556" y2="89.1124" gradientUnits="userSpaceOnUse">
<stop stop-color="#87708C"/>
<stop offset="1" stop-color="#FFE1FF"/>
</linearGradient>
<linearGradient id="paint4_linear_63_1224" x1="-20.84" y1="16.3628" x2="124.901" y2="59.309" gradientUnits="userSpaceOnUse">
<stop offset="0.01" stop-color="#FFE1FF"/>
<stop offset="1" stop-color="#E5B4F7"/>
</linearGradient>
<linearGradient id="paint5_linear_63_1224" x1="25.38" y1="90.899" x2="-15.9053" y2="65.8461" gradientUnits="userSpaceOnUse">
<stop stop-color="#AEAEAE"/>
<stop offset="1" stop-color="#AEAEAE" stop-opacity="0"/>
</linearGradient>
</defs>
</svg>
