<svg width="108" height="106" viewBox="0 0 108 106" fill="none" xmlns="http://www.w3.org/2000/svg">
<path d="M73.6854 48.2374C73.0663 48.1709 72.4985 47.8632 72.1054 47.3814C71.7122 46.8995 71.5255 46.2823 71.5857 45.6638L74.1045 21.4465C74.1706 20.8283 74.4787 20.2612 74.9616 19.8684C75.4445 19.4756 76.0633 19.289 76.6834 19.349C77.3029 19.4151 77.8712 19.7225 78.2648 20.2044C78.6584 20.6863 78.8454 21.3038 78.7853 21.9226L76.2729 46.14C76.2068 46.7598 75.8975 47.3283 75.4127 47.7213C74.9279 48.1143 74.3069 48.2999 73.6854 48.2374Z" fill="#AD5A58"/>
<path d="M74.934 51.1177C74.6196 51.0988 74.3122 51.0174 74.0298 50.8782C73.7474 50.7391 73.4957 50.5451 73.2895 50.3075C73.0833 50.07 72.9267 49.7937 72.829 49.4949C72.7313 49.1962 72.6943 48.8809 72.7204 48.5677C73.1696 43.4377 74.5536 31.4277 78.0352 24.5477C78.4538 23.7175 79.0809 23.0098 79.8553 22.4938C80.6297 21.9777 81.5251 21.6708 82.4538 21.6031C83.8731 21.5271 85.2675 21.9968 86.3502 22.9156C94.2762 29.3795 101.394 33.3772 105.993 34.0313C106.517 34.1069 106.999 34.3571 107.361 34.7411C107.724 35.1251 107.945 35.6202 107.99 36.1459C108.023 36.4966 107.976 36.8502 107.853 37.1804C107.73 37.5106 107.534 37.8088 107.279 38.053C107.025 38.2972 106.719 38.481 106.383 38.5909C106.048 38.7007 105.692 38.7336 105.342 38.6873C97.8674 37.615 88.5058 30.7521 83.206 26.4349C83.1363 26.376 83.0539 26.3338 82.9651 26.3119C82.8764 26.2899 82.7838 26.2887 82.6945 26.3084C82.5948 26.3302 82.5014 26.3744 82.4214 26.4376C82.3413 26.5007 82.2767 26.5812 82.2325 26.673C79.1399 32.7724 77.8396 44.1262 77.4098 48.9645C77.3571 49.5736 77.0696 50.1385 76.6077 50.5401C76.1459 50.9418 75.5458 51.1489 74.934 51.1177Z" fill="#DD8378"/>
<path d="M104.575 57.4358C104.115 59.0014 102.211 59.677 100.921 58.6711C99.2643 57.3736 97.7513 55.3791 96.3974 52.7069C94.9811 49.9188 93.9731 46.7791 93.3177 43.1332C91.9315 35.4124 88.9119 31.3033 86.9777 29.3731C86.8499 29.246 86.6957 29.1485 86.526 29.0873C86.3563 29.0262 86.1752 29.0029 85.9956 29.0192C85.825 29.0321 85.6591 29.0808 85.5088 29.1621C85.3584 29.2434 85.2269 29.3555 85.123 29.491C81.1557 34.8355 80.0553 46.5367 79.9006 52.7862C79.8841 53.3926 79.6342 53.9693 79.2028 54.3967C78.7714 54.824 78.1916 55.0691 77.5838 55.081C77.267 55.0869 76.9522 55.0287 76.6585 54.91C76.3648 54.7913 76.0982 54.6146 75.8747 54.3904C75.6512 54.1662 75.4755 53.8991 75.3582 53.6054C75.2408 53.3117 75.1842 52.9973 75.1918 52.6811C75.3358 46.9635 76.2664 32.7852 81.8198 26.0725C82.2963 25.4972 82.8848 25.0243 83.5497 24.6826C84.2147 24.3409 84.9422 24.1374 85.6882 24.0844C86.4264 24.0292 87.1681 24.1268 87.8667 24.3711C88.5653 24.6154 89.2058 25.0012 89.7479 25.5041C92.5827 28.1035 96.3114 33.1262 97.9598 42.3032C98.5336 45.4923 99.3997 48.201 100.608 50.5858C101.624 52.5953 102.72 54.0837 103.786 54.9352C104.152 55.2247 104.423 55.6164 104.564 56.0602C104.706 56.5041 104.712 56.98 104.581 57.4272L104.575 57.4358Z" fill="#FFB7A5"/>
<path d="M74.9855 53.599C75.7484 47.0214 78.0459 12.9129 44.9749 4.77399C37.3047 2.8867 29.1938 3.73384 22.2435 7.48483C17.3564 10.1249 12.1254 14.3477 8.6674 21.0669C6.09889 26.0834 4.8955 31.6851 5.17762 37.3114C5.45973 42.9378 7.21746 48.3916 10.275 53.1272C15.2051 60.7236 24.4593 68.3049 41.7792 68.2491C41.7792 68.2491 54.8481 67.906 62.9138 67.8695C64.325 67.8626 65.7089 67.4799 66.9224 66.761C68.1359 66.042 69.1351 65.0128 69.8168 63.7797L74.345 55.5914C74.6865 54.9753 74.9041 54.2985 74.9855 53.599Z" fill="#A99FF1"/>
<path d="M44.975 4.77402C45.6197 4.93058 46.2301 5.1 46.8361 5.27587C46.2279 5.1 45.6111 4.93272 44.975 4.77402Z" fill="#E0F2FF"/>
<path d="M41.7084 4.1456C42.1382 4.20792 42.568 4.281 43.0108 4.36051C42.5766 4.28959 42.1425 4.20792 41.7084 4.1456Z" fill="#E0F2FF"/>
<path d="M38.1752 3.83032C38.7168 3.84966 39.2605 3.88405 39.8021 3.92918C39.2605 3.88405 38.7168 3.86041 38.1752 3.83032Z" fill="#E0F2FF"/>
<path d="M39.974 3.944C40.4511 3.98698 40.9282 4.04286 41.4032 4.10519C40.9275 4.04071 40.4511 3.98698 39.974 3.944Z" fill="#E0F2FF"/>
<path d="M43.3739 4.42444C43.909 4.5276 44.4485 4.63935 44.975 4.77475C44.4442 4.64365 43.909 4.52975 43.3739 4.42444Z" fill="#E0F2FF"/>
<path d="M65.6969 21.4744L64.2592 19.6621C63.4741 18.6721 63.0606 17.4393 63.09 16.1771C63.1029 15.6195 63.09 14.9675 63.0643 14.2791C59.1012 10.5088 53.8874 7.33684 47.0532 5.33803C47.6463 5.51389 48.2309 5.69619 48.8026 5.88706C48.996 8.63864 47.67 11.1093 45.4005 11.8192C42.6389 12.677 39.5312 10.6139 38.4588 7.20173C38.1128 6.11325 38.0158 4.96117 38.1751 3.83034C32.6338 3.60661 27.1334 4.86538 22.2435 7.47624C18.1602 9.67665 13.8619 12.9837 10.5372 17.91C10.2793 22.8426 11.5666 30.6706 21.2162 34.5739C21.2162 34.5739 31.5665 37.8702 38.7468 33.6624C39.6465 33.1555 40.6701 32.9092 41.7025 32.9512C42.7348 32.9933 43.7349 33.322 44.5903 33.9005L47.8892 36.073C49.3232 37.033 51.0433 37.4742 52.7634 37.3233C53.3261 37.2736 53.8817 37.1628 54.4204 36.993C54.649 36.9199 54.855 36.7894 55.0184 36.6139C55.1818 36.4385 55.2972 36.224 55.3536 35.9911C55.4099 35.7582 55.4053 35.5148 55.3401 35.2843C55.2749 35.0537 55.1514 34.8438 54.9813 34.6747L51.5427 31.2604C51.3424 31.0613 51.1921 30.8177 51.1042 30.5495C51.0162 30.2813 50.9931 29.9962 51.0367 29.7174C51.0803 29.4386 51.1893 29.174 51.355 28.9454C51.5206 28.7167 51.7381 28.5303 51.9897 28.4016L52.5249 28.1271C52.8503 27.9604 53.2191 27.8969 53.5817 27.9452C53.9443 27.9935 54.2834 28.1513 54.5537 28.3973L62.2153 35.3931C62.575 35.7095 63.0395 35.8814 63.519 35.8753C63.9984 35.8693 64.4584 35.6858 64.8099 35.3604C65.1614 35.035 65.3793 34.5909 65.4213 34.1143C65.4633 33.6377 65.3264 33.1625 65.0372 32.7809L59.1851 25.3433C58.9313 25.0193 58.7969 24.6181 58.8043 24.2069C58.8118 23.7958 58.9606 23.3997 59.2259 23.085L59.2538 23.0528C59.4158 22.8611 59.6163 22.7055 59.8425 22.5961C60.0687 22.4868 60.3154 22.4263 60.5665 22.4184C60.8177 22.4105 61.0677 22.4554 61.3003 22.5503C61.5329 22.6452 61.7429 22.788 61.9166 22.9692L63.8143 24.9465C64.0099 25.1501 64.2587 25.2952 64.5325 25.3652C64.8063 25.4353 65.0943 25.4277 65.364 25.3431C65.6337 25.2586 65.8743 25.1006 66.0589 24.8869C66.2434 24.6733 66.3644 24.4124 66.4083 24.1337C66.4779 23.6655 66.4507 23.188 66.3283 22.7306C66.206 22.2732 65.9911 21.8457 65.6969 21.4744ZM29.4066 24.2796C25.3233 24.2796 22.0093 21.6116 22.0093 18.3196C22.0093 15.0275 25.3211 12.3618 29.4066 12.3618C33.4921 12.3618 36.8039 15.0297 36.8039 18.3196C36.8039 21.6095 33.4921 24.2796 29.4066 24.2796ZM48.5705 19.6021C47.9072 20.3798 47.0204 20.9353 46.0302 21.1934C45.7167 21.2885 45.3866 21.3165 45.0616 21.2754C44.7365 21.2343 44.4239 21.1251 44.144 20.955C43.8642 20.785 43.6236 20.5578 43.4379 20.2884C43.2522 20.019 43.1256 19.7135 43.0665 19.3919C42.9567 18.8008 42.9472 18.1954 43.0386 17.6011C43.1318 17.0501 43.4235 16.5521 43.8589 16.2006C44.2942 15.8491 44.8432 15.6684 45.4026 15.6924C46.0606 15.7133 46.7139 15.8097 47.3498 15.9798C48.9251 16.4194 49.5978 18.3453 48.5705 19.6021Z" fill="#E0F2FF"/>
<path d="M46.8362 5.27582L47.0511 5.33814L46.8362 5.27582Z" fill="#E0F2FF"/>
<path d="M39.802 3.92902L39.9718 3.94406L39.802 3.92902Z" fill="#E0F2FF"/>
<path d="M41.401 4.10486L41.7083 4.14569L41.401 4.10486Z" fill="#E0F2FF"/>
<path d="M43.0107 4.36008C43.1311 4.38157 43.2536 4.40091 43.3739 4.42455C43.2536 4.40091 43.1311 4.38157 43.0107 4.36008Z" fill="#E0F2FF"/>
<path d="M53.8639 7.93521C55.6519 13.0159 58.7918 24.048 57.1048 35.1508C55.9055 43.0367 51.3816 50.0175 44.8547 54.6178C39.4131 58.4503 31.2377 62.6645 21.0315 63.3422C26.1744 66.2932 32.9205 68.2749 41.7836 68.2406C41.7836 68.2406 54.8525 67.8974 62.9182 67.861C64.3294 67.8541 65.7133 67.4714 66.9268 66.7524C68.1403 66.0334 69.1395 65.0042 69.8212 63.7711L74.3494 55.5829C74.6924 54.967 74.9115 54.2902 74.9942 53.5905C75.6712 47.6798 77.5968 19.4606 53.8639 7.93521Z" fill="#696AAF"/>
<path d="M57.513 31.1146L62.211 35.4039C62.5707 35.7203 63.0352 35.8921 63.5146 35.8861C63.994 35.88 64.4541 35.6965 64.8056 35.3711C65.1571 35.0457 65.375 34.6017 65.417 34.1251C65.4589 33.6485 65.3221 33.1733 65.0328 32.7917L59.1807 25.354C58.927 25.03 58.7926 24.6288 58.8 24.2177C58.8074 23.8065 58.9563 23.4104 59.2216 23.0957L59.2495 23.0636C59.4114 22.8718 59.612 22.7162 59.8382 22.6069C60.0643 22.4976 60.311 22.437 60.5622 22.4291C60.8134 22.4212 61.0634 22.4662 61.296 22.5611C61.5286 22.656 61.7386 22.7987 61.9123 22.9799L63.81 24.9573C64.0062 25.1623 64.2561 25.3083 64.5313 25.3786C64.8065 25.4488 65.096 25.4406 65.3667 25.3548C65.6375 25.269 65.8786 25.109 66.0628 24.8931C66.2469 24.6773 66.3666 24.4142 66.4083 24.1337C66.4785 23.6658 66.4519 23.1884 66.3303 22.7311C66.2087 22.2737 65.9946 21.8461 65.7012 21.4744L64.2591 19.6621C63.4741 18.6721 63.0605 17.4393 63.09 16.1771C63.1029 15.6195 63.09 14.9675 63.0642 14.2791C60.3462 11.7005 57.2421 9.56017 53.8638 7.93521C55.4326 12.4047 58.0438 21.4465 57.513 31.1146Z" fill="#BBC9FC"/>
<path d="M82.6387 69.819C82.6387 69.819 84.0421 74.5372 90.036 75.5645C90.2235 75.5952 90.4159 75.5722 90.5909 75.4982C90.7659 75.4242 90.9163 75.3023 91.0247 75.1466C91.1331 74.9908 91.195 74.8076 91.2034 74.6182C91.2117 74.4287 91.1662 74.2408 91.0719 74.0761L88.2544 69.1842L82.6387 69.819Z" fill="#C0DAFF"/>
<path d="M92.6279 61.6415C92.6279 61.6415 96.8875 62.8897 97.8223 68.2641C97.8498 68.4322 97.829 68.6045 97.7625 68.7613C97.696 68.918 97.5865 69.0528 97.4465 69.1501C97.3065 69.2474 97.1418 69.3033 96.9714 69.3112C96.801 69.3191 96.6319 69.2788 96.4834 69.1949L92.0691 66.6814L92.6279 61.6415Z" fill="#C0DAFF"/>
<path d="M64.6352 64.1765C65.2198 60.9745 67.4528 53.569 75.6732 52.0785C78.3209 51.5981 81.2481 51.4952 84.143 52.4388C87.3882 53.4961 91.7273 55.8209 93.7969 60.5885C94.8134 62.9261 93.7969 66.1903 92.0024 67.9961C89.6856 70.3209 85.1702 72.7615 76.7048 71.5755C76.7048 71.5755 69.2537 70.5461 65.5013 66.9238C65.1415 66.5724 64.8742 66.1377 64.7231 65.6585C64.572 65.1792 64.5418 64.6702 64.6352 64.1765Z" fill="#A99FF1"/>
<path d="M93.797 60.5799C91.7273 55.823 87.3882 53.5025 84.143 52.4302C82.3869 51.875 80.5456 51.6368 78.7057 51.7267C81.7317 54.2231 84.5277 70.1557 69.2495 69.3579C72.8171 71.0157 76.6941 71.5583 76.6941 71.5583C85.1596 72.7443 89.6749 70.3037 91.9917 67.9789C93.8056 66.1817 94.8135 62.9175 93.797 60.5799Z" fill="#696AAF"/>
<path d="M83.7002 68.9697C85.1685 68.9697 86.3587 67.782 86.3587 66.3168C86.3587 64.8516 85.1685 63.6639 83.7002 63.6639C82.232 63.6639 81.0417 64.8516 81.0417 66.3168C81.0417 67.782 82.232 68.9697 83.7002 68.9697Z" fill="white"/>
<path d="M92.2754 62.2613C92.2754 62.7241 92.1378 63.1764 91.8802 63.5612C91.6226 63.946 91.2564 64.2459 90.8279 64.423C90.3995 64.6001 89.928 64.6464 89.4732 64.5561C89.0184 64.4659 88.6006 64.243 88.2727 63.9158C87.9448 63.5886 87.7215 63.1716 87.631 62.7178C87.5405 62.2639 87.587 61.7934 87.7644 61.3659C87.9419 60.9383 88.2424 60.5729 88.628 60.3158C89.0136 60.0587 89.4669 59.9215 89.9306 59.9215C90.5523 59.922 91.1484 60.1687 91.588 60.6074C92.0276 61.0461 92.2748 61.6409 92.2754 62.2613Z" fill="white"/>
<path d="M77.8589 63.4451C77.8589 63.7085 77.7807 63.966 77.634 64.1851C77.4874 64.4041 77.2789 64.5748 77.0351 64.6756C76.7912 64.7764 76.5228 64.8028 76.2639 64.7514C76.0051 64.7 75.7672 64.5731 75.5806 64.3869C75.394 64.2006 75.2668 63.9633 75.2153 63.705C75.1638 63.4466 75.1903 63.1788 75.2913 62.9355C75.3923 62.6921 75.5634 62.4841 75.7828 62.3378C76.0023 62.1914 76.2604 62.1133 76.5243 62.1133C76.8783 62.1133 77.2177 62.2536 77.468 62.5034C77.7183 62.7532 77.8589 63.0919 77.8589 63.4451Z" fill="white"/>
<path d="M87.5859 58.0127C88.164 58.0127 88.6326 57.5451 88.6326 56.9683C88.6326 56.3914 88.164 55.9238 87.5859 55.9238C87.0079 55.9238 86.5393 56.3914 86.5393 56.9683C86.5393 57.5451 87.0079 58.0127 87.5859 58.0127Z" fill="white"/>
<path d="M2.05244 68.2148C1.98407 67.6165 2.14972 67.0149 2.51486 66.5355C2.88 66.056 3.41647 65.7357 4.01246 65.6412C12.2888 64.3244 24.5346 54.088 28.9167 49.8759C30.7307 48.1945 32.8039 46.8151 35.0567 45.7904C38.2629 44.2994 41.9257 44.1163 45.2651 45.28C55.7701 48.9859 60.1372 61.204 61.5707 66.5248C61.6553 66.8395 61.6736 67.1683 61.6246 67.4905C61.5755 67.8126 61.4602 68.1211 61.2857 68.3966C61.1113 68.672 60.8815 68.9084 60.611 69.0908C60.3404 69.2733 60.035 69.3978 59.7138 69.4566C59.1313 69.5621 58.5304 69.4457 58.0298 69.1304C57.5292 68.8151 57.1653 68.3238 57.0102 67.7537C55.7701 63.2135 52.05 52.6618 43.6855 49.7172C41.4963 48.9748 39.1048 49.1007 37.006 50.069C35.2249 50.8761 33.5845 51.9622 32.1468 53.2859C30.4275 54.9373 16.0756 68.4464 4.72812 70.2737C4.41613 70.3197 4.09805 70.3025 3.79288 70.2231C3.48771 70.1437 3.20171 70.0037 2.95196 69.8115C2.70221 69.6193 2.49383 69.3789 2.33928 69.1046C2.18473 68.8302 2.08718 68.5276 2.05244 68.2148Z" fill="#AD5A58"/>
<path d="M15.8735 89.4704C15.7676 88.9902 15.8175 88.4889 16.0161 88.039C16.2147 87.589 16.5516 87.2138 16.9781 86.9676C23.5674 83.1073 32.7549 64.3888 37.3369 52.5632C38.1201 50.3706 39.1849 48.2887 40.5047 46.3694C41.8108 44.4831 43.8009 43.1776 46.0541 42.7289C48.3073 42.2802 50.647 42.7236 52.5786 43.9653C60.6615 49.1961 63.7949 61.9996 64.7878 67.4299C64.8465 67.7461 64.8398 68.071 64.7681 68.3846C64.6964 68.6982 64.5612 68.9938 64.3707 69.2533C64.1803 69.5128 63.9388 69.7308 63.6609 69.8937C63.3829 70.0566 63.0746 70.1611 62.7547 70.2008C62.1589 70.2713 61.5585 70.1131 61.0752 69.7583C60.592 69.4034 60.262 68.8785 60.1521 68.2899C59.2667 63.4966 56.3804 52.4195 49.8621 48.1988C47.9945 46.9914 45.667 47.2208 44.3624 49.0738C43.2727 50.67 42.3943 52.4001 41.7491 54.221C40.4467 57.5709 29.7569 84.5206 19.3422 90.961C19.026 91.1511 18.6689 91.2633 18.3006 91.2883C17.9323 91.3133 17.5633 91.2503 17.2242 91.1046C16.8852 90.9589 16.5858 90.7347 16.3509 90.4505C16.116 90.1663 15.9523 89.8303 15.8735 89.4704Z" fill="#DD8378"/>
<path d="M41.3946 105.289C41.031 104.92 40.8024 104.44 40.7455 103.926C40.6886 103.412 40.8067 102.893 41.0808 102.454C45.2157 95.9923 47.3133 77.5441 47.8828 62.791C47.9356 61.2334 48.0791 59.6802 48.3126 58.1393C49.039 53.4425 50.4618 49.8481 52.5314 47.4396C53.5866 46.215 55.0029 45.3121 56.6147 45.1277C57.8824 44.9801 59.1646 45.2316 60.282 45.8468C61.3995 46.462 62.2963 47.4103 62.8472 48.5591C65.308 53.657 66.8833 63.8226 67.5496 67.9039C67.6001 68.2146 67.5877 68.5323 67.5133 68.8382C67.4389 69.1441 67.3039 69.432 67.1162 69.685C66.9285 69.938 66.692 70.151 66.4206 70.3114C66.1492 70.4718 65.8484 70.5764 65.5358 70.619C64.929 70.702 64.3136 70.5454 63.8207 70.1825C63.3278 69.8196 62.9963 69.2791 62.8967 68.6759C62.2648 64.8327 60.7862 55.1303 58.5984 50.6009C58.5021 50.3942 58.3565 50.2143 58.1745 50.0767C57.9924 49.9391 57.7793 49.8481 57.5539 49.8116C57.3471 49.7758 57.1347 49.7908 56.9351 49.8555C56.7355 49.9201 56.5547 50.0324 56.4084 50.1826C55.2758 51.3365 53.7607 53.7771 52.9698 58.8577C52.7665 60.2199 52.6423 61.5926 52.598 62.969C52.2241 72.9695 50.7412 95.6513 45.0825 104.873C44.8967 105.179 44.643 105.438 44.3411 105.631C44.0392 105.824 43.6971 105.945 43.3409 105.985C42.9848 106.025 42.6241 105.984 42.2867 105.863C41.9493 105.742 41.6441 105.546 41.3946 105.289Z" fill="#FFB7A5"/>
</svg>
