<svg width="21" height="30" viewBox="0 0 21 30" fill="none" xmlns="http://www.w3.org/2000/svg">
<path d="M10.7282 1.34484C11.0328 1.21741 11.1775 0.864708 11.0513 0.55706C10.9251 0.249412 10.5759 0.103319 10.2713 0.230751C9.96666 0.358183 9.82201 0.710885 9.94819 1.01853C10.0744 1.32618 10.4236 1.47227 10.7282 1.34484Z" fill="#C7DAFF"/>
<path d="M9.24792 1.21808C9.24792 1.21808 1.42334 1.59186 1.42334 11.2788H9.24792V1.21808Z" fill="white"/>
<path d="M11.752 1.21808C11.752 1.21808 19.5765 1.59186 19.5765 11.2788H11.752V1.21808Z" fill="#C7DAFF"/>
<path d="M10.5001 13.5124H3.06152V23.0568C3.06155 23.1947 3.09479 23.3305 3.15839 23.4526C3.22199 23.5746 3.31403 23.6792 3.42658 23.7573C3.53913 23.8355 3.6688 23.8848 3.80441 23.901C3.94003 23.9172 4.07752 23.8998 4.20501 23.8504C5.39001 23.3949 7.49091 22.8136 10.5001 22.8136C13.5093 22.8136 15.6074 23.3949 16.7952 23.8504C16.9227 23.8998 17.0602 23.9172 17.1958 23.901C17.3314 23.8848 17.4611 23.8355 17.5736 23.7573C17.6862 23.6792 17.7782 23.5746 17.8418 23.4526C17.9054 23.3305 17.9386 23.1947 17.9387 23.0568V13.5124H10.5001Z" fill="#8C266B"/>
<path d="M2.50684 11.2767H9.2481V1.86298C8.66564 6.56844 6.88918 9.6614 2.50684 11.2767Z" fill="#C7DAFF"/>
<path d="M11.5376 0.787725H9.46226C9.41178 0.787634 9.36178 0.797596 9.31512 0.817041C9.26846 0.836486 9.22606 0.865034 9.19033 0.901049C9.15461 0.937065 9.12626 0.979842 9.10693 1.02693C9.08759 1.07402 9.07764 1.1245 9.07764 1.17548V11.0755H11.9236V1.17548C11.9236 1.12438 11.9136 1.07379 11.8941 1.02661C11.8747 0.979426 11.8463 0.936587 11.8104 0.900553C11.7745 0.864519 11.7319 0.836001 11.6851 0.816638C11.6383 0.797275 11.5882 0.787449 11.5376 0.787725Z" fill="white"/>
<path d="M1.88197 14.3438C1.77474 15.6245 1.2324 21.54 0.0390998 25.8472C-0.000776561 25.9865 -0.0102943 26.1328 0.011202 26.276C0.0326984 26.4193 0.0846981 26.5562 0.163618 26.6772C0.631253 27.3808 1.837 28.8431 4.31422 29.9554C4.39202 29.9911 4.47769 30.0058 4.56282 29.998C4.64794 29.9902 4.72959 29.9601 4.79973 29.9108C4.86987 29.8614 4.92608 29.7945 4.96285 29.7166C4.99962 29.6386 5.01568 29.5524 5.00945 29.4663C4.87109 27.6155 4.58332 22.829 4.79846 18.0991C4.79846 18.0991 2.64983 16.8758 1.96221 14.3368C1.95921 14.328 1.95336 14.3204 1.9456 14.3153C1.93784 14.3102 1.92861 14.3079 1.91939 14.3087C1.91016 14.3095 1.90147 14.3134 1.89469 14.3198C1.88791 14.3261 1.88343 14.3346 1.88197 14.3438Z" fill="url(#paint0_linear_5_1020)"/>
<path d="M19.1179 14.3438C19.2251 15.6245 19.7675 21.54 20.9608 25.8472C21.0006 25.9865 21.0102 26.1328 20.9887 26.276C20.9672 26.4193 20.9152 26.5562 20.8362 26.6772C20.3686 27.3808 19.1629 28.8431 16.6856 29.9554C16.608 29.9903 16.5227 30.0043 16.4381 29.9961C16.3535 29.9879 16.2724 29.9577 16.2028 29.9085C16.1331 29.8592 16.0773 29.7926 16.0407 29.7152C16.0041 29.6377 15.9879 29.5519 15.9939 29.4663C16.1322 27.6155 16.42 22.829 16.2014 18.0991C16.2014 18.0991 18.35 16.8758 19.0376 14.3368C19.0407 14.328 19.0465 14.3204 19.0543 14.3153C19.062 14.3102 19.0712 14.3079 19.0805 14.3087C19.0897 14.3095 19.0984 14.3134 19.1052 14.3198C19.112 14.3261 19.1164 14.3346 19.1179 14.3438Z" fill="url(#paint1_linear_5_1020)"/>
<path d="M3.77798 13.8813C3.77798 13.8813 4.16606 17.6708 9.78874 17.3872L9.75138 19.4133C9.75138 19.4133 2.46224 20.3061 1.70752 13.8813H3.77798Z" fill="white"/>
<path d="M11.0906 4.50248C11.1435 4.17379 10.9224 3.86407 10.597 3.81072C10.2715 3.75737 9.96489 3.98057 9.91206 4.30927C9.85923 4.63796 10.0802 4.94767 10.4057 5.00103C10.7311 5.05438 11.0378 4.83117 11.0906 4.50248Z" fill="#C7DAFF"/>
<path d="M10.4998 8.88869C10.8295 8.88869 11.0968 8.61874 11.0968 8.28574C11.0968 7.95275 10.8295 7.6828 10.4998 7.6828C10.1701 7.6828 9.90283 7.95275 9.90283 8.28574C9.90283 8.61874 10.1701 8.88869 10.4998 8.88869Z" fill="#C7DAFF"/>
<path d="M17.2217 13.8813C17.2217 13.8813 16.8336 17.6708 11.2109 17.3872L11.2483 19.4133C11.2483 19.4133 18.5374 20.3068 19.2922 13.882L17.2217 13.8813Z" fill="white"/>
<path d="M10.5 13.8813H9.53564V19.6333C9.53564 19.795 9.59918 19.95 9.71228 20.0644C9.82539 20.1787 9.97882 20.2431 10.1389 20.2433H10.8611C11.0211 20.2431 11.1745 20.1787 11.2877 20.0644C11.4008 19.95 11.4643 19.795 11.4643 19.6333V13.8813H10.5Z" fill="#C7DAFF"/>
<path d="M11.752 11.2767H19.5765C19.5765 10.9679 19.5682 10.6696 19.553 10.3796H11.752V11.2767Z" fill="#819FEA"/>
<path d="M16.7993 15.0711H19.0559C19.1664 14.6823 19.2455 14.2851 19.2924 13.8834H17.222C17.1561 14.3026 17.0127 14.7055 16.7993 15.0711Z" fill="#819FEA"/>
<path d="M3.77798 13.8813H1.70752C1.75446 14.283 1.83358 14.6802 1.9441 15.069H4.20065C3.98725 14.7034 3.84386 14.3005 3.77798 13.8813Z" fill="#819FEA"/>
<path d="M9.53564 13.8813V15.0711H11.4643V13.8813H10.5H9.53564Z" fill="#819FEA"/>
<path d="M1.44686 10.3796C1.43164 10.6696 1.42334 10.9679 1.42334 11.2767H9.24792V10.3796H1.44686Z" fill="#819FEA"/>
<path d="M9.07715 10.3796V11.0755H10.5001H11.9231V10.3796H9.07715Z" fill="#C7DAFF"/>
<path d="M19.6908 11.0754H1.30914C1.19594 11.0754 1.08738 11.1209 1.00734 11.2017C0.927293 11.2825 0.882324 11.3922 0.882324 11.5065V13.6619C0.882324 13.7762 0.927293 13.8858 1.00734 13.9667C1.08738 14.0475 1.19594 14.0929 1.30914 14.0929H19.6908C19.804 14.0929 19.9125 14.0475 19.9926 13.9667C20.0726 13.8858 20.1176 13.7762 20.1176 13.6619V11.5065C20.1176 11.3922 20.0726 11.2825 19.9926 11.2017C19.9125 11.1209 19.804 11.0754 19.6908 11.0754Z" fill="white"/>
<path d="M3.07941 13.0102C3.31255 12.7747 3.31255 12.393 3.07941 12.1575C2.84626 11.9221 2.46827 11.9221 2.23513 12.1575C2.00199 12.393 2.00199 12.7747 2.23513 13.0102C2.46827 13.2457 2.84626 13.2457 3.07941 13.0102Z" fill="#C7DAFF"/>
<path d="M7.17544 12.5839C7.17557 12.7032 7.14068 12.8198 7.07516 12.919C7.00964 13.0183 6.91645 13.0957 6.80738 13.1414C6.69831 13.1872 6.57825 13.1992 6.4624 13.176C6.34655 13.1528 6.24011 13.0955 6.15655 13.0112C6.07299 12.9269 6.01606 12.8194 5.99297 12.7025C5.96988 12.5855 5.98166 12.4642 6.02682 12.354C6.07199 12.2438 6.14851 12.1496 6.2467 12.0833C6.34489 12.017 6.46034 11.9816 6.57844 11.9816C6.73665 11.9816 6.8884 12.0451 7.00033 12.158C7.11227 12.2709 7.17525 12.4241 7.17544 12.5839Z" fill="#C7DAFF"/>
<path d="M11.0896 12.6814C11.1425 12.3527 10.9215 12.043 10.596 11.9896C10.2706 11.9363 9.96391 12.1595 9.91108 12.4882C9.85826 12.8169 10.0793 13.1266 10.4047 13.1799C10.7302 13.2333 11.0368 13.0101 11.0896 12.6814Z" fill="#C7DAFF"/>
<path d="M18.7645 13.0102C18.9976 12.7747 18.9976 12.393 18.7645 12.1575C18.5313 11.9221 18.1533 11.9221 17.9202 12.1575C17.687 12.393 17.687 12.7747 17.9202 13.0102C18.1533 13.2457 18.5313 13.2457 18.7645 13.0102Z" fill="#C7DAFF"/>
<path d="M13.8247 12.5839C13.8246 12.7032 13.8595 12.8198 13.925 12.919C13.9905 13.0183 14.0837 13.0957 14.1928 13.1414C14.3018 13.1872 14.4219 13.1992 14.5377 13.176C14.6536 13.1528 14.76 13.0955 14.8436 13.0112C14.9272 12.9269 14.9841 12.8194 15.0072 12.7025C15.0303 12.5855 15.0185 12.4642 14.9733 12.354C14.9282 12.2438 14.8516 12.1496 14.7534 12.0833C14.6553 12.017 14.5398 11.9816 14.4217 11.9816C14.2635 11.9816 14.1117 12.0451 13.9998 12.158C13.8879 12.2709 13.8249 12.4241 13.8247 12.5839Z" fill="#C7DAFF"/>
<defs>
<linearGradient id="paint0_linear_5_1020" x1="2.50663" y1="28.5769" x2="2.50663" y2="16.5879" gradientUnits="userSpaceOnUse">
<stop stop-color="#CC5697"/>
<stop offset="1" stop-color="#8E3979"/>
</linearGradient>
<linearGradient id="paint1_linear_5_1020" x1="18.4932" y1="28.2485" x2="18.4932" y2="17.0658" gradientUnits="userSpaceOnUse">
<stop stop-color="#CC5697"/>
<stop offset="1" stop-color="#8E3979"/>
</linearGradient>
</defs>
</svg>
