<svg width="50" height="50" viewBox="0 0 50 50" fill="none" xmlns="http://www.w3.org/2000/svg">
<circle r="25" transform="matrix(-1 0 0 1 25 25)" fill="black" fill-opacity="0.75"/>
<path fill-rule="evenodd" clip-rule="evenodd" d="M3.98144 22.7667L2.00437 24.4736C1.92377 24.5434 1.85916 24.6298 1.81494 24.7268C1.77073 24.8239 1.74794 24.9293 1.74814 25.0359C1.74835 25.1425 1.77153 25.2479 1.81611 25.3447C1.86069 25.4416 1.92563 25.5277 2.00649 25.5972L3.98356 27.3042C4.38329 27.6492 4.89378 27.8389 5.42182 27.8388L32.1785 27.8403L32.1539 22.2327L5.42182 22.2342C4.8934 22.2334 4.38226 22.4223 3.98144 22.7667Z" fill="url(#paint0_linear_5_1872)"/>
<path d="M31.7074 25.0366L31.7081 23.1536L44.1115 23.1529L44.1115 25.0366L44.1115 26.9204L31.7081 26.9197L31.7074 25.0366Z" fill="#B75798"/>
<path d="M43.1996 27.1262L42.0124 25.0367L43.1996 22.9472C43.2671 22.8288 43.3648 22.7305 43.4827 22.6623C43.6006 22.5941 43.7345 22.5584 43.8707 22.559L45.7374 22.559C45.8245 22.5589 45.9108 22.5761 45.9913 22.6094C46.0718 22.6427 46.1449 22.6915 46.2065 22.7531C46.2681 22.8147 46.317 22.8879 46.3503 22.9684C46.3836 23.0488 46.4007 23.1351 46.4007 23.2222L46.4007 25.0381L46.4007 26.8539C46.4007 26.941 46.3836 27.0273 46.3503 27.1078C46.317 27.1883 46.2681 27.2614 46.2065 27.323C46.1449 27.3846 46.0718 27.4335 45.9913 27.4668C45.9108 27.5001 45.8245 27.5172 45.7374 27.5172L43.8707 27.5172C43.7342 27.5174 43.6001 27.4813 43.4822 27.4126C43.3642 27.3439 43.2667 27.245 43.1996 27.1262Z" fill="#FFD9BE"/>
<path d="M31.7081 23.1536L33.8146 23.1529L33.8146 26.9204L31.7081 26.9196L31.7074 25.0366L31.7081 23.1536Z" fill="#7F2467"/>
<path d="M36.1978 23.153H37.1748V26.92H36.1978V23.153Z" fill="#7F2467"/>
<path d="M39.5586 23.1534H40.5356V26.9203H39.5586V23.1534Z" fill="#7F2467"/>
<path d="M46.3974 23.9838L46.3974 25.0388L46.3974 26.8546C46.3974 26.9417 46.3803 27.028 46.347 27.1085C46.3137 27.189 46.2648 27.2621 46.2032 27.3237C46.1416 27.3853 46.0685 27.4341 45.988 27.4675C45.9075 27.5008 45.8212 27.5179 45.7341 27.5179L43.8674 27.5179C43.7312 27.5184 43.5972 27.4827 43.4793 27.4145C43.3614 27.3463 43.2638 27.248 43.1963 27.1297L42.0091 25.0402L44.339 25.0366C44.339 25.0366 45.6365 25.1151 46.3974 23.9838Z" fill="#FFBF76"/>
<path d="M2.05307 25.1603C1.93216 25.1215 1.81053 25.0804 1.68608 25.0366H14.9458C12.9363 25.5942 10.8563 25.8562 8.7713 25.8144L6.38693 25.8144C4.91698 25.8245 3.45456 25.6038 2.05307 25.1603Z" fill="#C7DAFF"/>
<path d="M2.00449 24.4738L3.98156 22.7668C4.38237 22.4225 4.89352 22.2335 5.42194 22.2344L9.25799 22.2323C10.6828 23.6571 12.3756 24.5169 13.8485 25.0366L1.74569 25.0366C1.74572 24.9297 1.76887 24.8241 1.81354 24.7269C1.85821 24.6298 1.92334 24.5434 2.00449 24.4738Z" fill="#C7DAFF"/>
<path d="M20.6894 22.2322L30.9495 22.2322L30.9495 25.0366L14.9463 25.0366C17.651 24.2708 19.5552 23.0992 20.6894 22.2322Z" fill="#C7DAFF"/>
<path fill-rule="evenodd" clip-rule="evenodd" d="M4.44833 27.6018C4.7502 27.755 5.0835 27.8361 5.42201 27.8387L32.1785 27.8402L32.1662 25.0357L11.3405 25.0343C9.41304 25.0199 7.51881 25.5363 5.86537 26.527C5.35504 26.8322 4.87983 27.1927 4.44833 27.6018Z" fill="url(#paint1_linear_5_1872)"/>
<path d="M30.7654 36.2811C29.9815 35.9432 29.2898 35.4227 28.7481 34.7629C28.7031 34.7091 28.6721 34.6451 28.6577 34.5765C28.6434 34.5078 28.6461 34.4367 28.6658 34.3694C28.6854 34.3021 28.7213 34.2407 28.7703 34.1906C28.8193 34.1404 28.8799 34.1031 28.9468 34.082C29.5195 33.8967 30.3023 33.4731 30.303 32.5475L30.3412 26.9656L28.7424 25.0402L30.3412 23.1147L30.303 17.5328C30.3023 16.6072 29.5195 16.1837 28.9468 15.9984C28.8799 15.9772 28.8193 15.9399 28.7703 15.8898C28.7213 15.8397 28.6854 15.7782 28.6658 15.7109C28.6461 15.6436 28.6434 15.5725 28.6577 15.5039C28.6721 15.4353 28.7031 15.3713 28.7481 15.3175C29.2898 14.6577 29.9815 14.1372 30.7654 13.7993C30.9075 13.7393 31.0661 13.7308 31.2137 13.7753C32.4653 14.1415 33.3598 14.9441 33.8795 15.5289C33.9242 15.5797 33.9537 15.6419 33.9649 15.7086C33.9761 15.7753 33.9684 15.8437 33.9428 15.9063C33.9171 15.9688 33.8745 16.023 33.8197 16.0626C33.7649 16.1023 33.7002 16.1258 33.6328 16.1306C33.3506 16.1489 33.0788 16.2435 32.8463 16.4045C32.6139 16.5654 32.4296 16.7866 32.3133 17.0442L32.3182 25.0366L32.3175 33.0305C32.4339 33.2881 32.6181 33.5093 32.8506 33.6702C33.083 33.8312 33.3549 33.9258 33.637 33.9441C33.7044 33.9489 33.7692 33.9724 33.824 34.0121C33.8787 34.0517 33.9213 34.1059 33.947 34.1684C33.9727 34.231 33.9803 34.2994 33.9692 34.3661C33.958 34.4328 33.9284 34.495 33.8838 34.5458C33.3648 35.1299 32.4667 35.936 31.2152 36.3093C31.0666 36.3528 30.9074 36.3428 30.7654 36.2811Z" fill="#FFD9BE"/>
<path d="M32.3149 33.0305C32.4312 33.2882 32.6155 33.5093 32.8479 33.6703C33.0804 33.8312 33.3522 33.9258 33.6344 33.9441C33.7018 33.9489 33.7665 33.9725 33.8213 34.0121C33.8761 34.0517 33.9187 34.1059 33.9444 34.1684C33.97 34.231 33.9777 34.2995 33.9665 34.3661C33.9553 34.4328 33.9258 34.4951 33.8811 34.5458C33.3621 35.1299 32.4641 35.936 31.2125 36.3094C31.0648 36.3538 30.9063 36.3453 30.7642 36.2853C29.9803 35.9475 29.2885 35.4269 28.7468 34.7672C28.7019 34.7134 28.6708 34.6493 28.6565 34.5807C28.6421 34.5121 28.6449 34.441 28.6645 34.3737C28.6842 34.3064 28.7201 34.2449 28.7691 34.1948C28.8181 34.1447 28.8787 34.1074 28.9455 34.0862C29.5183 33.901 30.3011 33.4774 30.3018 32.5518L30.3399 26.9699L28.7412 25.0444L32.3184 25.0367L32.3149 33.0305Z" fill="#FFBF76"/>
<path d="M32.3146 20.2403L32.3153 22.2322L30.3283 22.2322L30.3156 20.241L32.3146 20.2403Z" fill="#FFFCFF"/>
<path d="M32.315 17.7499L32.3157 18.9032L30.3097 18.9039L30.3019 17.7492L32.315 17.7499Z" fill="#FFFCFF"/>
<defs>
<linearGradient id="paint0_linear_5_1872" x1="32.1412" y1="25.2841" x2="1.84166" y2="24.9659" gradientUnits="userSpaceOnUse">
<stop stop-color="white"/>
<stop offset="1" stop-color="#C7DAFF"/>
</linearGradient>
<linearGradient id="paint1_linear_5_1872" x1="40.8777" y1="26.4392" x2="4.19912" y2="26.4392" gradientUnits="userSpaceOnUse">
<stop stop-color="#819FEA"/>
<stop offset="1" stop-color="#A7C1FC"/>
</linearGradient>
</defs>
</svg>
