<?xml version="1.0" encoding="UTF-8" standalone="no"?> <svg id="Flat" xmlns="http://www.w3.org/2000/svg" xmlns:xlink="http://www.w3.org/1999/xlink" viewBox="0 0 340 340"><defs><linearGradient id="linear-gradient" x1="260.791" y1="112.127" x2="260.791" y2="262.322" gradientUnits="userSpaceOnUse"><stop offset="0" stop-color="#ff88a3"/><stop offset="1" stop-color="#e43765"/></linearGradient><linearGradient id="linear-gradient-2" x1="78.024" y1="111.293" x2="78.024" y2="261.487" xlink:href="#linear-gradient"/><linearGradient id="linear-gradient-3" x1="188.804" y1="274.439" x2="168.45" y2="46.771" gradientUnits="userSpaceOnUse"><stop offset="0" stop-color="#bac7fa"/><stop offset="1" stop-color="#e8f1ff"/></linearGradient><linearGradient id="linear-gradient-4" x1="158.571" y1="6.661" x2="170.826" y2="267.243" gradientUnits="userSpaceOnUse"><stop offset="0" stop-color="#b9c9fa"/><stop offset="1" stop-color="#7280ba"/></linearGradient><linearGradient id="New_Gradient_Swatch_19" x1="160.268" y1="244.312" x2="178.38" y2="293.231" gradientUnits="userSpaceOnUse"><stop offset="0" stop-color="#7378aa"/><stop offset="1" stop-color="#44497d"/></linearGradient><linearGradient id="linear-gradient-5" x1="233.849" y1="222.386" x2="176.811" y2="251.435" gradientUnits="userSpaceOnUse"><stop offset="0" stop-color="#fc908b"/><stop offset="1" stop-color="#ea5936"/></linearGradient><linearGradient id="linear-gradient-6" x1="180.27" y1="334.16" x2="163.058" y2="294.865" gradientUnits="userSpaceOnUse"><stop offset="0" stop-color="#ffa753"/><stop offset="1" stop-color="#ffd3ac"/></linearGradient><linearGradient id="linear-gradient-7" x1="114.097" y1="224.976" x2="161.126" y2="251.808" xlink:href="#linear-gradient-6"/></defs><path d="M323.251,200.884c-9.471-10.809-41.074-53.824-.55-108.489a2.108,2.108,0,0,0-1.994-3.355c-15.691,2.348-65.049,14.306-101.6,73.685a4.489,4.489,0,0,0,.273,5.066,67.529,67.529,0,0,1,12.148,30.357c3.185,15.446,3.211,41.537-23.685,62.443A39.942,39.942,0,0,0,198.2,272.95a3.737,3.737,0,0,0,3.787,5.366c15.442-1.863,35.808-.529,59.191,10.259a2.092,2.092,0,0,0,2.975-1.958c-.453-14.32,1.634-68.66,58-82.31A2.1,2.1,0,0,0,323.251,200.884Z" style="fill:url(#linear-gradient)"/><path d="M130.372,260.591c-40.552-31.522-19.909-74.822-19.5-75.659a70.089,70.089,0,0,1,9.757-17.976,4.491,4.491,0,0,0,.273-5.066c-36.556-59.379-85.914-71.337-101.6-73.685A2.109,2.109,0,0,0,17.3,91.56c40.524,54.665,8.921,97.681-.55,108.49a2.1,2.1,0,0,0,1.1,3.423c56.362,13.649,58.449,67.989,58,82.309a2.093,2.093,0,0,0,2.977,1.958c22.25-10.265,41.768-11.971,56.912-10.506a3.743,3.743,0,0,0,3.614-5.549A39.918,39.918,0,0,0,130.372,260.591Z" style="fill:url(#linear-gradient-2)"/><path d="M169.105,18.42c-1.688,79.559-1.839,156.558,0,230.239h16.058V39.142S179.787,25.609,169.105,18.42Z" style="fill:url(#linear-gradient-3)"/><path d="M169.105,218.589V18.42c-10.682,7.189-16.058,20.722-16.058,20.722v185.4h0v24.115h32.116V212.634Z" style="fill:url(#linear-gradient-4)"/><path d="M153.047,255.532c5,13.853,7.317,29.149,7.511,45.583h17.094a141.467,141.467,0,0,1,7.511-45.583Z" style="fill:url(#New_Gradient_Swatch_19)"/><path d="M213.017,224.052c-5.5,4.47-23.8,18.012-43.912,18.012a33.473,33.473,0,0,0,0,18.648s34.964,0,52.058-26.417l-5.4-9.716A1.825,1.825,0,0,0,213.017,224.052Z" style="fill:url(#linear-gradient-5)"/><ellipse cx="169.105" cy="308.671" rx="16.058" ry="12.909" style="fill:url(#linear-gradient-6)"/><path d="M169.074,242.064c-20.1-.014-38.389-13.544-43.881-18.012a1.825,1.825,0,0,0-2.749.527l-5.4,9.715c16.932,26.168,51.378,26.415,52.027,26.418Z" style="fill:url(#linear-gradient-7)"/></svg>