<svg width="116" height="146" viewBox="0 0 116 146" fill="none" xmlns="http://www.w3.org/2000/svg">
<g filter="url(#filter0_d_25_649)">
<path d="M56.326 100.381C55.7427 108.407 52.1137 119.506 37.352 123.622C37.0855 123.715 36.8558 123.891 36.6973 124.125C36.5387 124.359 36.4596 124.637 36.4718 124.919V124.919C36.4718 125.654 36.9767 126.252 37.5978 126.252H51.3334C52.5509 126.251 53.7232 125.79 54.6144 124.959C55.5056 124.129 56.0496 122.992 56.137 121.776L57.4465 102.459C57.475 102.041 57.384 101.624 57.1841 101.256C56.9843 100.888 56.6838 100.584 56.3179 100.381H56.326Z" fill="#89563B"/>
<path d="M74.5115 109.996C74.5115 109.996 79.9739 120.347 92.2379 121.679C92.4762 121.702 92.6976 121.812 92.8592 121.989C93.0208 122.166 93.1112 122.396 93.1128 122.636C93.1128 122.892 93.0112 123.137 92.8304 123.318C92.6497 123.499 92.4045 123.601 92.1488 123.601H80.9513C80.1056 123.601 79.2682 123.434 78.4869 123.11C77.7056 122.786 76.9957 122.311 76.3977 121.713C75.7997 121.114 75.3253 120.404 75.0017 119.622C74.678 118.84 74.5115 118.002 74.5115 117.155V109.996Z" fill="#89563B"/>
<path d="M35.1622 71.0211L36.4907 79.4123C36.7576 81.0507 37.4639 82.5858 38.5344 83.8537C39.6049 85.1217 40.9993 86.0749 42.5687 86.6117C47.4047 88.2954 54.0335 91.787 54.9894 98.4378L53.8661 83.1958C53.8661 83.1958 39.2719 84.5254 39.415 69.7941L35.1622 71.0211Z" fill="#89563B"/>
<path d="M90.4477 70.7454L89.535 78.1772C89.3506 79.6281 88.7759 81.0017 87.8723 82.1511C86.9688 83.3006 85.7702 84.1829 84.4047 84.7038C80.1952 86.3252 74.4655 89.6142 73.8256 95.5002L74.3494 82.0418C74.3494 82.0418 87.2426 82.7661 86.6675 69.7941L90.4477 70.7454Z" fill="#89563B"/>
<path d="M50.3695 67.6753C50.3695 67.6753 56.5366 92.7355 53.6664 121.001C53.4626 123.078 52.7177 125.064 51.5062 126.763C50.0266 128.819 47.537 131.2 43.4679 132.581C43.2282 132.663 43.0195 132.817 42.8698 133.022C42.7201 133.226 42.6367 133.472 42.6308 133.726C42.6249 133.979 42.6969 134.228 42.8369 134.44C42.9769 134.651 43.1783 134.815 43.4139 134.908C46.754 136.243 52.4081 137.251 57.6599 132.289C58.9087 131.066 60.5302 130.297 62.2663 130.103C62.6533 130.069 63.0421 130.061 63.4301 130.078C65.0159 130.18 66.5285 130.783 67.7503 131.8C69.4622 133.186 74.0011 136.291 79.6093 135.621C79.8083 135.594 79.9955 135.511 80.1487 135.381C80.302 135.251 80.4149 135.08 80.4742 134.888C80.5335 134.696 80.5367 134.491 80.4835 134.297C80.4302 134.104 80.3228 133.929 80.1737 133.794C79.0936 132.813 78.694 132.289 77.4546 130.254C77.4546 130.254 86.2382 132.808 92.732 130.468C92.9781 130.376 93.189 130.209 93.3346 129.99C93.4801 129.771 93.553 129.512 93.5429 129.249C93.5327 128.987 93.44 128.734 93.2779 128.527C93.1158 128.32 92.8927 128.17 92.6402 128.098C88.4145 126.881 80.9837 123.928 77.3385 117.579C76.3857 115.867 75.8605 113.95 75.8075 111.991C75.5024 104.383 74.6843 79.6041 76.4205 68.3212L50.3695 67.6753Z" fill="#CE9E7C"/>
<path d="M68.4686 77.1854C70.5816 78.5296 73.0186 79.2766 75.5214 79.3474C75.6834 75.1153 75.9588 71.2561 76.4124 68.3158L50.3695 67.6699C50.3695 67.6699 51.2957 71.4534 52.2596 77.6988C55.7131 79.3474 63.3869 80.8121 68.4686 77.1854Z" fill="#89563B"/>
<path d="M62.2609 122.414C61.2483 129.06 57.6544 132.289 57.6544 132.289C58.9032 131.066 60.5247 130.297 62.2609 130.103C62.6478 130.069 63.0366 130.061 63.4246 130.078C65.0104 130.18 66.5231 130.783 67.7449 131.8C64.9205 129.273 63.5974 125.176 62.9953 122.376C62.9807 122.286 62.9334 122.205 62.8625 122.148C62.7917 122.09 62.7021 122.061 62.6111 122.066C62.5202 122.071 62.4341 122.109 62.3695 122.173C62.3048 122.237 62.2661 122.323 62.2609 122.414V122.414Z" fill="#89563B"/>
<path d="M87.0806 131.441C81.872 131.503 78.3511 126.336 75.7859 124.055C75.4268 123.733 74.3575 123.63 74.849 124.898C75.5625 126.753 76.4305 128.545 77.4438 130.254C80.5857 131.094 83.8289 131.494 87.0806 131.441V131.441Z" fill="#89563B"/>
<path d="M44.1564 68.1861C44.1564 68.1861 58.2809 80.8716 74.9381 69.9968C74.9381 69.9968 89.0598 78.8771 98.4752 66.9159C98.4752 66.9159 108.039 67.0565 111.166 57.014C112.074 54.0369 112.244 50.8831 111.66 47.8256C110.942 43.988 108.96 38.5209 103.56 35.7536C103.56 35.7536 108.992 26.6921 103.56 17.0902C103.56 17.0902 97.7651 6.39645 84.7288 9.11516C84.7288 9.11516 74.7707 -2.30015 53.7689 0.418554C53.7689 0.418554 36.0263 1.49955 27.3345 14.3715C27.3345 14.3715 20.5463 13.8688 15.2433 20.0954C13.0699 22.7022 11.6796 25.8722 11.2335 29.2379C10.7691 32.5133 10.8447 36.8265 13.5746 39.5587C12.137 39.9349 10.7604 40.5146 9.48655 41.2802C-0.547191 47.2418 4.14026 62.8217 15.7995 62.4055H16.11C16.11 62.4055 16.7823 69.3941 25.4066 72.2588C28.3845 73.2161 31.5543 73.413 34.6276 72.8317C37.7193 72.2534 41.7452 71.0021 44.1564 68.1861Z" fill="url(#paint0_linear_25_649)"/>
<path d="M111.652 47.8202C110.934 43.9827 108.952 38.5155 103.552 35.7482C103.552 35.7482 108.984 26.6867 103.552 17.0848C101.512 13.7294 98.4237 11.141 94.7653 9.72052C97.9028 12.3095 101.972 17.1902 100.827 24.5139C100.827 24.5139 99.7011 30.681 94.0092 33.397C94.0092 33.3592 94.0092 33.3213 94.0281 33.2835C94.2722 31.1916 93.75 29.082 92.5583 27.3461C91.3667 25.6103 89.5864 24.3658 87.5478 23.8437C87.3627 23.8035 87.17 23.8158 86.9915 23.8792C86.813 23.9426 86.6556 24.0545 86.5372 24.2025C86.4188 24.3505 86.344 24.5286 86.3213 24.7169C86.2985 24.9051 86.3286 25.0959 86.4083 25.2679C86.8795 26.2802 87.0777 27.3982 86.9835 28.5109C86.3975 34.1591 82.2231 36.1725 79.8605 36.8616C79.6869 36.9097 79.5291 37.0029 79.4029 37.1316C79.2768 37.2603 79.1869 37.4201 79.1423 37.5948C79.0976 37.7694 79.0998 37.9528 79.1486 38.1263C79.1975 38.2999 79.2912 38.4574 79.4203 38.5831C80.37 39.487 81.5119 40.1637 82.7603 40.5625C84.0088 40.9613 85.3313 41.0717 86.6285 40.8855C87.9257 40.6993 89.1639 40.2212 90.25 39.4873C91.3361 38.7534 92.242 37.7827 92.8995 36.6481C94.4034 39.4263 96.3179 44.3961 94.8949 50.0768C93.3747 56.152 88.3281 60.6327 82.242 62.0866C78.9861 62.8812 75.603 63.0063 72.2974 62.4542C71.25 62.2917 70.1791 62.5083 69.2769 63.065C68.3747 63.6218 67.7004 64.4822 67.375 65.4917C66.3084 68.651 63.5759 72.656 56.6716 74.0181C61.8208 74.9423 68.1661 74.41 74.9273 69.9968C74.9273 69.9968 89.0491 78.8772 98.4645 66.916C98.4645 66.916 108.028 67.0565 111.155 57.014C112.065 54.0354 112.236 50.8797 111.652 47.8202V47.8202Z" fill="#7F7D56"/>
<path d="M47.853 38.656C47.6678 38.6154 47.475 38.6274 47.2964 38.6907C47.1177 38.754 46.9603 38.8661 46.842 39.0143C46.7238 39.1625 46.6493 39.3409 46.627 39.5293C46.6048 39.7177 46.6357 39.9085 46.7162 40.0803C47.1882 41.0922 47.3857 42.2107 47.2886 43.3232C46.7054 48.9741 42.531 50.9848 40.1683 51.6739C39.9947 51.7225 39.837 51.816 39.711 51.945C39.585 52.074 39.4951 52.2339 39.4505 52.4087C39.4059 52.5835 39.4081 52.767 39.4568 52.9407C39.5056 53.1144 39.5992 53.2721 39.7282 53.3981C40.691 54.3124 41.8504 54.9937 43.1172 55.3898C44.3841 55.7858 45.7247 55.886 47.0363 55.6828C48.3479 55.4795 49.5955 54.9781 50.6833 54.2171C51.7711 53.4561 52.6703 52.4557 53.3117 51.2928C53.9531 50.1298 54.3197 48.8352 54.3833 47.5084C54.447 46.1816 54.2061 44.8578 53.679 43.6387C53.1519 42.4195 52.3527 41.3375 51.3428 40.4757C50.3329 39.6138 49.139 38.995 47.853 38.6669V38.656Z" fill="#7F7D56"/>
<path d="M61.1646 84.4551C60.8737 84.4292 60.5805 84.4673 60.3058 84.5667C60.0311 84.6662 59.7814 84.8245 59.5743 85.0307C58.4294 85.7901 57.7652 87.1278 58.748 88.3467C59.3205 89.0574 60.0252 89.3115 60.0468 90.3438C60.0657 91.1924 59.955 91.7167 60.5679 92.4004C61.1809 93.0841 62.6578 92.5842 62.5471 91.5897C62.5201 91.3194 62.4472 90.8978 62.3959 90.4357C62.4751 90.3279 62.537 90.2085 62.5795 90.0817C62.7766 89.5006 63.0872 89.1844 63.3896 88.6683C63.7271 88.071 63.6866 87.3981 63.5192 86.7468C63.2195 85.6036 62.4121 84.5362 61.1646 84.4551Z" fill="#89563B"/>
<path d="M71.8437 87.3413C71.8326 86.9882 71.7698 86.6385 71.6574 86.3036C71.6213 85.8382 71.4588 85.3915 71.1876 85.0118C70.1669 83.5957 68.1985 83.893 67.0483 84.9685C66.6129 85.4288 66.3178 86.004 66.1978 86.6263C66.0777 87.2486 66.1376 87.8923 66.3705 88.4818C66.7065 89.1689 67.2831 89.7085 67.9906 89.9979C68.221 90.2457 68.387 90.5464 68.4739 90.8735C68.6494 91.668 69.8888 91.8572 70.2587 91.1086C70.4143 90.8101 70.5062 90.4825 70.5287 90.1465C70.7024 89.852 70.8954 89.5694 71.1066 89.3006C71.5879 88.7625 71.8509 88.0636 71.8437 87.3413Z" fill="#89563B"/>
<path d="M61.8531 101.411C62.1015 107.148 61.9719 112.872 61.98 118.609C61.98 119.287 62.998 119.282 63.0277 118.609C63.2977 112.885 62.9278 107.115 62.4687 101.411C62.4363 101.019 61.8369 101.011 61.8531 101.411V101.411Z" fill="#89563B"/>
<path d="M74.0227 121.149C73.5961 119.104 72.8103 117.155 72.462 115.074C72.1542 113.247 72.3675 111.064 71.5196 109.399C71.309 108.986 70.7096 109.129 70.58 109.521C69.9941 111.377 70.6745 113.953 71.0903 115.836C71.525 117.788 72.2082 119.941 73.7122 121.328C73.7419 121.354 73.7793 121.371 73.819 121.375C73.8587 121.379 73.8986 121.37 73.9331 121.35C73.9675 121.33 73.9947 121.299 74.0108 121.263C74.0269 121.226 74.0311 121.186 74.0227 121.147V121.149Z" fill="#89563B"/>
<path d="M70.58 106.067C71.598 106.067 71.6007 104.486 70.58 104.486C69.5594 104.486 69.5621 106.067 70.58 106.067Z" fill="#89563B"/>
<path d="M62.7172 87.2278C62.7172 87.5485 62.6222 87.862 62.4442 88.1287C62.2662 88.3953 62.0132 88.6032 61.7171 88.7259C61.4211 88.8486 61.0953 88.8807 60.7811 88.8182C60.4668 88.7556 60.1781 88.6012 59.9516 88.3744C59.725 88.1476 59.5707 87.8587 59.5082 87.5442C59.4457 87.2296 59.4778 86.9036 59.6004 86.6073C59.723 86.311 59.9306 86.0578 60.1971 85.8796C60.4635 85.7014 60.7767 85.6064 61.0971 85.6064C61.5268 85.6064 61.9389 85.7772 62.2427 86.0813C62.5465 86.3854 62.7172 86.7978 62.7172 87.2278Z" fill="white"/>
<path d="M70.7258 87.2278C70.7258 87.5485 70.6308 87.862 70.4527 88.1287C70.2747 88.3953 70.0217 88.6032 69.7257 88.7259C69.4296 88.8486 69.1039 88.8807 68.7896 88.8182C68.4754 88.7556 68.1867 88.6012 67.9601 88.3744C67.7335 88.1476 67.5792 87.8587 67.5167 87.5442C67.4542 87.2296 67.4863 86.9036 67.6089 86.6073C67.7315 86.311 67.9392 86.0578 68.2056 85.8796C68.472 85.7014 68.7853 85.6064 69.1057 85.6064C69.5354 85.6064 69.9474 85.7772 70.2513 86.0813C70.5551 86.3854 70.7258 86.7978 70.7258 87.2278Z" fill="white"/>
</g>
<defs>
<filter id="filter0_d_25_649" x="0" y="0" width="116" height="146" filterUnits="userSpaceOnUse" color-interpolation-filters="sRGB">
<feFlood flood-opacity="0" result="BackgroundImageFix"/>
<feColorMatrix in="SourceAlpha" type="matrix" values="0 0 0 0 0 0 0 0 0 0 0 0 0 0 0 0 0 0 127 0" result="hardAlpha"/>
<feOffset dy="6"/>
<feGaussianBlur stdDeviation="2"/>
<feComposite in2="hardAlpha" operator="out"/>
<feColorMatrix type="matrix" values="0 0 0 0 0 0 0 0 0 0 0 0 0 0 0 0 0 0 0.5 0"/>
<feBlend mode="normal" in2="BackgroundImageFix" result="effect1_dropShadow_25_649"/>
<feBlend mode="normal" in="SourceGraphic" in2="effect1_dropShadow_25_649" result="shape"/>
</filter>
<linearGradient id="paint0_linear_25_649" x1="57.9865" y1="24.0221" x2="57.9865" y2="99.6295" gradientUnits="userSpaceOnUse">
<stop stop-color="#BFC29F"/>
<stop offset="1" stop-color="#9B9B6E"/>
</linearGradient>
</defs>
</svg>
