<?xml version="1.0" encoding="UTF-8" standalone="no"?> <svg xmlns="http://www.w3.org/2000/svg" xmlns:xlink="http://www.w3.org/1999/xlink" viewBox="0 0 512 512"><defs><linearGradient id="linear-gradient" x1="255.88" y1="467.66" x2="255.88" y2="161.34" gradientUnits="userSpaceOnUse"><stop offset="0" stop-color="#cc5697"/><stop offset="1" stop-color="#8e3979"/></linearGradient></defs><title>armor_plate</title><g id="armor_plate"><path d="M388.94,79a20.85,20.85,0,0,0-20.8-19.42h-222a20.84,20.84,0,0,0-20.78,19.24L103,367.1a62,62,0,0,0,22.43,49,508,508,0,0,0,117.91,72.31,31.38,31.38,0,0,0,25.06,0,508,508,0,0,0,117.91-72.31,62,62,0,0,0,22.43-49Z" style="fill:url(#linear-gradient)"/><path d="M356.44,214.61s-10.94,47-9,87.54a14.59,14.59,0,0,1-4.7,11.37c-7.14,6.63-21.88,19.22-45.18,34.05C297.6,347.57,287.26,238.41,356.44,214.61Z" style="fill:#819fea"/><path d="M155.56,214.61s10.94,47,9,87.54a14.59,14.59,0,0,0,4.7,11.37c7.14,6.63,21.88,19.22,45.18,34.05C214.4,347.57,224.74,238.41,155.56,214.61Z" style="fill:#fff"/><path d="M177.84,321.07a347.76,347.76,0,0,0,36.56,26.5s4.46-63.89-26.22-110.06C194.31,270,204.55,304.59,177.84,321.07Z" style="fill:#c7daff"/><path d="M207.23,264.08c-7.67-25.65-22.66-39.49-51.67-49.47,0,0,1.37,5.9,3.05,15.3C165.59,234.5,185.25,245.48,207.23,264.08Z" style="fill:#819fea"/><path d="M116.61,36.75l26.59,27a32.15,32.15,0,0,1,9.3,23.17c-.51,26.9-9.31,82.28-73.29,80.75,0,0-50.87.46-74-54a7.81,7.81,0,0,1,5.19-10.54c17.79-4.8,59.73-20.17,87.78-63.17a13.74,13.74,0,0,1,8.61-6.17A10.32,10.32,0,0,1,116.61,36.75Z" style="fill:#fff"/><path d="M27.28,111c29,.74,55.83-14.92,71.09-39.58,6.29-10.17,11.85-23.09,13-37.68a11,11,0,0,0-4.65,0,13.74,13.74,0,0,0-8.61,6.17c-28,43-70,58.37-87.78,63.17a7.79,7.79,0,0,0-5.23,4.75A96.62,96.62,0,0,0,27.28,111Z" style="fill:#819fea"/><path d="M303.91,278.14c16.35-23.82,40.55-41.42,49.32-47.34,1.75-9.92,3.21-16.19,3.21-16.19C326.34,225,311.3,251.49,303.91,278.14Z" style="fill:#819fea"/><path d="M342.59,224.28c-32.67,18.66-86.51,57.55-86.72,57.7-.21-.15-54.05-39-86.72-57.7a.45.45,0,0,0-.55.7c9,9.54,41.25,49.08,38,119.42a9.57,9.57,0,0,0,3.76,8.12A232.18,232.18,0,0,0,255.86,379s38.31-21.05,45.52-26.49a9.59,9.59,0,0,0,3.76-8.12c-3.25-70.34,29.05-109.88,38-119.42A.45.45,0,0,0,342.59,224.28Z" style="fill:#fff"/><path d="M342.61,224.26C310,242.92,256.08,281.83,255.87,282h0v38.47c0,16.54-12.9,30.65-29.43,31.09a68,68,0,0,1-18.88-2.43,9.34,9.34,0,0,0,2.8,3.45,232.09,232.09,0,0,0,45.52,26.5V379c.39-.22,38.33-21.07,45.5-26.48a9.59,9.59,0,0,0,3.76-8.12c-3.25-70.35,29.06-109.89,38-119.43A.45.45,0,0,0,342.61,224.26Z" style="fill:#c7daff"/><path d="M342.59,224.28c-32.67,18.66-86.51,57.55-86.72,57.7-.21-.15-54.05-39-86.72-57.7a.45.45,0,0,0-.55.7c2.58,2.74,10.68,13.79,15.72,21.53,17.4,12.15,39.06,28.76,71.55,53.88,33.42-25.12,53.44-38.09,69.7-47.27,5-7.74,15-25.4,17.57-28.14A.45.45,0,0,0,342.59,224.28Z" style="fill:#819fea"/><path d="M369.94,185.46c-22.29,17.22-114,47-114.06,47.06s-91.77-29.84-114.06-47.06a.74.74,0,0,0-1.14.86l10.18,26.19a15.07,15.07,0,0,0,5.35,6.84l99.67,70.38h0l99.67-70.38a15.2,15.2,0,0,0,5.35-6.84l10.18-26.19A.74.74,0,0,0,369.94,185.46Z" style="fill:#fff"/><path d="M230,271.46l25.88,18.27V232.52s-42.6-13.86-76.81-28.14C198.1,219.65,220.62,242.68,230,271.46Z" style="fill:#deeeff"/><path d="M200.48,21a51.74,51.74,0,0,0,15.25,49.32A10.13,10.13,0,0,1,217.8,82l-19.55,41.44s-48.08,2.24-65.15-28.3l1.79-27.85S165.44,36.27,200.48,21Z" style="fill:#819fea"/><path d="M126.81,61.43s17.57-21,43.8-32a7.34,7.34,0,0,1,10.1,5.41c1.63,8.85,4.08,23.56,5.56,38.84,1.92,19.88-13.67,37.72-33.64,37.44-.91,0-1.84-.06-2.79-.13Z" style="fill:#8c266b"/><path d="M311.52,21a51.74,51.74,0,0,1-15.25,49.32A10.13,10.13,0,0,0,294.2,82l19.55,41.44s48.08,2.24,65.15-28.3l-1.79-27.85S346.56,36.27,311.52,21Z" style="fill:#819fea"/><path d="M385.19,61.43s-17.57-21-43.8-32a7.34,7.34,0,0,0-10.1,5.41c-1.63,8.85-4.08,23.56-5.56,38.84-1.92,19.88,13.67,37.72,33.64,37.44.91,0,1.84-.06,2.79-.13Z" style="fill:#8c266b"/><path d="M319.83,37.7A34.58,34.58,0,0,0,311.28,21s-13,29.23-55.4,29.23S200.48,21,200.48,21a34.49,34.49,0,0,0-8.55,16.7c-4.11,19.4,7.28,39,25.78,46.12,17.94,6.93,38.17,6.23,38.17,6.23s20.23.7,38.17-6.23C312.55,76.67,323.94,57.1,319.83,37.7Z" style="fill:#5071ba"/><path d="M304.81,81.77a11.92,11.92,0,0,0-10.6-6.47H217.55a11.94,11.94,0,0,0-10.61,6.47l-17.88,34.8c25.45,28.54,66.82,34.32,66.82,34.32s41.37-5.78,66.82-34.32Z" style="fill:#fff"/><path d="M322.7,116.57l-17.89-34.8a11.92,11.92,0,0,0-10.6-6.47H255.88v75.59S297.25,145.11,322.7,116.57Z" style="fill:#c7daff"/><path d="M315.11,101.34c-5,2.55-14.49,7.24-26.53,12.1a87.16,87.16,0,0,1-65.46-.06c-11.9-4.84-21.25-9.5-26.23-12l-7.83,15.23c25.45,28.54,66.82,34.32,66.82,34.32s41.61-5.78,67.06-34.32Z" style="fill:#819fea"/><path d="M369.94,185.46c-22.29,17.22-114,47-114.06,47.06v57.21l99.67-70.38a15.2,15.2,0,0,0,5.35-6.84l10.18-26.19A.74.74,0,0,0,369.94,185.46Z" style="fill:#c7daff"/><path d="M369.94,185.46c-22.29,17.22-114,47-114.06,47.06s-91.77-29.84-114.06-47.06a.74.74,0,0,0-1.14.86l5.24,13.49c17.49,9.88,74.37,41.48,110,54.78,0,0,67.74-26.23,109.91-54.63l5.3-13.64A.74.74,0,0,0,369.94,185.46Z" style="fill:#819fea"/><path d="M411.63,157.35,372,109.81a29,29,0,0,0-39-5.15c-13.25,9.41-43.49,28.74-77.16,35.94-33.67-7.2-63.92-26.53-77.17-35.94a29,29,0,0,0-39,5.15l-39.61,47.54c53.44,55.38,155.75,83.09,155.75,83.09S358.18,212.73,411.63,157.35Z" style="fill:#fff"/><path d="M176.76,209.08c-20.62-17.94-32.2-44.62-29.38-71.8,1.94-18.76,9.89-31.26,15.37-37.85-.24,0-.48-.05-.73-.05a29,29,0,0,0-22.28,10.43l-39.61,47.54c21.65,22.44,51.32,40.33,79,53.68C178.3,210.38,177.51,209.73,176.76,209.08Z" style="fill:#c7daff"/><path d="M255.88,240.44V183.57c-3.71,21.2-14.6,43-43.8,41.86C237.4,235.42,255.88,240.44,255.88,240.44Z" style="fill:#c7daff"/><path d="M411.63,157.35,372,109.81a29,29,0,0,0-39-5.15c-13.25,9.41-43.49,28.74-77.16,35.94v99.84S358.19,212.72,411.63,157.35Z" style="fill:#c7daff"/><path d="M152.5,86.89a32.15,32.15,0,0,0-9.3-23.17l-26.59-27a10.32,10.32,0,0,0-9.87-3,4.66,4.66,0,0,0-.49.16C104.51,41.32,103,48.16,103,49.41c.76,72.48-27.94,103.65-42.92,115a72,72,0,0,0,19.13,3.26C143.19,169.17,152,113.79,152.5,86.89Z" style="fill:#deeeff"/><path d="M106.74,33.72a13.74,13.74,0,0,0-8.61,6.17A146,146,0,0,1,68.25,73.16c9.45-1.69,19.37-1.87,28.17,1.2.65-1,1.33-1.94,2-2.94,6.29-10.17,11.85-23.09,13-37.68A11,11,0,0,0,106.74,33.72Z" style="fill:#819fea"/><path d="M395.39,36.75l-26.59,27a32.15,32.15,0,0,0-9.3,23.17c.51,26.9,9.31,82.28,73.29,80.75,0,0,50.87.46,74-54a7.81,7.81,0,0,0-5.19-10.54c-17.79-4.8-59.73-20.17-87.78-63.17a13.74,13.74,0,0,0-8.61-6.17A10.32,10.32,0,0,0,395.39,36.75Z" style="fill:#fff"/><path d="M501.65,103.06c-17.79-4.8-59.73-20.17-87.78-63.17a13.74,13.74,0,0,0-8.61-6.17c-.26,0-.52-.09-.79-.12,10.4,19.82,36.82,78.86,16.63,133.64a98.14,98.14,0,0,0,11.69.4s50.87.46,74-54A7.81,7.81,0,0,0,501.65,103.06Z" style="fill:#deeeff"/><path d="M484.72,111c-29,.74-55.83-14.92-71.09-39.58-6.29-10.17-11.85-23.09-13-37.68a11,11,0,0,1,4.65,0,13.74,13.74,0,0,1,8.61,6.17c28.05,43,70,58.37,87.78,63.17a7.79,7.79,0,0,1,5.23,4.75A96.62,96.62,0,0,1,484.72,111Z" style="fill:#819fea"/><path d="M292.47,148.84c-8-2.34-16.68,2.92-20.91,8.36a6,6,0,0,0-1,1.86c-4.8,14.6,4.7,22.51,5.3,22.8,7,5.54,14.31-5.7,16.8-10.93C295.56,164.93,300.76,151.27,292.47,148.84Z" style="fill:#fff"/><path d="M312.38,135.83H312a5.34,5.34,0,1,0,0,10.67h.43a5.34,5.34,0,1,0,0-10.67Z" style="fill:#fff"/></g></svg>