<?xml version="1.0" encoding="UTF-8" standalone="no"?> <svg xmlns="http://www.w3.org/2000/svg" xmlns:xlink="http://www.w3.org/1999/xlink" viewBox="0 0 512 512"><defs><linearGradient id="linear-gradient" x1="371.31" y1="97.28" x2="-26.59" y2="404.97" gradientUnits="userSpaceOnUse"><stop offset="0.01" stop-color="#78264d"/><stop offset="1" stop-color="#93486f"/></linearGradient></defs><title>magic_tomb</title><g id="magic_tomb"><path d="M162,360.44v73.41a4.73,4.73,0,0,0,8.52,2.83l12.65-17a1.11,1.11,0,0,1,1.8,0l12,16.58a4.73,4.73,0,0,0,8.57-2.77V360.44Z" style="fill:#7a2b5a"/><path d="M309.64,360.44V473.53a3.22,3.22,0,0,0,6,1.65c6.3-10.61,16.83-26.33,28-34.32a3.18,3.18,0,0,0,1.37-2.6V360.44Z" style="fill:#5b153e"/><path d="M340.56,35.23h46.05a13.88,13.88,0,0,1,13.88,13.88v305A13.88,13.88,0,0,1,386.61,368H340.56Z" style="fill:#5b153e"/><path d="M268.26,43.62h99.32a15.5,15.5,0,0,1,15.51,15.5V352.49A15.5,15.5,0,0,1,367.58,368H268.26Z" style="fill:#b57b76"/><path d="M129.54,35.23H277.48l24,35.09a4.71,4.71,0,0,0,8.56-2.06l4.28-33H345a13,13,0,0,1,13,13V355a13,13,0,0,1-13,13H128.7a17.19,17.19,0,0,1-17.19-17.19V53.25A18,18,0,0,1,129.54,35.23Z" style="fill:url(#linear-gradient)"/><path d="M367.05,79.72V187l24.07-99.8a6,6,0,0,0-5.86-7.44Z" style="fill:#ddaea9"/><path d="M275.08,201.31,293,168.19a5.29,5.29,0,0,0-4.65-7.8H253l-13.61-25.2a5.28,5.28,0,0,0-9.3,0l-13.61,25.2H181.15a5.29,5.29,0,0,0-4.65,7.8l17.88,33.12L176.5,234.42a5.29,5.29,0,0,0,4.65,7.8h35.32l13.61,25.2a5.28,5.28,0,0,0,9.3,0L253,242.22h35.32a5.29,5.29,0,0,0,4.65-7.8Zm3.71-29.95-9.94,18.4-9.94-18.4Zm-16.17,29.95-16.17,29.94H223l-16.17-29.94L223,171.36h23.44Zm-27.89-51.65,5.79,10.73H228.93Zm-44.06,21.7h19.88l-9.94,18.4Zm0,59.89,9.94-18.4,9.94,18.4ZM234.73,253l-5.8-10.73h11.59Zm34.12-40.1,9.94,18.4H258.91Z" style="fill:#fff"/><path d="M139.15,323.05l1.48-20a5.35,5.35,0,0,1,10.2-1.83l7.46,16.32a5.36,5.36,0,0,1-2.82,7.17l-8.94,3.7A5.34,5.34,0,0,1,139.15,323.05Z" style="fill:#5b153e"/><path d="M339.18,88.4a3.85,3.85,0,0,0-5.62,1.73c-1.63,3.87-3.37,9.45-1.1,11.72a29.89,29.89,0,0,1,2.75,3.31,3.86,3.86,0,0,0,7-2.27V92.43a3.87,3.87,0,0,0-1.78-3.26Z" style="fill:#5b153e"/><path d="M159.48,191.13c4-29.27,25.26-53.81,53.56-62.25a74.46,74.46,0,0,1,43.28,0,3.48,3.48,0,0,0,4.38-2.3l2.21-7.43a3.45,3.45,0,0,0-2.27-4.3A90.32,90.32,0,0,0,175,133.61a3.63,3.63,0,0,0-.8,4.37l3.39,6.65-5.53-3.89a3.62,3.62,0,0,0-4.76.5,90.45,90.45,0,0,0,26,140.86,3.74,3.74,0,0,0,5.18-2.06l2.54-6.78a3.77,3.77,0,0,0-1.82-4.65A75.92,75.92,0,0,1,159.48,191.13Z" style="fill:#fff"/><path d="M282.07,127.49l-5.62,7.28a2.75,2.75,0,0,0,.68,4,75.83,75.83,0,0,1,33.54,64.55c-.78,35.92-32.21,70.08-67.94,73.87a75.22,75.22,0,0,1-33-3.87,2.8,2.8,0,0,0-3.74,2.21l-1.32,9.12a2.83,2.83,0,0,0,1.88,3.08,90.7,90.7,0,0,0,39.56,3.8c42.82-5.28,76.41-41.15,79-84.21a90.52,90.52,0,0,0-39.34-80.4A2.76,2.76,0,0,0,282.07,127.49Z" style="fill:#fff"/></g></svg>