<?xml version="1.0" encoding="UTF-8" standalone="no"?> <svg xmlns="http://www.w3.org/2000/svg" xmlns:xlink="http://www.w3.org/1999/xlink" viewBox="0 0 512 512"><defs><linearGradient id="linear-gradient" x1="218.99" y1="185.44" x2="332.9" y2="529" gradientUnits="userSpaceOnUse"><stop offset="0.01" stop-color="#a84a78"/><stop offset="1" stop-color="#c36c9a"/></linearGradient><linearGradient id="linear-gradient-2" x1="183.47" y1="256.29" x2="129.26" y2="166.67" gradientUnits="userSpaceOnUse"><stop offset="0" stop-color="#fff"/><stop offset="1" stop-color="#c7daff"/></linearGradient><linearGradient id="linear-gradient-3" x1="106.23" y1="218.96" x2="218.52" y2="218.96" gradientUnits="userSpaceOnUse"><stop offset="0" stop-color="#819fea"/><stop offset="1" stop-color="#a7c1fc"/></linearGradient><linearGradient id="linear-gradient-4" x1="147.11" y1="279.71" x2="236.51" y2="279.71" xlink:href="#linear-gradient"/></defs><title>quest_map</title><g id="quest_map"><circle cx="72.54" cy="63.84" r="21.84" transform="translate(-23.9 69.99) rotate(-45)" style="fill:#ffbf76"/><path d="M67.61,42.58a21.83,21.83,0,0,0,0,42.53,28.88,28.88,0,0,0,0-42.53Z" style="fill:#ffd9be"/><path d="M9,317.89C48.48,291.35,179.17,203.23,215.1,174.65A16.71,16.71,0,0,1,231,171.92c25.93,8.92,101.32,34.71,135.48,44.71a7.44,7.44,0,0,1,4.66,10.25l-15.64,34.24,40.94-27.86a10.26,10.26,0,0,1,9-1.26c14.7,4.87,60.13,19.76,94.33,29.16a9.14,9.14,0,0,1,4.15,15.19c-23.23,23.9-77.25,79.35-99.36,101.07a7.42,7.42,0,0,1-4.61,2.11L370.06,382l8.77,8a7.43,7.43,0,0,1,.21,10.82c-13.65,13.41-48.67,47.81-65.39,64.27A17.26,17.26,0,0,1,294,468.27L167.84,407.18a7.46,7.46,0,0,1-4-8.52l3.7-14.7-29.76,15.28a7.42,7.42,0,0,1-7.44-.37A1164,1164,0,0,0,10,331.4,7.81,7.81,0,0,1,9,317.89Z" style="fill:url(#linear-gradient)"/><path d="M435,289.65a8.61,8.61,0,0,0-3-14.4c-15.8-5.62-38.64-14-63.4-23.08l-13.16,9,5.4-11.81C310.25,230.64,254,209.63,234,202.15a14.51,14.51,0,0,0-13.88,2c-30.38,23-117.57,87.63-146.72,109.2a6.3,6.3,0,0,0,1.45,10.93c26.65,10.33,69.44,33,69.44,33,38.75,20.91,114.45,51.94,140,62.26a14.51,14.51,0,0,0,15.41-2.9C329.74,388.41,407,316,435,289.65Z" style="fill:#ffe7d0"/><path d="M313.84,352.27,302.18,341.8a3.4,3.4,0,0,0-3-.77l-19,4.51-9.88-10.68a3.38,3.38,0,0,0-3.17-1l-15.14,3.22a3.37,3.37,0,0,0-1.89,5.46L257.1,351,237,355.76a3.37,3.37,0,0,0-1.56,5.71l11,10.6a3.38,3.38,0,0,0,3.12.86l21.6-5.11,11.18,13.41a3.39,3.39,0,0,0,3.57,1.07l16.93-5.12a3.38,3.38,0,0,0,1.5-5.53l-8.86-9.58,16.93-4A3.38,3.38,0,0,0,313.84,352.27Z" style="fill:#c14c82"/><path d="M241.69,235.89c-1.42,5.18-7.19,8.13-12.89,6.57s-9.16-7-7.74-12.22,7.19-8.12,12.88-6.57S243.11,230.7,241.69,235.89Z" style="fill:#c14c82"/><path d="M310.2,301.69l-10.24.12A93.82,93.82,0,0,1,297.87,322l10,2.07A104.5,104.5,0,0,0,310.2,301.69Z" style="fill:#c14c82;fill-rule:evenodd"/><path d="M298.32,262.9l-8.32,6a51.31,51.31,0,0,1,8.05,17.4l9.92-2.54A61.71,61.71,0,0,0,298.32,262.9Z" style="fill:#c14c82;fill-rule:evenodd"/><path d="M265.77,238.88l-3.56,9.6A64.58,64.58,0,0,1,279.42,258l6.29-8.08A74.53,74.53,0,0,0,265.77,238.88Z" style="fill:#c14c82;fill-rule:evenodd"/><path d="M73.54,93.45c4.08-4.91,12.27-11.75,26-11.31a8.91,8.91,0,0,1,7.1,4.09L150.35,153l-40,23.82s-24-41.93-38-73.94A9,9,0,0,1,73.54,93.45Z" style="fill:#b75798"/><path d="M71.86,102.55c4.14-5.86,14.2-16.87,31.62-17.62a2.8,2.8,0,0,0,2.2-4.44l-1.2-1.63a13.11,13.11,0,0,0-13.72-5A48.68,48.68,0,0,0,69.21,85.65a13.23,13.23,0,0,0-2,16.82v0A2.8,2.8,0,0,0,71.86,102.55Z" style="fill:#ffd9be"/><path d="M113.88,174.68,150.35,153l-43.7-66.75a8.91,8.91,0,0,0-7.1-4.09,35,35,0,0,0-7.74.63C107,100.19,134.43,139.13,113.88,174.68Z" style="fill:#7f2467"/><path d="M89.88,87.92a39.39,39.39,0,0,1,13.6-3,2.8,2.8,0,0,0,2.2-4.44l-1.2-1.63a13.11,13.11,0,0,0-13.72-5,48.54,48.54,0,0,0-5.52,1.75A16.19,16.19,0,0,1,89.88,87.92Z" style="fill:#ffbf76"/><path d="M106.23,191.66S144,257,163.42,279.93h55.1S180.21,186.05,162.38,158Z" style="fill:url(#linear-gradient-2)"/><path d="M218.52,279.93S180.21,186.05,162.38,158l-56.15,33.67s.68,1.18,1.88,3.23c15,4.65,42.24,13.61,42.24,13.61l40.41,71.43Z" style="fill:url(#linear-gradient-3)"/><path d="M61.61,198.51l128.11-71.25a14.4,14.4,0,0,1,12-1c3.9,1.47,8.38,4.23,10.67,9.37l.2.46c5.55,13.56-8.9,27.15-22,20.63a17.38,17.38,0,0,1-3.5-2.28,6.21,6.21,0,0,0-7.16-.67l-9.54,5.58a6.17,6.17,0,0,0-2.49,2.74l-15,32.2a9.06,9.06,0,0,1-8.71,5.23l-41.1-2.23a6.22,6.22,0,0,0-3.17.67l-10.6,5.47a6.13,6.13,0,0,0-3.31,6.18,32.25,32.25,0,0,1-.33,9.67,13.64,13.64,0,0,1-15.64,11l-.46-.08C57.63,228,50.31,215,56,204.2a16,16,0,0,1,.94-1.58A13.19,13.19,0,0,1,61.61,198.51Z" style="fill:#ffd9be"/><path d="M152.94,194.25l15-32.2a6.17,6.17,0,0,1,2.49-2.74l9.54-5.58a6.21,6.21,0,0,1,7.16.67,17.38,17.38,0,0,0,3.5,2.28c13.13,6.52,27.58-7.07,22-20.63l-.2-.46c-2.29-5.14-6.77-7.9-10.67-9.37a14.4,14.4,0,0,0-12,1L129,161a76,76,0,0,1,17.27,38.31A9,9,0,0,0,152.94,194.25Z" style="fill:#ffbf76"/><path d="M148.05,280.74a1,1,0,0,1-.05-2A367.76,367.76,0,0,1,188.55,276s25.72-.78,47.11,2.57a1,1,0,0,1-.08,2c-10.81,1-31.43,2.67-46.79,2.86h0C188.16,283.45,165.8,282.27,148.05,280.74Z" style="fill:url(#linear-gradient-4)"/></g></svg>