<?xml version="1.0" encoding="UTF-8" standalone="no"?> <svg xmlns="http://www.w3.org/2000/svg" xmlns:xlink="http://www.w3.org/1999/xlink" viewBox="0 0 512 512"><defs><linearGradient id="linear-gradient" x1="186.22" y1="152.96" x2="309.57" y2="408.96" gradientUnits="userSpaceOnUse"><stop offset="0.01" stop-color="#ffc8a8"/><stop offset="1" stop-color="#ff8e73"/></linearGradient></defs><title>meat_item</title><g id="meat_item"><path d="M102.22,235.23l12.11-36.34L70,193.59A52.33,52.33,0,0,0,74.1,182c4-17.88-12.72-34.36-30-28.4-5.38,1.85-10.6,5.88-14.13,13.83,0,0-4.06,12.17,4,21.05a2.05,2.05,0,0,1-1.45,3.39c-7.51.35-20.27,3-24.68,16.76a25.75,25.75,0,0,0-1,10.21c.74,8,5,21.15,25.3,21.32a32,32,0,0,0,7.8-.93c6.72-1.65,19.44-8.37,24.46-18.42Z" style="fill:#e3eeff"/><path d="M71.41,223.52l30.81,11.71,12.11-36.34-14.61-1.75C95.58,205.58,87,218.28,71.41,223.52Z" style="fill:#c7daff"/><path d="M59.59,227.47c-12.47,2.89-40.77,5.5-46-28.25a22.67,22.67,0,0,0-5.73,9.45,25.75,25.75,0,0,0-1,10.21c.74,8,5,21.15,25.3,21.32a32,32,0,0,0,7.8-.93A45.15,45.15,0,0,0,59.59,227.47Z" style="fill:#c7daff"/><path d="M340.14,162.85s-44.22,4.54-69.56,10.67a44.5,44.5,0,0,1-12.05,1.25h-.34A45.52,45.52,0,0,1,227.57,161l-19.21-19.6a27.85,27.85,0,0,0-30.52-6.29c-18.27,7.57-46.27,23.65-65.95,55.69a97.46,97.46,0,0,0-14.08,53.73c.54,19.83,3.67,47.2,15.44,65.44a18,18,0,0,0,16.28,8.22c18.73-1.22,62.09-2.87,85.47,5.75a18.92,18.92,0,0,0,7.81,1.15c6.14-.41,18.12.37,25.23,11.17a22.81,22.81,0,0,0,3.21,4c7.33,7,35.09,30.58,82.4,36.26Z" style="fill:url(#linear-gradient)"/><path d="M123.55,242.28c-1.79,4.64-4.28,12.05-4.75,18.37a11,11,0,0,0,4.91,10.09,33.34,33.34,0,0,0,6.85,3.36,5.06,5.06,0,0,0,6.76-4.16,73.64,73.64,0,0,0-.25-18.24,11,11,0,0,0-3.51-6.63L129,241A3.42,3.42,0,0,0,123.55,242.28Z" style="fill:#fa6b5a"/><path d="M191.71,180.33l8.68,12.74a9.6,9.6,0,0,0,9.85,4l3.59-.74a3,3,0,0,0,2.39-3.26,47.17,47.17,0,0,0-2.61-10.94,10.12,10.12,0,0,0-8.73-6.44,72.78,72.78,0,0,0-11,0A3,3,0,0,0,191.71,180.33Z" style="fill:#fa6b5a"/><path d="M114.33,311.42a18,18,0,0,0,15.2,6.76c18.73-1.22,62.09-2.87,85.47,5.75a18.92,18.92,0,0,0,7.81,1.15c6.14-.41,18.12.37,25.23,11.17a22.81,22.81,0,0,0,3.21,4c7.33,7,35.09,30.58,82.4,36.26l6.49-213.7s-17.86,1.84-37.39,4.75C300.61,203.27,280.09,307.36,114.33,311.42Z" style="fill:#ff8e73"/><path d="M340.14,162.85s-50.71,41.26-64.82,129.44a45.89,45.89,0,0,0,6.48,31.84c9,14.28,24,35.54,39.07,47.1a27.65,27.65,0,0,0,12.78,5.32l14.66,2.15a28.13,28.13,0,0,0,22.91-6.93c19.07-17.14,56.56-58.52,51.7-115.62a21.7,21.7,0,0,0-12.43-17.87c-8.48-3.9-19.23-12.1-20-28.75A20.61,20.61,0,0,0,385.24,197C377.11,187.71,360.53,171,340.14,162.85Z" style="fill:#fa6b5a"/><path d="M353.39,285.65c0-.39,0-.78,0-1.18a22.67,22.67,0,0,1,30.93-20.09c16.62,6.51,39.41,14.85,51,16.46,0,0,12.81-32.34,39.57-31.17A31.36,31.36,0,0,1,499,263.05a33.94,33.94,0,0,1,6.28,21.24c-.56,12.64-8.08,24.29-19.76,29.17a32.39,32.39,0,0,1-3.71,1.29,8.67,8.67,0,0,0-6.14,10.1,53.79,53.79,0,0,1,1.09,10.86c-.13,25.53-28.49,42.09-50.74,29.57-5.81-3.27-10.84-8.72-13.38-17.64-.91-3.18-1.37-19.09,5.45-26.81,0,0-25.35-8.54-46.5-13C361.05,305.6,353.17,296.42,353.39,285.65Z" style="fill:#e3eeff"/><path d="M476.39,340.52a28.29,28.29,0,0,1-13.57,6.18,28.87,28.87,0,0,1-24.28-6.7c-9.65-8.72-8.8-20.6-6.63-28.6a7.23,7.23,0,0,0-6.17-9.19C401.22,299.68,368.47,287,353.88,281a22.33,22.33,0,0,0-.45,3.5l0,.9a22.43,22.43,0,0,0,18,22.41c21.2,4.45,46.7,13.05,46.7,13.05-6.82,7.72-6.36,23.63-5.46,26.81,2.55,8.92,7.58,14.37,13.39,17.64C446.85,377,473,363.25,476.39,340.52Z" style="fill:#c7daff"/></g></svg>