<?xml version="1.0" encoding="UTF-8" standalone="no"?> <svg xmlns="http://www.w3.org/2000/svg" xmlns:xlink="http://www.w3.org/1999/xlink" viewBox="0 0 512 512"><defs><linearGradient id="linear-gradient" x1="236.27" y1="378.96" x2="236.27" y2="-21.01" gradientUnits="userSpaceOnUse"><stop offset="0.02" stop-color="#e54254"/><stop offset="1" stop-color="#ff94a6"/></linearGradient></defs><title>fire_magic</title><g id="fire_magic"><path d="M263.31,454.19s.67.05,1.84.08a57.77,57.77,0,0,0,34.16-10.36l16.26-11.24c6.63-4.59,16-2.36,19.38,5,.05.1.09.21.14.32l-37.22,24.52-23.22,3.56S264.09,460.25,263.31,454.19Z" style="fill:#a06260"/><path d="M307.15,475.53S329.4,460.38,346.92,451c9.11-4.86,5.17-19-5.13-18.13l-.46,0a8.8,8.8,0,0,0-3.66,1.3l-31.82,19.18A58.93,58.93,0,0,1,293.58,459c-6.59,2.12-16.4,4.36-26.63,3.46C267,462.49,291.18,474.74,307.15,475.53Z" style="fill:#ba8280"/><path d="M235,403.18a12.84,12.84,0,0,1-11-3.56c-8.27-8.3-28.46-25.22-57.63-27.84,0,0-14-.41-19.44-7.68,0,0-31.94-44.38-19.6-92a3.44,3.44,0,0,1,5.73-1.6,36.16,36.16,0,0,0,7.34,5.75,9.25,9.25,0,0,0,9.57-.35,94,94,0,0,0,14.31-11.35c7.53-7.46,10.89-18.47,7.66-28.57-2-6.27-6.5-12.56-16.11-15.33a3.86,3.86,0,0,1-2.68-4.91c2.49-7.7,8.68-24.69,17.67-35.16a7.7,7.7,0,0,1,5.56-2.72c9.44-.34,38.73-3.31,55.64-26.4a32.6,32.6,0,0,0,5.35-10.88c2.13-8.1,2-21-18.15-25.5,0,0-24-5.45-12-31.91,0,0,6.07-15.17,20.85-24.34a2.93,2.93,0,0,1,4.31,3.42c-1.91,5.56-4,13.47-3.3,19.94a12.31,12.31,0,0,0,9.63,10.6C249,95,278.12,104.54,277.4,138.92a7.52,7.52,0,0,1-4.9,6.76c-7.93,3.09-22.57,13.61-12.85,48.38,0,0,6.1,20.27,23.44,21,11.06.47,12.51-8.56,12.56-13a1.86,1.86,0,0,1,2.32-1.82c10,2.59,47.71,14.87,50.07,53.38a13.5,13.5,0,0,1-3.48,9.84c-8.76,9.71-28.26,36.12-7.38,60.62A12.35,12.35,0,0,1,339,336.91c-6.8,16-27.51,51.35-80.68,62.79Z" style="fill:url(#linear-gradient)"/><path d="M303.58,177c0,5.4-3.23,9.77-8.62,9.77a9.77,9.77,0,1,1,0-19.54C300.35,167.18,303.58,171.55,303.58,177Z" style="fill:#ff697b"/><path d="M257.59,12.49a5.19,5.19,0,0,0-6.73-.68c-2.66,1.94-5.85,6.33-6.29,16.3a31.55,31.55,0,0,1-.7,8.3,3.17,3.17,0,0,0,4,3.82c.35-.11.71-.22,1.07-.35a18.32,18.32,0,0,0,11.77-21.6A12.69,12.69,0,0,0,257.59,12.49Z" style="fill:#ff94a6"/><path d="M228.89,218.66c-3.49,4.79-7.53,11.1-9.62,17.06a5.84,5.84,0,0,0,.84,5.43c3.5,4.69,9,17-14,31.79,0,0-21.64,11.16-22,33.82,0,0,.37,41.32,39.77,51.08a63.66,63.66,0,0,0,18.52,1.52,90.38,90.38,0,0,0,20.46-3.16,14.91,14.91,0,0,0,7.32-5.15c3.31-4.2,9.45-11.4,16.19-16.22a16.21,16.21,0,0,0,6.47-9.35c2.13-8.86,3.69-25.21-7.57-40.4a2.38,2.38,0,0,0-3.95.09c-2.14,3.55-6.62,8.74-14.24,7.77-7.12-.9-13.06-8.16-13.1-15.34,0-4.8,1.68-9.58,8.3-10.38a3.07,3.07,0,0,0,2.31-4.43c-2.39-4.72-7.92-12.13-20.09-16.62-6-2.22-10.78-7.12-12-13.41a34.21,34.21,0,0,1,.1-12.53A2.07,2.07,0,0,0,228.89,218.66Z" style="fill:#fbb04d"/><path d="M225.33,195.89c0,3.58-4.3,7.74-7.88,7.74a6.47,6.47,0,0,1-6.47-6.47c0-3.58,5.15-9,8.73-9S225.33,192.32,225.33,195.89Z" style="fill:#fbb04d"/><path d="M342,432.87l-.57.05a8.8,8.8,0,0,0-3.67,1.24L306,453.41A58.93,58.93,0,0,1,293.76,459a71.36,71.36,0,0,1-24.19,3.58l5.26,3.44h0s14.45,3.62,34.83-8.18L339,439a22.41,22.41,0,0,1,10.07-3.61A8.63,8.63,0,0,0,342,432.87Z" style="fill:#ddaea9"/><path d="M129.1,449.74v40.64a9,9,0,0,0,7.34,8.9c12.42,2.34,32.8,4.87,64.94-8.84,0,0,29.71-14.66,67.71-3.68,0,0,25.5,7.59,48,8.89a20,20,0,0,0,14.37-4.92c9-7.92,28.2-23.33,49.91-32.37a10.09,10.09,0,0,0-.47-18.78c-.7-.25-1.43-.48-2.19-.67a10.06,10.06,0,0,0-5.6.17c-6.38,2.07-24.25,8.38-39,18.46a44.56,44.56,0,0,1-32.55,7.34c-14.11-2.38-32.76-7.37-47.63-17.84-8.29-5.84-12-16.72-7.72-25.92a16.5,16.5,0,0,1,3.24-4.74s27.16-25.57,42.45-40.35a6.43,6.43,0,0,0-3-10.87c-6.75-1.67-15.92-2-24.29,3.94l-26.94,23.57a14.29,14.29,0,0,1-9.9,3.56c-13-.43-46.77,2.56-70.53,41.41a11,11,0,0,1-7.87,5,77.42,77.42,0,0,1-13.62.71A6.37,6.37,0,0,0,129.1,449.74Z" style="fill:#ffd3cd"/><path d="M265.92,459.2c6.95-.16,21.91-1.51,32.1-9.48l19-12.45a34,34,0,0,1,10.94-4.85c.6-.14,1.29-.29,1.91-.39a13.52,13.52,0,0,0-14.27.64L299.3,443.92a57.73,57.73,0,0,1-34.15,10.35c-1.17,0-1.84-.08-1.84-.08A10,10,0,0,0,265.92,459.2Z" style="fill:#ba8280"/><path d="M269.09,486.76s25.5,7.59,48,8.89a20,20,0,0,0,14.37-4.92c9-7.92,28.2-23.33,49.91-32.37a10.09,10.09,0,0,0-.47-18.78c-.7-.25-1.43-.48-2.19-.67a10.06,10.06,0,0,0-5.6.17c-6.38,2.07-24.25,8.38-39,18.46a44.56,44.56,0,0,1-32.55,7.34c-14.11-2.38-32.76-7.37-47.63-17.84-8.29-5.84-12-16.72-7.72-25.92a16.5,16.5,0,0,1,3.24-4.74s27.16-25.57,42.45-40.35a6.32,6.32,0,0,0,1.52-6.82,38.22,38.22,0,0,0-7.38.16,35.28,35.28,0,0,0-19.69,9.29l-28.4,26.28a16.63,16.63,0,0,1-9.82,4.38c-35.4,3.17-53.29,25.6-61.16,39.79a22.52,22.52,0,0,1-19.69,11.71H129.1v29.56a9,9,0,0,0,7.34,8.9c12.42,2.34,32.8,4.87,64.94-8.84C201.38,490.44,231.09,475.78,269.09,486.76Z" style="fill:#ddaea9"/><path d="M385.94,443.56a9.8,9.8,0,0,0-5.06-4c-.7-.25-1.43-.48-2.19-.67a10.06,10.06,0,0,0-5.6.17c-6.38,2.07-24.25,8.38-39,18.46a44.56,44.56,0,0,1-32.55,7.34c-12.25-2.06-27.92-6.11-41.57-14,16.08,14.53,38.57,20.75,51,23.2a20.61,20.61,0,0,0,15.93-3.57C354.17,451,377.25,445.18,385.94,443.56Z" style="fill:#ffd3cd"/><path d="M252.63,339.91c-4.7,4.49-10.46,5.17-17.87,4.72-7.74-.47-18.16-5.78-20.94-17.25a29.91,29.91,0,0,1,.74-14.44c1.75-5.26,6.05-9.18,11.14-11.36a12,12,0,0,0,7.52-8.9,2.62,2.62,0,0,1,3.91-1.71c2.83,1.67,6.51,4.47,8.26,8.47,0,0,2.1,6.28,6.79,10.13,4.33,3.57,7.29,8.65,7.09,14.26C259.09,329.09,257.57,335.18,252.63,339.91Z" style="fill:#fff"/><path d="M223.77,287.22a3.42,3.42,0,1,1-3.42-3.42A3.42,3.42,0,0,1,223.77,287.22Z" style="fill:#fff"/><circle cx="280.17" cy="258.79" r="3.85" style="fill:#fbb04d"/></g></svg>