<?xml version="1.0" encoding="UTF-8" standalone="no"?> <svg xmlns="http://www.w3.org/2000/svg" xmlns:xlink="http://www.w3.org/1999/xlink" viewBox="0 0 512 512"><defs><linearGradient id="linear-gradient" x1="313.85" y1="105.69" x2="313.85" y2="575.59" gradientTransform="translate(300.11 -231.95) rotate(45)" gradientUnits="userSpaceOnUse"><stop offset="0" stop-color="#fff"/><stop offset="1" stop-color="#c7daff"/></linearGradient><linearGradient id="linear-gradient-2" x1="327.87" y1="474.55" x2="327.87" y2="107.76" gradientTransform="translate(300.11 -231.95) rotate(45)" gradientUnits="userSpaceOnUse"><stop offset="0" stop-color="#819fea"/><stop offset="1" stop-color="#a7c1fc"/></linearGradient></defs><title>sword</title><g id="sword"><polygon points="165.32 346.68 152 333.37 64.29 421.07 77.61 434.39 90.93 447.71 178.63 360 165.32 346.68" style="fill:#b75798"/><path d="M98.83,442.72l-6.38-23.17-23.17-6.38a7.69,7.69,0,0,0-7.49,2l-13.2,13.2a6.63,6.63,0,0,0,0,9.38l12.84,12.84,12.84,12.84a6.63,6.63,0,0,0,9.38,0l13.2-13.2A7.69,7.69,0,0,0,98.83,442.72Z" style="fill:#ffd9be"/><polygon points="152 333.37 137.1 348.26 163.74 374.9 178.63 360 165.32 346.68 152 333.37" style="fill:#7f2467"/><rect x="125.23" y="363.05" width="9.77" height="37.67" transform="translate(-231.93 203.86) rotate(-45)" style="fill:#7f2467"/><rect x="101.46" y="386.82" width="9.77" height="37.67" transform="translate(-255.69 194.01) rotate(-45)" style="fill:#7f2467"/><path d="M54,443.11l7.46,7.46,12.84,12.84a6.63,6.63,0,0,0,9.38,0l13.2-13.2a7.69,7.69,0,0,0,2-7.49l-6.38-23.17L76,436S67.38,445.73,54,443.11Z" style="fill:#ffbf76"/><path d="M457.37,46.67l-26.05,1.91A22.05,22.05,0,0,0,417.37,55L150.85,321.49l19.83,19.83,19.83,19.83L457,94.63a22,22,0,0,0,6.39-13.95l1.91-26.05A7.42,7.42,0,0,0,457.37,46.67Z" style="fill:url(#linear-gradient)"/><path d="M223.4,248.94l-72.55,72.55,19.83,19.83L283.84,228.16C259.3,241.87,237.55,247.05,223.4,248.94Z" style="fill:#c7daff"/><path d="M375.88,137.87c.58-1.13,1.15-2.28,1.72-3.47l-93.76,93.76A214.83,214.83,0,0,0,333,190l16.86-16.86A140.44,140.44,0,0,0,375.88,137.87Z" style="fill:#c7daff"/><path d="M457.37,46.67l-26.05,1.91A22.05,22.05,0,0,0,417.37,55L390.23,82.11c0,20.15-5.89,38.2-12.63,52.29l85.58-85.58A7.42,7.42,0,0,0,457.37,46.67Z" style="fill:#c7daff"/><path d="M457,94.63a21.88,21.88,0,0,0,5.21-8.56,81.08,81.08,0,0,0-17.62,2.42,105,105,0,0,0-49.27,28.16L170.68,341.32l19.83,19.83Z" style="fill:url(#linear-gradient-2)"/><path d="M251.49,419.53a53.5,53.5,0,0,0,3.53-25,4.27,4.27,0,0,0-6.22-3.41c-5.36,2.74-13.89,5.28-20.44-1.26l-39.74-39.2-2.31-24.92-24.92-2.31-39.2-39.74c-6.54-6.55-4-15.08-1.26-20.44a4.27,4.27,0,0,0-3.41-6.22,53.5,53.5,0,0,0-25,3.53,6.62,6.62,0,0,0-3.34,3C82.92,275,82.27,287,82.73,294.81a3.63,3.63,0,0,0,6,2.51,15.58,15.58,0,0,1,15.79-2.87L161,351l56.53,56.52a15.58,15.58,0,0,1-2.87,15.79,3.63,3.63,0,0,0,2.51,6c7.8.46,19.85-.19,31.34-6.4A6.62,6.62,0,0,0,251.49,419.53Z" style="fill:#ffd9be"/><path d="M217.55,407.5a15.58,15.58,0,0,1-2.87,15.79,3.63,3.63,0,0,0,2.51,6c7.8.46,19.85-.19,31.34-6.4a6.62,6.62,0,0,0,3-3.34,53.5,53.5,0,0,0,3.53-25,4.27,4.27,0,0,0-6.22-3.41c-5.36,2.74-13.89,5.28-20.44-1.26l-39.74-39.2-2.31-24.92L161,351Z" style="fill:#ffbf76"/><polygon points="127.11 317.06 141.19 331.15 155.24 317.1 141.25 302.93 127.11 317.06" style="fill:#fffcff"/><polygon points="109.5 299.45 117.65 307.61 131.84 293.43 123.73 285.21 109.5 299.45" style="fill:#fffcff"/></g></svg>