<?xml version="1.0" encoding="UTF-8" standalone="no"?> <svg xmlns="http://www.w3.org/2000/svg" xmlns:xlink="http://www.w3.org/1999/xlink" viewBox="0 0 512 512"><defs><linearGradient id="linear-gradient" x1="217.82" y1="404.17" x2="309.59" y2="63.47" gradientUnits="userSpaceOnUse"><stop offset="0.01" stop-color="#88abd6"/><stop offset="1" stop-color="#4f76a0"/></linearGradient></defs><title>werewolves</title><g id="werewolves"><path d="M302,88.39s1-26.8,14.35-49.73a5.47,5.47,0,0,1,8.44-1.24c8.93,8.2,26.93,29,30.33,65.89Z" style="fill:#466b8e"/><path d="M207.54,163.37S196.23,204.85,155,233.18a3.09,3.09,0,0,0,.58,5.46,29.83,29.83,0,0,0,6,1.57s-32,41.37-87.35,60a5.93,5.93,0,0,0-1.59,10.46c7,5.07,18.57,11.7,35.38,16.38,0,0-5.2,7.95-17.26,13.15a10.47,10.47,0,0,0-4.24,15.56c16.62,24.23,59.35,79.76,124.26,117.48a4,4,0,0,0,6-3.93c-.66-5.65-1.51-13.41-2.08-20a3,3,0,0,1,5-2.61c13.65,11.31,52.85,38.34,118.81,41.33a10.34,10.34,0,0,0,9.14-4.77C357,468.62,384,423.86,389,383.19l7.06-2.26a5.14,5.14,0,0,0,3-7.24c-3.43-6.65-10.48-17.75-21.68-23.85,0,0,15.73-.34,26.65-10a5.91,5.91,0,0,0-1.89-10.05c-19-6.52-65-27.78-66.66-80.81Z" style="fill:url(#linear-gradient)"/><path d="M402.11,329.75c-19-6.52-65-27.78-66.66-80.81l-106.7-71.38a408.37,408.37,0,0,1,26.94,39.61l-31-11.14c-.94,23.39,16,39.25,16,39.25l30.91,1.66c12.62,27.06,21.86,57.79,18.9,86.56,0,0-3.65,38.53-47.09,25.34l-2.89,2.75s26.63,23,57.8,26.28c0,0,46.32,84.93-19.91,89.73a231.31,231.31,0,0,0,60.07,10.5,10.34,10.34,0,0,0,9.14-4.77C357,468.62,384,423.86,389,383.19l7.06-2.26a5.14,5.14,0,0,0,3-7.24c-3.43-6.65-10.48-17.75-21.68-23.85,0,0,15.73-.34,26.65-10A5.91,5.91,0,0,0,402.11,329.75Z" style="fill:#6086ad"/><path d="M283.15,24.82c11.9,9,35.73,30,40.56,57.5,0,0,33.77,9.65,54.78,37.09a16.42,16.42,0,0,1,3,6.63c3.16,14.82,17.42,72.29,51.58,91a15,15,0,0,1,7.78,10.65c2,12.19,3,35.7-14.52,49.33a7.47,7.47,0,0,1-9-.05L401.53,265.2s-20.11,22.05-48,2.59l-42-25.29a43.38,43.38,0,0,0-19-6.11c-9.26-.74-23.49-1.66-37.45-1.75a28.88,28.88,0,0,1-19-7.27c-12.36-10.94-32.23-34.65-33.68-74.73a4.08,4.08,0,0,1,6.6-3.33c2.48,1.95,5.28,4.07,7.64,5.64,0,0-1.18-31.95,22.45-52.33a4.1,4.1,0,0,1,6,.66L253,114.1s1.7-31.77,15.72-60.29A67.86,67.86,0,0,0,274.38,37c.55-2.81,1.08-5.91,1.45-9A4.59,4.59,0,0,1,283.15,24.82Z" style="fill:#88abd6"/><path d="M280.08,23.93A4.61,4.61,0,0,0,275.83,28c-.37,3.09-.9,6.19-1.45,9a67.86,67.86,0,0,1-5.64,16.82C254.72,82.33,253,114.1,253,114.1c2.36,9.86,12.32,14.67,12.32,14.67,5.16-34.05,32.91-42.47,32.91-42.47C298,45.75,286.29,29.64,280.08,23.93Z" style="fill:#6086ad"/><path d="M441.86,240.21a80.5,80.5,0,0,0-1-12.57A14.93,14.93,0,0,0,433.06,217a56,56,0,0,1-5.71-3.62,18.21,18.21,0,0,0,14.51,26.84Z" style="fill:#333345"/><path d="M344.26,231.12s1.31-13.6,18.09-24.59a3,3,0,0,1,4.59,3.09c-1.64,7.86-3.77,21.1-2,30.59Z" style="fill:#fff"/><path d="M362.5,240.21a73.62,73.62,0,0,1,.62,14.9,2.39,2.39,0,0,0,3.67,2.18c3.1-2,7.08-5.13,9-8.89Z" style="fill:#fff"/><path d="M335.57,229.4h0a2.91,2.91,0,0,0,2,3.62c9,2.62,37.73,12.47,58.71,36.53a32.5,32.5,0,0,0,5.27-4.35S375.75,235,339,227.31A2.94,2.94,0,0,0,335.57,229.4Z" style="fill:#6086ad"/><path d="M172.17,313.92c6.18,11.53,17.06,26.89,33.69,34.42,0,0-.52-12.49,2.54-23.81a2,2,0,0,1,3.75-.43c6,10.89,25.3,39.4,67,52.51a14.46,14.46,0,0,0,17.26-7.22c5.65-11.19,13.36-30.4,13.39-52.06a2,2,0,0,1,3.57-1.31c2.34,2.7,5.13,6.55,6.28,10.56a124.66,124.66,0,0,0,6.57-29.13.86.86,0,0,1,1.72,0c1.08,10.16,1.6,28.49-5.32,46a1.77,1.77,0,0,1-3.25.13l-3.17-6.79s.9,20.19-14.7,51.14a14.4,14.4,0,0,1-17.53,7.19c-16.77-5.77-47.77-19.78-67.6-48.89A109.49,109.49,0,0,0,214.8,361a1.73,1.73,0,0,1-2.19,1.65c-7.12-2-29.52-11-42.46-47.78A1.12,1.12,0,0,1,172.17,313.92Z" style="fill:#6086ad"/><path d="M341.62,168.66l-.31-.25A30.68,30.68,0,0,1,330,147.79a49.77,49.77,0,0,1,.18-12.33,1.56,1.56,0,0,1,2.87-.57l3.86,6.58,16.81,24.3,9.21,3.06a2.46,2.46,0,0,1-.88,4.34h0A23.4,23.4,0,0,1,341.62,168.66Z" style="fill:#6086ad"/><path d="M340.7,135.75c5.37,4.26,13.78,11.39,18.12,17.48a7,7,0,0,1,1.32,4.2c0,1.95-.08,5-.07,8.09a4,4,0,0,1-6,3.52c-7.2-4-18.26-12.9-18.63-30.62A3.25,3.25,0,0,1,340.7,135.75Z" style="fill:#fff"/></g></svg>