<?xml version="1.0" encoding="UTF-8" standalone="no"?> <svg xmlns="http://www.w3.org/2000/svg" xmlns:xlink="http://www.w3.org/1999/xlink" viewBox="0 0 512 512"><defs><linearGradient id="linear-gradient" x1="252.7" y1="331.64" x2="252.7" y2="646.26" gradientUnits="userSpaceOnUse"><stop offset="0.01" stop-color="#ffc3b0"/><stop offset="1" stop-color="#e8897b"/></linearGradient><linearGradient id="linear-gradient-2" x1="269.62" y1="303.59" x2="269.62" y2="131.22" xlink:href="#linear-gradient"/></defs><title>medusa</title><g id="medusa"><path d="M233.37,222.64s-48.47-22.54-87.67-5.49c-11.2,4.87-20.71,13.28-25.52,24.5A44.79,44.79,0,0,0,117.66,269c3.39,16.12,14.32,30,30,35.09a46.88,46.88,0,0,0,10.46,2.13A13.29,13.29,0,0,0,172,296.29h0a13.48,13.48,0,0,0-7.06-15.49c-9.35-4.7-21.26-13.44-17.26-26.31,0,0,8.16-24.17,47.49-14.17a90.83,90.83,0,0,1,16,5.8c6.23,2.91,14.46,7.33,19.86,12.49Z" style="fill:#5b5a3c"/><path d="M225.41,258.53s5.15,38.08,2.38,62.65c0,0-1.08,28.67-26,34.56a21.86,21.86,0,0,1-7,.45l-14.54-1.35a23,23,0,0,0-18.12,6.34c-6.09,5.87-12.83,15.79-13.46,31.28a17,17,0,0,0,2.37,9.29c5.48,9.44,19.2,32.8,26.43,43.11,0,0-4.16,44.61,32.75,57.36a56.58,56.58,0,0,0,34,.71c11.3-3.26,25.13-10.6,28.08-27.15,0,0,9.13,27.12,36.56,29A43.59,43.59,0,0,0,336,497.33c13-8.79,29.52-28.54,15.47-69.12,0,0,2.6-20,3.06-34.93A32.26,32.26,0,0,0,328,360.46a68.58,68.58,0,0,0-17.66-.57,30,30,0,0,1-21.42-6.2c-7.83-6.35-14.76-18.63-11.2-42.42Z" style="fill:url(#linear-gradient)"/><path d="M277.73,311.27l-52.32-52.74a405.79,405.79,0,0,1,3.17,42c13.38,10.55,35.55,27.64,50.79,39.36C276.88,332.92,275.88,323.67,277.73,311.27Z" style="fill:#e8897b"/><path d="M248.38,343.85l4.15,4.71a4.69,4.69,0,0,0,6.72.31l1.88-1.77a1.44,1.44,0,0,1,2.4,1.28l-2.28,13.55a3.31,3.31,0,0,1-5.79,1.57,46.06,46.06,0,0,1-9.57-18.35A1.45,1.45,0,0,1,248.38,343.85Z" style="fill:#e8897b"/><path d="M234.7,371.52a4.13,4.13,0,0,1,5,0c5.58,4.26,18.93,13.92,18.93,13.92h0a8.53,8.53,0,0,1-8.38.46l-14.9-7.39a4.13,4.13,0,0,1-.66-7Z" style="fill:#e8897b"/><path d="M286.91,367.92a3.58,3.58,0,0,0-4.22,1.07c-3.82,4.78-13.06,15.76-13.06,15.76h0a7.42,7.42,0,0,0,7.18-1.38l11-9.39a3.6,3.6,0,0,0-.93-6.06Z" style="fill:#e8897b"/><path d="M261.24,420.83a25.29,25.29,0,0,1,10,8.38,33.09,33.09,0,0,1,8.21-9.83,1.69,1.69,0,0,1,2.59,2A136.78,136.78,0,0,0,273,447.31a1.27,1.27,0,0,1-2.47.06c-1.71-6-5.22-16-11.36-24A1.68,1.68,0,0,1,261.24,420.83Z" style="fill:#e8897b"/><path d="M178.17,415.34l-10.3,14.75c3.55,5.77,6.95,11.1,9.52,14.77l4.35-28.09A2,2,0,0,0,178.17,415.34Z" style="fill:#e8897b"/><path d="M266.39,464.32c-26.85,36-70.18,30.12-71.26,29.4a47,47,0,0,0,19.08,9.72,56.53,56.53,0,0,0,29.27-.34c11.41-3.16,25.7-10.46,28.71-27.32a64.33,64.33,0,0,0-.48-10.07A3,3,0,0,0,266.39,464.32Z" style="fill:#e8897b"/><path d="M354.52,393.28A32.26,32.26,0,0,0,328,360.46a68.58,68.58,0,0,0-17.66-.57,32,32,0,0,1-6-.05c9.33,6.17,24.56,18.88,25.75,36.73a4,4,0,0,1-4.8,4.05l-3.87-.8a.79.79,0,0,0-.72,1.33c6.15,5.89,22.88,24.83,15,50.22-5,16.14-18.59,28.27-35,32.38a109.84,109.84,0,0,1-22.71,3c5.45,7.75,15.12,16.94,30.68,18A43.59,43.59,0,0,0,336,497.33c13-8.79,29.52-28.54,15.47-69.12C351.46,428.21,354.06,408.18,354.52,393.28Z" style="fill:#e8897b"/><path d="M265.93,191.61s-12.08-40.27,28.25-56.6c14.21-5.75,25.3-17.77,28.79-32.7a65.45,65.45,0,0,0-.16-29,74,74,0,0,0-14.6-31c-.7-.87-1.44-1.74-2.2-2.59A15.34,15.34,0,0,1,305.48,20h0a15.33,15.33,0,0,1,21.9-2.11c11.64,10,26.33,32.77,27.41,59.44l-13.07,76-55.57,27.67Z" style="fill:#5b5a3c"/><path d="M331.89,37.08a4.64,4.64,0,1,1-4.64-4.64A4.64,4.64,0,0,1,331.89,37.08Z" style="fill:#fff"/><path d="M282.34,179.58s13.47-31.71,47-35.36c31.53-3.45,61.46,17,69.38,47.69A80,80,0,0,1,401,216.14c-.73,14.57-6.52,28.66-17.48,38.29a48.87,48.87,0,0,1-8.72,6.14,14.9,14.9,0,0,1-21.65-9.34l-.19-.76a14.54,14.54,0,0,1,6.29-15.67c7.55-5,16.66-14.61,14-31.11a40.52,40.52,0,0,0-17.73-27.14c-11.72-7.72-30.67-12.91-50.94,11Z" style="fill:#7a7a51"/><path d="M377.66,237.7a4.64,4.64,0,1,1-4.64-4.64A4.64,4.64,0,0,1,377.66,237.7Z" style="fill:#fff"/><path d="M172.06,184.58s19.75,33.78,58.72,48.71l6.4-26.38-49.39-41.4Z" style="fill:#7a7a51"/><path d="M106.78,114.81c4.53-.59,9.75-1.13,15-1.4a55.2,55.2,0,0,1,43.07,16.87,65.1,65.1,0,0,1,9.52,12.94l-17,20.79a63.3,63.3,0,0,0-6-8.28,33.47,33.47,0,0,0-24.55-11.5l-18.62-.52a14.59,14.59,0,0,1-11.62-6.33l-.42-.63C90.54,127.93,96.38,116.14,106.78,114.81Z" style="fill:#7a7a51"/><circle cx="131.05" cy="126.3" r="5.33" style="fill:#fff"/><path d="M148.6,281.54A4.64,4.64,0,1,1,144,276.9,4.64,4.64,0,0,1,148.6,281.54Z" style="fill:#fff"/><path d="M237.18,206.91l11.61-20.7a116.1,116.1,0,0,1-11.93-5.84,64.53,64.53,0,0,1-32.84-54l-1.11-28.07c-1.1-28-21-52.29-48.5-57.6l-1.31-.24a12.68,12.68,0,0,0-14,7.87h0A12.66,12.66,0,0,0,144,63.63a149.07,149.07,0,0,1,18.62,14,33.52,33.52,0,0,1,10.68,21.13c.83,7.71,1.9,19.74,2.49,34.6a71.71,71.71,0,0,0,30.15,56A178.21,178.21,0,0,0,237.18,206.91Z" style="fill:#9d9e70"/><path d="M176.29,61.22A5.34,5.34,0,1,1,171,55.89,5.33,5.33,0,0,1,176.29,61.22Z" style="fill:#fff"/><path d="M204,126.4c-29.61,2.52-65.73,28.78-61.25,84.68,1,12.68,6.16,24.89,15.25,33.8A47.67,47.67,0,0,0,173.21,255a14.63,14.63,0,0,0,18-5.76h0a14.69,14.69,0,0,0-2.68-18.6c-8.79-8.1-19.31-23-12.26-44.66a39.4,39.4,0,0,1,3.15-6.24c16.95-28.06,57.84-27.9,75.54-.31l2.31,3.6L280,180.19a7.2,7.2,0,0,0,.14-2.9C275.51,139.65,241.8,123.19,204,126.4Z" style="fill:#828252"/><circle cx="172.06" cy="230.05" r="5.33" style="fill:#fff"/><path d="M311.61,199.4v39.94s3.08-9.93,19.6-17.86c3.83-1.84,7.64-3.71,11.32-5.82l18.37-10.53a40.3,40.3,0,0,0,19.91-39.29,107.83,107.83,0,0,1-.64-17,13.36,13.36,0,0,1,13.74-12.63l.33,0h10.09a13.68,13.68,0,0,0,13.55-15.48h0A13.69,13.69,0,0,0,405.33,109l-17.9-1.32c-16.35-1.21-30.88,10.86-32.18,27.2,0,.26,0,.52-.05.78C355.2,135.61,357.16,193.9,311.61,199.4Z" style="fill:#9d9e70"/><path d="M242.77,191.33l26.61-15.26a49.44,49.44,0,0,1-11.56-6.45c-20-15-25.23-43.12-10.35-63.18a105,105,0,0,1,8.27-9.79s26.81-23.34,21.62-51.87c0,0-7.85-45.21-61.05-37a13.79,13.79,0,0,0-11.64,15h0a13.66,13.66,0,0,0,13.49,12.33c9.38,0,21.58,1.91,26.63,11A15.4,15.4,0,0,1,246.58,54c-.19,6.69-1.43,20.29-20.69,35.73a67.54,67.54,0,0,0-15,16.53c-6.46,10.22-12.06,25.18-5.76,41.81C205.16,148.1,215.54,176.63,242.77,191.33Z" style="fill:#c2c79a"/><circle cx="230.39" cy="20.84" r="5.33" style="fill:#fff"/><path d="M296,180.62l16.32,23.7s43.19-5.79,44.77-44.24L360,103.17a21.67,21.67,0,0,1,4.88-12.94,18,18,0,0,1,14.3-6.53h8.24a11.24,11.24,0,0,0,11.24-11.24h0a11.24,11.24,0,0,0-11.24-11.24H372.36a38.37,38.37,0,0,0-38.47,36.9c0,.31,0,.63,0,.94v42.05S335,181.64,296,180.62Z" style="fill:#c2c79a"/><path d="M373.77,72.65A4.64,4.64,0,1,1,369.13,68,4.64,4.64,0,0,1,373.77,72.65Z" style="fill:#fff"/><path d="M220.62,236v.93a79.86,79.86,0,0,0,26.18,59.44,119.31,119.31,0,0,0,22.82,16.08c9.76,5.3,21.84,5.31,31-.93,6.38-4.33,12.06-11.89,13.5-25l4.39-78.58a38.09,38.09,0,0,0-.77-10.33c-1.81-8.24-7-21.26-21.5-23.43l-19.91-1.54a47.86,47.86,0,0,0-44.15,21.84c-.21.33-.43.67-.64,1C224.11,207.55,220.62,221.71,220.62,236Z" style="fill:url(#linear-gradient-2)"/><circle cx="264.24" cy="230.05" r="11.27" style="fill:#fff"/><circle cx="299.21" cy="230.05" r="11.27" style="fill:#fff"/><path d="M392,119a4.64,4.64,0,1,1-4.64-4.64A4.64,4.64,0,0,1,392,119Z" style="fill:#fff"/></g></svg>