<?xml version="1.0" encoding="UTF-8" standalone="no"?> <svg xmlns="http://www.w3.org/2000/svg" xmlns:xlink="http://www.w3.org/1999/xlink" viewBox="0 0 512 512"><defs><linearGradient id="linear-gradient" x1="273.38" y1="145.18" x2="273.38" y2="326.99" gradientUnits="userSpaceOnUse"><stop offset="0.01" stop-color="#ffc3b0"/><stop offset="1" stop-color="#e8897b"/></linearGradient><linearGradient id="linear-gradient-2" x1="271.94" y1="342.16" x2="271.94" y2="138.95" gradientUnits="userSpaceOnUse"><stop offset="0" stop-color="#a06260"/><stop offset="1" stop-color="#82494c"/></linearGradient></defs><title>dwarf_viking</title><g id="dwarf_viking"><circle cx="289.06" cy="17.91" r="6.45" style="fill:#c7daff"/><path d="M353,125.16s12.07,3,16.5,17.62c3.09,10.21,1,21.57-6.75,28.87a23.85,23.85,0,0,1-14.56,6.43Z" style="fill:#a06260"/><path d="M202.55,270.61s-57.87,11.67-105.44,70.46A13.84,13.84,0,0,0,99.58,361c12.19,8.9,31.73,28.73,50.63,71.69,0,0,24.09,61.66,112.14,68.48a91.22,91.22,0,0,0,45.44-7.79c27.53-12.77,69.12-43.5,74.58-113.74a87,87,0,0,0-7.75-44.22C359.7,304.11,318.17,261.22,202.55,270.61Z" style="fill:#f9c8b2"/><path d="M382.37,379.6a87,87,0,0,0-7.75-44.22c-13.18-27.64-47.19-64.32-134.71-66l-7.49,18.49-9.48,42.66s15.38,54.83,83.12,59.65c0,0,40.46,4.29,17.37,94.57C348.9,468.46,377.87,437.42,382.37,379.6Z" style="fill:#dda288"/><path d="M297.9,441.15a10.8,10.8,0,1,1-10.79-10.8A10.79,10.79,0,0,1,297.9,441.15Z" style="fill:#d39671"/><path d="M208,116.69s-49.22,32.74-68.92,77.2c-6.78,15.31-7.28,32.94.07,48S162.37,273.23,196.3,278Z" style="fill:#773e41"/><path d="M343.15,216.49H349a19.21,19.21,0,0,0,19.2-19.21h0a19.2,19.2,0,0,0-19.2-19.2h-5.89Z" style="fill:#c66760"/><path d="M211.51,103.82V63.75c-49-.82-64.34-33.91-69-51.19a2.71,2.71,0,0,0-5.24,0C130.11,39.26,120.37,108.14,211.51,103.82Z" style="fill:#eef6ff"/><path d="M348.23,99.19V63.61c43.46-.72,57.12-30.1,61.29-45.43a2.41,2.41,0,0,1,4.65,0C420.49,41.87,429.13,103,348.23,99.19Z" style="fill:#819fea"/><path d="M211.51,103.82V63.75A89.88,89.88,0,0,1,190.69,61C187,72.08,177.19,86,152,89.5,163.87,99.18,182.6,105.19,211.51,103.82Z" style="fill:#c7daff"/><polygon points="355.69 125.16 353.04 265.01 191.06 265.01 193.78 126.47 355.69 125.16" style="fill:url(#linear-gradient)"/><path d="M118.67,321c11.91,1.12,28.16,4.48,42.94,13.71,19.78,12.36,41.81,20.58,65,22.62,41.91,3.67,103.27,2.41,147.88-26.89a10.74,10.74,0,0,0,2.85-15.09c-12.51-18-51.1-56-154.24-56.4,0,0-63.17,3.24-109.33,47.92A8.2,8.2,0,0,0,118.67,321Z" style="fill:#bc7d5c"/><path d="M192,216.49h-5.89a19.21,19.21,0,0,1-19.21-19.21h0a19.21,19.21,0,0,1,19.21-19.2H192Z" style="fill:#e8897b"/><path d="M192.56,125.16l-1.71,159.3A105.44,105.44,0,0,0,296.29,391h0A56.75,56.75,0,0,0,353,334.3V233.88l-92.59.48L234.58,248.7s-34.9-13.39-34.9-67.52v-56Z" style="fill:url(#linear-gradient-2)"/><path d="M322.11,157.22V265H353l2.65-139.85-78.54.63c7.06.83,18.37,2.65,27.92,6.42A26.89,26.89,0,0,1,322.11,157.22Z" style="fill:#e8897b"/><path d="M321.92,278v49.31a94.24,94.24,0,0,1-8.67,40.31A74.88,74.88,0,0,1,296.36,391,56.73,56.73,0,0,0,353,334.3V233.88l-14.55.08-47.3,6.12S320.35,240.89,321.92,278Z" style="fill:#773e41"/><path d="M192,189.62s6.58-24.16,29.78-31.28c13.55-4.16,24.32-15.88,22.93-31.86H192.56Z" style="fill:#773e41"/><path d="M286,163.13a7.93,7.93,0,1,1-7.93-7.93A7.93,7.93,0,0,1,286,163.13Z" style="fill:#333345"/><path d="M345.83,163.13a7.93,7.93,0,1,1-7.93-7.93A7.93,7.93,0,0,1,345.83,163.13Z" style="fill:#333345"/><path d="M373.11,238.77a30.53,30.53,0,0,1-18.36-14.58,40.7,40.7,0,0,0-27.41-19.84c-6.42-1.32-36.14-1.32-42.57,0a40.71,40.71,0,0,0-27.4,19.84A30.53,30.53,0,0,1,239,238.77c-5.48,1.64-6.77,9.32-2.21,12.94,9.26,7.36,20.87,7.83,29.24,6.84A20.63,20.63,0,0,0,280.47,250c9.82-13.9,41.35-13.9,51.17,0a20.67,20.67,0,0,0,14.44,8.56c8.37,1,20,.52,29.24-6.84C379.88,248.09,378.59,240.41,373.11,238.77Z" style="fill:#bc8285"/><path d="M270.29,100.68V26.81s-68.52-1.55-75.75,71.05Z" style="fill:#eef6ff"/><path d="M310.29,26.81s60,12.26,54.93,69.78H310.29Z" style="fill:#c7daff"/><path d="M208,98.36l62.29,2.32v-54C265.53,65.72,250.87,90.55,208,98.36Z" style="fill:#c7daff"/><path d="M275,17.91h28.2A7.13,7.13,0,0,1,310.29,25V97.86a0,0,0,0,1,0,0H267.83a0,0,0,0,1,0,0V25A7.13,7.13,0,0,1,275,17.91Z" style="fill:#eef6ff"/><rect x="186.98" y="93.82" width="187.53" height="36.38" rx="9.43" style="fill:#c7daff"/><path d="M374.51,103.25a9.43,9.43,0,0,0-9.43-9.43h-39.2c-1.29,9.15-9.46,33.75-44.13,36.38h83.33a9.43,9.43,0,0,0,9.43-9.43Z" style="fill:#819fea"/><path d="M373.11,238.77a30.53,30.53,0,0,1-18.36-14.58,39.9,39.9,0,0,0-14.67-14.9c.34,19.17-12,27.7-24,31.46,6.52,1.54,12.24,4.6,15.52,9.24a20.67,20.67,0,0,0,14.44,8.56c8.37,1,20,.52,29.24-6.84C379.88,248.09,378.59,240.41,373.11,238.77Z" style="fill:#9e6369"/><circle cx="308.58" cy="193.45" r="3.83" style="fill:#e8897b"/><circle cx="289.06" cy="73.67" r="6.45" style="fill:#c7daff"/><circle cx="289.06" cy="44.13" r="6.45" transform="translate(199.56 322.5) rotate(-80.86)" style="fill:#c7daff"/></g></svg>