<?xml version="1.0" encoding="UTF-8" standalone="no"?> <svg xmlns="http://www.w3.org/2000/svg" xmlns:xlink="http://www.w3.org/1999/xlink" viewBox="0 0 512 512"><defs><linearGradient id="linear-gradient" x1="274.24" y1="310.22" x2="276.25" y2="155.14" gradientUnits="userSpaceOnUse"><stop offset="0.01" stop-color="#ffc3b0"/><stop offset="1" stop-color="#e8897b"/></linearGradient><linearGradient id="linear-gradient-2" x1="204.37" y1="308.03" x2="153.74" y2="228.22" gradientUnits="userSpaceOnUse"><stop offset="0" stop-color="#cc5697"/><stop offset="1" stop-color="#8e3979"/></linearGradient><linearGradient id="linear-gradient-3" x1="348.36" y1="330.73" x2="366.38" y2="270.66" xlink:href="#linear-gradient-2"/><linearGradient id="linear-gradient-4" x1="217.32" y1="119.61" x2="217.32" y2="411.53" xlink:href="#linear-gradient-2"/><linearGradient id="linear-gradient-5" x1="336.16" y1="250.76" x2="244.58" y2="109.72" xlink:href="#linear-gradient"/></defs><title>knight</title><g id="knight"><path d="M397.12,261.82s-19.66-9.94-42.37,53.43l39.05,40.41S421.43,294.26,397.12,261.82Z" style="fill:#375dab"/><path d="M240.72,187.89v42.2a47.74,47.74,0,0,1-8.46,27.16c-10.21,14.78-28,39.32-43.9,55.24,0,0,60.15,43.2,128,65.62L360.07,313s-35.75-12.58-33.46-47.58Z" style="fill:url(#linear-gradient)"/><path d="M326.61,265.46l-85.89-77.57v42.2c0,.56,0,1.12-.06,1.68L342.82,338.7,360.07,313S324.32,300.46,326.61,265.46Z" style="fill:#e8897b"/><path d="M188.36,312.49s60.15,43.2,128,65.62L360.07,313a60.81,60.81,0,0,1-21-14,35,35,0,0,1-8.19,11.53c-7,6.58-16.27,10.08-25.83,10.83-48.88,3.82-84.48-27.94-93-36.4A299.64,299.64,0,0,1,188.36,312.49Z" style="fill:#375dab"/><path d="M138.63,355.44l65.26-60.27S255.28,341,306.62,359.85a8.39,8.39,0,0,0,9.18-2.42c7.21-8.3,22.5-27.36,27.86-45.49l16.41,1.1s16.85,19,31.73,31.3a23.67,23.67,0,0,1,7.94,12.25c6.14,23.52,16.23,94.3-63.16,150.2a15.13,15.13,0,0,1-8.72,2.71c-17.37,0-76.74-4.48-125.48-60.3,0,0-25.55-28.18-55.21-41.36a31.73,31.73,0,0,1-18.65-26.14h0A31.86,31.86,0,0,1,138.63,355.44Z" style="fill:#fff"/><path d="M391.8,344.34c-14.88-12.29-31.73-31.3-31.73-31.3L343.69,312l0,0c-5.2,17.54-19.67,35.92-27.13,44.6,7.82,113.32-75.59,105.82-108.83,98.42,47.66,50.31,103.42,54.46,120.17,54.49a15.13,15.13,0,0,0,8.72-2.71c79.39-55.9,69.3-126.68,63.16-150.2A23.67,23.67,0,0,0,391.8,344.34Z" style="fill:#cde0ff"/><path d="M399.74,356.59a23.67,23.67,0,0,0-7.94-12.25c-14.88-12.29-31.73-31.3-31.73-31.3l-16.41-1.1c-5.36,18.13-20.65,37.19-27.86,45.49a8.49,8.49,0,0,1-3.92,2.53C333,423.41,331.49,489.32,330.4,509.28a14.89,14.89,0,0,0,6.18-2.49C416,450.89,405.88,380.11,399.74,356.59Z" style="fill:#afc8ff"/><path d="M178.94,289.68l20.14-11.43A12.41,12.41,0,0,1,214.67,281c6.36,7.46,15.66,19.82,21.77,34.35a19.14,19.14,0,0,1-7.75,23.91h0a19.07,19.07,0,0,1-22-1.74,368.51,368.51,0,0,1-30.65-28.36A12.47,12.47,0,0,1,178.94,289.68Z" style="fill:url(#linear-gradient-2)"/><path d="M340.28,298.87l.88,34.44a11.73,11.73,0,0,0,10.38,11.36h0a11.7,11.7,0,0,0,12.24-7.25,86.23,86.23,0,0,0,5.35-19,10.24,10.24,0,0,0-3.25-8.93,104.2,104.2,0,0,0-19.63-14.28A4,4,0,0,0,340.28,298.87Z" style="fill:url(#linear-gradient-3)"/><path d="M128,245.62c21.51,11.91,67.05,45.73,68.61,119.12A17.84,17.84,0,0,1,194.7,373c-6,12.1-27.36,45.39-82.18,50.64a15.33,15.33,0,0,1-12.8-4.92c-7.42-8.13-23-23.4-42.7-32.25A14.11,14.11,0,0,1,48.83,372c2.32-19.72,12.44-60.72,56.1-80.28a18.89,18.89,0,0,0,10.61-12.3,87.71,87.71,0,0,0,2.75-27.72A6.53,6.53,0,0,1,128,245.62Z" style="fill:#eef5ff"/><path d="M194.7,373a17.84,17.84,0,0,0,1.89-8.29c-1.53-71.72-45-105.63-67.08-118.26,21.37,28.06,78.9,119.37-35.87,166,2.37,2.33,4.45,4.49,6.08,6.27a15.33,15.33,0,0,0,12.8,4.92C167.34,418.42,188.69,385.13,194.7,373Z" style="fill:#c7daff"/><path d="M85.63,326.09a26.39,26.39,0,0,1,11.72-12.33,5.69,5.69,0,0,1,.87-.4,29.34,29.34,0,0,1,9.56-1.8,6.09,6.09,0,0,1,5.39,9.06c-3,5.26-9,11.85-20.81,13.89A6.1,6.1,0,0,1,85.63,326.09Z" style="fill:#fff"/><path d="M281.39,47.35h0A44.85,44.85,0,0,0,236.54,2.5h0a83.29,83.29,0,0,0-83.29,83.29V220.34A17.74,17.74,0,0,0,171,238.08h0a17.75,17.75,0,0,0,17.75-17.74V198.9a8.13,8.13,0,0,1,8.13-8.13h0A8.13,8.13,0,0,1,205,198.9v7.64a10.84,10.84,0,0,0,10.84,10.84h0a10.84,10.84,0,0,0,10.84-10.84V150.85S225.21,76.43,281.39,47.35Z" style="fill:url(#linear-gradient-4)"/><path d="M236.54,2.5h0a83.06,83.06,0,0,0-34.16,7.33c20,4.27,50.22,18.16,39.93,63.35l6.77,2.7a89.17,89.17,0,0,1,32.31-28.53A44.85,44.85,0,0,0,236.54,2.5Z" style="fill:#a03774"/><path d="M229.51,179.15s-17.55-7.94-19.37-38.59a93,93,0,0,1,18-60.19,106.26,106.26,0,0,1,20.23-21A93.1,93.1,0,0,1,359,56.56c14.69,10.27,27.93,26.12,32,50.51a81.87,81.87,0,0,1,.94,10c.45,10.92.38,34-7.37,43.65Z" style="fill:#eef5ff"/><path d="M384.56,160.73c7.75-9.65,7.82-32.73,7.37-43.65a81.87,81.87,0,0,0-.94-10c-4.1-24.39-17.34-40.24-32-50.51a93.42,93.42,0,0,0-64.25-16.2c23,9.67,59.61,41.1-33.58,135Z" style="fill:#c7daff"/><path d="M224.59,120c1.16-7.08,5.23-24.78,17.93-36.71a9.48,9.48,0,0,1,11.79-.93h0a9.43,9.43,0,0,1,2.55,13.06c-5.39,8-14.39,20.53-23.62,29.18a5.18,5.18,0,0,1-6.71.32h0A5.15,5.15,0,0,1,224.59,120Z" style="fill:#fff"/><path d="M240.72,187.89l7.76,32.23a25.41,25.41,0,0,0,9.65,14.57A281.91,281.91,0,0,0,327,271.32a35.32,35.32,0,0,0,12.05,2h8.44a14.88,14.88,0,0,0,13.6-8.81c4.79-10.72,12.28-30.81,15.9-58L251,179.15Z" style="fill:url(#linear-gradient-5)"/><path d="M265.69,182.35l-2.86,8.72S299.39,214.53,334,229a18.47,18.47,0,0,1,11.51,16.76,233,233,0,0,1-1.46,27.59h3.41a14.88,14.88,0,0,0,13.6-8.81c4.79-10.72,12.28-30.81,15.9-58Z" style="fill:#e8897b"/><path d="M242.87,168.64c10.2-10,47.14-43.83,110.06-74,0,0,34.27,34.27,51.62,68.12v16.51s-16.34,26.91-48.92,47.65c0,0-54.44-10.54-111.53-46.92a7.34,7.34,0,0,1-3.16-4.4h0A7.22,7.22,0,0,1,242.87,168.64Z" style="fill:#eef5ff"/><path d="M296.11,207.31c34.2,14.64,59.52,19.56,59.52,19.56,32.58-20.74,48.92-47.65,48.92-47.65V162.71c-14.14-27.6-39.53-55.47-48.43-64.82C356.76,122.46,352.72,186.66,296.11,207.31Z" style="fill:#c7daff"/><path d="M404.55,179.22V162.71c-17.35-33.85-51.62-68.12-51.62-68.12s9.21,51.29,2.7,132.28C388.21,206.13,404.55,179.22,404.55,179.22Z" style="fill:#819fea"/><path d="M324.3,139.15A132.5,132.5,0,0,1,339.72,128s3.38,40.66.62,67.33l-15.42-8.48Z" style="fill:#375dab"/><path d="M301.89,154.37l1.8,21-14.14-8.1S298.14,158.82,301.89,154.37Z" style="fill:#375dab"/><path d="M369.61,134.26a545.46,545.46,0,0,1,.33,60l9.8-11.24.31-37.14Z" style="fill:#375dab"/><path d="M393.8,163.53c-1.35-1.56-3-3.4-4.45-4.87V174.9l4.45-5Z" style="fill:#375dab"/><circle cx="240.72" cy="175.41" r="17.5" style="fill:#c7daff"/><path d="M397.12,261.82S414,293.41,392,344.71a16.54,16.54,0,0,0,2.26,17c5.5,6.71,13.89,16.29,22.58,23.69a28.2,28.2,0,0,0,28.49,4.77,72,72,0,0,0,13.34-6.81,10.23,10.23,0,0,0,3.56-13c-5.57-11.4-18.64-33.76-44-56.37a7.07,7.07,0,0,1-2.4-5C415.45,299.66,412.86,270.4,397.12,261.82Z" style="fill:#819fea"/><path d="M186.54,434c17.62-21.16,50.46-58.77,85.93-90.23-7.13-4-14-8.21-20.5-12.44C241,355.8,217.13,388.75,165,417.71A197.79,197.79,0,0,1,186.54,434Z" style="fill:#cde0ff"/><path d="M291.94,353.76c-3.38-1.55-6.74-3.2-10.07-4.91-17.39,20.25-57.17,66.26-84.48,95.22,3.17,3.13,5,5.13,5,5.13.47.54,1,1,1.42,1.56C222.43,427.8,260.5,382.29,291.94,353.76Z" style="fill:#cde0ff"/></g></svg>