<?xml version="1.0" encoding="UTF-8" standalone="no"?> <svg xmlns="http://www.w3.org/2000/svg" xmlns:xlink="http://www.w3.org/1999/xlink" viewBox="0 0 512 512"><defs><linearGradient id="linear-gradient" x1="235.83" y1="403.42" x2="235.83" y2="217.34" gradientUnits="userSpaceOnUse"><stop offset="0.01" stop-color="#ffc3b0"/><stop offset="1" stop-color="#e8897b"/></linearGradient><linearGradient id="linear-gradient-2" x1="272.7" y1="277.03" x2="272.7" y2="145.34" xlink:href="#linear-gradient"/></defs><title>sorceress</title><g id="sorceress"><path d="M332,186l-1.85,83.62s-3.21,69.5-67.39,55.61c0,0-18.1-50.68,3.56-149.65Z" style="fill:#ad3a4c"/><path d="M264.31,275.6s-10.16,44.87,16.51,57.09A28.44,28.44,0,0,0,291.33,335c11.19.54,46.89,5.81,39.78,51.42,0,0-16.58,30.18-93.64,37.6,0,0-67.16.49-97.84-46.51,0,0,9.9-44.53,39.09-46.51,0,0,15.74-.25,27.49-5.31A20,20,0,0,0,218,309.84l7.23-56.39Z" style="fill:url(#linear-gradient)"/><path d="M225.23,253.45l-4.16,32.42,50.08,39.35h0C257,308,264.31,275.6,264.31,275.6Z" style="fill:#e8897b"/><path d="M331.11,386.43c6.94-44.54-26.93-50.61-38.94-51.37,10,6.88,28.2,25,25.69,64.3C327.92,392.22,331.11,386.43,331.11,386.43Z" style="fill:#e8897b"/><path d="M237.51,400.5c3.45,2.64,11.1,9.95,11.83,23.53h12.73s-3.78-17.5,5.31-27.39a.5.5,0,0,0-.56-.81c-3.38,1.43-9.57,6.64-12.79,12.18,0,0-5-6.89-16.12-8.42A.51.51,0,0,0,237.51,400.5Z" style="fill:#e8897b"/><path d="M244,348.23c-3.26,0-30.33-2.46-39.43-24.16a3.32,3.32,0,0,1,2.07-4.45h0a3.24,3.24,0,0,1,3.93,1.83c7.89,19,32.66,20.23,33.67,20.24,16.43,0,24.84-11.6,27.74-16.69a3.22,3.22,0,0,1,3.87-1.43h0a3.24,3.24,0,0,1,1.76,4.67c-3.75,6.51-13.87,20-33.25,20Z" style="fill:#333345"/><path d="M186.55,157.09l-5.73,32.78s-40.84-1-87.4,12.75c0,0-87,27.64-81.14-62.91Z" style="fill:#6d4d7a"/><path d="M317.52,184.89l-2.29,77.79a18.64,18.64,0,0,1-.19,2.23c-.46,3.25-2.13,11.56-7.54,17.55-4.51,5-11.56,6.83-18.16,5.51-13.33-2.67-46.81-11.12-61.45-30.8V168.69Z" style="fill:url(#linear-gradient-2)"/><path d="M307.5,282.46c5.41-6,7.08-14.3,7.54-17.55a18.64,18.64,0,0,0,.19-2.23l2.29-77.79-89.63-16.2v24.67c14.14,4,53.73,16.08,72.62,31.49a11.34,11.34,0,0,1,4.05,8.8v33.84s.24,10.55-4.74,19.87A17.71,17.71,0,0,0,307.5,282.46Z" style="fill:#e8897b"/><path d="M279.48,228.54h12.94a2.72,2.72,0,0,1,2.44,4c-1.51,2.83-4.23,6.14-8.71,6.14a10.83,10.83,0,0,1-9.19-6.28A2.74,2.74,0,0,1,279.48,228.54Z" style="fill:#e8897b"/><rect x="297.15" y="185.99" width="7.4" height="15.45" rx="3.7" style="fill:#333345"/><path d="M281.57,178.33s-4.68,35.48-44.1,52.33l-4.66,67.15c-1.86,26.73-23.14,48.64-49.91,49.73-1.06,0-2.14.06-3.24,0a27.38,27.38,0,0,1-21.48-11.19l0,0a28,28,0,0,1-5.29-20.95,240.75,240.75,0,0,1,16.19-57.87,51.83,51.83,0,0,0,4-22.58c-.86-20.92-1.77-62,3.49-75.64Z" style="fill:#e25a6c"/><path d="M172.9,183.91c12.53,2.39,41,8.27,59.87,15.7a6.62,6.62,0,0,1,3.13,9.75A65,65,0,0,1,227.49,220a17.7,17.7,0,0,0-5.12,13.3c1.22,25.13,1.18,99.26-40.44,114.24,0,0,0,0,0,0,27.22-.6,49-22.71,50.88-49.76l4.66-67.15c39.41-16.85,44.1-52.34,44.1-52.34l-105-19C174.56,164.48,173.46,173.53,172.9,183.91Z" style="fill:#ad3a4c"/><path d="M12.28,139.71s174,27.14,332.86,55.87c0,0,57.38,8.94,92.93,6.67a28.14,28.14,0,0,0,7.95-1.74c13.58-5.06,54.64-24,54-68,0,0-67.08-16.05-174.86-6.75,0,0,9.47-60.5-87.66-117.53A18.93,18.93,0,0,0,224,5.94c-13.27,2.79-44.27,12.88-95.27,49.26a110.53,110.53,0,0,0-14.1-9.69,12.93,12.93,0,0,0-13.41.41A117.83,117.83,0,0,0,70.13,75.25a4.74,4.74,0,0,0,5.46,7.27,159.08,159.08,0,0,1,18.9-6,15.75,15.75,0,0,1,12.24,2.33,139.35,139.35,0,0,1,22.12,18A11.93,11.93,0,0,0,143,99.2c10.26-5.42,27.53-13.9,37.11-15l14.77,19.55s-11.49,15.46-19.15,31.33C175.77,135.07,104.28,143.8,12.28,139.71Z" style="fill:#936fa0"/><path d="M153.07,94.13c9.37-4.54,20.2-9.15,27.08-9.94l-8.42-13.64a3,3,0,0,0-5.27.33A128.34,128.34,0,0,1,153.07,94.13Z" style="fill:#6d4d7a"/><path d="M283.06,117.35a15,15,0,0,1-4.72,12.31c-2.11,2-4.66,4.24-7.28,6.42a3.52,3.52,0,0,0,2.15,6.26c20.11.4,64,1.72,84.74,5.86,0,0,24.67,5.43,32.75,22.52a14,14,0,0,1-.93,13.76A40.92,40.92,0,0,1,372,199.09c19.67,2.21,46.26,4.43,66.09,3.16a28.15,28.15,0,0,0,7.94-1.74c13.58-5.06,54.64-24,54-68,0,0-67.08-16.05-174.86-6.75,0,0,9.47-60.5-87.66-117.53C237.47,8.24,277,46,283.06,117.35Z" style="fill:#6d4d7a"/><path d="M266.35,352.89a18.44,18.44,0,1,0-24.15,17.53l.76,7.49a3.93,3.93,0,0,0,4.31,3.52l7.53-.75a4,4,0,0,0,3.53-4.32l-.79-7.77A18.39,18.39,0,0,0,266.35,352.89Z" style="fill:#fff"/><path d="M247,354.2a4.85,4.85,0,1,1-4.85-4.85A4.85,4.85,0,0,1,247,354.2Z" style="fill:#333345"/><path d="M261.06,352.42a4.85,4.85,0,1,1-4.84-4.85A4.85,4.85,0,0,1,261.06,352.42Z" style="fill:#333345"/><path d="M131.63,375a6.39,6.39,0,0,1,10.06-1.9c15.83,14.5,61.08,50.19,114.45,41.06,0,0,47-7.5,75.16-34.18a5.23,5.23,0,0,1,8.09,1.06,74.24,74.24,0,0,0,12.39,15.39,8.47,8.47,0,0,1,2.58,8.35,37.07,37.07,0,0,1-4.1,9.93,18.21,18.21,0,0,0-2.76,11.63c1.79,15.36,2.53,52.42-30,62.53,0,0-23.43,4.81-41.42-5.69a13.68,13.68,0,0,0-8.05-1.83h0a13.79,13.79,0,0,0-10.21,5.94c-5.72,8.25-20.58,22.72-52.9,18.41,0,0-39.16-3.61-41.92-44.29a36,36,0,0,0-4.55-15.53A72.3,72.3,0,0,0,128.23,417a14.38,14.38,0,0,1-6.95-17.62A209,209,0,0,1,131.63,375Z" style="fill:#936fa0"/><path d="M244.53,441.43a8.24,8.24,0,0,0-5.95-2.51,8.34,8.34,0,0,0-8.07,6.4c-11.14,45.64-39.81,48.14-55.1,45.91,12.4,12.85,29.53,14.44,29.53,14.44,32.32,4.31,47.18-10.16,52.9-18.41C261.1,461.88,249.91,447,244.53,441.43Z" style="fill:#6d4d7a"/><path d="M282.29,486.09c16.75,6.52,35.23,2.75,35.23,2.75,32.51-10.11,31.77-47.17,30-62.53a18.21,18.21,0,0,1,2.76-11.63,37.07,37.07,0,0,0,4.1-9.93,8.47,8.47,0,0,0-2.58-8.35A74.24,74.24,0,0,1,339.39,381,5.23,5.23,0,0,0,331.3,380a98.12,98.12,0,0,1-13.78,10.78h0C323.7,458.36,294.82,480,282.29,486.09Z" style="fill:#6d4d7a"/></g></svg>