<?xml version="1.0" encoding="UTF-8" standalone="no"?> <svg xmlns="http://www.w3.org/2000/svg" xmlns:xlink="http://www.w3.org/1999/xlink" viewBox="0 0 512 512"><defs><linearGradient id="linear-gradient" x1="232.83" y1="254.76" x2="259.68" y2="624.41" gradientUnits="userSpaceOnUse"><stop offset="0" stop-color="#bfc29f"/><stop offset="1" stop-color="#9b9b6e"/></linearGradient><linearGradient id="linear-gradient-2" x1="275.87" y1="51.25" x2="317.94" y2="753.85" xlink:href="#linear-gradient"/></defs><title>orc_warrior</title><g id="orc_warrior"><path d="M210.19,128.82h-67.6c-6.84,0-10.4,8.68-5.77,14.06a77.49,77.49,0,0,1,13.27,21.68c2.66,6.63,6.81,12.54,12.56,16.32,8.54,5.62,22.95,11.05,45.2,8.05Z" style="fill:#bfc29f"/><path d="M209.6,144H182.71c-3.2,0-5,4.18-3.07,7.09,4.61,6.9,13.68,16.57,29,18.21Z" style="fill:#9b9b6e"/><path d="M205.59,213.49s3.92,46.45-51.9,71.31c0,0-39.18,17.52-54,50.89a12.72,12.72,0,0,0,3.63,15c12.16,9.85,36.58,33.51,46,70.8a40.39,40.39,0,0,0,9.13,17.2C173,454.93,210.25,484.37,280.24,471a111.28,111.28,0,0,0,56.65-29.21c18.05-17.52,38.7-45.77,43.47-85.94a19.67,19.67,0,0,0-5.08-15.54c-12.22-13.41-41.75-43.83-71-59Z" style="fill:url(#linear-gradient)"/><path d="M187.8,261.94l-3.62,13.48c60.5,46.4,85.95,152.34,94.13,196,.65-.12,1.27-.21,1.93-.34a112.78,112.78,0,0,0,27.83-9.23C286.43,316.69,187.8,261.94,187.8,261.94Z" style="fill:#9b9b6e"/><path d="M354.54,331.11l22.31,11.21a19.47,19.47,0,0,0-1.57-2c-4.5-4.94-11.37-12.2-19.7-20.15h0c-3.44-3.28-7.13-6.67-11-10.07h0c-12.21-10.72-26.27-21.5-40.27-28.79l-98.72-67.82h0c-4.59,12.43,2.37,31.79,12.77,48.44,7.37,11.79,23.91,25.08,36.91,30l85.34,32.17L326,375.48l10.87,66.31a152.39,152.39,0,0,0,26.28-33.74c-3.87-17.5-16.86-35.75-16.86-35.75A244.17,244.17,0,0,0,354.54,331.11Z" style="fill:#9b9b6e"/><path d="M365.25,208.86c.23-2.5.36-5,.36-7.58V109a83.52,83.52,0,0,0-83.52-83.52h0A83.52,83.52,0,0,0,198.57,109v92.33a83.53,83.53,0,0,0,83.52,83.52h30.13a60,60,0,0,0,60-60V219.6A11.75,11.75,0,0,0,365.25,208.86Z" style="fill:url(#linear-gradient-2)"/><path d="M247.79,136.35H277.3a4.17,4.17,0,0,1,4,5.28c-1.31,4.6-4.35,11-11.36,13.82a18.64,18.64,0,0,1-15.55-.88,23.73,23.73,0,0,1-10.91-12A4.56,4.56,0,0,1,247.79,136.35Z" style="fill:#fcfaff"/><path d="M300.69,171.71a5.09,5.09,0,1,1-5.08-5.09A5.08,5.08,0,0,1,300.69,171.71Z" style="fill:#9b9b6e"/><path d="M318,171.71a5.09,5.09,0,1,1-5.08-5.09A5.08,5.08,0,0,1,318,171.71Z" style="fill:#9b9b6e"/><path d="M269.86,127.19H247.72a3.57,3.57,0,0,1-3.56-3.56V71.09a4.71,4.71,0,0,1,4.7-4.71h0a4.68,4.68,0,0,1,4.44,3.14c2,5.83,7.16,18.38,16.07,25.65a10.51,10.51,0,0,1,4.05,8.09v20.37A3.57,3.57,0,0,1,269.86,127.19Z" style="fill:#c9519c"/><path d="M250,165.6h14.16a4.92,4.92,0,0,1,4.92,4.92h0a4.92,4.92,0,0,1-1.86,3.86c-3.35,2.64-10.34,8.78-13.53,16.25a4.13,4.13,0,0,1-3.81,2.45h0a4.2,4.2,0,0,1-4.2-4.2V169.93A4.32,4.32,0,0,1,250,165.6Z" style="fill:#c9519c"/><path d="M291.24,120.87l7,6.95a3.45,3.45,0,0,0,4.89,0l6.83-7a1.62,1.62,0,0,0-1.47-2.73l-5,1.7a9.05,9.05,0,0,1-5.84,0l-5-1.69A1.63,1.63,0,0,0,291.24,120.87Z" style="fill:#9b9b6e"/><path d="M360.25,135h47.63c4.82,0,7.33,6.91,4.07,11.19a63.72,63.72,0,0,0-9.36,17.27c-1.87,5.28-4.8,10-8.85,13-6,4.47-16.17,8.8-31.85,6.41Z" style="fill:#7f7d56"/><path d="M305.85,284.8h6.37a60,60,0,0,0,60-60V219.6a11.65,11.65,0,0,0-3.38-8.2H341.24C342.31,227.78,341,267.5,305.85,284.8Z" style="fill:#9b9b6e"/><path d="M368.87,211.4a12,12,0,0,0-3.62-2.54c.23-2.5.36-5,.36-7.58V109A83.51,83.51,0,0,0,312.8,31.29c9.89,13.55,23.89,44.69,23.88,112.35H318c.8,14.91,11.21,19,18.3,20-.54,14.45-1.66,30.31-3.51,47.77Z" style="fill:#9b9b6e"/><path d="M347.32,136.35H317.81a4.16,4.16,0,0,0-4,5.28c1.31,4.6,4.35,11,11.36,13.82a18.64,18.64,0,0,0,15.55-.88,23.73,23.73,0,0,0,10.91-12A4.56,4.56,0,0,0,347.32,136.35Z" style="fill:#fcfaff"/><path d="M265.28,211.4a61.33,61.33,0,0,1,8-24.14,4.51,4.51,0,0,1,7.72-.1c3.45,5.65,8,14.9,8.2,24.24Z" style="fill:#fcfaff"/><path d="M328,211.4a61.33,61.33,0,0,1,8-24.14,4.52,4.52,0,0,1,7.73-.1c3.45,5.65,8,14.9,8.2,24.24Z" style="fill:#fcfaff"/><path d="M163.86,278.67c16.51,13.61,59.9,53.62,75.68,109.64l22.79-20.08s-12.27-55.18-74.53-106.29a11.44,11.44,0,0,0-14-.42l-9.64,7.09A6.36,6.36,0,0,0,163.86,278.67Z" style="fill:#b77d85"/><path d="M330.4,296.54c-.86,12.46-4.17,41.65-16.79,70.26l19.17,13.39S352,342.93,350.8,311a12.45,12.45,0,0,0-5.07-9.55l-9.92-7.35A3.39,3.39,0,0,0,330.4,296.54Z" style="fill:#b77d85"/><path d="M239.54,388.31l22.79-20.08a120.49,120.49,0,0,0-6.65-19,119.59,119.59,0,0,0-23,19.53A171.33,171.33,0,0,1,239.54,388.31Z" style="fill:#9d5d65"/><path d="M320.43,348.69a183.17,183.17,0,0,1-6.82,18.11l19.17,13.39a186.46,186.46,0,0,0,7.68-17.78A54.24,54.24,0,0,0,320.43,348.69Z" style="fill:#9d5d65"/><path d="M229.41,485.65c31.74,2.79,99.15,2.24,127.41-47.38a19.16,19.16,0,0,0,2.32-12.09,107.35,107.35,0,0,0-16.07-43.26c-21.4-32.75-68-35.77-95.54-7.93-16.68,16.9-34.39,45.53-35.52,91.42A19,19,0,0,0,229.41,485.65Z" style="fill:#c4d5ff"/><path d="M329,406.4l-8.36,6.21a1.51,1.51,0,0,1-2.41-1.33l1.45-17.73a3.73,3.73,0,0,0-1.88-3.61,38.28,38.28,0,0,0-39,1.88c-32.59,21.36-31.57,77.61-30.45,94.73,30.09.23,72.07-5.35,97.93-33.85-1.52-20.6-6.06-35-11.72-45.12A3.8,3.8,0,0,0,329,406.4Z" style="fill:#7e9aef"/><path d="M248.82,213.49a4.63,4.63,0,0,0,4.63,4.63H372.14a11.74,11.74,0,0,0-6.89-9.26H253.45A4.63,4.63,0,0,0,248.82,213.49Z" style="fill:#9b9b6e"/></g></svg>