<?xml version="1.0" encoding="UTF-8" standalone="no"?> <svg xmlns="http://www.w3.org/2000/svg" xmlns:xlink="http://www.w3.org/1999/xlink" viewBox="0 0 512 512"><defs><linearGradient id="linear-gradient" x1="252.17" y1="357.13" x2="321.21" y2="-179.78" gradientUnits="userSpaceOnUse"><stop offset="0" stop-color="#cc5697"/><stop offset="1" stop-color="#8e3979"/></linearGradient><linearGradient id="linear-gradient-2" x1="298.49" y1="239.81" x2="298.49" y2="19.36" gradientUnits="userSpaceOnUse"><stop offset="0.01" stop-color="#ffc3b0"/><stop offset="1" stop-color="#e8897b"/></linearGradient></defs><title>king</title><g id="king"><path d="M131.68,315.74s-19.47,8.9-18.92,26.08A22.79,22.79,0,0,0,118.69,356c4.22,4.82,11.83,13.58,19.06,22.17a117.44,117.44,0,0,1,20.69,35.57c10.64,29.48,44.36,92.19,138.65,92.2a51.37,51.37,0,0,0,20.8-4.41c27-11.95,92.67-52.67,80-162.26,0,0-26.65-1.65-51,58.32a32.41,32.41,0,0,1-27,20.39c-25.93,2.24-71.49-5.51-113.21-71.32-9-14.22-22.09-25.59-37.93-31.3C156.75,311,143,309.13,131.68,315.74Z" style="fill:#59e1ff"/><path d="M397.91,339.27s-26.65-1.65-51,58.32a32.41,32.41,0,0,1-27,20.39c-20.1,1.73-52-2.55-84.73-35.18l-7.67,4s34,52.34,78.83,70.46a14.36,14.36,0,0,0,8.62.62,82.69,82.69,0,0,0,31.66-15.09c4.8-3.74,11.72.73,10.41,6.68a186.68,186.68,0,0,1-11.62,35.72C374.23,463.07,407.2,419.76,397.91,339.27Z" style="fill:#30a7ea"/><path d="M232.9,261.56s-35-20.63-60.45,20.63c0,0-47.33-9.56-63.08,31.66a8,8,0,0,0,3.88,9.87h0a8,8,0,0,0,7.68-.09c7.55-4.22,22.74-15.06,38.57-2.59,0,0,26.39,17.88,47.43,45.23a256.73,256.73,0,0,0,26.92,30.41c17.89,16.89,45.47,38.9,73.43,45.56a11.14,11.14,0,0,0,6.41-.42c10.12-3.67,40.06-18.56,56.83-69.81a46.68,46.68,0,0,1,12.33-19.74c4-3.77,9.17-7.12,15.13-8.09a6,6,0,0,0,4.94-7.45c-1.88-6.73-6.59-16.08-18.44-19.05,0,0-1.34-24.46-24.18-33.58Z" style="fill:url(#linear-gradient)"/><path d="M370.87,370.93A40,40,0,0,1,377,358.72c4.35-5.68,11.62-13,21-14.54a6,6,0,0,0,4.94-7.45c-1.88-6.73-6.59-16.08-18.44-19.05,0,0-1.34-24.46-24.18-33.58l-20.93-3.7-19.65,38.24c17.71,3.27,21.36,15.71,21.79,23.75a13.63,13.63,0,0,0,5.95,10.51c19.67,13.64,11.66,41.89,8,52A149.23,149.23,0,0,0,370.87,370.93Z" style="fill:#a03774"/><path d="M269.56,315.74s30.5,20.18,31.91,50.64h8.77s-3-29,18.38-46.79v-3.85Z" style="fill:#a03774"/><path d="M206.73,118.54s-24.22,9-24.22,35.93v49.07s-.84,12.94-10.44,13.78a13.27,13.27,0,0,1-8.37-1.9,6.11,6.11,0,0,0-9.48,4.56,33.45,33.45,0,0,0,2.53,16.17A36.21,36.21,0,0,0,167.1,250c10.71,9,35.13,22.41,73.82,5.33V118.54Z" style="fill:#e6e6f8"/><path d="M361,214.43h-4.62V176.29H361a19.07,19.07,0,0,1,19.07,19.07h0A19.07,19.07,0,0,1,361,214.43Z" style="fill:#c66760"/><rect x="236.68" y="118.54" width="123.62" height="153.75" style="fill:url(#linear-gradient-2)"/><path d="M260.18,135.47h59.93a15.24,15.24,0,0,1,15.24,15.24V272.29H360.3V118.54H260.18Z" style="fill:#e8897b"/><path d="M301.47,160.07a5.61,5.61,0,1,1-5.61-5.6A5.61,5.61,0,0,1,301.47,160.07Z" style="fill:#333345"/><path d="M349.79,160.07a5.6,5.6,0,1,1-5.6-5.6A5.6,5.6,0,0,1,349.79,160.07Z" style="fill:#333345"/><path d="M219.26,204.37c1.67,55.94-49.83,47.43-49.88,47.43,11.69,8.78,35.38,19.48,71.54,3.52V204.37Z" style="fill:#b3b3c5"/><path d="M265.18,118.54s6.14,34.32-19.73,47.13v61.44A28.48,28.48,0,0,0,256,249.7a34.15,34.15,0,0,0,16.4,6.87A6,6,0,0,0,279,252c2.51-9.58,11.17-30.12,39.77-34.84a53.45,53.45,0,0,1,28.46,2.65c11.34,4.51,24.68,14.6,25.24,37.14h0a66.63,66.63,0,0,1-66.63,66.63H294.11A66.63,66.63,0,0,1,227.48,257V118.54Z" style="fill:#e6e6f8"/><path d="M222.86,214.43h4.62V176.29h-4.62a19.07,19.07,0,0,0-19.07,19.07h0A19.07,19.07,0,0,0,222.86,214.43Z" style="fill:#e8897b"/><path d="M337.63,200.33H326.39a6.67,6.67,0,0,1-6.67-6.67h0a6.67,6.67,0,0,1,6.67-6.67h11.24a6.67,6.67,0,0,1,6.67,6.67h0A6.66,6.66,0,0,1,337.63,200.33Z" style="fill:#e8897b"/><path d="M372.48,257c-.56-22.54-13.9-32.63-25.24-37.14a48.07,48.07,0,0,0-11.88-3c.12.26,27.8,57.95,1.84,98.93A66.61,66.61,0,0,0,372.48,257Z" style="fill:#b3b3c5"/><path d="M249.59,74.93C239.68,70.13,235.8,58,240,47.82A31.15,31.15,0,0,1,243.15,42a5.65,5.65,0,0,0,0-6.52,159,159,0,0,1-10.09-16.52,3.81,3.81,0,0,0-6.72,0,159,159,0,0,1-10.09,16.52,5.65,5.65,0,0,0,0,6.52,31.15,31.15,0,0,1,3.17,5.84c4.18,10.2.3,22.31-9.61,27.11-3.58,1.73-11,3.25-17,3.25L195.6,99h68.2l3.28-22.36C261.07,76.68,253.17,76.66,249.59,74.93Z" style="fill:#ad6d2a"/><path d="M187.42,135.47h53.5V118.54H206.73A41.55,41.55,0,0,0,187.42,135.47Z" style="fill:#b3b3c5"/><path d="M265.26,135.47a62,62,0,0,0-.08-16.93h-37.7v16.93Z" style="fill:#b3b3c5"/><path d="M347.27,74.93c-9.92-4.8-13.8-16.91-9.62-27.11A31.15,31.15,0,0,1,340.82,42a5.63,5.63,0,0,0,0-6.52,157.27,157.27,0,0,1-10.09-16.52,3.82,3.82,0,0,0-6.73,0,157.27,157.27,0,0,1-10.09,16.52,5.63,5.63,0,0,0,0,6.52,31.15,31.15,0,0,1,3.17,5.84c4.18,10.2.3,22.31-9.62,27.11-3.57,1.73-11,3.25-17,3.25L293.27,99h68.21l3.27-22.36C358.75,76.68,350.84,76.66,347.27,74.93Z" style="fill:#ad6d2a"/><path d="M357.27,34.36a8.16,8.16,0,0,0-.08,9.43,43.57,43.57,0,0,1,4.72,8.81c5.71,14.34-.33,32-14.29,38.56-5.07,2.38-11.59,4-20,4-8.59,0-15.23-1.65-20.34-4.13-14.2-6.87-19.76-24.22-13.77-38.82A44.62,44.62,0,0,1,298,43.8a8.14,8.14,0,0,0-.05-9.43A235.89,235.89,0,0,1,282.17,8.11a3.82,3.82,0,0,0-6.77,0,235.33,235.33,0,0,1-15.8,26.24,8.19,8.19,0,0,0-.07,9.46,44.36,44.36,0,0,1,4.7,8.76c5.82,14.59.17,31.62-14,38.44-5.11,2.47-11.73,4.11-20.3,4.11-8.33,0-14.82-1.55-19.87-3.9C196,84.68,189.93,67,195.66,52.6a44.08,44.08,0,0,1,4.72-8.81,8.14,8.14,0,0,0-.08-9.43,214.47,214.47,0,0,1-12-19.28A3.82,3.82,0,0,0,181.11,17V115.8a9.72,9.72,0,0,0,9.72,9.72H366.74a9.72,9.72,0,0,0,9.72-9.72V17a3.82,3.82,0,0,0-7.15-1.89A214.47,214.47,0,0,1,357.27,34.36Z" style="fill:#ffca95"/><path d="M366.74,125.52a9.72,9.72,0,0,0,9.72-9.72V17a3.82,3.82,0,0,0-7.15-1.89,214.47,214.47,0,0,1-12,19.28,8.16,8.16,0,0,0-.08,9.43,43.57,43.57,0,0,1,4.72,8.81c5.71,14.34-.33,32-14.29,38.56-5.07,2.38-11.59,4-20,4-8.59,0-15.23-1.65-20.34-4.13-14.2-6.87-19.76-24.22-13.77-38.82A44.62,44.62,0,0,1,298,43.8a8.14,8.14,0,0,0-.05-9.43A235.89,235.89,0,0,1,282.17,8.11a3.78,3.78,0,0,0-3.38-2v105s-.5,14.45,16.44,14.45h71.51Z" style="fill:#fbb04d"/><ellipse cx="305.33" cy="384.77" rx="21.11" ry="23.91" style="fill:#fbb04d"/><path d="M305.09,382.46c-.72,4.13-4.26,7-7.91,6.32s-6-4.5-5.28-8.63,4.26-7,7.91-6.32S305.81,378.34,305.09,382.46Z" style="fill:#ffca95"/></g></svg>