<?xml version="1.0" encoding="UTF-8" standalone="no"?> <svg xmlns="http://www.w3.org/2000/svg" xmlns:xlink="http://www.w3.org/1999/xlink" viewBox="0 0 512 512"><defs><linearGradient id="linear-gradient" x1="256" y1="94.19" x2="256" y2="719.8" gradientUnits="userSpaceOnUse"><stop offset="0.01" stop-color="#b7858f"/><stop offset="1" stop-color="#8e545c"/></linearGradient><linearGradient id="linear-gradient-2" x1="260.77" y1="213.22" x2="260.77" y2="-35.54" gradientUnits="userSpaceOnUse"><stop offset="0.01" stop-color="#ffe1ff"/><stop offset="1" stop-color="#e5b4f7"/></linearGradient></defs><title>grim_Reaper</title><g id="grim_reaper"><path d="M140.68,238.05s1.91-95.29,4.77-124.83,25.73-103.87,124.83-102c0,0,96,2.77,102.67,121,.21,3.77.21,7.54.14,11.31-.34,18.59-1.31,78.8-.29,108.82a41.15,41.15,0,0,0,2.64,13.49,51.45,51.45,0,0,1,3.45,16,69.64,69.64,0,0,0,6.43,27.34c6,12.56,15.53,29.74,27.4,42.87,7.52,8.33,11.2,19.66,8.91,30.65a28.66,28.66,0,0,1-10.32,17.33s31.45,37.16-7.62,74.33c0,0-15.25,15.24-36.87,23.56a43.59,43.59,0,0,1-18.45,2.74c-36.92-2.42-182.92-20.29-253.23-151.87a51.18,51.18,0,0,1-6.06-30.32c1.57-12.59,8.24-26.87,29.68-29.93,0,0-6-20.26,9.92-29.49a24.87,24.87,0,0,0,12-21Z" style="fill:url(#linear-gradient)"/><path d="M403.69,474.38c39.07-37.17,7.62-74.33,7.62-74.33a28.69,28.69,0,0,0,10.32-17.34c2.29-11-1.37-22.29-8.88-30.6-12-13.26-21.56-30.66-27.6-43.26a68.49,68.49,0,0,1-6.25-26.94A51.74,51.74,0,0,0,375.48,266a42.41,42.41,0,0,1-2.69-13.82c-1-30.11,0-90,.3-108.58.07-3.77.07-7.54-.14-11.31-6.64-118.25-102.67-121-102.67-121-4.11-.08-8,0-11.89.19,9.82,5.32,22.23,14.76,27.86,30.16A16.31,16.31,0,0,1,277.65,62c-20.75,9.31-61.36,40.36-54.3,139.83,0,0-11.53,84.33,64.87,139.71A40.31,40.31,0,0,1,304,366.49a80.68,80.68,0,0,1,.63,28.62,16.23,16.23,0,0,1-22.38,12.22,83.2,83.2,0,0,1-13.81-7.55,6.55,6.55,0,0,0-7.25-.37,6.23,6.23,0,0,0-1.25,9.44,169.76,169.76,0,0,0,25.37,22.93s-23.13,35.33-86.83,23.46c62.54,36.51,127,43.94,149.85,45.44a43.59,43.59,0,0,0,18.45-2.74C388.44,489.62,403.69,474.38,403.69,474.38Z" style="fill:#8e545c"/><path d="M306.66,83c15.48,7.37,29.52,21.44,33.57,47.79.44,2.9.64,5.83.79,8.75l5.89,116.34a207.17,207.17,0,0,0,8,45.79c3.36,11.9,4.05,26.94-11.16,32a15.11,15.11,0,0,1-4.43.73c-13.88.43-83.46-2.76-132-104.18a94,94,0,0,1-7.77-24.5c-3.63-20.87-7.17-60.76,10.25-92.06C228.78,79.62,271.45,66.21,306.66,83Z" style="fill:#602e3a"/><path d="M293,78.06c-32-8.13-66.65,5.86-83.23,35.64-16.13,29-14.28,65.3-11,87.09,9.33,8,20.42,9.41,27.8,9.19a9.47,9.47,0,0,1,9.6,8l2,12.47a7,7,0,0,0,6.94,5.93h8.13a7,7,0,0,0,7-6.38l1.34-14.46a6.52,6.52,0,0,1,13-.07l1.52,14.61a7,7,0,0,0,7,6.3h6.88a7,7,0,0,0,7-7V217.11a6.52,6.52,0,0,1,6.23-6.51l.89,0a6.52,6.52,0,0,1,6.82,6.51v9.8a7,7,0,1,0,14.05,0V136.21C325,106.25,307,87.87,293,78.06Z" style="fill:url(#linear-gradient-2)"/><path d="M263.31,131.16c-8.32-.06-24.6,1.91-31.32,17.27a25.24,25.24,0,0,0-1.22,17.38l.12.39c3.77,11.81,18.33,16.12,28.17,8.58.4-.3.8-.62,1.21-.94,10.22-8.09,15.29-21.49,12-34.1a28.1,28.1,0,0,0-1-3.18A8.57,8.57,0,0,0,263.31,131.16Z" style="fill:#602e3a"/><path d="M299.64,135.72c5.95,1.2,16.58,5.12,17.25,17.84a14.17,14.17,0,0,1-1.74,7.28l-.12.23a11.42,11.42,0,0,1-18.5,2.11l-.41-.46c-5.59-6.3-7.36-15.46-3.68-23,.15-.3.3-.6.47-.9A6.24,6.24,0,0,1,299.64,135.72Z" style="fill:#602e3a"/><path d="M289.79,173.51a56.89,56.89,0,0,1,4.12,7.54,4.09,4.09,0,0,1-3.79,5.7h-5.94a4.1,4.1,0,0,1-3.95-5.23c.57-2,1.3-4.44,2.17-7.09A4.12,4.12,0,0,1,289.79,173.51Z" style="fill:#602e3a"/><path d="M168.61,316.8c12.88,11.87,32.53,28.95,48.9,38.73a7.54,7.54,0,0,1,1.41,12h0a7.5,7.5,0,0,1-10.19.16c-9.42-8.45-29.65-27.51-43.89-47.53A2.53,2.53,0,0,1,168.61,316.8Z" style="fill:#8e545c"/><path d="M322,116.19c-5.64-18.45-18.42-30.73-29-38.13a74.65,74.65,0,0,0-75.81,24.78C238.56,93.73,284.38,80.86,322,116.19Z" style="fill:#e5b4f7"/></g></svg>