<?xml version="1.0" encoding="UTF-8" standalone="no"?> <svg xmlns="http://www.w3.org/2000/svg" xmlns:xlink="http://www.w3.org/1999/xlink" viewBox="0 0 512 512"><defs><linearGradient id="linear-gradient" x1="311.57" y1="409.22" x2="345.33" y2="516.49" gradientUnits="userSpaceOnUse"><stop offset="0.01" stop-color="#ffc3b0"/><stop offset="1" stop-color="#e8897b"/></linearGradient><linearGradient id="linear-gradient-2" x1="295.46" y1="288.18" x2="295.46" y2="188.93" xlink:href="#linear-gradient"/><linearGradient id="linear-gradient-3" x1="328.49" y1="275.14" x2="328.49" y2="32.44" xlink:href="#linear-gradient"/><linearGradient id="linear-gradient-4" x1="242.06" y1="213.88" x2="177.59" y2="122.6" xlink:href="#linear-gradient"/></defs><title>elf_archer</title><g id="elf_archer"><path d="M430.85,368.38s.43,45.12-10,84.6l-40.48-90.67S415.66,358.84,430.85,368.38Z" style="fill:#e8897b"/><path d="M226.5,469.47s9.47,26.77,41.14,33.87c11.46,2.56,23.52,1.59,34-3.63a45.33,45.33,0,0,0,19.07-17.36,3.6,3.6,0,0,1,6.12-.05A48.84,48.84,0,0,0,347,499.69c15.14,7.13,32.74,6,47.39-2.11a55.47,55.47,0,0,0,28-36.71,67,67,0,0,0,0-29.49c-3.58-17-25.56-50.74-42-69.07C380.39,362.31,295.92,381.83,226.5,469.47Z" style="fill:url(#linear-gradient)"/><path d="M422.39,431.38c-.14-.69-.31-1.44-.47-2.18-16.44-.56-57.64-6.93-63.23-56C324,386.69,269.77,414.85,226.5,469.47c0,0,9.47,26.77,41.14,33.87,11.46,2.56,23.52,1.59,34-3.63a45.33,45.33,0,0,0,19.07-17.36,3.6,3.6,0,0,1,6.12-.05A48.84,48.84,0,0,0,347,499.69c15.14,7.13,32.74,6,47.39-2.11a55.47,55.47,0,0,0,28-36.71A67,67,0,0,0,422.39,431.38Z" style="fill:#b56d95"/><path d="M422.39,431.38c-.14-.69-.31-1.44-.47-2.18-8.82-.3-24.75-2.28-38.49-11.6,2.75,18,5.82,69.19-46.67,75.67a49.66,49.66,0,0,0,10.2,6.42c15.14,7.13,32.74,6,47.39-2.11a55.47,55.47,0,0,0,28-36.71A67,67,0,0,0,422.39,431.38Z" style="fill:#934a74"/><path d="M321.39,435.83A43.32,43.32,0,0,0,310,422a1.48,1.48,0,0,1,1.18-2.64l11.11,2.31a87.76,87.76,0,0,1,9.54-6.1,1.49,1.49,0,0,1,1.93,2.18c-3.29,4.43-7.48,11-9.26,17.74A1.67,1.67,0,0,1,321.39,435.83Z" style="fill:#934a74"/><path d="M311.59,439.38a4,4,0,0,0-7,2c-6.71,40.68-40.84,54-50.42,57.22a60.4,60.4,0,0,0,13.44,4.75c11.46,2.56,23.52,1.59,34-3.63a45.78,45.78,0,0,0,17.23-14.55,41.68,41.68,0,0,0,2.81-16.54C321.27,454.28,316,444.83,311.59,439.38Z" style="fill:#934a74"/><path d="M260.13,37.18S244.69,2.69,203,7.82a77,77,0,0,0-44.39,21.8C145,43,129.71,65.75,131.11,99.78a95.63,95.63,0,0,0,1,9.84c1.52,10.53,5.24,34.71,9.26,48A55,55,0,0,1,143.62,170l0,.72c1.45,22.65-11.19,44.32-32.19,52.93a73.51,73.51,0,0,1-28.28,5.13,10.7,10.7,0,0,0-8.9,16.61c6.11,9.42,18,20.21,41.18,26,15.42,3.85,31.78,3.43,46.5-2.6,8.38-3.44,17-8.74,22.31-16.86,0,0,1.8,13.7,16.07,15,6.6.62,13.06-1.91,18.19-6.12,7.27-6,17.78-17.24,19.16-33.25C237.7,227.57,195,132.26,260.13,37.18Z" style="fill:#ffe19f"/><path d="M186.89,258.78a16.8,16.8,0,0,0,13.46,8.16c6.6.62,13.06-1.91,18.19-6.12,7.27-6,17.78-17.24,19.16-33.25a152.71,152.71,0,0,1-7.35-22.69C225.3,227.37,213.4,250.34,186.89,258.78Z" style="fill:#d8a648"/><path d="M232.85,474.8C256,450.12,343,363.14,413.61,369.12a27.32,27.32,0,0,1,14.6,5.48l.84.68a4.87,4.87,0,0,0,7.66-1.92c4.88-11.91,8.59-35.64-36.91-39.28,0,0,5.23-25.27-43.65-20.79,0,0-5.27-38.12-68.85-39.44,0,0-78.54-1.73-67.4,41.89,0,0-79.83,16.62-84.49,74.06a24.87,24.87,0,0,0,.33,6.09c2.36,14,15.51,65.92,82.23,83.28A15.19,15.19,0,0,0,232.85,474.8Z" style="fill:#cfc46e"/><path d="M399.8,334.08s5.23-25.27-43.65-20.79a.65.65,0,0,1,0-.1s0-.05,0-.07,0-.13,0-.24,0-.13,0-.19,0-.18-.07-.3-.05-.21-.07-.32,0-.23-.09-.36-.07-.27-.11-.4-.07-.28-.12-.43-.1-.34-.15-.51-.09-.31-.15-.47-.13-.4-.2-.6-.12-.35-.19-.53-.16-.44-.25-.66-.15-.39-.23-.59-.2-.48-.31-.73l-.27-.62c-.12-.27-.25-.54-.38-.81l-.32-.65c-.14-.28-.29-.57-.45-.86l-.37-.68c-.16-.3-.34-.6-.52-.91l-.42-.7c-.2-.32-.4-.64-.62-1s-.31-.48-.47-.72-.46-.65-.7-1-.36-.49-.54-.74-.51-.67-.78-1l-.62-.76c-.28-.34-.58-.67-.88-1s-.45-.49-.68-.74-.65-.7-1-1-.49-.5-.74-.74l-1.11-1.05-.82-.73c-.39-.35-.8-.69-1.21-1l-.91-.72c-.43-.34-.87-.68-1.33-1s-.66-.47-1-.71c-.48-.33-1-.67-1.46-1-.35-.23-.71-.45-1.07-.67-.52-.33-1.05-.66-1.6-1l-1.15-.64c-.57-.32-1.15-.64-1.75-1l-1.23-.6c-.62-.31-1.25-.61-1.9-.91l-1.32-.56c-.68-.29-1.35-.58-2.06-.86-.45-.18-.93-.34-1.39-.51-.74-.28-1.48-.55-2.25-.81-.46-.16-1-.3-1.44-.45-.81-.26-1.61-.51-2.46-.75-.47-.14-1-.25-1.45-.38-.9-.24-1.79-.48-2.72-.69-.46-.11-1-.2-1.41-.3-1-.22-2-.44-3.05-.63l-1.13-.19a122.22,122.22,0,0,0-13.62-1.58l-.24,0h0c-1.93-.12-3.93-.2-6-.25a157.42,157.42,0,0,0-19.21,1.09l-.5.76c-15.58,24.06,1,56.52,29.65,57.59,12.38.46,24.83-3.07,35.09-7.28A17.44,17.44,0,0,0,343,330.94c10.64.87,28.38,4.17,26.09,16.58a14.19,14.19,0,0,1-6,8.81c-8.8,6.22-33.49,24.89-52.43,50.38,32.43-22.49,69.75-40.6,103.35-37.55a26.79,26.79,0,0,1,13.72,5.14c.42.31.83.64,1.24,1a4.87,4.87,0,0,0,7.66-1.92C441.59,361.45,445.3,337.72,399.8,334.08Z" style="fill:#a19145"/><path d="M274,435.35c-51.71,21.82-104.11,2.84-126.89-7.92C158,446.8,178.73,469,218,479.17a15.19,15.19,0,0,0,14.88-4.37A559.26,559.26,0,0,1,274,435.35Z" style="fill:#a19145"/><path d="M262.43,233.4h66.05a0,0,0,0,1,0,0V290a33,33,0,0,1-33,33h0a33,33,0,0,1-33-33V233.4A0,0,0,0,1,262.43,233.4Z" style="fill:url(#linear-gradient-2)"/><path d="M264,233.4c9.79,14,36.35,50.43,56.59,78.07a32.86,32.86,0,0,0,7.92-21.42V233.4Z" style="fill:#e8897b"/><path d="M266.36,233.61s27.86,42.19,75.75,60.27a10.68,10.68,0,0,0,12.7-4.18c9.16-14,28.83-48.29,35.6-93.49a19.79,19.79,0,0,0-1.85-11.52L339.77,84.25l-24.89,1.46L269.49,134Z" style="fill:url(#linear-gradient-3)"/><path d="M325.56,200.45h0a5.39,5.39,0,0,1-5.39-5.39V183.75a5.39,5.39,0,0,1,5.39-5.39h0a5.4,5.4,0,0,1,5.39,5.39v11.31A5.4,5.4,0,0,1,325.56,200.45Z" style="fill:#333345"/><path d="M346.56,215.56H361a3.05,3.05,0,0,1,2.73,4.44c-1.68,3.16-4.72,6.86-9.73,6.86a12.1,12.1,0,0,1-10.28-7A3.07,3.07,0,0,1,346.56,215.56Z" style="fill:#e8897b"/><path d="M339.77,84.25l-8.67.51-2.61,14.65c-1.94,1.18-14.23,57.65,31.75,91.87a17,17,0,0,1,7,12.89c.77,17.2-1,56.75-29.5,88,1.49.62,3,1.22,4.52,1.79a10.62,10.62,0,0,0,12.58-4.21c9.15-14,28.83-48.29,35.6-93.5a19.78,19.78,0,0,0-1.85-11.52Z" style="fill:#e8897b"/><path d="M300.23,119.64,324,99.34s-2.29,64.88,63.36,96.93c0,0-1.53,20.61-4.58,31.3,0,0,33.58.76,32.06-47.32,0,0,47.32-84-50.38-138.16,0,0-58.77-65.64-122.13,6.11l-9.71,14.43a137.57,137.57,0,0,0-23.39,72.55c-1.24,40.86,6.09,96.7,52.8,110a9.24,9.24,0,0,0,11.6-9V194.75s33.61-18.82,22-60.25A14.47,14.47,0,0,1,300.23,119.64Z" style="fill:#ffe19f"/><path d="M373.51,47.45c14.41,18.11,43.83,64.29,19.33,116A21.85,21.85,0,0,1,375,176a60.49,60.49,0,0,1-18.81-1.57,117.45,117.45,0,0,0,31.22,21.85s-1.53,20.61-4.58,31.3c0,0,33.58.76,32.06-47.32C414.85,180.25,459.15,101.64,373.51,47.45Z" style="fill:#edc063"/><path d="M230.73,43.78h0a11.19,11.19,0,0,1,15.84.75c8.58,9.35,25.91,23.28,55.81,28a3.77,3.77,0,0,1,3.18,4.31h0A3.74,3.74,0,0,1,302,80c-10.31.4-44.4.12-70.27-18.9A11.24,11.24,0,0,1,230.73,43.78Z" style="fill:#a19145"/><path d="M398.24,50.34h0a6.79,6.79,0,0,0-10,1.65c-4.55,7-14.23,17.68-32.75,23.08a2.51,2.51,0,0,0-1.61,3.16h0a2.54,2.54,0,0,0,2.56,1.88c6.58-.48,28.16-3.15,42.77-17.93A8,8,0,0,0,398.24,50.34Z" style="fill:#a19145"/><path d="M194.68,129.69a3.49,3.49,0,0,0-5.27,3.86c3.73,13,10.69,37.72,14.67,54.86,0,0,5.84,29.16,32.17,35.84a11,11,0,0,0,13.59-8.83,53.38,53.38,0,0,0-.28-18.8A48.56,48.56,0,0,0,242.77,180C235.72,168.79,219.65,146.39,194.68,129.69Z" style="fill:url(#linear-gradient-4)"/><path d="M226.4,180.77a40,40,0,0,1,9.76,22.81,2.53,2.53,0,0,1-3.87,2.31c-3.61-2.37-8.31-6.9-7.69-14.25a35.68,35.68,0,0,0-1.26-9.28A1.77,1.77,0,0,1,226.4,180.77Z" style="fill:#e8897b"/><path d="M237.32,336.87c5.81,8.58,17.81,20.15,41.41,24a3.38,3.38,0,0,1,.08,6.69,58.74,58.74,0,0,1-27.63-2c-8.11-2.53-14.93-8.28-17.93-16.22a34.3,34.3,0,0,1-2.16-10.43A3.4,3.4,0,0,1,237.32,336.87Z" style="fill:#a19145"/></g></svg>